<?xml version="1.0" encoding="UTF-8"?>
<svg xmlns="http://www.w3.org/2000/svg" xmlns:xlink="http://www.w3.org/1999/xlink" width="898pt" height="65pt" viewBox="0 0 898 65" version="1.1">
<g id="surface1">
<path style=" stroke:none;fill-rule:nonzero;fill:rgb(0%,0%,0%);fill-opacity:1;" d="M 715.554688 2.640625 C 715.425781 2.96875 714.898438 4.175781 714.371094 5.332031 C 711.203125 12.277344 707.128906 18.160156 701.871094 23.394531 C 700.539062 24.703125 699.457031 25.832031 699.457031 25.933594 C 699.457031 26.011719 699.707031 26.210938 700.035156 26.335938 C 700.335938 26.488281 701.542969 27.367188 702.699219 28.273438 C 703.859375 29.179688 704.890625 29.933594 704.988281 29.933594 C 705.089844 29.933594 706.019531 28.929688 707.027344 27.671875 L 708.886719 25.429688 L 709.011719 40.449219 L 709.140625 55.464844 L 709.84375 56.875 C 710.546875 58.332031 711.503906 59.164062 713.289062 59.894531 C 714.648438 60.421875 746.160156 60.546875 748.726562 60.019531 C 751.921875 59.339844 753.65625 57.65625 755.316406 53.65625 C 756.726562 50.257812 756.726562 50.410156 755.617188 50.207031 C 754.160156 49.984375 752.171875 48.953125 750.914062 47.792969 C 749.609375 46.585938 749.835938 46.386719 749.15625 49.679688 C 748.578125 52.523438 748.25 53.578125 747.746094 54.082031 C 746.816406 55.011719 745.105469 55.113281 730.746094 55.039062 C 718.292969 54.964844 716.859375 54.914062 716.15625 54.535156 C 714.699219 53.753906 714.546875 52.976562 714.546875 47.066406 L 714.546875 41.757812 L 736.804688 41.757812 L 736.804688 22.890625 L 723.929688 22.890625 C 716.835938 22.890625 711.027344 22.839844 711.027344 22.765625 C 711.027344 22.714844 712.058594 21.253906 713.3125 19.570312 C 714.570312 17.859375 715.652344 16.324219 715.730469 16.148438 C 715.828125 15.921875 719.074219 15.847656 730.820312 15.847656 L 745.785156 15.847656 L 745.632812 18.035156 C 745.558594 19.269531 745.308594 23.820312 745.105469 28.171875 C 744.578125 39.390625 744.550781 39.519531 742.464844 39.972656 C 741.761719 40.121094 740.527344 40.246094 739.75 40.246094 C 737.734375 40.246094 737.535156 40.449219 738.214844 41.605469 C 738.515625 42.132812 739.070312 43.46875 739.472656 44.597656 C 740.152344 46.585938 740.226562 46.664062 741.007812 46.738281 C 742.113281 46.839844 746.5625 45.679688 747.644531 45.027344 C 748.675781 44.375 749.609375 42.839844 749.984375 41.128906 C 750.136719 40.421875 750.539062 34.335938 750.890625 27.542969 C 751.269531 20.777344 751.644531 14.4375 751.769531 13.457031 C 751.894531 12.5 752.023438 11.496094 752.023438 11.269531 C 752.023438 10.839844 751.015625 10.816406 735.546875 10.765625 L 719.074219 10.691406 L 720.179688 9.03125 C 720.785156 8.125 721.816406 6.890625 722.445312 6.289062 L 723.601562 5.183594 L 721.386719 4.402344 C 720.179688 3.949219 718.421875 3.246094 717.488281 2.816406 L 715.777344 2.039062 Z M 731.148438 32.324219 L 731.148438 36.726562 L 714.546875 36.726562 L 714.546875 27.921875 L 731.148438 27.921875 Z M 731.148438 32.324219 "/>
<path style=" stroke:none;fill-rule:nonzero;fill:rgb(0%,0%,0%);fill-opacity:1;" d="M 171.304688 2.539062 C 170.953125 2.667969 169.71875 3.019531 168.539062 3.320312 C 167.355469 3.597656 166.273438 3.925781 166.148438 4.050781 C 166.023438 4.152344 166.402344 5.28125 166.929688 6.589844 C 167.480469 7.875 168.011719 9.179688 168.109375 9.484375 L 168.285156 10.0625 L 143.109375 10.0625 L 143.109375 22.765625 L 146.253906 22.691406 L 149.398438 22.613281 L 149.398438 15.09375 L 170.097656 15.144531 L 190.773438 15.21875 L 190.847656 18.5625 L 190.921875 21.910156 L 193.941406 21.835938 L 196.984375 21.757812 L 197.007812 15.921875 L 197.058594 10.0625 L 175.179688 10.0625 L 174.222656 7.269531 C 173.015625 3.796875 172.363281 2.265625 172.109375 2.289062 C 172.007812 2.289062 171.632812 2.414062 171.304688 2.539062 Z M 171.304688 2.539062 "/>
<path style=" stroke:none;fill-rule:nonzero;fill:rgb(0%,0%,0%);fill-opacity:1;" d="M 319.042969 3.296875 C 317.9375 3.699219 316.78125 4.023438 316.476562 4.023438 C 315.773438 4.023438 315.75 4.503906 316.378906 5.734375 C 316.78125 6.539062 317.761719 9.332031 318.289062 11.292969 L 318.464844 11.875 L 310.644531 11.796875 L 302.820312 11.695312 L 302.820312 16.777344 L 308.605469 16.652344 C 311.800781 16.578125 314.390625 16.601562 314.390625 16.726562 C 314.390625 16.828125 313.9375 17.835938 313.410156 18.992188 C 310.84375 24.476562 307.070312 28.726562 304.128906 29.429688 L 302.894531 29.707031 L 303.976562 32.273438 C 304.582031 33.683594 305.085938 34.992188 305.085938 35.191406 C 305.085938 35.367188 305.234375 35.46875 305.460938 35.367188 C 306.265625 35.066406 310.617188 34.386719 310.792969 34.5625 C 311.121094 34.863281 311.171875 38.914062 310.894531 42.183594 C 310.492188 47.242188 309.132812 50.738281 306.367188 53.855469 C 305.210938 55.164062 302.394531 57.402344 300.28125 58.6875 L 298.847656 59.515625 L 300.429688 60.21875 C 301.511719 60.671875 302.417969 61.328125 303.199219 62.15625 L 304.378906 63.414062 L 305.664062 62.410156 C 307.449219 61.027344 310.140625 58.359375 311.5 56.597656 C 314.691406 52.449219 316 47.46875 316.328125 38.285156 L 316.476562 33.707031 L 317.636719 33.707031 C 318.265625 33.707031 319.21875 33.632812 319.746094 33.554688 L 320.679688 33.378906 L 320.679688 44.550781 C 320.679688 51.242188 320.804688 56.171875 320.953125 56.851562 C 321.332031 58.511719 322.238281 59.71875 323.621094 60.398438 C 324.726562 60.949219 325.207031 61 329.203125 61.074219 C 334.082031 61.175781 335.039062 61.027344 336.371094 59.84375 C 337.578125 58.785156 338.386719 57.300781 339.417969 54.285156 C 340.398438 51.390625 340.445312 51.59375 338.410156 51.089844 C 337.855469 50.9375 336.625 50.359375 335.71875 49.804688 C 334.789062 49.253906 333.984375 48.800781 333.90625 48.800781 C 333.808594 48.800781 333.757812 49.175781 333.757812 49.65625 C 333.757812 50.9375 333.078125 54.183594 332.648438 55.039062 C 332.148438 55.996094 331.84375 56.09375 329.480469 56.09375 C 327.746094 56.09375 327.417969 56.019531 326.789062 55.492188 L 326.085938 54.886719 L 326.085938 33.078125 L 328.074219 32.851562 C 329.734375 32.675781 330.109375 32.703125 330.335938 33.003906 C 330.488281 33.230469 331.167969 34.160156 331.820312 35.066406 L 333.027344 36.75 L 334.210938 35.894531 C 334.863281 35.417969 336.046875 34.636719 336.851562 34.160156 L 338.285156 33.28125 L 335.894531 29.808594 C 333.40625 26.210938 329.808594 21.507812 328.976562 20.753906 C 328.5 20.324219 328.425781 20.324219 327.042969 21.304688 C 326.238281 21.859375 325.105469 22.5625 324.5 22.867188 L 323.417969 23.417969 L 324 24.222656 C 324.351562 24.675781 325.207031 25.808594 325.933594 26.789062 L 327.269531 28.550781 L 325.28125 28.726562 C 322.867188 28.953125 312.277344 29.40625 312.175781 29.304688 C 311.949219 29.078125 318.589844 21.53125 319.921875 20.5 L 321.433594 19.292969 L 319.445312 18.1875 C 318.339844 17.582031 317.359375 16.953125 317.257812 16.804688 C 317.132812 16.628906 320.226562 16.578125 327.820312 16.628906 L 338.535156 16.726562 L 338.535156 11.695312 L 329.054688 11.746094 C 323.820312 11.773438 319.671875 11.746094 319.796875 11.695312 C 319.949219 11.648438 321.003906 11.320312 322.1875 10.96875 C 323.371094 10.640625 324.324219 10.261719 324.324219 10.113281 C 324.324219 9.507812 321.535156 2.539062 321.308594 2.566406 C 321.179688 2.566406 320.148438 2.917969 319.042969 3.296875 Z M 319.042969 3.296875 "/>
<path style=" stroke:none;fill-rule:nonzero;fill:rgb(0%,0%,0%);fill-opacity:1;" d="M 642.964844 3.195312 C 642.664062 4.402344 640.226562 10.339844 639.09375 12.578125 C 636.050781 18.640625 631.445312 25.757812 628.628906 28.726562 C 628.027344 29.378906 627.523438 30.007812 627.523438 30.136719 C 627.523438 30.261719 628 30.789062 628.605469 31.34375 C 629.183594 31.871094 630.140625 32.878906 630.691406 33.554688 L 631.722656 34.765625 L 634.96875 30.234375 C 636.753906 27.71875 638.289062 25.683594 638.414062 25.683594 C 638.867188 25.632812 638.515625 60.042969 638.035156 62.433594 C 637.988281 62.6875 638.714844 62.785156 641.207031 62.835938 L 644.425781 62.914062 L 644.222656 62.332031 C 644.125 62.007812 643.996094 51.617188 643.949219 39.214844 L 643.847656 16.652344 L 645.105469 13.859375 C 646.636719 10.464844 648.171875 7.796875 649.328125 6.539062 L 650.183594 5.585938 L 648.851562 5.15625 C 648.121094 4.90625 646.5625 4.226562 645.40625 3.621094 C 644.25 3.019531 643.269531 2.515625 643.21875 2.515625 C 643.167969 2.515625 643.042969 2.816406 642.964844 3.195312 Z M 642.964844 3.195312 "/>
<path style=" stroke:none;fill-rule:nonzero;fill:rgb(0%,0%,0%);fill-opacity:1;" d="M 864.824219 6.3125 L 865.027344 10.113281 L 853.984375 9.988281 C 847.898438 9.910156 842.566406 9.761719 842.140625 9.660156 L 841.308594 9.507812 L 841.308594 15.144531 L 842.265625 14.992188 C 842.769531 14.890625 848.101562 14.765625 854.085938 14.691406 L 864.953125 14.539062 L 864.953125 20.878906 L 842.816406 20.878906 L 842.996094 23.820312 C 843.121094 25.457031 843.195312 33.582031 843.195312 41.882812 C 843.195312 50.183594 843.121094 58.308594 842.996094 59.917969 L 842.816406 62.886719 L 848.601562 62.886719 L 848.601562 25.40625 L 887.085938 25.40625 L 887.035156 40.875 C 886.984375 53.125 886.882812 56.398438 886.632812 56.648438 C 886.40625 56.875 885.324219 57 883.3125 57.050781 C 881.652344 57.101562 880.292969 57.175781 880.292969 57.226562 C 880.292969 57.277344 880.796875 58.484375 881.425781 59.945312 C 882.054688 61.402344 882.558594 62.734375 882.558594 62.914062 C 882.558594 63.238281 882.808594 63.214844 887.035156 62.234375 C 890.226562 61.503906 891.03125 61 891.761719 59.316406 C 892.191406 58.308594 892.242188 56.976562 892.417969 40.375 C 892.492188 30.539062 892.667969 22.136719 892.742188 21.683594 L 892.917969 20.878906 L 870.234375 20.878906 L 870.234375 14.539062 L 882.683594 14.640625 L 895.132812 14.714844 L 895.132812 9.9375 L 882.65625 10.011719 L 870.15625 10.113281 L 870.285156 6.3125 L 870.410156 2.515625 L 864.648438 2.515625 Z M 864.824219 6.3125 "/>
<path style=" stroke:none;fill-rule:nonzero;fill:rgb(0%,0%,0%);fill-opacity:1;" d="M 87.273438 3.546875 C 85.816406 3.925781 84.660156 4.328125 84.683594 4.453125 C 84.710938 4.578125 85.011719 5.8125 85.363281 7.21875 C 85.714844 8.628906 86.015625 9.859375 86.015625 9.960938 C 86.015625 10.035156 83.175781 10.085938 79.730469 10.011719 L 73.417969 9.910156 L 73.492188 12.527344 L 73.566406 15.117188 L 87.980469 15.167969 L 102.367188 15.21875 L 102.367188 9.859375 L 97.132812 9.988281 L 91.902344 10.136719 L 91.148438 6.539062 C 90.746094 4.554688 90.292969 2.917969 90.167969 2.894531 C 90.015625 2.867188 88.734375 3.167969 87.273438 3.546875 Z M 87.273438 3.546875 "/>
<path style=" stroke:none;fill-rule:nonzero;fill:rgb(0%,0%,0%);fill-opacity:1;" d="M 570.054688 3.699219 C 569.625 6.238281 569.097656 8.855469 568.621094 10.664062 L 568.089844 12.628906 L 563.867188 12.527344 L 559.613281 12.425781 L 559.613281 17.382812 L 563.261719 17.207031 C 566.355469 17.054688 566.910156 17.082031 566.808594 17.382812 C 564.996094 23.042969 563.664062 26.664062 562.609375 28.726562 C 562.304688 29.304688 561.527344 30.3125 560.824219 31.015625 L 559.566406 32.273438 L 560.621094 34.6875 C 561.226562 36.023438 561.703125 37.128906 561.726562 37.152344 C 561.753906 37.179688 562.835938 37.027344 564.140625 36.828125 C 565.449219 36.625 567.964844 36.398438 569.75 36.296875 L 572.945312 36.148438 L 572.945312 44.472656 L 572.265625 44.625 C 571.261719 44.824219 563.386719 45.730469 560.949219 45.933594 L 558.886719 46.082031 L 559.589844 47.515625 C 559.992188 48.296875 560.496094 49.53125 560.722656 50.234375 C 560.972656 50.964844 561.199219 51.566406 561.25 51.566406 C 561.300781 51.566406 562.507812 51.289062 563.941406 50.964844 C 565.351562 50.613281 567.789062 50.109375 569.296875 49.804688 C 570.832031 49.503906 572.292969 49.203125 572.542969 49.128906 C 573.019531 49 573.019531 49.175781 572.84375 56.195312 L 572.667969 63.390625 L 578.378906 63.390625 L 578.277344 55.867188 L 578.175781 48.371094 L 581.648438 47.84375 C 583.585938 47.542969 585.773438 47.265625 586.527344 47.242188 L 587.910156 47.164062 L 588.035156 44.777344 C 588.113281 43.46875 588.136719 42.335938 588.113281 42.285156 C 588.085938 42.234375 586.550781 42.4375 584.714844 42.710938 C 582.878906 43.015625 580.667969 43.316406 579.8125 43.417969 L 578.226562 43.59375 L 578.226562 36.222656 L 583.207031 36.171875 L 588.160156 36.097656 L 588.238281 33.882812 L 588.3125 31.695312 L 578.152344 31.695312 L 578.328125 27.71875 C 578.402344 25.558594 578.554688 23.394531 578.628906 22.941406 L 578.78125 22.136719 L 572.667969 22.136719 L 572.84375 26.914062 L 573.019531 31.695312 L 569.851562 31.695312 C 568.089844 31.695312 566.65625 31.667969 566.65625 31.621094 C 566.65625 31.570312 567.136719 30.285156 567.6875 28.777344 C 568.265625 27.269531 569.449219 24.046875 570.328125 21.632812 L 571.890625 17.230469 L 576.515625 17.230469 C 579.058594 17.230469 582.402344 17.304688 583.960938 17.433594 L 586.804688 17.609375 L 586.726562 15.042969 L 586.652344 12.476562 L 580.039062 12.550781 L 573.398438 12.628906 L 573.574219 12.023438 C 574.429688 9.28125 575.585938 6.539062 576.191406 5.761719 L 576.945312 4.828125 L 575.636719 4.503906 C 574.480469 4.226562 571.789062 3.371094 570.632812 2.894531 C 570.277344 2.765625 570.179688 2.917969 570.054688 3.699219 Z M 570.054688 3.699219 "/>
<path style=" stroke:none;fill-rule:nonzero;fill:rgb(0%,0%,0%);fill-opacity:1;" d="M 665.855469 3.699219 C 665.929688 4.226562 666.082031 7.796875 666.15625 11.621094 L 666.332031 18.613281 L 661.753906 18.613281 C 657.980469 18.613281 657.203125 18.5625 657.203125 18.261719 C 657.203125 17.707031 659.1875 12.097656 659.867188 10.742188 C 660.21875 10.085938 660.597656 9.558594 660.722656 9.558594 C 660.875 9.558594 660.976562 9.457031 660.976562 9.359375 C 660.976562 9.230469 660.269531 8.957031 659.414062 8.703125 C 658.558594 8.476562 657.050781 7.898438 656.046875 7.445312 L 654.234375 6.589844 L 653.679688 9.40625 C 652.574219 14.941406 650.285156 21.757812 647.820312 26.914062 C 647.117188 28.375 646.511719 29.605469 646.460938 29.683594 C 646.414062 29.757812 647.140625 30.136719 648.070312 30.539062 C 649.027344 30.941406 650.210938 31.542969 650.738281 31.871094 C 651.292969 32.222656 651.746094 32.449219 651.792969 32.398438 C 651.84375 32.347656 652.675781 30.386719 653.628906 28.046875 L 655.390625 23.769531 L 660.824219 23.695312 L 666.257812 23.644531 L 666.257812 36.75 L 656.648438 36.699219 L 647.015625 36.652344 L 646.941406 39.292969 L 646.863281 41.957031 L 656.597656 41.808594 L 666.308594 41.679688 L 666.15625 51.214844 C 666.082031 56.449219 665.953125 61.226562 665.855469 61.832031 L 665.703125 62.886719 L 671.914062 62.886719 L 671.816406 52.296875 L 671.738281 41.679688 L 679.8125 41.808594 L 687.886719 41.933594 L 687.886719 36.171875 L 687.082031 36.324219 C 686.628906 36.425781 683.007812 36.550781 679.035156 36.652344 L 671.789062 36.800781 L 671.789062 23.621094 L 685.875 23.769531 L 685.875 18.414062 L 678.808594 18.539062 L 671.738281 18.691406 L 671.890625 11.671875 C 671.964844 7.824219 672.089844 4.226562 672.191406 3.699219 L 672.34375 2.765625 L 665.703125 2.765625 Z M 665.855469 3.699219 "/>
<path style=" stroke:none;fill-rule:nonzero;fill:rgb(0%,0%,0%);fill-opacity:1;" d="M 500.558594 9.960938 L 500.6875 16.628906 L 495.804688 16.550781 L 490.953125 16.476562 L 490.953125 21.660156 L 495.175781 21.632812 C 497.492188 21.632812 499.503906 21.609375 499.679688 21.632812 C 499.882812 21.632812 499.78125 22.160156 499.378906 23.320312 C 496.988281 30.261719 494.195312 35.769531 490.121094 41.605469 C 488.941406 43.292969 488.488281 44.148438 488.6875 44.273438 C 488.863281 44.375 489.945312 45.40625 491.101562 46.535156 C 492.261719 47.695312 493.265625 48.574219 493.339844 48.523438 C 493.792969 48.046875 497.0625 42.234375 498.648438 39.039062 C 499.703125 36.953125 500.609375 35.214844 500.6875 35.214844 C 500.734375 35.214844 500.734375 41.277344 500.660156 48.675781 L 500.507812 62.15625 L 503.453125 62.082031 C 505.941406 62.007812 506.394531 61.957031 506.320312 61.628906 C 506.144531 60.800781 506.066406 22.238281 506.246094 21.933594 C 506.421875 21.683594 507.425781 21.632812 510.644531 21.683594 L 514.847656 21.757812 L 514.847656 16.476562 L 510.496094 16.550781 L 506.117188 16.628906 L 506.066406 15.167969 C 506.019531 13.28125 506.496094 4.578125 506.695312 3.824219 C 506.847656 3.269531 506.847656 3.269531 503.652344 3.269531 L 500.433594 3.269531 Z M 500.558594 9.960938 "/>
<path style=" stroke:none;fill-rule:nonzero;fill:rgb(0%,0%,0%);fill-opacity:1;" d="M 125.984375 3.648438 C 125.730469 3.875 120.023438 5.257812 117.179688 5.761719 C 115.59375 6.039062 112.878906 6.390625 111.144531 6.539062 C 109.433594 6.691406 107.570312 6.867188 107.019531 6.941406 L 106.011719 7.042969 L 106.011719 22.335938 C 106.011719 38.261719 105.960938 39.140625 104.855469 44.648438 C 103.824219 49.605469 101.484375 55.640625 99.246094 58.914062 C 98.945312 59.367188 98.617188 59.867188 98.515625 60.042969 C 98.316406 60.398438 103.523438 62.960938 103.925781 62.710938 C 104.328125 62.484375 106.816406 57.125 107.796875 54.382812 C 110.035156 48.246094 111.394531 39.117188 111.421875 30.363281 L 111.421875 28.171875 L 118.738281 28.171875 L 118.664062 45.40625 L 118.589844 62.636719 L 124.121094 62.636719 L 124.046875 45.355469 L 123.945312 28.097656 L 130.03125 28.449219 L 130.03125 23.015625 L 120.726562 23.117188 L 111.421875 23.191406 L 111.46875 17.207031 L 111.546875 11.195312 L 115.191406 10.765625 C 117.203125 10.539062 120.652344 10.210938 122.863281 10.0625 C 125.078125 9.910156 127.59375 9.734375 128.449219 9.660156 L 130.03125 9.507812 L 129.226562 8.550781 C 128.773438 8.023438 127.894531 6.691406 127.265625 5.558594 C 126.613281 4.453125 126.03125 3.570312 125.984375 3.648438 Z M 125.984375 3.648438 "/>
<path style=" stroke:none;fill-rule:nonzero;fill:rgb(0%,0%,0%);fill-opacity:1;" d="M 594.171875 4.199219 C 592.640625 11.066406 589.722656 18.0625 586.023438 23.695312 C 585.195312 24.953125 584.539062 26.011719 584.566406 26.035156 C 584.617188 26.058594 585.195312 26.238281 585.847656 26.414062 C 586.5 26.589844 587.683594 27.117188 588.464844 27.570312 C 589.21875 28.046875 589.949219 28.425781 590.023438 28.425781 C 590.125 28.425781 591.253906 26.4375 592.539062 24.023438 L 594.878906 19.621094 L 602.398438 19.621094 C 607.527344 19.621094 609.917969 19.695312 609.917969 19.898438 C 609.917969 20.023438 609.414062 21.707031 608.785156 23.621094 C 608.15625 25.53125 607.652344 27.191406 607.652344 27.316406 C 607.652344 27.519531 613.164062 28.800781 613.3125 28.625 C 613.339844 28.574219 613.714844 27.167969 614.167969 25.457031 C 614.621094 23.746094 615.476562 20.804688 616.105469 18.917969 C 616.707031 17.054688 617.210938 15.417969 617.210938 15.292969 C 617.210938 15.195312 612.507812 15.09375 606.773438 15.09375 C 601.039062 15.09375 596.335938 15.042969 596.335938 14.992188 C 596.335938 14.941406 596.738281 13.910156 597.242188 12.679688 C 598.375 9.808594 599.707031 7.371094 600.660156 6.390625 C 601.515625 5.484375 601.46875 5.410156 599.757812 5.183594 C 598.699219 5.003906 595.984375 4.199219 594.777344 3.671875 C 594.449219 3.523438 594.296875 3.621094 594.171875 4.199219 Z M 594.171875 4.199219 "/>
<path style=" stroke:none;fill-rule:nonzero;fill:rgb(0%,0%,0%);fill-opacity:1;" d="M 289.742188 5.207031 C 289.316406 7.167969 288.433594 9.558594 286.800781 13.207031 C 284.308594 18.640625 282.121094 21.757812 280.085938 22.816406 C 279.65625 23.015625 279.253906 23.242188 279.230469 23.292969 C 279.179688 23.320312 279.503906 24.5 279.957031 25.910156 C 280.761719 28.347656 280.8125 28.449219 281.441406 28.273438 C 284.535156 27.496094 291.503906 26.664062 291.503906 27.089844 C 291.503906 27.394531 288.433594 32.574219 287.050781 34.585938 C 285.617188 36.726562 284.03125 38.210938 282.523438 38.914062 C 281.792969 39.265625 281.191406 39.617188 281.191406 39.746094 C 281.191406 39.945312 282.976562 44.824219 283.128906 45 C 283.152344 45.050781 284.082031 44.875 285.140625 44.574219 C 288.382812 43.695312 290.394531 43.316406 295.148438 42.789062 C 302.570312 41.933594 301.738281 42.183594 301.941406 40.675781 C 302.042969 39.945312 302.34375 38.8125 302.59375 38.132812 C 302.847656 37.429688 303.023438 36.851562 302.972656 36.800781 C 302.921875 36.75 301.488281 36.953125 299.777344 37.230469 C 295.550781 37.910156 290.21875 38.539062 290.070312 38.386719 C 289.894531 38.210938 297.113281 26.6875 299.300781 23.59375 C 300.207031 22.335938 301.539062 20.675781 302.269531 19.898438 C 303.074219 19.042969 303.449219 18.464844 303.273438 18.386719 C 302.847656 18.238281 298.871094 16.175781 297.867188 15.570312 C 296.984375 15.015625 296.984375 15.042969 296.53125 16.476562 C 296.355469 17.03125 295.703125 18.589844 295.074219 19.921875 L 293.941406 22.386719 L 292.132812 22.386719 C 291.125 22.386719 289.441406 22.464844 288.382812 22.539062 L 286.449219 22.714844 L 287.929688 20.222656 C 288.734375 18.867188 290.347656 16.046875 291.527344 13.984375 C 292.683594 11.921875 294.292969 9.457031 295.097656 8.503906 C 295.90625 7.546875 296.53125 6.714844 296.484375 6.667969 C 296.433594 6.617188 291.90625 4.554688 290.320312 3.875 C 290.144531 3.773438 289.917969 4.25 289.742188 5.207031 Z M 289.742188 5.207031 "/>
<path style=" stroke:none;fill-rule:nonzero;fill:rgb(0%,0%,0%);fill-opacity:1;" d="M 778.15625 3.949219 C 778.128906 4.074219 778.15625 7.292969 778.179688 11.167969 L 778.230469 18.1875 L 774.230469 17.984375 C 772.042969 17.886719 770.15625 17.785156 770.003906 17.757812 C 769.855469 17.757812 769.730469 18.765625 769.679688 20.300781 L 769.601562 22.890625 L 778.179688 22.890625 L 778.128906 28.476562 L 778.054688 34.085938 L 775.285156 35.015625 C 773.777344 35.519531 771.414062 36.199219 770.054688 36.5 C 768.722656 36.828125 767.640625 37.128906 767.667969 37.203125 C 767.792969 37.457031 769.804688 42.613281 769.980469 43.089844 C 770.132812 43.542969 770.15625 43.542969 770.9375 43.066406 C 773.046875 41.78125 777.347656 39.746094 777.953125 39.746094 C 778.078125 39.746094 778.179688 43.140625 778.179688 47.292969 C 778.179688 56.648438 778.480469 55.996094 774.207031 55.742188 C 771.515625 55.59375 771.339844 55.617188 771.515625 56.019531 C 771.613281 56.269531 771.992188 57.679688 772.371094 59.1875 L 773.023438 61.878906 L 774.53125 61.730469 C 776.972656 61.476562 779.714844 60.875 780.71875 60.347656 C 781.246094 60.09375 781.976562 59.492188 782.328125 59.011719 C 783.613281 57.300781 783.710938 56.523438 783.710938 46.789062 L 783.710938 37.808594 L 785.421875 37.054688 C 786.355469 36.625 787.738281 36.070312 788.492188 35.820312 L 789.875 35.367188 L 789.875 29.480469 L 788.742188 29.933594 C 788.113281 30.1875 786.832031 30.738281 785.902344 31.167969 C 784.945312 31.59375 784.066406 31.945312 783.9375 31.945312 C 783.8125 31.945312 783.710938 29.960938 783.710938 27.417969 L 783.710938 22.890625 L 790.503906 22.890625 L 790.503906 17.785156 L 787.082031 17.933594 L 783.636719 18.113281 L 783.761719 10.941406 L 783.914062 3.773438 L 781.046875 3.773438 C 779.460938 3.773438 778.179688 3.847656 778.15625 3.949219 Z M 778.15625 3.949219 "/>
<path style=" stroke:none;fill-rule:nonzero;fill:rgb(0%,0%,0%);fill-opacity:1;" d="M 792.816406 14.515625 C 792.894531 26.3125 792.867188 26.011719 794.476562 27.71875 C 795.558594 28.902344 796.640625 28.976562 809.242188 28.878906 C 822.292969 28.800781 822.144531 28.800781 823.828125 26.867188 C 824.558594 25.984375 826.972656 20.851562 826.972656 20.148438 C 826.972656 20 826.496094 19.773438 825.917969 19.621094 C 824.382812 19.242188 823.023438 18.613281 821.867188 17.785156 C 821.339844 17.382812 820.859375 17.105469 820.8125 17.15625 C 820.761719 17.207031 820.484375 18.289062 820.207031 19.570312 C 819.554688 22.539062 819.25 23.167969 818.171875 23.722656 C 817.363281 24.125 816.484375 24.148438 808.4375 24.097656 C 797.570312 23.996094 798.425781 24.375 798.425781 19.949219 L 798.425781 17.003906 L 800.1875 16.652344 C 801.722656 16.351562 804.160156 15.824219 813.015625 13.835938 C 814.121094 13.582031 815.730469 13.207031 816.585938 12.980469 C 817.414062 12.753906 819.074219 12.402344 820.230469 12.175781 C 823.425781 11.597656 823.324219 11.722656 821.714844 10.1875 C 820.636719 9.15625 818.621094 6.617188 818.296875 5.859375 C 818.269531 5.835938 817.265625 6.3125 816.058594 6.96875 C 813.242188 8.425781 811.453125 9.132812 808.6875 9.960938 C 805.746094 10.816406 798.753906 12.324219 798.5 12.175781 C 798.402344 12.097656 798.375 10.1875 798.476562 7.898438 L 798.628906 3.773438 L 792.742188 3.773438 Z M 792.816406 14.515625 "/>
<path style=" stroke:none;fill-rule:nonzero;fill:rgb(0%,0%,0%);fill-opacity:1;" d="M 10.941406 13.207031 L 10.941406 22.386719 L 50.929688 22.386719 L 50.882812 13.28125 L 50.855469 4.152344 L 30.886719 4.074219 L 10.941406 4.023438 Z M 45.222656 9.859375 L 45.296875 11.320312 L 16.601562 11.320312 L 16.601562 8.300781 L 30.886719 8.351562 L 45.144531 8.425781 Z M 45.273438 16.980469 L 45.273438 18.363281 L 16.601562 18.363281 L 16.601562 15.597656 L 45.273438 15.597656 Z M 45.273438 16.980469 "/>
<path style=" stroke:none;fill-rule:nonzero;fill:rgb(0%,0%,0%);fill-opacity:1;" d="M 456.621094 4.679688 C 455.386719 5.003906 454.105469 5.28125 453.804688 5.28125 C 453.503906 5.28125 453.175781 5.382812 453.101562 5.535156 C 452.898438 5.886719 454.785156 10.589844 456.417969 13.757812 C 459.414062 19.570312 461.121094 22.160156 464.441406 25.785156 C 466.179688 27.695312 472.867188 33.65625 473.949219 34.261719 C 474.175781 34.386719 474.578125 33.984375 475.183594 33.003906 C 476.136719 31.445312 477.523438 29.882812 478.828125 28.902344 L 479.683594 28.25 L 477.796875 27.496094 C 474.074219 25.960938 470.554688 23.292969 467.234375 19.445312 C 463.460938 15.042969 460.847656 10.539062 459.640625 6.363281 C 459.285156 5.15625 458.984375 4.152344 458.933594 4.152344 C 458.910156 4.125 457.878906 4.351562 456.621094 4.679688 Z M 456.621094 4.679688 "/>
<path style=" stroke:none;fill-rule:nonzero;fill:rgb(0%,0%,0%);fill-opacity:1;" d="M 540.324219 4.804688 C 537.105469 6.085938 528.878906 7.519531 521.964844 8 C 520.253906 8.125 518.820312 8.277344 518.746094 8.351562 C 518.667969 8.425781 518.71875 11.972656 518.894531 16.25 C 519.550781 33.832031 518.441406 42.863281 514.695312 50.484375 C 513.414062 53.101562 512.355469 54.585938 510.394531 56.625 L 509.0625 58.007812 L 510.621094 58.761719 C 511.476562 59.164062 512.910156 60.042969 513.789062 60.722656 C 514.667969 61.378906 515.476562 61.832031 515.574219 61.730469 C 516.859375 60.21875 520.152344 54.109375 521.234375 51.265625 C 522.96875 46.585938 524.65625 36.25 524.65625 29.984375 L 524.65625 28.171875 L 534.488281 28.171875 L 534.414062 44.902344 L 534.339844 61.628906 L 540.121094 61.628906 L 540.046875 44.851562 L 539.945312 28.097656 L 544.5 28.25 L 549.050781 28.398438 L 549.050781 23.269531 L 536.851562 23.34375 L 524.65625 23.445312 L 524.65625 18.136719 C 524.65625 12.855469 524.65625 12.828125 525.234375 12.703125 C 526.464844 12.453125 539.847656 11.269531 543.191406 11.144531 L 546.738281 10.992188 L 545.429688 9.082031 C 544.699219 8 543.71875 6.441406 543.242188 5.585938 C 542.789062 4.730469 542.335938 4.023438 542.261719 4.050781 C 542.183594 4.074219 541.332031 4.402344 540.324219 4.804688 Z M 540.324219 4.804688 "/>
<path style=" stroke:none;fill-rule:nonzero;fill:rgb(0%,0%,0%);fill-opacity:1;" d="M 387.808594 5.207031 C 387.808594 5.308594 387.808594 9.761719 387.832031 15.042969 L 387.855469 24.703125 L 379.304688 24.601562 L 370.730469 24.527344 L 370.730469 29.960938 L 379.28125 29.785156 L 387.855469 29.605469 L 387.78125 46.234375 L 387.707031 62.886719 L 393.492188 62.886719 L 393.390625 46.234375 L 393.316406 29.605469 L 401.238281 29.734375 L 409.160156 29.882812 L 409.1875 27.191406 L 409.1875 24.527344 L 401.238281 24.625 L 393.289062 24.703125 L 393.390625 14.941406 L 393.492188 5.15625 L 390.675781 5.082031 C 389.113281 5.054688 387.832031 5.105469 387.808594 5.207031 Z M 387.808594 5.207031 "/>
<path style=" stroke:none;fill-rule:nonzero;fill:rgb(0%,0%,0%);fill-opacity:1;" d="M 438.890625 8.453125 C 436.121094 13.710938 434.210938 16.675781 431.066406 20.527344 C 428.601562 23.542969 423.546875 28.023438 420.476562 29.910156 C 419.949219 30.210938 419.523438 30.5625 419.523438 30.636719 C 419.546875 30.738281 420.328125 31.292969 421.285156 31.894531 C 422.238281 32.5 423.597656 33.507812 424.300781 34.136719 L 425.585938 35.292969 L 426.363281 34.5625 C 430.714844 30.460938 437.582031 21.859375 442.914062 13.835938 C 443.792969 12.527344 445.101562 10.691406 445.832031 9.785156 L 447.140625 8.125 L 445.730469 7.546875 C 444.949219 7.246094 443.492188 6.539062 442.484375 6.011719 L 440.675781 5.054688 Z M 438.890625 8.453125 "/>
<path style=" stroke:none;fill-rule:nonzero;fill:rgb(0%,0%,0%);fill-opacity:1;" d="M 217.785156 5.457031 C 217.785156 5.585938 217.785156 12.097656 217.808594 20 C 217.835938 35.140625 217.632812 40.347656 216.777344 45.050781 C 215.875 50.207031 213.859375 55.238281 211.371094 58.636719 L 210.289062 60.070312 L 212.351562 61.125 C 213.484375 61.703125 214.714844 62.410156 215.09375 62.660156 C 215.445312 62.914062 215.847656 63.136719 215.972656 63.136719 C 216.402344 63.136719 219.773438 55.820312 220.828125 52.625 C 221.832031 49.65625 222.863281 45.050781 223.21875 41.957031 L 223.394531 40.5 L 237.503906 40.5 L 237.378906 50.5625 L 237.25 60.625 L 243.339844 60.625 L 243.261719 50.5625 L 243.164062 40.5 L 258.304688 40.5 L 258.304688 46.585938 C 258.304688 55.492188 258.328125 55.417969 254.179688 55.542969 C 252.570312 55.617188 251.261719 55.742188 251.261719 55.84375 C 251.261719 55.945312 251.539062 56.648438 251.890625 57.378906 C 252.214844 58.132812 252.695312 59.566406 252.945312 60.574219 L 253.375 62.410156 L 254.378906 62.257812 C 256.140625 61.980469 260.113281 60.847656 261.121094 60.347656 C 262.152344 59.816406 263.082031 58.710938 263.609375 57.351562 C 263.886719 56.625 263.988281 51.871094 264.089844 31.066406 C 264.164062 17.082031 264.1875 5.585938 264.136719 5.457031 C 264.089844 5.359375 253.648438 5.28125 240.921875 5.28125 C 228.222656 5.28125 217.808594 5.359375 217.785156 5.457031 Z M 237.429688 15.597656 L 237.429688 20.878906 L 223.34375 20.878906 L 223.34375 10.3125 L 237.429688 10.3125 Z M 258.304688 15.597656 L 258.304688 20.878906 L 243.210938 20.878906 L 243.210938 10.3125 L 258.304688 10.3125 Z M 237.429688 30.6875 L 237.429688 35.71875 L 223.34375 35.71875 L 223.34375 25.65625 L 237.429688 25.65625 Z M 258.304688 30.6875 L 258.304688 35.71875 L 243.210938 35.71875 L 243.210938 25.65625 L 258.304688 25.65625 Z M 258.304688 30.6875 "/>
<path style=" stroke:none;fill-rule:nonzero;fill:rgb(0%,0%,0%);fill-opacity:1;" d="M 358.808594 6.792969 C 357.425781 7.621094 356.265625 8.351562 356.242188 8.375 C 356.191406 8.425781 357.550781 10.617188 359.234375 13.257812 C 360.921875 15.898438 362.453125 18.289062 362.628906 18.589844 C 362.933594 19.117188 362.933594 19.117188 364.265625 18.289062 C 364.96875 17.808594 366.175781 17.128906 366.90625 16.726562 C 367.636719 16.324219 368.1875 15.898438 368.140625 15.746094 C 368.0625 15.597656 366.628906 13.355469 364.917969 10.792969 C 363.210938 8.226562 361.699219 5.9375 361.550781 5.710938 C 361.324219 5.332031 360.996094 5.457031 358.808594 6.792969 Z M 358.808594 6.792969 "/>
<path style=" stroke:none;fill-rule:nonzero;fill:rgb(0%,0%,0%);fill-opacity:1;" d="M 92.554688 16 C 92.554688 16.476562 90.042969 24.476562 89.816406 24.726562 C 89.714844 24.828125 87.703125 24.878906 85.363281 24.851562 L 81.113281 24.777344 L 82.875 24.171875 C 83.855469 23.847656 84.734375 23.496094 84.859375 23.394531 C 85.035156 23.21875 82.117188 16.199219 81.765625 16 C 81.691406 15.949219 80.636719 16.351562 79.425781 16.902344 L 77.238281 17.910156 L 77.84375 19.09375 C 78.394531 20.199219 80.234375 24.625 80.234375 24.851562 C 80.234375 24.929688 78.371094 24.929688 76.082031 24.851562 L 71.933594 24.703125 L 71.933594 30.261719 L 78.722656 30.058594 L 85.515625 29.882812 L 85.515625 35.796875 L 79.351562 35.667969 L 73.191406 35.519531 L 73.191406 41.050781 L 79.351562 40.875 L 85.515625 40.675781 L 85.515625 47.96875 C 85.515625 54.710938 85.488281 55.289062 85.0625 55.667969 C 84.683594 56.019531 84.054688 56.09375 81.941406 56.09375 L 79.277344 56.09375 L 80.105469 57.679688 C 80.558594 58.535156 81.136719 59.894531 81.390625 60.722656 L 81.84375 62.183594 L 83.679688 62.03125 C 87.375 61.679688 89.285156 60.75 90.292969 58.738281 C 90.945312 57.402344 90.972656 57 91.046875 42.410156 L 91.046875 40.675781 L 96.957031 40.875 L 102.867188 41.050781 L 102.867188 35.519531 L 96.90625 35.667969 L 90.921875 35.796875 L 90.996094 32.851562 L 91.074219 29.882812 L 97.183594 30.058594 L 103.320312 30.261719 L 103.445312 28.273438 C 103.523438 27.167969 103.574219 25.933594 103.546875 25.53125 L 103.496094 24.777344 L 99.171875 24.878906 L 94.84375 24.953125 L 95.699219 22.816406 C 96.757812 20.222656 97.4375 18.964844 98.265625 18.0625 L 98.894531 17.40625 L 97.410156 16.980469 C 93.664062 15.847656 92.554688 15.621094 92.554688 16 Z M 92.554688 16 "/>
<path style=" stroke:none;fill-rule:nonzero;fill:rgb(0%,0%,0%);fill-opacity:1;" d="M 155.761719 18.867188 L 153.699219 21.054688 L 154.351562 21.355469 C 155.359375 21.808594 160.3125 25.632812 162.550781 27.644531 C 163.632812 28.625 164.589844 29.429688 164.691406 29.429688 C 164.789062 29.429688 165.09375 29.027344 165.371094 28.527344 C 165.644531 28.023438 166.527344 27.015625 167.332031 26.285156 L 168.789062 24.953125 L 166.578125 23.21875 C 164.363281 21.457031 158.554688 17.082031 158.074219 16.804688 C 157.949219 16.726562 156.894531 17.660156 155.761719 18.867188 Z M 155.761719 18.867188 "/>
<path style=" stroke:none;fill-rule:nonzero;fill:rgb(0%,0%,0%);fill-opacity:1;" d="M 171.128906 21.984375 C 171.304688 26.488281 170.976562 36.222656 170.625 37.632812 L 170.476562 38.261719 L 156.542969 38.183594 L 142.609375 38.109375 L 142.609375 43.542969 L 155.9375 43.367188 C 165.371094 43.242188 169.269531 43.265625 169.269531 43.441406 C 169.269531 44.375 164.613281 49.203125 162.175781 50.8125 C 158.703125 53.078125 152.214844 55.515625 146.230469 56.75 L 142.910156 57.429688 L 144.492188 58.886719 C 145.375 59.71875 146.378906 60.976562 146.78125 61.753906 C 147.636719 63.414062 147.335938 63.414062 152.417969 61.628906 C 160.214844 58.863281 164.0625 56.851562 168.386719 53.253906 C 171.40625 50.738281 173.039062 48.625 175.78125 43.769531 C 175.957031 43.441406 177.492188 43.390625 187.601562 43.441406 L 199.199219 43.492188 L 199.199219 38.109375 L 187.878906 38.183594 C 179.152344 38.261719 176.5625 38.210938 176.5625 37.957031 C 176.5625 35.894531 177.417969 22.890625 177.695312 21.003906 C 178.070312 18.210938 178.046875 18.136719 176.5625 18.113281 C 176.082031 18.113281 174.625 17.886719 173.316406 17.632812 L 170.953125 17.179688 Z M 171.128906 21.984375 "/>
<path style=" stroke:none;fill-rule:nonzero;fill:rgb(0%,0%,0%);fill-opacity:1;" d="M 349.855469 27.292969 L 349.855469 30.261719 L 351.4375 30.109375 C 352.292969 30.007812 354.382812 29.859375 356.089844 29.785156 L 359.183594 29.605469 L 359.109375 41.277344 C 359.007812 54.058594 359.035156 53.804688 357.398438 56.597656 L 356.746094 57.730469 L 358.757812 59.140625 C 359.890625 59.917969 361.019531 60.800781 361.273438 61.101562 C 361.550781 61.378906 361.824219 61.628906 361.925781 61.628906 C 362.027344 61.628906 362.832031 60.671875 363.6875 59.492188 C 364.542969 58.308594 366.175781 56.347656 367.308594 55.140625 C 368.441406 53.933594 370.476562 51.71875 371.8125 50.207031 L 374.25 47.46875 L 373.371094 46.285156 C 372.867188 45.605469 372.214844 44.5 371.910156 43.769531 L 371.332031 42.460938 L 367.988281 46.285156 L 364.667969 50.132812 L 364.742188 37.40625 L 364.820312 24.652344 L 358.882812 24.652344 C 355.613281 24.652344 352.242188 24.578125 351.386719 24.5 L 349.855469 24.324219 Z M 349.855469 27.292969 "/>
<path style=" stroke:none;fill-rule:nonzero;fill:rgb(0%,0%,0%);fill-opacity:1;" d="M 597.015625 29.230469 C 596.941406 32.171875 596.738281 35.015625 596.460938 36.472656 C 594.925781 44.925781 590.351562 52.449219 583.960938 56.976562 C 582.804688 57.78125 581.773438 58.535156 581.671875 58.636719 C 581.546875 58.710938 582 59.140625 582.679688 59.542969 C 583.859375 60.296875 586.277344 62.558594 586.277344 62.9375 C 586.277344 63.566406 587.257812 62.8125 589.695312 60.296875 C 594.726562 55.164062 596.890625 51.96875 599.101562 46.484375 C 599.757812 44.824219 600.359375 43.441406 600.410156 43.390625 C 600.460938 43.316406 600.761719 44.046875 601.0625 45 C 602.195312 48.472656 604.585938 52.597656 607.25 55.667969 C 608.484375 57.101562 614.242188 62.132812 614.644531 62.132812 C 614.746094 62.132812 615.046875 61.753906 615.300781 61.277344 C 615.878906 60.21875 617.839844 58.183594 618.796875 57.707031 C 619.171875 57.503906 619.476562 57.300781 619.476562 57.226562 C 619.476562 57.175781 618.71875 56.699219 617.789062 56.195312 C 614.417969 54.335938 612.507812 52.925781 610.296875 50.6875 C 607.628906 47.996094 606.019531 45.429688 604.761719 41.90625 C 603.351562 38.007812 603.050781 35.644531 603.175781 29.910156 L 603.304688 24.980469 L 600.886719 24.800781 C 599.554688 24.726562 598.171875 24.578125 597.820312 24.5 L 597.140625 24.351562 Z M 597.015625 29.230469 "/>
<path style=" stroke:none;fill-rule:nonzero;fill:rgb(0%,0%,0%);fill-opacity:1;" d="M 151.308594 27.042969 C 150.808594 27.820312 149.976562 28.902344 149.472656 29.457031 C 148.972656 30.007812 148.617188 30.488281 148.667969 30.539062 C 148.71875 30.5625 149.675781 31.015625 150.757812 31.519531 C 152.945312 32.550781 156.011719 34.613281 158.25 36.523438 L 159.683594 37.757812 L 161.972656 35.441406 C 163.207031 34.183594 164.238281 33.128906 164.238281 33.078125 C 164.238281 32.828125 152.742188 25.65625 152.339844 25.65625 C 152.289062 25.65625 151.8125 26.285156 151.308594 27.042969 Z M 151.308594 27.042969 "/>
<path style=" stroke:none;fill-rule:nonzero;fill:rgb(0%,0%,0%);fill-opacity:1;" d="M 857.859375 27.269531 C 856.953125 28.023438 856.125 28.777344 856.023438 28.929688 C 855.921875 29.078125 856.347656 29.859375 856.976562 30.636719 C 858.1875 32.199219 860.425781 35.570312 860.425781 35.871094 C 860.425781 36.046875 855.417969 35.820312 853.835938 35.570312 L 852.878906 35.394531 L 852.878906 40.75 L 859.167969 40.601562 L 865.453125 40.421875 L 865.453125 45.101562 L 859.242188 44.925781 C 855.796875 44.824219 852.527344 44.699219 851.949219 44.625 L 850.867188 44.472656 L 850.867188 49.679688 L 858.210938 49.605469 L 865.53125 49.503906 L 865.378906 55.0625 L 865.226562 60.625 L 870.886719 60.625 L 870.785156 55.0625 L 870.6875 49.53125 L 885.070312 49.679688 L 885.070312 44.824219 L 877.902344 44.976562 L 870.734375 45.101562 L 870.734375 40.421875 L 877.023438 40.574219 L 883.3125 40.699219 L 883.3125 35.796875 L 879.289062 35.921875 C 877.074219 35.996094 875.261719 35.972656 875.261719 35.871094 C 875.261719 35.796875 875.742188 34.839844 876.34375 33.78125 C 877.527344 31.644531 878.609375 30.414062 879.765625 29.910156 C 880.191406 29.707031 880.546875 29.507812 880.546875 29.429688 C 880.546875 29.332031 874.988281 26.738281 874.457031 26.589844 C 874.359375 26.5625 873.578125 27.945312 872.75 29.683594 C 871.917969 31.417969 870.785156 33.53125 870.234375 34.386719 L 869.253906 35.972656 L 861.054688 35.972656 L 862.308594 35.089844 C 865.027344 33.179688 864.875 33.355469 864.398438 32.550781 C 863.71875 31.367188 859.796875 25.910156 859.644531 25.910156 C 859.570312 25.910156 858.765625 26.539062 857.859375 27.269531 Z M 857.859375 27.269531 "/>
<path style=" stroke:none;fill-rule:nonzero;fill:rgb(0%,0%,0%);fill-opacity:1;" d="M 2.011719 28.625 L 2.011719 30.992188 L 5.535156 30.816406 L 9.054688 30.613281 L 9.003906 41.40625 L 8.929688 52.195312 L 7.796875 52.371094 C 7.167969 52.449219 5.734375 52.546875 4.601562 52.574219 C 3.070312 52.625 2.515625 52.722656 2.515625 52.976562 C 2.515625 53.152344 2.917969 54.410156 3.394531 55.769531 C 3.898438 57.125 4.324219 58.359375 4.402344 58.535156 C 4.476562 58.761719 4.726562 58.761719 5.332031 58.585938 C 9.179688 57.453125 20.222656 54.914062 23.464844 54.460938 L 24.648438 54.285156 L 24.648438 61.628906 L 30.054688 61.628906 L 30.054688 53.453125 L 31.640625 53.226562 L 33.199219 52.976562 L 33.199219 50.511719 C 33.199219 49.152344 33.125 48.046875 33.023438 48.046875 C 32.898438 48.046875 32.269531 48.222656 31.589844 48.421875 C 30.910156 48.625 30.257812 48.800781 30.132812 48.800781 C 30.03125 48.800781 29.929688 44.699219 29.929688 39.71875 L 29.929688 30.636719 L 44.390625 30.738281 L 58.855469 30.816406 L 58.855469 26.285156 L 2.011719 26.285156 Z M 24.648438 32.703125 L 24.648438 34.714844 L 14.335938 34.714844 L 14.335938 30.6875 L 24.648438 30.6875 Z M 24.648438 40.875 L 24.648438 42.761719 L 14.335938 42.761719 L 14.335938 38.988281 L 24.648438 38.988281 Z M 24.523438 48.421875 L 24.523438 49.933594 L 19.871094 50.613281 C 17.304688 50.964844 15.015625 51.289062 14.789062 51.289062 C 14.386719 51.316406 14.335938 51.039062 14.335938 49.050781 L 14.335938 46.789062 L 19.441406 46.839844 L 24.523438 46.914062 Z M 24.523438 48.421875 "/>
<path style=" stroke:none;fill-rule:nonzero;fill:rgb(0%,0%,0%);fill-opacity:1;" d="M 432.097656 31.871094 L 432.097656 34.460938 L 440.648438 34.460938 L 440.523438 35.140625 C 440.472656 35.542969 440.273438 36.699219 440.121094 37.730469 C 439.214844 43.59375 437.128906 47.59375 433.355469 50.6875 C 431.09375 52.546875 428.25 54.207031 424.980469 55.59375 C 423.496094 56.222656 422.289062 56.800781 422.289062 56.875 C 422.289062 56.976562 422.742188 57.351562 423.296875 57.730469 C 424.351562 58.460938 426.164062 60.320312 426.839844 61.378906 L 427.246094 62.007812 L 428.855469 61.027344 C 438.109375 55.367188 441.808594 51.59375 444.070312 45.53125 C 444.824219 43.519531 445.929688 38.738281 446.308594 35.644531 L 446.460938 34.460938 L 452.671875 34.4375 C 456.09375 34.4375 459.058594 34.386719 459.285156 34.335938 C 460.394531 34.136719 460.394531 34.285156 459.4375 43.242188 C 458.480469 52.070312 458.15625 53.554688 457.175781 54.03125 C 456.871094 54.183594 455.035156 54.359375 453.101562 54.433594 C 451.164062 54.511719 449.554688 54.5625 449.527344 54.5625 C 449.503906 54.585938 449.929688 55.464844 450.457031 56.546875 C 450.988281 57.628906 451.640625 59.214844 451.867188 60.070312 C 452.117188 60.925781 452.371094 61.628906 452.472656 61.628906 C 452.898438 61.628906 459.867188 59.816406 460.570312 59.542969 C 461.777344 59.011719 462.957031 57.679688 463.539062 56.195312 C 463.863281 55.265625 464.367188 51.84375 465.171875 44.726562 C 465.800781 39.140625 466.480469 33.457031 466.679688 32.074219 C 466.882812 30.714844 467.007812 29.558594 466.984375 29.53125 C 466.957031 29.507812 459.085938 29.429688 449.527344 29.378906 L 432.097656 29.28125 Z M 432.097656 31.871094 "/>
<path style=" stroke:none;fill-rule:nonzero;fill:rgb(0%,0%,0%);fill-opacity:1;" d="M 508.933594 30.3125 C 507.828125 30.941406 506.824219 31.46875 506.671875 31.519531 C 506.546875 31.570312 506.671875 32.074219 507 32.601562 C 507.324219 33.128906 508.457031 35.34375 509.515625 37.480469 L 511.449219 41.40625 L 512.960938 40.347656 C 513.789062 39.746094 514.894531 39.066406 515.425781 38.839844 C 515.925781 38.613281 516.355469 38.3125 516.355469 38.210938 C 516.355469 38.007812 515.023438 35.519531 512.507812 30.992188 C 511.953125 30.007812 511.375 29.179688 511.222656 29.203125 C 511.074219 29.203125 510.042969 29.707031 508.933594 30.3125 Z M 508.933594 30.3125 "/>
<path style=" stroke:none;fill-rule:nonzero;fill:rgb(0%,0%,0%);fill-opacity:1;" d="M 793.34375 37.40625 C 793.472656 39.746094 793.496094 46.359375 793.421875 52.121094 L 793.296875 62.636719 L 799.054688 62.636719 L 799.054688 57.855469 L 816.410156 57.855469 L 816.410156 61.878906 L 822.070312 61.878906 L 822.070312 33.203125 L 793.144531 33.203125 Z M 816.410156 40.5 L 816.410156 43.015625 L 799.054688 43.015625 L 799.054688 37.984375 L 816.410156 37.984375 Z M 816.410156 50.433594 L 816.410156 53.078125 L 799.054688 53.078125 L 799.054688 47.792969 L 816.410156 47.792969 Z M 816.410156 50.433594 "/>
<path style=" stroke:none;fill-rule:nonzero;fill:rgb(0%,0%,0%);fill-opacity:1;" d="M 31.691406 36.828125 L 31.691406 39.242188 L 33.855469 39.242188 L 34.332031 41.050781 C 35.386719 45.226562 36.921875 48.398438 39.1875 51.039062 L 40.34375 52.398438 L 38.605469 54.007812 C 36.945312 55.566406 33.449219 57.554688 31.613281 58.007812 C 31.238281 58.082031 30.9375 58.257812 30.988281 58.359375 C 31.035156 58.460938 31.941406 59.464844 33.023438 60.625 L 34.960938 62.6875 L 35.664062 62.234375 C 37.347656 61.152344 41.023438 58.285156 42.554688 56.875 L 44.214844 55.339844 L 46.933594 56.824219 C 49.449219 58.234375 52.464844 59.566406 55.507812 60.625 L 56.816406 61.101562 L 57.117188 60.171875 C 57.269531 59.667969 57.847656 58.410156 58.375 57.429688 C 59.355469 55.617188 59.355469 55.59375 58.804688 55.492188 C 58.476562 55.417969 57.269531 55.164062 56.113281 54.9375 C 53.296875 54.410156 50.503906 53.480469 48.792969 52.523438 C 48.039062 52.09375 47.386719 51.742188 47.335938 51.691406 C 47.308594 51.667969 47.789062 50.738281 48.417969 49.628906 C 50.253906 46.410156 52.84375 39.417969 53.699219 35.519531 L 53.875 34.714844 L 44.316406 34.714844 C 39.085938 34.714844 34.078125 34.636719 33.226562 34.5625 L 31.691406 34.386719 Z M 47.535156 39.191406 C 47.535156 39.792969 45.875 44.148438 44.996094 45.90625 C 43.511719 48.824219 43.410156 48.902344 42.378906 47.667969 C 40.621094 45.582031 39.109375 42.4375 38.632812 39.792969 L 38.507812 38.988281 L 43.007812 38.988281 C 45.5 38.988281 47.535156 39.089844 47.535156 39.191406 Z M 47.535156 39.191406 "/>
<path style=" stroke:none;fill-rule:nonzero;fill:rgb(0%,0%,0%);fill-opacity:1;" d="M 77.84375 44.296875 C 76.007812 47.390625 74.875 49 72.484375 51.917969 L 70.824219 53.933594 L 71.453125 54.308594 C 71.78125 54.535156 72.761719 55.316406 73.644531 56.042969 C 74.523438 56.800781 75.277344 57.351562 75.304688 57.300781 C 76.359375 55.996094 84.507812 44.953125 84.457031 44.925781 C 84.40625 44.875 83.753906 44.5 83 44.046875 C 82.246094 43.566406 81.136719 42.8125 80.558594 42.359375 L 79.503906 41.503906 Z M 77.84375 44.296875 "/>
<path style=" stroke:none;fill-rule:nonzero;fill:rgb(0%,0%,0%);fill-opacity:1;" d="M 94.191406 43.542969 C 93.234375 44.222656 92.332031 44.902344 92.203125 45.027344 C 92.078125 45.152344 92.53125 46.082031 93.3125 47.339844 C 94.039062 48.5 95.273438 50.585938 96.027344 52.019531 L 97.386719 54.609375 L 98.695312 53.378906 C 99.398438 52.722656 100.351562 51.945312 100.804688 51.691406 C 101.234375 51.417969 101.609375 51.089844 101.609375 50.9375 C 101.609375 50.585938 96.203125 42.234375 96.003906 42.261719 C 95.976562 42.285156 95.171875 42.839844 94.191406 43.542969 Z M 94.191406 43.542969 "/>
<path style=" stroke:none;fill-rule:nonzero;fill:rgb(0%,0%,0%);fill-opacity:1;" d="M 176.4375 48.726562 C 175.53125 49.957031 174.800781 50.988281 174.800781 51.0625 C 174.800781 51.140625 177.265625 52.648438 180.285156 54.460938 C 183.277344 56.269531 187.425781 58.835938 189.488281 60.195312 C 192.53125 62.207031 193.289062 62.609375 193.539062 62.332031 C 195.125 60.597656 197.714844 57.554688 197.664062 57.503906 C 197.488281 57.378906 185.113281 50.285156 181.71875 48.371094 C 179.933594 47.367188 178.371094 46.535156 178.246094 46.535156 C 178.144531 46.535156 177.339844 47.515625 176.4375 48.726562 Z M 176.4375 48.726562 "/>
<path style=" stroke:none;fill-rule:nonzero;fill:rgb(0%,0%,0%);fill-opacity:1;" d="M 298.59375 48.953125 C 293.441406 50.660156 289.71875 51.59375 284.585938 52.449219 C 282.371094 52.824219 280.3125 53.175781 280.007812 53.226562 C 279.457031 53.328125 279.457031 53.351562 280.3125 54.8125 C 280.789062 55.617188 281.492188 57 281.871094 57.882812 C 282.222656 58.761719 282.550781 59.515625 282.574219 59.566406 C 282.597656 59.589844 283.402344 59.265625 284.359375 58.835938 C 286.898438 57.679688 288.132812 57.277344 295.652344 55.191406 C 299.402344 54.160156 302.644531 53.253906 302.894531 53.175781 C 303.273438 53.050781 303.324219 52.699219 303.324219 50.285156 C 303.324219 48.246094 303.25 47.542969 303.023438 47.566406 C 302.847656 47.59375 300.859375 48.195312 298.59375 48.953125 Z M 298.59375 48.953125 "/>
</g>
</svg>
