<?xml version="1.0" encoding="UTF-8"?>
<svg xmlns="http://www.w3.org/2000/svg" xmlns:xlink="http://www.w3.org/1999/xlink" width="2680pt" height="194pt" viewBox="0 0 2680 194" version="1.1">
<g id="surface1">
<path style=" stroke:none;fill-rule:nonzero;fill:rgb(0%,0%,0%);fill-opacity:1;" d="M 2135.503906 7.882812 C 2135.128906 8.859375 2133.550781 12.460938 2131.976562 15.917969 C 2122.515625 36.636719 2110.355469 54.207031 2094.667969 69.820312 C 2090.691406 73.726562 2087.464844 77.105469 2087.464844 77.40625 C 2087.464844 77.628906 2088.214844 78.230469 2089.191406 78.605469 C 2090.089844 79.054688 2093.695312 81.683594 2097.148438 84.386719 C 2100.597656 87.089844 2103.675781 89.34375 2103.976562 89.34375 C 2104.277344 89.34375 2107.054688 86.339844 2110.058594 82.585938 L 2115.613281 75.902344 L 2115.988281 120.722656 L 2116.363281 165.546875 L 2118.464844 169.75 C 2120.566406 174.105469 2123.417969 176.582031 2128.746094 178.757812 C 2132.800781 180.335938 2226.851562 180.710938 2234.507812 179.132812 C 2244.042969 177.109375 2249.222656 172.078125 2254.175781 160.140625 C 2258.378906 150.003906 2258.378906 150.457031 2255.078125 149.855469 C 2250.722656 149.179688 2244.792969 146.101562 2241.039062 142.648438 C 2237.136719 139.042969 2237.8125 138.441406 2235.785156 148.277344 C 2234.058594 156.761719 2233.082031 159.914062 2231.582031 161.417969 C 2228.804688 164.195312 2223.699219 164.496094 2180.839844 164.269531 C 2143.683594 164.042969 2139.40625 163.894531 2137.304688 162.769531 C 2132.949219 160.441406 2132.5 158.113281 2132.5 140.46875 L 2132.5 124.628906 L 2198.929688 124.628906 L 2198.929688 68.320312 L 2160.5 68.320312 C 2139.332031 68.320312 2121.992188 68.171875 2121.992188 67.945312 C 2121.992188 67.792969 2125.070312 63.441406 2128.824219 58.410156 C 2132.574219 53.304688 2135.804688 48.726562 2136.027344 48.199219 C 2136.328125 47.523438 2146.011719 47.296875 2181.066406 47.296875 L 2225.726562 47.296875 L 2225.277344 53.832031 C 2225.050781 57.507812 2224.300781 71.097656 2223.699219 84.085938 C 2222.125 117.570312 2222.050781 117.945312 2215.820312 119.296875 C 2213.71875 119.75 2210.039062 120.125 2207.710938 120.125 C 2201.707031 120.125 2201.105469 120.722656 2203.132812 124.179688 C 2204.035156 125.753906 2205.6875 129.734375 2206.886719 133.113281 C 2208.914062 139.042969 2209.136719 139.269531 2211.464844 139.492188 C 2214.769531 139.792969 2228.054688 136.339844 2231.28125 134.386719 C 2234.359375 132.4375 2237.136719 127.855469 2238.261719 122.75 C 2238.710938 120.648438 2239.914062 102.480469 2240.964844 82.210938 C 2242.089844 62.015625 2243.214844 43.09375 2243.589844 40.167969 C 2243.96875 37.3125 2244.34375 34.308594 2244.34375 33.632812 C 2244.34375 32.359375 2241.339844 32.285156 2195.175781 32.132812 L 2146.011719 31.90625 L 2149.3125 26.953125 C 2151.117188 24.25 2154.195312 20.570312 2156.070312 18.769531 L 2159.523438 15.464844 L 2152.917969 13.136719 C 2149.3125 11.789062 2144.058594 9.683594 2141.28125 8.410156 L 2136.179688 6.082031 Z M 2182.042969 96.472656 L 2182.042969 109.613281 L 2132.5 109.613281 L 2132.5 83.335938 L 2182.042969 83.335938 Z M 2182.042969 96.472656 "/>
<path style=" stroke:none;fill-rule:nonzero;fill:rgb(0%,0%,0%);fill-opacity:1;" d="M 511.246094 7.582031 C 510.195312 7.957031 506.515625 9.007812 502.988281 9.910156 C 499.460938 10.734375 496.230469 11.710938 495.855469 12.085938 C 495.480469 12.386719 496.609375 15.765625 498.183594 19.671875 C 499.835938 23.5 501.410156 27.402344 501.710938 28.304688 L 502.238281 30.03125 L 427.101562 30.03125 L 427.101562 67.945312 L 436.484375 67.71875 L 445.867188 67.496094 L 445.867188 45.046875 L 507.640625 45.195312 L 569.34375 45.421875 L 569.566406 55.40625 L 569.792969 65.390625 L 578.800781 65.167969 L 587.882812 64.941406 L 587.957031 47.523438 L 588.109375 30.03125 L 522.804688 30.03125 L 519.953125 21.699219 C 516.347656 11.335938 514.398438 6.757812 513.648438 6.832031 C 513.347656 6.832031 512.21875 7.207031 511.246094 7.582031 Z M 511.246094 7.582031 "/>
<path style=" stroke:none;fill-rule:nonzero;fill:rgb(0%,0%,0%);fill-opacity:1;" d="M 952.15625 9.835938 C 948.855469 11.035156 945.402344 12.011719 944.5 12.011719 C 942.398438 12.011719 942.324219 13.4375 944.199219 17.117188 C 945.402344 19.519531 948.328125 27.855469 949.90625 33.710938 L 950.429688 35.4375 L 927.085938 35.210938 L 903.742188 34.910156 L 903.742188 50.078125 L 921.007812 49.703125 C 930.539062 49.476562 938.269531 49.550781 938.269531 49.925781 C 938.269531 50.226562 936.917969 53.230469 935.34375 56.683594 C 927.6875 73.050781 916.425781 85.738281 907.644531 87.839844 L 903.96875 88.667969 L 907.195312 96.324219 C 908.996094 100.527344 910.496094 104.433594 910.496094 105.035156 C 910.496094 105.558594 910.949219 105.859375 911.625 105.558594 C 914.023438 104.65625 927.011719 102.628906 927.535156 103.15625 C 928.511719 104.058594 928.664062 116.144531 927.835938 125.90625 C 926.636719 140.996094 922.582031 151.429688 914.324219 160.742188 C 910.871094 164.644531 902.464844 171.328125 896.160156 175.15625 L 891.882812 177.632812 L 896.609375 179.734375 C 899.839844 181.085938 902.539062 183.039062 904.867188 185.515625 L 908.394531 189.269531 L 912.222656 186.265625 C 917.554688 182.136719 925.585938 174.179688 929.636719 168.925781 C 939.171875 156.535156 943.074219 141.671875 944.050781 114.269531 L 944.5 100.605469 L 947.953125 100.605469 C 949.828125 100.605469 952.683594 100.378906 954.257812 100.152344 L 957.035156 99.628906 L 957.035156 132.960938 C 957.035156 152.933594 957.410156 167.648438 957.859375 169.675781 C 958.988281 174.628906 961.6875 178.234375 965.816406 180.261719 C 969.121094 181.914062 970.546875 182.0625 982.480469 182.289062 C 997.042969 182.589844 999.894531 182.136719 1003.875 178.609375 C 1007.476562 175.457031 1009.878906 171.027344 1012.957031 162.015625 C 1015.882812 153.382812 1016.035156 153.984375 1009.953125 152.480469 C 1008.300781 152.03125 1004.625 150.304688 1001.921875 148.652344 C 999.144531 147 996.742188 145.648438 996.519531 145.648438 C 996.21875 145.648438 996.066406 146.777344 996.066406 148.203125 C 996.066406 152.03125 994.039062 161.714844 992.765625 164.269531 C 991.265625 167.121094 990.363281 167.421875 983.308594 167.421875 C 978.128906 167.421875 977.152344 167.199219 975.277344 165.621094 L 973.175781 163.820312 L 973.175781 98.726562 L 979.105469 98.050781 C 984.058594 97.527344 985.183594 97.601562 985.859375 98.5 C 986.308594 99.175781 988.335938 101.957031 990.289062 104.65625 L 993.890625 109.6875 L 997.417969 107.136719 C 999.371094 105.707031 1002.898438 103.382812 1005.300781 101.957031 L 1009.578125 99.328125 L 1002.449219 88.964844 C 995.015625 78.230469 984.28125 64.191406 981.804688 61.9375 C 980.378906 60.664062 980.15625 60.664062 976.027344 63.589844 C 973.625 65.242188 970.246094 67.34375 968.445312 68.246094 L 965.21875 69.898438 L 966.945312 72.300781 C 967.996094 73.652344 970.546875 77.03125 972.722656 79.957031 L 976.703125 85.210938 L 970.773438 85.738281 C 963.566406 86.414062 931.964844 87.765625 931.664062 87.464844 C 930.988281 86.789062 950.804688 64.265625 954.785156 61.1875 L 959.289062 57.585938 L 953.359375 54.28125 C 950.054688 52.480469 947.128906 50.601562 946.828125 50.152344 C 946.453125 49.625 955.683594 49.476562 978.351562 49.625 L 1010.328125 49.925781 L 1010.328125 34.910156 L 982.03125 35.0625 C 966.417969 35.136719 954.03125 35.0625 954.410156 34.910156 C 954.859375 34.761719 958.011719 33.785156 961.539062 32.734375 C 965.066406 31.757812 967.917969 30.632812 967.917969 30.179688 C 967.917969 28.378906 959.585938 7.582031 958.914062 7.65625 C 958.535156 7.65625 955.460938 8.707031 952.15625 9.835938 Z M 952.15625 9.835938 "/>
<path style=" stroke:none;fill-rule:nonzero;fill:rgb(0%,0%,0%);fill-opacity:1;" d="M 1918.875 9.535156 C 1917.972656 13.136719 1910.695312 30.855469 1907.316406 37.539062 C 1898.234375 55.632812 1884.496094 76.878906 1876.089844 85.738281 C 1874.289062 87.691406 1872.789062 89.566406 1872.789062 89.941406 C 1872.789062 90.316406 1874.214844 91.894531 1876.015625 93.546875 C 1877.742188 95.125 1880.59375 98.125 1882.246094 100.152344 L 1885.324219 103.757812 L 1895.003906 90.242188 C 1900.335938 82.734375 1904.914062 76.652344 1905.289062 76.652344 C 1906.640625 76.503906 1905.589844 179.210938 1904.164062 186.34375 C 1904.011719 187.09375 1906.191406 187.394531 1913.621094 187.542969 L 1923.230469 187.769531 L 1922.628906 186.042969 C 1922.328125 185.066406 1921.953125 154.058594 1921.800781 117.046875 L 1921.503906 49.703125 L 1925.253906 41.367188 C 1929.835938 31.230469 1934.414062 23.273438 1937.867188 19.519531 L 1940.417969 16.667969 L 1936.441406 15.390625 C 1934.261719 14.640625 1929.609375 12.613281 1926.15625 10.8125 C 1922.703125 9.007812 1919.777344 7.507812 1919.625 7.507812 C 1919.476562 7.507812 1919.101562 8.410156 1918.875 9.535156 Z M 1918.875 9.535156 "/>
<path style=" stroke:none;fill-rule:nonzero;fill:rgb(0%,0%,0%);fill-opacity:1;" d="M 2580.992188 18.84375 L 2581.59375 30.179688 L 2548.640625 29.804688 C 2530.476562 29.582031 2514.5625 29.128906 2513.289062 28.828125 L 2510.8125 28.378906 L 2510.8125 45.195312 L 2513.664062 44.746094 C 2515.164062 44.445312 2531.078125 44.070312 2548.941406 43.84375 L 2581.367188 43.394531 L 2581.367188 62.3125 L 2515.316406 62.3125 L 2515.839844 71.097656 C 2516.214844 75.976562 2516.441406 100.226562 2516.441406 125.003906 C 2516.441406 149.78125 2516.214844 174.03125 2515.839844 178.835938 L 2515.316406 187.695312 L 2532.578125 187.695312 L 2532.578125 75.828125 L 2647.421875 75.828125 L 2647.273438 122 C 2647.121094 158.5625 2646.824219 168.324219 2646.070312 169.074219 C 2645.398438 169.75 2642.167969 170.125 2636.164062 170.277344 C 2631.210938 170.425781 2627.15625 170.652344 2627.15625 170.800781 C 2627.15625 170.953125 2628.65625 174.554688 2630.535156 178.910156 C 2632.410156 183.265625 2633.914062 187.242188 2633.914062 187.769531 C 2633.914062 188.746094 2634.664062 188.667969 2647.273438 185.742188 C 2656.804688 183.5625 2659.207031 182.0625 2661.382812 177.03125 C 2662.660156 174.03125 2662.8125 170.050781 2663.335938 120.5 C 2663.5625 91.144531 2664.085938 66.066406 2664.3125 64.714844 L 2664.835938 62.3125 L 2597.132812 62.3125 L 2597.132812 43.394531 L 2634.289062 43.695312 L 2671.441406 43.921875 L 2671.441406 29.65625 L 2634.210938 29.878906 L 2596.90625 30.179688 L 2597.65625 7.507812 L 2580.46875 7.507812 Z M 2580.992188 18.84375 "/>
<path style=" stroke:none;fill-rule:nonzero;fill:rgb(0%,0%,0%);fill-opacity:1;" d="M 260.464844 10.585938 C 256.109375 11.710938 252.65625 12.914062 252.734375 13.289062 C 252.808594 13.664062 253.707031 17.34375 254.757812 21.546875 C 255.808594 25.75 256.710938 29.429688 256.710938 29.730469 C 256.710938 29.957031 248.230469 30.105469 237.945312 29.878906 L 219.105469 29.582031 L 219.328125 37.386719 L 219.554688 45.121094 L 262.566406 45.273438 L 305.5 45.421875 L 305.5 29.429688 L 289.886719 29.804688 L 274.273438 30.257812 L 272.023438 19.519531 C 270.824219 13.589844 269.472656 8.707031 269.097656 8.632812 C 268.644531 8.558594 264.816406 9.460938 260.464844 10.585938 Z M 260.464844 10.585938 "/>
<path style=" stroke:none;fill-rule:nonzero;fill:rgb(0%,0%,0%);fill-opacity:1;" d="M 1701.273438 11.035156 C 1699.996094 18.621094 1698.417969 26.425781 1696.992188 31.832031 L 1695.417969 37.6875 L 1682.804688 37.386719 L 1670.121094 37.089844 L 1670.121094 51.878906 L 1681.003906 51.351562 C 1690.238281 50.902344 1691.890625 50.976562 1691.589844 51.878906 C 1686.183594 68.769531 1682.207031 79.582031 1679.054688 85.738281 C 1678.152344 87.464844 1675.824219 90.46875 1673.722656 92.570312 L 1669.972656 96.324219 L 1673.125 103.53125 C 1674.925781 107.511719 1676.351562 110.8125 1676.425781 110.890625 C 1676.5 110.964844 1679.730469 110.515625 1683.632812 109.914062 C 1687.535156 109.3125 1695.042969 108.636719 1700.371094 108.335938 L 1709.902344 107.886719 L 1709.902344 132.738281 L 1707.878906 133.1875 C 1704.875 133.789062 1681.378906 136.492188 1674.097656 137.089844 L 1667.945312 137.542969 L 1670.046875 141.820312 C 1671.246094 144.148438 1672.75 147.828125 1673.421875 149.929688 C 1674.175781 152.105469 1674.851562 153.910156 1675 153.910156 C 1675.148438 153.910156 1678.753906 153.082031 1683.03125 152.105469 C 1687.234375 151.054688 1694.515625 149.554688 1699.019531 148.652344 C 1703.597656 147.753906 1707.953125 146.851562 1708.703125 146.625 C 1710.128906 146.25 1710.128906 146.777344 1709.601562 167.722656 L 1709.078125 189.195312 L 1726.117188 189.195312 L 1725.816406 166.746094 L 1725.515625 144.375 L 1735.875 142.796875 C 1741.65625 141.894531 1748.183594 141.070312 1750.4375 140.996094 L 1754.566406 140.769531 L 1754.941406 133.636719 C 1755.164062 129.734375 1755.242188 126.355469 1755.164062 126.207031 C 1755.089844 126.054688 1750.511719 126.65625 1745.03125 127.480469 C 1739.554688 128.382812 1732.949219 129.285156 1730.394531 129.582031 L 1725.667969 130.109375 L 1725.667969 108.113281 L 1740.527344 107.960938 L 1755.316406 107.734375 L 1755.542969 101.128906 L 1755.765625 94.597656 L 1725.441406 94.597656 L 1725.96875 82.734375 C 1726.191406 76.277344 1726.640625 69.820312 1726.867188 68.46875 L 1727.316406 66.066406 L 1709.078125 66.066406 L 1709.601562 80.332031 L 1710.128906 94.597656 L 1700.671875 94.597656 C 1695.417969 94.597656 1691.136719 94.523438 1691.136719 94.371094 C 1691.136719 94.222656 1692.5625 90.394531 1694.214844 85.886719 C 1695.941406 81.382812 1699.46875 71.773438 1702.097656 64.566406 L 1706.75 51.429688 L 1720.5625 51.429688 C 1728.144531 51.429688 1738.125 51.652344 1742.78125 52.027344 L 1751.261719 52.554688 L 1751.039062 44.894531 L 1750.8125 37.238281 L 1731.070312 37.464844 L 1711.253906 37.6875 L 1711.78125 35.886719 C 1714.332031 27.703125 1717.785156 19.519531 1719.585938 17.191406 L 1721.839844 14.414062 L 1717.933594 13.4375 C 1714.480469 12.613281 1706.449219 10.058594 1702.996094 8.632812 C 1701.945312 8.257812 1701.648438 8.707031 1701.273438 11.035156 Z M 1701.273438 11.035156 "/>
<path style=" stroke:none;fill-rule:nonzero;fill:rgb(0%,0%,0%);fill-opacity:1;" d="M 1987.179688 11.035156 C 1987.40625 12.613281 1987.855469 23.273438 1988.082031 34.6875 L 1988.609375 55.558594 L 1974.945312 55.558594 C 1963.6875 55.558594 1961.359375 55.40625 1961.359375 54.507812 C 1961.359375 52.855469 1967.289062 36.113281 1969.316406 32.058594 C 1970.367188 30.105469 1971.492188 28.53125 1971.867188 28.53125 C 1972.320312 28.53125 1972.621094 28.230469 1972.621094 27.929688 C 1972.621094 27.554688 1970.519531 26.726562 1967.964844 25.976562 C 1965.414062 25.300781 1960.910156 23.574219 1957.90625 22.222656 L 1952.503906 19.671875 L 1950.851562 28.078125 C 1947.546875 44.597656 1940.71875 64.941406 1933.363281 80.332031 C 1931.261719 84.6875 1929.457031 88.367188 1929.308594 88.589844 C 1929.160156 88.816406 1931.335938 89.941406 1934.113281 91.144531 C 1936.964844 92.34375 1940.492188 94.148438 1942.070312 95.125 C 1943.71875 96.175781 1945.070312 96.851562 1945.222656 96.699219 C 1945.371094 96.550781 1947.847656 90.695312 1950.703125 83.710938 L 1955.957031 70.949219 L 1972.167969 70.722656 L 1988.382812 70.574219 L 1988.382812 109.6875 L 1959.707031 109.539062 L 1930.960938 109.386719 L 1930.734375 117.269531 L 1930.507812 125.230469 L 1959.558594 124.777344 L 1988.53125 124.402344 L 1988.082031 152.859375 C 1987.855469 168.472656 1987.480469 182.738281 1987.179688 184.539062 L 1986.730469 187.695312 L 2005.269531 187.695312 L 2004.972656 156.085938 L 2004.746094 124.402344 L 2052.933594 125.152344 L 2052.933594 107.960938 L 2050.535156 108.410156 C 2049.183594 108.710938 2038.375 109.085938 2026.511719 109.386719 L 2004.894531 109.839844 L 2004.894531 70.496094 L 2025.914062 70.722656 L 2046.929688 70.949219 L 2046.929688 54.957031 L 2025.839844 55.332031 L 2004.746094 55.78125 L 2005.195312 34.835938 C 2005.421875 23.347656 2005.796875 12.613281 2006.097656 11.035156 L 2006.546875 8.257812 L 1986.730469 8.257812 Z M 1987.179688 11.035156 "/>
<path style=" stroke:none;fill-rule:nonzero;fill:rgb(0%,0%,0%);fill-opacity:1;" d="M 1493.875 29.730469 L 1494.25 49.625 L 1479.691406 49.402344 L 1465.203125 49.175781 L 1465.203125 64.640625 L 1477.8125 64.566406 C 1484.71875 64.566406 1490.722656 64.492188 1491.25 64.566406 C 1491.851562 64.566406 1491.550781 66.144531 1490.347656 69.597656 C 1483.21875 90.316406 1474.886719 106.761719 1462.726562 124.179688 C 1459.199219 129.207031 1457.847656 131.761719 1458.445312 132.136719 C 1458.972656 132.4375 1462.199219 135.515625 1465.652344 138.894531 C 1469.105469 142.347656 1472.109375 144.972656 1472.332031 144.824219 C 1473.683594 143.398438 1483.441406 126.054688 1488.171875 116.519531 C 1491.324219 110.289062 1494.027344 105.109375 1494.25 105.109375 C 1494.402344 105.109375 1494.402344 123.203125 1494.175781 145.273438 L 1493.726562 185.515625 L 1502.507812 185.292969 C 1509.941406 185.066406 1511.289062 184.914062 1511.066406 183.941406 C 1510.539062 181.460938 1510.316406 66.367188 1510.839844 65.46875 C 1511.367188 64.714844 1514.367188 64.566406 1523.976562 64.714844 L 1536.511719 64.941406 L 1536.511719 49.175781 L 1523.527344 49.402344 L 1510.464844 49.625 L 1510.316406 45.273438 C 1510.164062 39.640625 1511.589844 13.664062 1512.191406 11.410156 C 1512.640625 9.761719 1512.640625 9.761719 1503.109375 9.761719 L 1493.5 9.761719 Z M 1493.875 29.730469 "/>
<path style=" stroke:none;fill-rule:nonzero;fill:rgb(0%,0%,0%);fill-opacity:1;" d="M 375.984375 10.886719 C 375.234375 11.5625 358.195312 15.691406 349.710938 17.191406 C 344.984375 18.019531 336.875 19.070312 331.699219 19.519531 C 326.59375 19.96875 321.039062 20.496094 319.386719 20.722656 L 316.382812 21.023438 L 316.382812 66.667969 C 316.382812 114.191406 316.234375 116.820312 312.933594 133.261719 C 309.855469 148.050781 302.875 166.070312 296.191406 175.832031 C 295.292969 177.183594 294.316406 178.683594 294.015625 179.210938 C 293.414062 180.261719 308.953125 187.917969 310.15625 187.167969 C 311.355469 186.492188 318.785156 170.5 321.714844 162.316406 C 328.394531 144 332.449219 116.746094 332.523438 90.617188 L 332.523438 84.085938 L 354.367188 84.085938 L 354.140625 135.515625 L 353.914062 186.941406 L 370.429688 186.941406 L 370.203125 135.363281 L 369.902344 83.863281 L 378.984375 84.386719 L 388.070312 84.914062 L 388.070312 68.695312 L 360.296875 68.996094 L 332.523438 69.222656 L 332.671875 51.351562 L 332.898438 33.410156 L 343.78125 32.132812 C 349.789062 31.457031 360.070312 30.480469 366.675781 30.03125 C 373.28125 29.582031 380.789062 29.054688 383.339844 28.828125 L 388.070312 28.378906 L 385.667969 25.527344 C 384.316406 23.949219 381.6875 19.96875 379.8125 16.59375 C 377.859375 13.289062 376.132812 10.660156 375.984375 10.886719 Z M 375.984375 10.886719 "/>
<path style=" stroke:none;fill-rule:nonzero;fill:rgb(0%,0%,0%);fill-opacity:1;" d="M 1773.253906 12.539062 C 1768.675781 33.035156 1759.96875 53.90625 1748.9375 70.722656 C 1746.457031 74.476562 1744.507812 77.628906 1744.582031 77.707031 C 1744.730469 77.78125 1746.457031 78.304688 1748.410156 78.832031 C 1750.363281 79.355469 1753.890625 80.933594 1756.214844 82.285156 C 1758.46875 83.710938 1760.644531 84.835938 1760.871094 84.835938 C 1761.171875 84.835938 1764.546875 78.90625 1768.375 71.699219 L 1775.355469 58.558594 L 1797.800781 58.558594 C 1813.113281 58.558594 1820.246094 58.785156 1820.246094 59.386719 C 1820.246094 59.761719 1818.742188 64.792969 1816.867188 70.496094 C 1814.988281 76.203125 1813.488281 81.160156 1813.488281 81.535156 C 1813.488281 82.132812 1829.925781 85.964844 1830.378906 85.4375 C 1830.453125 85.289062 1831.578125 81.082031 1832.929688 75.976562 C 1834.28125 70.875 1836.832031 62.089844 1838.710938 56.457031 C 1840.511719 50.902344 1842.011719 46.023438 1842.011719 45.648438 C 1842.011719 45.347656 1827.976562 45.046875 1810.863281 45.046875 C 1793.746094 45.046875 1779.710938 44.894531 1779.710938 44.746094 C 1779.710938 44.597656 1780.910156 41.519531 1782.414062 37.839844 C 1785.789062 29.28125 1789.769531 21.996094 1792.621094 19.070312 C 1795.171875 16.367188 1795.023438 16.140625 1789.917969 15.464844 C 1786.765625 14.941406 1778.660156 12.539062 1775.058594 10.960938 C 1774.082031 10.511719 1773.632812 10.8125 1773.253906 12.539062 Z M 1773.253906 12.539062 "/>
<path style=" stroke:none;fill-rule:nonzero;fill:rgb(0%,0%,0%);fill-opacity:1;" d="M 864.710938 15.542969 C 863.433594 21.398438 860.804688 28.53125 855.925781 39.414062 C 848.496094 55.632812 841.964844 64.941406 835.886719 68.09375 C 834.609375 68.695312 833.410156 69.371094 833.335938 69.523438 C 833.183594 69.597656 834.160156 73.125 835.511719 77.328125 C 837.914062 84.613281 838.0625 84.914062 839.941406 84.386719 C 849.171875 82.058594 869.964844 79.582031 869.964844 80.859375 C 869.964844 81.757812 860.804688 97.226562 856.679688 103.230469 C 852.398438 109.613281 847.671875 114.042969 843.167969 116.144531 C 840.992188 117.195312 839.1875 118.246094 839.1875 118.621094 C 839.1875 119.222656 844.519531 133.789062 844.96875 134.3125 C 845.042969 134.464844 847.820312 133.9375 850.972656 133.039062 C 860.65625 130.410156 866.660156 129.285156 880.847656 127.707031 C 902.992188 125.152344 900.515625 125.90625 901.113281 121.398438 C 901.414062 119.222656 902.316406 115.84375 903.066406 113.816406 C 903.816406 111.714844 904.34375 109.988281 904.191406 109.839844 C 904.042969 109.6875 899.761719 110.289062 894.660156 111.113281 C 882.050781 113.140625 866.136719 115.019531 865.6875 114.566406 C 865.160156 114.042969 886.703125 79.65625 893.234375 70.421875 C 895.933594 66.667969 899.914062 61.714844 902.089844 59.386719 C 904.492188 56.832031 905.617188 55.105469 905.09375 54.882812 C 903.816406 54.429688 891.957031 48.273438 888.953125 46.472656 C 886.328125 44.820312 886.328125 44.894531 884.976562 49.175781 C 884.449219 50.828125 882.5 55.480469 880.621094 59.460938 L 877.246094 66.820312 L 871.839844 66.820312 C 868.839844 66.820312 863.808594 67.042969 860.65625 67.269531 L 854.875 67.792969 L 859.304688 60.363281 C 861.707031 56.308594 866.511719 47.898438 870.039062 41.742188 C 873.492188 35.585938 878.296875 28.230469 880.699219 25.375 C 883.101562 22.523438 884.976562 20.046875 884.828125 19.894531 C 884.675781 19.746094 871.164062 13.589844 866.4375 11.5625 C 865.910156 11.261719 865.234375 12.6875 864.710938 15.542969 Z M 864.710938 15.542969 "/>
<path style=" stroke:none;fill-rule:nonzero;fill:rgb(0%,0%,0%);fill-opacity:1;" d="M 2322.332031 11.789062 C 2322.257812 12.164062 2322.332031 21.773438 2322.40625 33.335938 L 2322.554688 54.28125 L 2310.621094 53.679688 C 2304.089844 53.378906 2298.460938 53.078125 2298.011719 53.003906 C 2297.5625 53.003906 2297.1875 56.007812 2297.035156 60.585938 L 2296.808594 68.320312 L 2322.40625 68.320312 L 2322.257812 84.988281 L 2322.03125 101.730469 L 2313.773438 104.507812 C 2309.269531 106.007812 2302.214844 108.035156 2298.160156 108.9375 C 2294.183594 109.914062 2290.957031 110.8125 2291.03125 111.039062 C 2291.40625 111.789062 2297.410156 127.179688 2297.9375 128.609375 C 2298.386719 129.957031 2298.460938 129.957031 2300.789062 128.53125 C 2307.09375 124.703125 2319.929688 118.621094 2321.730469 118.621094 C 2322.105469 118.621094 2322.40625 128.757812 2322.40625 141.144531 C 2322.40625 169.074219 2323.308594 167.121094 2310.546875 166.371094 C 2302.515625 165.921875 2301.988281 165.996094 2302.515625 167.199219 C 2302.816406 167.949219 2303.941406 172.152344 2305.066406 176.65625 L 2307.019531 184.691406 L 2311.523438 184.238281 C 2318.804688 183.488281 2326.984375 181.6875 2329.988281 180.109375 C 2331.5625 179.359375 2333.742188 177.558594 2334.792969 176.132812 C 2338.621094 171.027344 2338.921875 168.699219 2338.921875 139.644531 L 2338.921875 112.839844 L 2344.023438 110.589844 C 2346.800781 109.3125 2350.929688 107.660156 2353.183594 106.910156 L 2357.308594 105.558594 L 2357.308594 87.992188 L 2353.933594 89.34375 C 2352.054688 90.09375 2348.226562 91.746094 2345.449219 93.019531 C 2342.597656 94.296875 2339.972656 95.347656 2339.59375 95.347656 C 2339.21875 95.347656 2338.921875 89.417969 2338.921875 81.835938 L 2338.921875 68.320312 L 2359.1875 68.320312 L 2359.1875 53.078125 L 2348.976562 53.53125 L 2338.695312 54.054688 L 2339.070312 32.660156 L 2339.519531 11.261719 L 2330.964844 11.261719 C 2326.234375 11.261719 2322.40625 11.488281 2322.332031 11.789062 Z M 2322.332031 11.789062 "/>
<path style=" stroke:none;fill-rule:nonzero;fill:rgb(0%,0%,0%);fill-opacity:1;" d="M 2366.09375 43.320312 C 2366.316406 78.53125 2366.242188 77.628906 2371.046875 82.734375 C 2374.273438 86.265625 2377.5 86.488281 2415.109375 86.1875 C 2454.066406 85.964844 2453.613281 85.964844 2458.644531 80.183594 C 2460.820312 77.554688 2468.027344 62.238281 2468.027344 60.136719 C 2468.027344 59.6875 2466.601562 59.011719 2464.875 58.558594 C 2460.292969 57.433594 2456.242188 55.558594 2452.789062 53.078125 C 2451.210938 51.878906 2449.785156 51.050781 2449.636719 51.203125 C 2449.484375 51.351562 2448.660156 54.582031 2447.835938 58.410156 C 2445.882812 67.269531 2444.980469 69.144531 2441.753906 70.796875 C 2439.351562 72 2436.726562 72.074219 2412.707031 71.925781 C 2380.277344 71.625 2382.832031 72.75 2382.832031 59.535156 L 2382.832031 50.753906 L 2388.085938 49.703125 C 2392.664062 48.800781 2399.945312 47.222656 2426.367188 41.292969 C 2429.667969 40.542969 2434.472656 39.414062 2437.027344 38.738281 C 2439.503906 38.0625 2444.457031 37.011719 2447.910156 36.335938 C 2457.441406 34.609375 2457.140625 34.984375 2452.339844 30.40625 C 2449.109375 27.328125 2443.105469 19.746094 2442.128906 17.492188 C 2442.054688 17.417969 2439.050781 18.84375 2435.449219 20.796875 C 2427.042969 25.152344 2421.714844 27.253906 2413.457031 29.730469 C 2404.675781 32.285156 2383.808594 36.789062 2383.054688 36.335938 C 2382.757812 36.113281 2382.679688 30.40625 2382.980469 23.574219 L 2383.429688 11.261719 L 2365.867188 11.261719 Z M 2366.09375 43.320312 "/>
<path style=" stroke:none;fill-rule:nonzero;fill:rgb(0%,0%,0%);fill-opacity:1;" d="M 32.652344 39.414062 L 32.652344 66.820312 L 152 66.820312 L 151.851562 39.640625 L 151.773438 12.386719 L 92.175781 12.164062 L 32.652344 12.011719 Z M 134.960938 29.429688 L 135.1875 33.785156 L 49.539062 33.785156 L 49.539062 24.777344 L 92.175781 24.925781 L 134.734375 25.152344 Z M 135.109375 50.675781 L 135.109375 54.804688 L 49.539062 54.804688 L 49.539062 46.546875 L 135.109375 46.546875 Z M 135.109375 50.675781 "/>
<path style=" stroke:none;fill-rule:nonzero;fill:rgb(0%,0%,0%);fill-opacity:1;" d="M 1362.742188 13.964844 C 1359.066406 14.941406 1355.238281 15.765625 1354.335938 15.765625 C 1353.4375 15.765625 1352.460938 16.066406 1352.234375 16.515625 C 1351.632812 17.566406 1357.265625 31.609375 1362.144531 41.066406 C 1371.074219 58.410156 1376.179688 66.144531 1386.085938 76.953125 C 1391.265625 82.660156 1411.234375 100.453125 1414.460938 102.253906 C 1415.136719 102.628906 1416.335938 101.429688 1418.140625 98.5 C 1420.992188 93.847656 1425.121094 89.191406 1429.023438 86.265625 L 1431.574219 84.3125 L 1425.945312 82.058594 C 1414.835938 77.480469 1404.328125 69.523438 1394.417969 58.035156 C 1383.160156 44.894531 1375.355469 31.457031 1371.75 18.996094 C 1370.699219 15.390625 1369.800781 12.386719 1369.648438 12.386719 C 1369.574219 12.3125 1366.496094 12.988281 1362.742188 13.964844 Z M 1362.742188 13.964844 "/>
<path style=" stroke:none;fill-rule:nonzero;fill:rgb(0%,0%,0%);fill-opacity:1;" d="M 1612.546875 14.339844 C 1602.941406 18.167969 1578.394531 22.449219 1557.753906 23.875 C 1552.648438 24.25 1548.371094 24.699219 1548.144531 24.925781 C 1547.921875 25.152344 1548.070312 35.738281 1548.597656 48.5 C 1550.546875 100.980469 1547.246094 127.933594 1536.0625 150.679688 C 1532.234375 158.488281 1529.082031 162.917969 1523.226562 169 L 1519.246094 173.128906 L 1523.902344 175.378906 C 1526.453125 176.582031 1530.730469 179.210938 1533.359375 181.238281 C 1535.984375 183.1875 1538.386719 184.539062 1538.6875 184.238281 C 1542.515625 179.734375 1552.347656 161.492188 1555.578125 153.007812 C 1560.757812 139.042969 1565.785156 108.1875 1565.785156 89.492188 L 1565.785156 84.085938 L 1595.132812 84.085938 L 1594.910156 134.011719 L 1594.683594 183.941406 L 1611.949219 183.941406 L 1611.722656 133.863281 L 1611.421875 83.863281 L 1638.59375 84.761719 L 1638.59375 69.445312 L 1602.191406 69.671875 L 1565.785156 69.972656 L 1565.785156 54.128906 C 1565.785156 38.363281 1565.785156 38.289062 1567.511719 37.914062 C 1571.191406 37.164062 1611.121094 33.632812 1621.105469 33.257812 L 1631.6875 32.808594 L 1627.785156 27.101562 C 1625.609375 23.875 1622.683594 19.21875 1621.257812 16.667969 C 1619.90625 14.113281 1618.554688 12.011719 1618.328125 12.085938 C 1618.101562 12.164062 1615.550781 13.136719 1612.546875 14.339844 Z M 1612.546875 14.339844 "/>
<path style=" stroke:none;fill-rule:nonzero;fill:rgb(0%,0%,0%);fill-opacity:1;" d="M 1157.375 15.542969 C 1157.375 15.839844 1157.375 29.128906 1157.449219 44.894531 L 1157.523438 73.726562 L 1132.003906 73.425781 L 1106.410156 73.199219 L 1106.410156 89.417969 L 1131.929688 88.890625 L 1157.523438 88.367188 L 1157.300781 137.992188 L 1157.074219 187.695312 L 1174.339844 187.695312 L 1174.039062 137.992188 L 1173.8125 88.367188 L 1197.457031 88.742188 L 1221.101562 89.191406 L 1221.175781 81.160156 L 1221.175781 73.199219 L 1197.457031 73.5 L 1173.738281 73.726562 L 1174.039062 44.597656 L 1174.339844 15.390625 L 1165.933594 15.164062 C 1161.277344 15.089844 1157.449219 15.242188 1157.375 15.542969 Z M 1157.375 15.542969 "/>
<path style=" stroke:none;fill-rule:nonzero;fill:rgb(0%,0%,0%);fill-opacity:1;" d="M 1309.824219 25.226562 C 1301.570312 40.917969 1295.863281 49.777344 1286.480469 61.261719 C 1279.125 70.273438 1264.039062 83.636719 1254.878906 89.265625 C 1253.304688 90.167969 1252.027344 91.21875 1252.027344 91.445312 C 1252.101562 91.746094 1254.429688 93.394531 1257.28125 95.199219 C 1260.132812 97 1264.1875 100.003906 1266.289062 101.878906 L 1270.117188 105.332031 L 1272.445312 103.15625 C 1285.429688 90.917969 1305.921875 65.242188 1321.835938 41.292969 C 1324.460938 37.386719 1328.367188 31.90625 1330.542969 29.207031 L 1334.445312 24.25 L 1330.242188 22.523438 C 1327.914062 21.621094 1323.5625 19.519531 1320.558594 17.945312 L 1315.15625 15.089844 Z M 1309.824219 25.226562 "/>
<path style=" stroke:none;fill-rule:nonzero;fill:rgb(0%,0%,0%);fill-opacity:1;" d="M 649.957031 16.292969 C 649.957031 16.667969 649.957031 36.113281 650.035156 59.6875 C 650.109375 104.882812 649.507812 120.425781 646.957031 134.464844 C 644.253906 149.855469 638.25 164.871094 630.816406 175.003906 L 627.589844 179.285156 L 633.746094 182.4375 C 637.121094 184.164062 640.800781 186.265625 641.925781 187.019531 C 642.976562 187.769531 644.179688 188.445312 644.554688 188.445312 C 645.832031 188.445312 655.886719 166.597656 659.039062 157.0625 C 662.042969 148.203125 665.121094 134.464844 666.171875 125.230469 L 666.699219 120.875 L 708.808594 120.875 L 708.429688 150.90625 L 708.054688 180.9375 L 726.222656 180.9375 L 725.996094 150.90625 L 725.695312 120.875 L 770.882812 120.875 L 770.882812 139.042969 C 770.882812 165.621094 770.957031 165.394531 758.574219 165.769531 C 753.769531 165.996094 749.867188 166.371094 749.867188 166.671875 C 749.867188 166.972656 750.691406 169.074219 751.742188 171.25 C 752.71875 173.503906 754.144531 177.785156 754.894531 180.785156 L 756.171875 186.265625 L 759.171875 185.816406 C 764.425781 184.992188 776.289062 181.613281 779.289062 180.109375 C 782.367188 178.535156 785.144531 175.230469 786.722656 171.175781 C 787.546875 169 787.847656 154.808594 788.148438 92.71875 C 788.371094 50.976562 788.445312 16.667969 788.296875 16.292969 C 788.148438 15.992188 756.996094 15.765625 719.015625 15.765625 C 681.109375 15.765625 650.035156 15.992188 649.957031 16.292969 Z M 708.582031 46.546875 L 708.582031 62.3125 L 666.546875 62.3125 L 666.546875 30.78125 L 708.582031 30.78125 Z M 770.882812 46.546875 L 770.882812 62.3125 L 725.847656 62.3125 L 725.847656 30.78125 L 770.882812 30.78125 Z M 708.582031 91.59375 L 708.582031 106.609375 L 666.546875 106.609375 L 666.546875 76.578125 L 708.582031 76.578125 Z M 770.882812 91.59375 L 770.882812 106.609375 L 725.847656 106.609375 L 725.847656 76.578125 L 770.882812 76.578125 Z M 770.882812 91.59375 "/>
<path style=" stroke:none;fill-rule:nonzero;fill:rgb(0%,0%,0%);fill-opacity:1;" d="M 1070.828125 20.269531 C 1066.699219 22.75 1063.246094 24.925781 1063.171875 25 C 1063.023438 25.152344 1067.074219 31.683594 1072.105469 39.566406 C 1077.132812 47.449219 1081.714844 54.582031 1082.238281 55.480469 C 1083.140625 57.058594 1083.140625 57.058594 1087.117188 54.582031 C 1089.21875 53.15625 1092.820312 51.128906 1095 49.925781 C 1097.175781 48.726562 1098.828125 47.449219 1098.675781 47 C 1098.453125 46.546875 1094.171875 39.867188 1089.070312 32.207031 C 1083.964844 24.550781 1079.460938 17.71875 1079.011719 17.042969 C 1078.335938 15.917969 1077.359375 16.292969 1070.828125 20.269531 Z M 1070.828125 20.269531 "/>
<path style=" stroke:none;fill-rule:nonzero;fill:rgb(0%,0%,0%);fill-opacity:1;" d="M 276.226562 47.75 C 276.226562 49.175781 268.71875 73.050781 268.046875 73.800781 C 267.746094 74.101562 261.738281 74.25 254.757812 74.175781 L 242.074219 73.953125 L 247.328125 72.148438 C 250.253906 71.171875 252.882812 70.121094 253.257812 69.820312 C 253.785156 69.296875 245.078125 48.351562 244.023438 47.75 C 243.800781 47.597656 240.648438 48.800781 237.042969 50.453125 L 230.515625 53.457031 L 232.316406 56.984375 C 233.96875 60.289062 239.445312 73.5 239.445312 74.175781 C 239.445312 74.402344 233.890625 74.402344 227.0625 74.175781 L 214.675781 73.726562 L 214.675781 90.316406 L 234.941406 89.71875 L 255.210938 89.191406 L 255.210938 106.835938 L 236.820312 106.460938 L 218.429688 106.007812 L 218.429688 122.527344 L 236.820312 122 L 255.210938 121.398438 L 255.210938 143.171875 C 255.210938 163.292969 255.132812 165.019531 253.859375 166.144531 C 252.734375 167.199219 250.855469 167.421875 244.550781 167.421875 L 236.59375 167.421875 L 239.070312 172.152344 C 240.421875 174.707031 242.148438 178.757812 242.898438 181.238281 L 244.25 185.589844 L 249.730469 185.140625 C 260.765625 184.089844 266.46875 181.3125 269.472656 175.304688 C 271.421875 171.328125 271.496094 170.125 271.722656 126.582031 L 271.722656 121.398438 L 289.363281 122 L 307.003906 122.527344 L 307.003906 106.007812 L 289.210938 106.460938 L 271.347656 106.835938 L 271.574219 98.050781 L 271.796875 89.191406 L 290.039062 89.71875 L 308.351562 90.316406 L 308.726562 84.386719 C 308.953125 81.082031 309.105469 77.40625 309.027344 76.203125 L 308.878906 73.953125 L 295.96875 74.25 L 283.058594 74.476562 L 285.609375 68.09375 C 288.761719 60.363281 290.789062 56.609375 293.265625 53.90625 L 295.140625 51.953125 L 290.714844 50.675781 C 279.53125 47.296875 276.226562 46.625 276.226562 47.75 Z M 276.226562 47.75 "/>
<path style=" stroke:none;fill-rule:nonzero;fill:rgb(0%,0%,0%);fill-opacity:1;" d="M 464.855469 56.308594 L 458.703125 62.839844 L 460.652344 63.742188 C 463.65625 65.09375 478.441406 76.503906 485.125 82.511719 C 488.351562 85.4375 491.203125 87.839844 491.503906 87.839844 C 491.804688 87.839844 492.703125 86.640625 493.53125 85.136719 C 494.355469 83.636719 496.984375 80.632812 499.386719 78.457031 L 503.738281 74.476562 L 497.132812 69.296875 C 490.527344 64.042969 473.1875 50.976562 471.761719 50.152344 C 471.386719 49.925781 468.234375 52.703125 464.855469 56.308594 Z M 464.855469 56.308594 "/>
<path style=" stroke:none;fill-rule:nonzero;fill:rgb(0%,0%,0%);fill-opacity:1;" d="M 510.71875 65.617188 C 511.246094 79.054688 510.269531 108.113281 509.21875 112.316406 L 508.769531 114.191406 L 467.183594 113.96875 L 425.597656 113.742188 L 425.597656 129.957031 L 465.382812 129.433594 C 493.53125 129.058594 505.164062 129.132812 505.164062 129.660156 C 505.164062 132.4375 491.277344 146.851562 483.996094 151.65625 C 473.640625 158.414062 454.273438 165.695312 436.410156 169.375 L 426.5 171.402344 L 431.230469 175.757812 C 433.855469 178.234375 436.859375 181.988281 438.058594 184.316406 C 440.613281 189.269531 439.710938 189.269531 454.875 183.941406 C 478.140625 175.679688 489.625 169.675781 502.539062 158.9375 C 511.546875 151.429688 516.425781 145.125 524.605469 130.632812 C 525.132812 129.660156 529.710938 129.507812 559.882812 129.660156 L 594.488281 129.808594 L 594.488281 113.742188 L 560.710938 113.96875 C 534.664062 114.191406 526.933594 114.042969 526.933594 113.292969 C 526.933594 107.136719 529.484375 68.320312 530.308594 62.691406 C 531.4375 54.355469 531.359375 54.128906 526.933594 54.054688 C 525.507812 54.054688 521.152344 53.378906 517.25 52.628906 L 510.195312 51.277344 Z M 510.71875 65.617188 "/>
<path style=" stroke:none;fill-rule:nonzero;fill:rgb(0%,0%,0%);fill-opacity:1;" d="M 1044.105469 81.457031 L 1044.105469 90.316406 L 1048.835938 89.867188 C 1051.386719 89.566406 1057.617188 89.117188 1062.722656 88.890625 L 1071.953125 88.367188 L 1071.730469 123.203125 C 1071.429688 161.339844 1071.503906 160.589844 1066.625 168.925781 L 1064.675781 172.300781 L 1070.679688 176.507812 C 1074.058594 178.835938 1077.433594 181.460938 1078.183594 182.363281 C 1079.011719 183.1875 1079.835938 183.941406 1080.136719 183.941406 C 1080.4375 183.941406 1082.839844 181.085938 1085.390625 177.558594 C 1087.941406 174.03125 1092.820312 168.171875 1096.199219 164.570312 C 1099.578125 160.964844 1105.65625 154.359375 1109.636719 149.855469 L 1116.917969 141.671875 L 1114.289062 138.140625 C 1112.789062 136.117188 1110.835938 132.8125 1109.9375 130.632812 L 1108.210938 126.730469 L 1098.226562 138.140625 L 1088.320312 149.628906 L 1088.542969 111.640625 L 1088.769531 73.574219 L 1071.054688 73.574219 C 1061.296875 73.574219 1051.238281 73.351562 1048.6875 73.125 L 1044.105469 72.601562 Z M 1044.105469 81.457031 "/>
<path style=" stroke:none;fill-rule:nonzero;fill:rgb(0%,0%,0%);fill-opacity:1;" d="M 1781.738281 87.238281 C 1781.511719 96.023438 1780.910156 104.507812 1780.085938 108.863281 C 1775.507812 134.089844 1761.847656 156.535156 1742.78125 170.050781 C 1739.328125 172.453125 1736.25 174.707031 1735.949219 175.003906 C 1735.574219 175.230469 1736.925781 176.507812 1738.953125 177.707031 C 1742.480469 179.960938 1749.6875 186.71875 1749.6875 187.84375 C 1749.6875 189.71875 1752.613281 187.46875 1759.894531 179.960938 C 1774.90625 164.644531 1781.363281 155.109375 1787.96875 138.742188 C 1789.917969 133.789062 1791.722656 129.660156 1791.871094 129.507812 C 1792.019531 129.285156 1792.921875 131.460938 1793.824219 134.3125 C 1797.199219 144.675781 1804.332031 156.988281 1812.289062 166.144531 C 1815.964844 170.425781 1833.15625 185.441406 1834.355469 185.441406 C 1834.65625 185.441406 1835.558594 184.316406 1836.308594 182.886719 C 1838.035156 179.734375 1843.886719 173.652344 1846.742188 172.226562 C 1847.867188 171.625 1848.769531 171.027344 1848.769531 170.800781 C 1848.769531 170.652344 1846.515625 169.222656 1843.738281 167.722656 C 1833.679688 162.167969 1827.976562 157.960938 1821.371094 151.28125 C 1813.414062 143.246094 1808.609375 135.589844 1804.855469 125.078125 C 1800.652344 113.441406 1799.753906 106.382812 1800.128906 89.265625 L 1800.503906 74.550781 L 1793.296875 74.027344 C 1789.320312 73.800781 1785.191406 73.351562 1784.140625 73.125 L 1782.113281 72.675781 Z M 1781.738281 87.238281 "/>
<path style=" stroke:none;fill-rule:nonzero;fill:rgb(0%,0%,0%);fill-opacity:1;" d="M 451.570312 80.707031 C 450.070312 83.035156 447.59375 86.265625 446.089844 87.914062 C 444.589844 89.566406 443.539062 90.992188 443.6875 91.144531 C 443.839844 91.21875 446.691406 92.570312 449.917969 94.070312 C 456.449219 97.148438 465.605469 103.304688 472.289062 109.011719 L 476.566406 112.691406 L 483.398438 105.785156 C 487.074219 102.03125 490.152344 98.875 490.152344 98.726562 C 490.152344 97.976562 455.847656 76.578125 454.648438 76.578125 C 454.5 76.578125 453.070312 78.457031 451.570312 80.707031 Z M 451.570312 80.707031 "/>
<path style=" stroke:none;fill-rule:nonzero;fill:rgb(0%,0%,0%);fill-opacity:1;" d="M 2560.203125 81.382812 C 2557.5 83.636719 2555.023438 85.886719 2554.722656 86.339844 C 2554.421875 86.789062 2555.699219 89.117188 2557.574219 91.445312 C 2561.175781 96.097656 2567.859375 106.160156 2567.859375 107.058594 C 2567.859375 107.585938 2552.921875 106.910156 2548.191406 106.160156 L 2545.339844 105.632812 L 2545.339844 121.625 L 2564.105469 121.175781 L 2582.871094 120.648438 L 2582.871094 134.613281 L 2564.328125 134.089844 C 2554.046875 133.789062 2544.289062 133.414062 2542.5625 133.1875 L 2539.335938 132.738281 L 2539.335938 148.277344 L 2561.253906 148.050781 L 2583.09375 147.753906 L 2582.644531 164.34375 L 2582.195312 180.9375 L 2599.082031 180.9375 L 2598.785156 164.34375 L 2598.484375 147.828125 L 2619.949219 148.050781 L 2641.417969 148.277344 L 2641.417969 133.789062 L 2620.027344 134.238281 L 2598.632812 134.613281 L 2598.632812 120.648438 L 2617.398438 121.101562 L 2636.164062 121.476562 L 2636.164062 106.835938 L 2624.152344 107.210938 C 2617.546875 107.4375 2612.144531 107.359375 2612.144531 107.058594 C 2612.144531 106.835938 2613.570312 103.980469 2615.371094 100.828125 C 2618.898438 94.449219 2622.128906 90.769531 2625.582031 89.265625 C 2626.855469 88.667969 2627.90625 88.066406 2627.90625 87.839844 C 2627.90625 87.539062 2611.320312 79.808594 2609.742188 79.355469 C 2609.441406 79.28125 2607.113281 83.410156 2604.636719 88.589844 C 2602.160156 93.773438 2598.785156 100.078125 2597.132812 102.628906 L 2594.203125 107.359375 L 2569.734375 107.359375 L 2573.488281 104.734375 C 2581.59375 99.027344 2581.144531 99.550781 2579.71875 97.148438 C 2577.691406 93.621094 2565.980469 77.328125 2565.53125 77.328125 C 2565.304688 77.328125 2562.902344 79.207031 2560.203125 81.382812 Z M 2560.203125 81.382812 "/>
<path style=" stroke:none;fill-rule:nonzero;fill:rgb(0%,0%,0%);fill-opacity:1;" d="M 6.003906 85.4375 L 6.003906 92.496094 L 16.511719 91.96875 L 27.023438 91.371094 L 26.871094 123.578125 L 26.648438 155.785156 L 23.269531 156.3125 C 21.390625 156.535156 17.113281 156.835938 13.734375 156.910156 C 9.15625 157.0625 7.507812 157.363281 7.507812 158.113281 C 7.507812 158.636719 8.707031 162.390625 10.132812 166.445312 C 11.632812 170.5 12.910156 174.179688 13.136719 174.707031 C 13.359375 175.378906 14.113281 175.378906 15.914062 174.855469 C 27.398438 171.476562 60.347656 163.894531 70.03125 162.542969 L 73.558594 162.015625 L 73.558594 183.941406 L 89.699219 183.941406 L 89.699219 159.539062 L 94.425781 158.863281 L 99.082031 158.113281 L 99.082031 150.753906 C 99.082031 146.703125 98.855469 143.398438 98.554688 143.398438 C 98.179688 143.398438 96.304688 143.921875 94.277344 144.523438 C 92.25 145.125 90.300781 145.648438 89.921875 145.648438 C 89.625 145.648438 89.324219 133.414062 89.324219 118.546875 L 89.324219 91.445312 L 132.484375 91.746094 L 175.644531 91.96875 L 175.644531 78.457031 L 6.003906 78.457031 Z M 73.558594 97.601562 L 73.558594 103.605469 L 42.785156 103.605469 L 42.785156 91.59375 L 73.558594 91.59375 Z M 73.558594 122 L 73.558594 127.632812 L 42.785156 127.632812 L 42.785156 116.371094 L 73.558594 116.371094 Z M 73.183594 144.523438 L 73.183594 149.027344 L 59.296875 151.054688 C 51.640625 152.105469 44.8125 153.082031 44.136719 153.082031 C 42.933594 153.15625 42.785156 152.332031 42.785156 146.402344 L 42.785156 139.644531 L 58.023438 139.792969 L 73.183594 140.019531 Z M 73.183594 144.523438 "/>
<path style=" stroke:none;fill-rule:nonzero;fill:rgb(0%,0%,0%);fill-opacity:1;" d="M 1289.558594 95.125 L 1289.558594 102.855469 L 1315.078125 102.855469 L 1314.703125 104.882812 C 1314.554688 106.085938 1313.953125 109.539062 1313.503906 112.617188 C 1310.800781 130.109375 1304.570312 142.046875 1293.3125 151.28125 C 1286.554688 156.835938 1278.074219 161.792969 1268.316406 165.921875 C 1263.886719 167.796875 1260.285156 169.523438 1260.285156 169.75 C 1260.285156 170.050781 1261.636719 171.175781 1263.285156 172.300781 C 1266.441406 174.480469 1271.84375 180.035156 1273.871094 183.1875 L 1275.070312 185.066406 L 1279.875 182.136719 C 1307.5 165.246094 1318.53125 153.984375 1325.289062 135.890625 C 1327.539062 129.882812 1330.84375 115.621094 1331.96875 106.382812 L 1332.417969 102.855469 L 1350.960938 102.78125 C 1361.167969 102.78125 1370.023438 102.628906 1370.699219 102.480469 C 1374.003906 101.878906 1374.003906 102.332031 1371.152344 129.058594 C 1368.296875 155.410156 1367.324219 159.839844 1364.394531 161.265625 C 1363.496094 161.714844 1358.015625 162.242188 1352.234375 162.46875 C 1346.457031 162.691406 1341.652344 162.84375 1341.578125 162.84375 C 1341.5 162.917969 1342.777344 165.546875 1344.355469 168.773438 C 1345.929688 172.003906 1347.882812 176.730469 1348.558594 179.285156 C 1349.308594 181.835938 1350.058594 183.941406 1350.359375 183.941406 C 1351.632812 183.941406 1372.425781 178.535156 1374.527344 177.707031 C 1378.132812 176.132812 1381.660156 172.152344 1383.386719 167.722656 C 1384.363281 164.945312 1385.863281 154.734375 1388.265625 133.488281 C 1390.140625 116.820312 1392.167969 99.851562 1392.769531 95.722656 C 1393.367188 91.667969 1393.742188 88.214844 1393.667969 88.140625 C 1393.59375 88.066406 1370.101562 87.839844 1341.578125 87.691406 L 1289.558594 87.390625 Z M 1289.558594 95.125 "/>
<path style=" stroke:none;fill-rule:nonzero;fill:rgb(0%,0%,0%);fill-opacity:1;" d="M 1518.871094 90.46875 C 1515.570312 92.34375 1512.566406 93.921875 1512.117188 94.070312 C 1511.742188 94.222656 1512.117188 95.722656 1513.09375 97.300781 C 1514.066406 98.875 1517.445312 105.484375 1520.597656 111.867188 L 1526.378906 123.578125 L 1530.882812 120.425781 C 1533.359375 118.621094 1536.660156 116.59375 1538.238281 115.917969 C 1539.738281 115.242188 1541.015625 114.34375 1541.015625 114.042969 C 1541.015625 113.441406 1537.035156 106.007812 1529.53125 92.496094 C 1527.878906 89.566406 1526.152344 87.089844 1525.703125 87.164062 C 1525.253906 87.164062 1522.175781 88.667969 1518.871094 90.46875 Z M 1518.871094 90.46875 "/>
<path style=" stroke:none;fill-rule:nonzero;fill:rgb(0%,0%,0%);fill-opacity:1;" d="M 2367.667969 111.640625 C 2368.042969 118.621094 2368.117188 138.367188 2367.894531 155.558594 L 2367.519531 186.941406 L 2384.707031 186.941406 L 2384.707031 172.679688 L 2436.5 172.679688 L 2436.5 184.691406 L 2453.390625 184.691406 L 2453.390625 99.101562 L 2367.066406 99.101562 Z M 2436.5 120.875 L 2436.5 128.382812 L 2384.707031 128.382812 L 2384.707031 113.367188 L 2436.5 113.367188 Z M 2436.5 150.53125 L 2436.5 158.414062 L 2384.707031 158.414062 L 2384.707031 142.648438 L 2436.5 142.648438 Z M 2436.5 150.53125 "/>
<path style=" stroke:none;fill-rule:nonzero;fill:rgb(0%,0%,0%);fill-opacity:1;" d="M 94.578125 109.914062 L 94.578125 117.121094 L 101.03125 117.121094 L 102.460938 122.527344 C 105.613281 134.988281 110.191406 144.449219 116.945312 152.332031 L 120.398438 156.386719 L 115.21875 161.191406 C 110.265625 165.847656 99.832031 171.777344 94.351562 173.128906 C 93.226562 173.355469 92.324219 173.878906 92.476562 174.179688 C 92.625 174.480469 95.328125 177.484375 98.554688 180.9375 L 104.335938 187.09375 L 106.4375 185.742188 C 111.464844 182.511719 122.425781 173.953125 127.003906 169.75 L 131.957031 165.171875 L 140.066406 169.601562 C 147.570312 173.804688 156.578125 177.785156 165.660156 180.9375 L 169.5625 182.363281 L 170.464844 179.585938 C 170.914062 178.082031 172.640625 174.328125 174.21875 171.402344 C 177.144531 165.996094 177.144531 165.921875 175.492188 165.621094 C 174.519531 165.394531 170.914062 164.644531 167.460938 163.96875 C 159.054688 162.390625 150.722656 159.613281 145.621094 156.761719 C 143.367188 155.484375 141.417969 154.433594 141.265625 154.285156 C 141.191406 154.207031 142.617188 151.429688 144.492188 148.128906 C 149.972656 138.519531 157.703125 117.644531 160.257812 106.007812 L 160.78125 103.605469 L 132.257812 103.605469 C 116.644531 103.605469 101.707031 103.382812 99.15625 103.15625 L 94.578125 102.628906 Z M 141.867188 116.96875 C 141.867188 118.773438 136.914062 131.761719 134.285156 137.015625 C 129.855469 145.726562 129.554688 145.949219 126.480469 142.273438 C 121.222656 136.039062 116.722656 126.65625 115.292969 118.773438 L 114.917969 116.371094 L 128.355469 116.371094 C 135.785156 116.371094 141.867188 116.671875 141.867188 116.96875 Z M 141.867188 116.96875 "/>
<path style=" stroke:none;fill-rule:nonzero;fill:rgb(0%,0%,0%);fill-opacity:1;" d="M 232.316406 132.210938 C 226.835938 141.445312 223.457031 146.25 216.328125 154.960938 L 211.375 160.964844 L 213.25 162.09375 C 214.226562 162.769531 217.152344 165.09375 219.78125 167.273438 C 222.40625 169.523438 224.660156 171.175781 224.734375 171.027344 C 227.886719 167.121094 252.207031 134.164062 252.058594 134.089844 C 251.90625 133.9375 249.957031 132.8125 247.703125 131.460938 C 245.453125 130.035156 242.148438 127.78125 240.421875 126.429688 L 237.269531 123.878906 Z M 232.316406 132.210938 "/>
<path style=" stroke:none;fill-rule:nonzero;fill:rgb(0%,0%,0%);fill-opacity:1;" d="M 281.105469 129.957031 C 278.253906 131.984375 275.550781 134.011719 275.175781 134.386719 C 274.800781 134.765625 276.152344 137.542969 278.480469 141.296875 C 280.65625 144.75 284.332031 150.980469 286.585938 155.261719 L 290.636719 162.992188 L 294.542969 159.3125 C 296.644531 157.363281 299.496094 155.035156 300.847656 154.285156 C 302.121094 153.457031 303.25 152.480469 303.25 152.03125 C 303.25 150.980469 287.109375 126.054688 286.511719 126.128906 C 286.433594 126.207031 284.03125 127.855469 281.105469 129.957031 Z M 281.105469 129.957031 "/>
<path style=" stroke:none;fill-rule:nonzero;fill:rgb(0%,0%,0%);fill-opacity:1;" d="M 526.558594 145.425781 C 523.855469 149.105469 521.679688 152.183594 521.679688 152.40625 C 521.679688 152.632812 529.035156 157.136719 538.042969 162.542969 C 546.972656 167.949219 559.359375 175.605469 565.515625 179.660156 C 574.597656 185.667969 576.847656 186.867188 577.597656 186.042969 C 582.328125 180.863281 590.058594 171.777344 589.910156 171.625 C 589.382812 171.25 552.453125 150.078125 542.320312 144.375 C 536.992188 141.371094 532.335938 138.894531 531.960938 138.894531 C 531.660156 138.894531 529.257812 141.820312 526.558594 145.425781 Z M 526.558594 145.425781 "/>
<path style=" stroke:none;fill-rule:nonzero;fill:rgb(0%,0%,0%);fill-opacity:1;" d="M 891.132812 146.101562 C 875.742188 151.207031 864.636719 153.984375 849.320312 156.535156 C 842.714844 157.664062 836.5625 158.714844 835.660156 158.863281 C 834.007812 159.164062 834.007812 159.238281 836.5625 163.59375 C 837.988281 165.996094 840.089844 170.125 841.214844 172.753906 C 842.265625 175.378906 843.242188 177.632812 843.316406 177.785156 C 843.390625 177.859375 845.792969 176.882812 848.648438 175.605469 C 856.226562 172.152344 859.90625 170.953125 882.347656 164.71875 C 893.535156 161.640625 903.214844 158.9375 903.96875 158.714844 C 905.09375 158.339844 905.242188 157.289062 905.242188 150.078125 C 905.242188 144 905.019531 141.894531 904.34375 141.972656 C 903.816406 142.046875 897.886719 143.847656 891.132812 146.101562 Z M 891.132812 146.101562 "/>
</g>
</svg>
