<?xml version="1.0" encoding="UTF-8"?>
<svg xmlns="http://www.w3.org/2000/svg" xmlns:xlink="http://www.w3.org/1999/xlink" width="1782pt" height="129pt" viewBox="0 0 1782 129" version="1.1">
<g id="surface1">
<path style=" stroke:none;fill-rule:nonzero;fill:rgb(0%,0%,0%);fill-opacity:1;" d="M 1419.949219 5.242188 C 1419.699219 5.890625 1418.652344 8.289062 1417.605469 10.582031 C 1411.316406 24.363281 1403.230469 36.042969 1392.800781 46.429688 C 1390.152344 49.023438 1388.007812 51.269531 1388.007812 51.46875 C 1388.007812 51.621094 1388.507812 52.019531 1389.15625 52.269531 C 1389.753906 52.570312 1392.148438 54.316406 1394.445312 56.113281 C 1396.742188 57.910156 1398.789062 59.40625 1398.988281 59.40625 C 1399.1875 59.40625 1401.035156 57.410156 1403.03125 54.914062 L 1406.722656 50.472656 L 1406.972656 80.277344 L 1407.222656 110.078125 L 1408.621094 112.875 C 1410.019531 115.769531 1411.914062 117.417969 1415.457031 118.867188 C 1418.152344 119.914062 1480.691406 120.164062 1485.78125 119.117188 C 1492.121094 117.765625 1495.5625 114.421875 1498.859375 106.484375 C 1501.652344 99.746094 1501.652344 100.042969 1499.457031 99.644531 C 1496.5625 99.195312 1492.621094 97.148438 1490.125 94.851562 C 1487.527344 92.457031 1487.976562 92.058594 1486.628906 98.597656 C 1485.484375 104.238281 1484.832031 106.335938 1483.835938 107.332031 C 1481.988281 109.179688 1478.59375 109.378906 1450.097656 109.230469 C 1425.390625 109.082031 1422.546875 108.980469 1421.148438 108.230469 C 1418.253906 106.683594 1417.953125 105.136719 1417.953125 93.40625 L 1417.953125 82.871094 L 1462.125 82.871094 L 1462.125 45.429688 L 1436.570312 45.429688 C 1422.496094 45.429688 1410.964844 45.328125 1410.964844 45.179688 C 1410.964844 45.082031 1413.011719 42.183594 1415.507812 38.839844 C 1418.003906 35.445312 1420.148438 32.398438 1420.300781 32.050781 C 1420.5 31.601562 1426.9375 31.453125 1450.246094 31.453125 L 1479.941406 31.453125 L 1479.644531 35.792969 C 1479.492188 38.242188 1478.992188 47.277344 1478.59375 55.914062 C 1477.546875 78.179688 1477.496094 78.429688 1473.355469 79.328125 C 1471.957031 79.625 1469.511719 79.875 1467.964844 79.875 C 1463.972656 79.875 1463.570312 80.277344 1464.917969 82.570312 C 1465.519531 83.621094 1466.617188 86.265625 1467.414062 88.511719 C 1468.761719 92.457031 1468.914062 92.605469 1470.460938 92.757812 C 1472.65625 92.957031 1481.488281 90.660156 1483.636719 89.363281 C 1485.683594 88.0625 1487.527344 85.019531 1488.277344 81.625 C 1488.578125 80.226562 1489.375 68.144531 1490.074219 54.664062 C 1490.824219 41.234375 1491.570312 28.65625 1491.820312 26.707031 C 1492.070312 24.8125 1492.320312 22.816406 1492.320312 22.367188 C 1492.320312 21.515625 1490.324219 21.464844 1459.628906 21.367188 L 1426.9375 21.21875 L 1429.132812 17.921875 C 1430.332031 16.125 1432.378906 13.679688 1433.625 12.480469 L 1435.921875 10.285156 L 1431.53125 8.738281 C 1429.132812 7.835938 1425.640625 6.441406 1423.792969 5.589844 L 1420.398438 4.042969 Z M 1450.894531 64.152344 L 1450.894531 72.886719 L 1417.953125 72.886719 L 1417.953125 55.414062 L 1450.894531 55.414062 Z M 1450.894531 64.152344 "/>
<path style=" stroke:none;fill-rule:nonzero;fill:rgb(0%,0%,0%);fill-opacity:1;" d="M 339.941406 5.042969 C 339.242188 5.292969 336.796875 5.992188 334.449219 6.589844 C 332.105469 7.140625 329.957031 7.789062 329.707031 8.039062 C 329.457031 8.238281 330.207031 10.484375 331.253906 13.078125 C 332.351562 15.625 333.402344 18.222656 333.601562 18.820312 L 333.949219 19.96875 L 283.988281 19.96875 L 283.988281 45.179688 L 290.230469 45.03125 L 296.46875 44.878906 L 296.46875 29.953125 L 337.542969 30.054688 L 378.570312 30.203125 L 378.71875 36.84375 L 378.871094 43.484375 L 384.859375 43.332031 L 390.898438 43.183594 L 390.949219 31.601562 L 391.046875 19.96875 L 347.625 19.96875 L 345.730469 14.425781 C 343.332031 7.539062 342.035156 4.492188 341.535156 4.542969 C 341.335938 4.542969 340.589844 4.792969 339.941406 5.042969 Z M 339.941406 5.042969 "/>
<path style=" stroke:none;fill-rule:nonzero;fill:rgb(0%,0%,0%);fill-opacity:1;" d="M 633.113281 6.539062 C 630.917969 7.339844 628.621094 7.988281 628.023438 7.988281 C 626.625 7.988281 626.574219 8.9375 627.824219 11.382812 C 628.621094 12.980469 630.566406 18.519531 631.617188 22.414062 L 631.964844 23.5625 L 616.441406 23.414062 L 600.921875 23.214844 L 600.921875 33.296875 L 612.398438 33.046875 C 618.738281 32.898438 623.878906 32.949219 623.878906 33.199219 C 623.878906 33.398438 622.980469 35.394531 621.933594 37.691406 C 616.84375 48.574219 609.355469 57.011719 603.515625 58.410156 L 601.070312 58.957031 L 603.214844 64.050781 C 604.414062 66.847656 605.414062 69.441406 605.414062 69.839844 C 605.414062 70.191406 605.710938 70.390625 606.160156 70.191406 C 607.757812 69.59375 616.394531 68.246094 616.742188 68.59375 C 617.390625 69.191406 617.492188 77.230469 616.941406 83.71875 C 616.144531 93.753906 613.449219 100.695312 607.957031 106.882812 C 605.664062 109.480469 600.074219 113.921875 595.878906 116.46875 L 593.035156 118.117188 L 596.179688 119.515625 C 598.324219 120.414062 600.121094 121.710938 601.667969 123.359375 L 604.015625 125.855469 L 606.5625 123.859375 C 610.105469 121.113281 615.445312 115.820312 618.140625 112.324219 C 624.480469 104.089844 627.074219 94.203125 627.722656 75.980469 L 628.023438 66.894531 L 630.316406 66.894531 C 631.566406 66.894531 633.460938 66.746094 634.511719 66.597656 L 636.355469 66.246094 L 636.355469 88.414062 C 636.355469 101.691406 636.605469 111.476562 636.90625 112.824219 C 637.65625 116.121094 639.453125 118.515625 642.195312 119.863281 C 644.394531 120.960938 645.339844 121.0625 653.277344 121.210938 C 662.960938 121.410156 664.855469 121.113281 667.5 118.765625 C 669.898438 116.667969 671.496094 113.722656 673.539062 107.734375 C 675.488281 101.992188 675.585938 102.390625 671.542969 101.394531 C 670.445312 101.09375 668 99.945312 666.203125 98.847656 C 664.355469 97.75 662.761719 96.851562 662.609375 96.851562 C 662.410156 96.851562 662.3125 97.597656 662.3125 98.546875 C 662.3125 101.09375 660.964844 107.535156 660.113281 109.230469 C 659.117188 111.128906 658.515625 111.328125 653.824219 111.328125 C 650.382812 111.328125 649.734375 111.175781 648.484375 110.128906 L 647.089844 108.929688 L 647.089844 65.648438 L 651.03125 65.199219 C 654.324219 64.847656 655.074219 64.898438 655.523438 65.5 C 655.824219 65.949219 657.167969 67.792969 658.46875 69.59375 L 660.863281 72.9375 L 663.210938 71.238281 C 664.507812 70.292969 666.851562 68.742188 668.449219 67.792969 L 671.292969 66.046875 L 666.554688 59.160156 C 661.613281 52.019531 654.476562 42.683594 652.828125 41.1875 C 651.878906 40.335938 651.730469 40.335938 648.984375 42.285156 C 647.386719 43.382812 645.140625 44.78125 643.945312 45.378906 L 641.796875 46.476562 L 642.945312 48.074219 C 643.644531 48.972656 645.339844 51.21875 646.789062 53.167969 L 649.433594 56.664062 L 645.492188 57.011719 C 640.699219 57.460938 619.6875 58.359375 619.488281 58.160156 C 619.039062 57.710938 632.214844 42.734375 634.859375 40.6875 L 637.855469 38.289062 L 633.910156 36.09375 C 631.714844 34.894531 629.769531 33.648438 629.570312 33.347656 C 629.320312 33 635.457031 32.898438 650.53125 33 L 671.792969 33.199219 L 671.792969 23.214844 L 652.976562 23.3125 C 642.597656 23.363281 634.359375 23.3125 634.609375 23.214844 C 634.910156 23.113281 637.007812 22.464844 639.351562 21.765625 C 641.699219 21.117188 643.59375 20.367188 643.59375 20.070312 C 643.59375 18.871094 638.054688 5.042969 637.605469 5.09375 C 637.355469 5.09375 635.308594 5.792969 633.113281 6.539062 Z M 633.113281 6.539062 "/>
<path style=" stroke:none;fill-rule:nonzero;fill:rgb(0%,0%,0%);fill-opacity:1;" d="M 1275.910156 6.339844 C 1275.308594 8.738281 1270.46875 20.519531 1268.222656 24.960938 C 1262.183594 36.992188 1253.050781 51.121094 1247.460938 57.011719 C 1246.261719 58.308594 1245.265625 59.558594 1245.265625 59.808594 C 1245.265625 60.058594 1246.210938 61.105469 1247.410156 62.203125 C 1248.558594 63.25 1250.453125 65.25 1251.550781 66.597656 L 1253.597656 68.992188 L 1260.039062 60.007812 C 1263.582031 55.015625 1266.625 50.972656 1266.875 50.972656 C 1267.773438 50.871094 1267.074219 119.164062 1266.125 123.90625 C 1266.027344 124.40625 1267.472656 124.605469 1272.414062 124.707031 L 1278.804688 124.855469 L 1278.40625 123.707031 C 1278.203125 123.058594 1277.957031 102.441406 1277.855469 77.828125 L 1277.65625 33.046875 L 1280.152344 27.507812 C 1283.195312 20.769531 1286.242188 15.476562 1288.535156 12.980469 L 1290.234375 11.082031 L 1287.585938 10.234375 C 1286.140625 9.734375 1283.046875 8.386719 1280.75 7.1875 C 1278.453125 5.992188 1276.507812 4.992188 1276.40625 4.992188 C 1276.308594 4.992188 1276.058594 5.589844 1275.910156 6.339844 Z M 1275.910156 6.339844 "/>
<path style=" stroke:none;fill-rule:nonzero;fill:rgb(0%,0%,0%);fill-opacity:1;" d="M 1716.167969 12.53125 L 1716.566406 20.070312 L 1694.65625 19.820312 C 1682.578125 19.667969 1671.996094 19.371094 1671.148438 19.171875 L 1669.503906 18.871094 L 1669.503906 30.054688 L 1671.398438 29.753906 C 1672.398438 29.554688 1682.976562 29.304688 1694.855469 29.15625 L 1716.417969 28.855469 L 1716.417969 41.4375 L 1672.496094 41.4375 L 1672.847656 47.277344 C 1673.09375 50.523438 1673.246094 66.648438 1673.246094 83.121094 C 1673.246094 99.59375 1673.09375 115.71875 1672.847656 118.914062 L 1672.496094 124.804688 L 1683.976562 124.804688 L 1683.976562 50.421875 L 1760.339844 50.421875 L 1760.238281 81.125 C 1760.140625 105.4375 1759.941406 111.925781 1759.441406 112.425781 C 1758.992188 112.875 1756.84375 113.125 1752.851562 113.222656 C 1749.558594 113.324219 1746.863281 113.472656 1746.863281 113.574219 C 1746.863281 113.671875 1747.859375 116.070312 1749.109375 118.964844 C 1750.355469 121.859375 1751.355469 124.507812 1751.355469 124.855469 C 1751.355469 125.503906 1751.855469 125.457031 1760.238281 123.507812 C 1766.578125 122.0625 1768.175781 121.0625 1769.621094 117.71875 C 1770.472656 115.71875 1770.570312 113.074219 1770.917969 80.125 C 1771.070312 60.605469 1771.417969 43.933594 1771.570312 43.035156 L 1771.917969 41.4375 L 1726.898438 41.4375 L 1726.898438 28.855469 L 1751.605469 29.054688 L 1776.308594 29.203125 L 1776.308594 19.71875 L 1751.554688 19.871094 L 1726.75 20.070312 L 1727.25 4.992188 L 1715.820312 4.992188 Z M 1716.167969 12.53125 "/>
<path style=" stroke:none;fill-rule:nonzero;fill:rgb(0%,0%,0%);fill-opacity:1;" d="M 173.1875 7.039062 C 170.292969 7.789062 168 8.585938 168.046875 8.835938 C 168.097656 9.085938 168.695312 11.53125 169.394531 14.328125 C 170.09375 17.125 170.695312 19.570312 170.695312 19.769531 C 170.695312 19.917969 165.054688 20.019531 158.214844 19.871094 L 145.6875 19.667969 L 145.839844 24.863281 L 145.988281 30.003906 L 174.585938 30.101562 L 203.136719 30.203125 L 203.136719 19.570312 L 192.753906 19.820312 L 182.371094 20.117188 L 180.875 12.980469 C 180.078125 9.035156 179.179688 5.792969 178.929688 5.742188 C 178.628906 5.691406 176.082031 6.289062 173.1875 7.039062 Z M 173.1875 7.039062 "/>
<path style=" stroke:none;fill-rule:nonzero;fill:rgb(0%,0%,0%);fill-opacity:1;" d="M 1131.21875 7.339844 C 1130.371094 12.378906 1129.320312 17.574219 1128.375 21.167969 L 1127.324219 25.0625 L 1118.941406 24.863281 L 1110.503906 24.660156 L 1110.503906 34.496094 L 1117.742188 34.148438 C 1123.882812 33.847656 1124.980469 33.898438 1124.78125 34.496094 C 1121.1875 45.730469 1118.542969 52.917969 1116.445312 57.011719 C 1115.847656 58.160156 1114.300781 60.15625 1112.902344 61.554688 L 1110.40625 64.050781 L 1112.503906 68.84375 C 1113.699219 71.488281 1114.648438 73.6875 1114.699219 73.734375 C 1114.75 73.785156 1116.894531 73.484375 1119.488281 73.085938 C 1122.085938 72.6875 1127.074219 72.238281 1130.621094 72.039062 L 1136.957031 71.738281 L 1136.957031 88.261719 L 1135.609375 88.5625 C 1133.613281 88.960938 1117.992188 90.757812 1113.152344 91.160156 L 1109.058594 91.457031 L 1110.457031 94.304688 C 1111.253906 95.851562 1112.253906 98.296875 1112.703125 99.695312 C 1113.199219 101.144531 1113.648438 102.339844 1113.75 102.339844 C 1113.851562 102.339844 1116.246094 101.792969 1119.089844 101.144531 C 1121.886719 100.445312 1126.726562 99.445312 1129.722656 98.847656 C 1132.765625 98.246094 1135.660156 97.648438 1136.160156 97.5 C 1137.109375 97.25 1137.109375 97.597656 1136.757812 111.527344 L 1136.410156 125.804688 L 1147.738281 125.804688 L 1147.539062 110.878906 L 1147.339844 96 L 1154.226562 94.953125 C 1158.070312 94.355469 1162.414062 93.804688 1163.910156 93.753906 L 1166.65625 93.605469 L 1166.90625 88.863281 C 1167.054688 86.265625 1167.105469 84.019531 1167.054688 83.917969 C 1167.003906 83.820312 1163.960938 84.21875 1160.316406 84.769531 C 1156.671875 85.367188 1152.28125 85.964844 1150.582031 86.167969 L 1147.441406 86.515625 L 1147.441406 71.886719 L 1157.320312 71.789062 L 1167.152344 71.640625 L 1167.304688 67.246094 L 1167.453125 62.902344 L 1147.289062 62.902344 L 1147.640625 55.015625 C 1147.789062 50.722656 1148.089844 46.429688 1148.238281 45.53125 L 1148.539062 43.933594 L 1136.410156 43.933594 L 1136.757812 53.417969 L 1137.109375 62.902344 L 1130.820312 62.902344 C 1127.324219 62.902344 1124.480469 62.851562 1124.480469 62.753906 C 1124.480469 62.652344 1125.429688 60.105469 1126.527344 57.113281 C 1127.675781 54.117188 1130.019531 47.726562 1131.769531 42.933594 L 1134.863281 34.195312 L 1144.046875 34.195312 C 1149.085938 34.195312 1155.726562 34.347656 1158.820312 34.597656 L 1164.457031 34.945312 L 1164.308594 29.855469 L 1164.160156 24.761719 L 1151.03125 24.910156 L 1137.855469 25.0625 L 1138.207031 23.863281 C 1139.902344 18.421875 1142.199219 12.980469 1143.398438 11.433594 L 1144.894531 9.585938 L 1142.296875 8.9375 C 1140.003906 8.386719 1134.664062 6.691406 1132.367188 5.742188 C 1131.667969 5.492188 1131.46875 5.792969 1131.21875 7.339844 Z M 1131.21875 7.339844 "/>
<path style=" stroke:none;fill-rule:nonzero;fill:rgb(0%,0%,0%);fill-opacity:1;" d="M 1321.328125 7.339844 C 1321.476562 8.386719 1321.777344 15.476562 1321.925781 23.0625 L 1322.277344 36.941406 L 1313.191406 36.941406 C 1305.707031 36.941406 1304.15625 36.84375 1304.15625 36.242188 C 1304.15625 35.144531 1308.101562 24.011719 1309.449219 21.316406 C 1310.148438 20.019531 1310.894531 18.96875 1311.144531 18.96875 C 1311.445312 18.96875 1311.644531 18.769531 1311.644531 18.570312 C 1311.644531 18.320312 1310.246094 17.773438 1308.550781 17.273438 C 1306.851562 16.824219 1303.859375 15.675781 1301.863281 14.777344 L 1298.269531 13.078125 L 1297.171875 18.671875 C 1294.972656 29.652344 1290.433594 43.183594 1285.542969 53.417969 C 1284.144531 56.3125 1282.945312 58.757812 1282.847656 58.910156 C 1282.746094 59.058594 1284.195312 59.808594 1286.039062 60.605469 C 1287.9375 61.40625 1290.28125 62.601562 1291.332031 63.25 C 1292.429688 63.949219 1293.328125 64.398438 1293.425781 64.300781 C 1293.527344 64.199219 1295.175781 60.304688 1297.070312 55.664062 L 1300.566406 47.175781 L 1311.34375 47.027344 L 1322.125 46.925781 L 1322.125 72.9375 L 1303.058594 72.835938 L 1283.945312 72.738281 L 1283.792969 77.980469 L 1283.644531 83.269531 L 1302.960938 82.972656 L 1322.226562 82.722656 L 1321.925781 101.640625 C 1321.777344 112.027344 1321.527344 121.511719 1321.328125 122.710938 L 1321.027344 124.804688 L 1333.355469 124.804688 L 1333.15625 103.789062 L 1333.007812 82.722656 L 1365.046875 83.222656 L 1365.046875 71.789062 L 1363.453125 72.089844 C 1362.554688 72.289062 1355.367188 72.539062 1347.480469 72.738281 L 1333.105469 73.035156 L 1333.105469 46.878906 L 1347.082031 47.027344 L 1361.054688 47.175781 L 1361.054688 36.542969 L 1347.03125 36.792969 L 1333.007812 37.09375 L 1333.304688 23.164062 C 1333.457031 15.527344 1333.703125 8.386719 1333.90625 7.339844 L 1334.203125 5.492188 L 1321.027344 5.492188 Z M 1321.328125 7.339844 "/>
<path style=" stroke:none;fill-rule:nonzero;fill:rgb(0%,0%,0%);fill-opacity:1;" d="M 993.316406 19.769531 L 993.566406 33 L 983.882812 32.847656 L 974.25 32.699219 L 974.25 42.984375 L 982.636719 42.933594 C 987.226562 42.933594 991.21875 42.882812 991.570312 42.933594 C 991.96875 42.933594 991.769531 43.980469 990.96875 46.277344 C 986.230469 60.058594 980.6875 70.988281 972.601562 82.570312 C 970.257812 85.917969 969.359375 87.613281 969.757812 87.863281 C 970.109375 88.0625 972.253906 90.109375 974.550781 92.355469 C 976.847656 94.652344 978.84375 96.402344 978.992188 96.300781 C 979.890625 95.351562 986.378906 83.820312 989.523438 77.480469 C 991.621094 73.335938 993.417969 69.890625 993.566406 69.890625 C 993.664062 69.890625 993.664062 81.921875 993.515625 96.601562 L 993.214844 123.359375 L 999.054688 123.207031 C 1003.996094 123.058594 1004.894531 122.960938 1004.746094 122.308594 C 1004.394531 120.664062 1004.246094 44.132812 1004.597656 43.53125 C 1004.945312 43.035156 1006.941406 42.933594 1013.332031 43.035156 L 1021.664062 43.183594 L 1021.664062 32.699219 L 1013.03125 32.847656 L 1004.347656 33 L 1004.246094 30.101562 C 1004.148438 26.359375 1005.09375 9.085938 1005.496094 7.589844 C 1005.792969 6.488281 1005.792969 6.488281 999.457031 6.488281 L 993.066406 6.488281 Z M 993.316406 19.769531 "/>
<path style=" stroke:none;fill-rule:nonzero;fill:rgb(0%,0%,0%);fill-opacity:1;" d="M 250 7.238281 C 249.503906 7.6875 238.171875 10.433594 232.53125 11.433594 C 229.386719 11.980469 223.996094 12.679688 220.554688 12.980469 C 217.160156 13.28125 213.464844 13.628906 212.367188 13.777344 L 210.371094 13.976562 L 210.371094 44.332031 C 210.371094 75.933594 210.273438 77.679688 208.078125 88.613281 C 206.03125 98.449219 201.386719 110.429688 196.945312 116.917969 C 196.347656 117.816406 195.699219 118.816406 195.5 119.164062 C 195.101562 119.863281 205.429688 124.957031 206.230469 124.457031 C 207.027344 124.007812 211.96875 113.375 213.914062 107.933594 C 218.359375 95.75 221.054688 77.628906 221.101562 60.257812 L 221.101562 55.914062 L 235.625 55.914062 L 235.476562 90.109375 L 235.328125 124.308594 L 246.308594 124.308594 L 246.15625 90.011719 L 245.957031 55.761719 L 251.996094 56.113281 L 258.035156 56.460938 L 258.035156 45.679688 L 239.570312 45.878906 L 221.101562 46.027344 L 221.203125 34.148438 L 221.351562 22.214844 L 228.589844 21.367188 C 232.582031 20.917969 239.421875 20.269531 243.8125 19.96875 C 248.203125 19.667969 253.195312 19.320312 254.890625 19.171875 L 258.035156 18.871094 L 256.441406 16.972656 C 255.542969 15.925781 253.792969 13.28125 252.546875 11.03125 C 251.25 8.835938 250.101562 7.089844 250 7.238281 Z M 250 7.238281 "/>
<path style=" stroke:none;fill-rule:nonzero;fill:rgb(0%,0%,0%);fill-opacity:1;" d="M 1179.082031 8.335938 C 1176.039062 21.964844 1170.25 35.84375 1162.910156 47.027344 C 1161.265625 49.523438 1159.96875 51.621094 1160.015625 51.667969 C 1160.117188 51.71875 1161.265625 52.070312 1162.5625 52.417969 C 1163.859375 52.769531 1166.207031 53.816406 1167.753906 54.714844 C 1169.25 55.664062 1170.699219 56.414062 1170.847656 56.414062 C 1171.046875 56.414062 1173.292969 52.46875 1175.839844 47.675781 L 1180.480469 38.941406 L 1195.402344 38.941406 C 1205.585938 38.941406 1210.328125 39.089844 1210.328125 39.488281 C 1210.328125 39.738281 1209.328125 43.082031 1208.082031 46.878906 C 1206.832031 50.671875 1205.835938 53.964844 1205.835938 54.214844 C 1205.835938 54.617188 1216.765625 57.160156 1217.066406 56.8125 C 1217.113281 56.710938 1217.863281 53.917969 1218.761719 50.523438 C 1219.660156 47.125 1221.355469 41.285156 1222.605469 37.542969 C 1223.800781 33.847656 1224.800781 30.601562 1224.800781 30.351562 C 1224.800781 30.152344 1215.46875 29.953125 1204.085938 29.953125 C 1192.707031 29.953125 1183.375 29.855469 1183.375 29.753906 C 1183.375 29.652344 1184.171875 27.605469 1185.171875 25.160156 C 1187.417969 19.46875 1190.0625 14.628906 1191.960938 12.679688 C 1193.65625 10.882812 1193.558594 10.734375 1190.164062 10.285156 C 1188.066406 9.933594 1182.675781 8.335938 1180.28125 7.289062 C 1179.632812 6.988281 1179.332031 7.1875 1179.082031 8.335938 Z M 1179.082031 8.335938 "/>
<path style=" stroke:none;fill-rule:nonzero;fill:rgb(0%,0%,0%);fill-opacity:1;" d="M 574.96875 10.332031 C 574.117188 14.226562 572.371094 18.96875 569.128906 26.210938 C 564.1875 36.992188 559.84375 43.183594 555.800781 45.28125 C 554.953125 45.679688 554.15625 46.128906 554.105469 46.226562 C 554.003906 46.277344 554.652344 48.625 555.550781 51.421875 C 557.148438 56.261719 557.25 56.460938 558.496094 56.113281 C 564.636719 54.566406 578.460938 52.917969 578.460938 53.765625 C 578.460938 54.367188 572.371094 64.648438 569.628906 68.644531 C 566.78125 72.886719 563.636719 75.832031 560.644531 77.230469 C 559.195312 77.929688 557.996094 78.628906 557.996094 78.878906 C 557.996094 79.277344 561.542969 88.960938 561.839844 89.3125 C 561.890625 89.410156 563.738281 89.0625 565.832031 88.460938 C 572.273438 86.714844 576.265625 85.964844 585.699219 84.917969 C 600.421875 83.222656 598.773438 83.71875 599.175781 80.726562 C 599.375 79.277344 599.972656 77.03125 600.472656 75.683594 C 600.972656 74.285156 601.320312 73.136719 601.21875 73.035156 C 601.121094 72.9375 598.277344 73.335938 594.882812 73.886719 C 586.496094 75.234375 575.914062 76.480469 575.617188 76.183594 C 575.265625 75.832031 589.589844 52.96875 593.933594 46.828125 C 595.730469 44.332031 598.375 41.035156 599.824219 39.488281 C 601.421875 37.792969 602.167969 36.644531 601.820312 36.492188 C 600.972656 36.195312 593.085938 32.101562 591.089844 30.902344 C 589.339844 29.804688 589.339844 29.855469 588.441406 32.699219 C 588.09375 33.796875 586.796875 36.894531 585.546875 39.539062 L 583.300781 44.429688 L 579.710938 44.429688 C 577.710938 44.429688 574.367188 44.582031 572.273438 44.730469 L 568.429688 45.082031 L 571.375 40.136719 C 572.972656 37.441406 576.164062 31.851562 578.511719 27.757812 C 580.808594 23.664062 584 18.769531 585.597656 16.875 C 587.195312 14.976562 588.441406 13.328125 588.34375 13.230469 C 588.242188 13.128906 579.261719 9.035156 576.117188 7.6875 C 575.765625 7.488281 575.316406 8.4375 574.96875 10.332031 Z M 574.96875 10.332031 "/>
<path style=" stroke:none;fill-rule:nonzero;fill:rgb(0%,0%,0%);fill-opacity:1;" d="M 1544.175781 7.835938 C 1544.128906 8.085938 1544.175781 14.476562 1544.226562 22.164062 L 1544.328125 36.09375 L 1536.390625 35.695312 C 1532.050781 35.496094 1528.304688 35.296875 1528.007812 35.246094 C 1527.707031 35.246094 1527.457031 37.242188 1527.355469 40.289062 L 1527.207031 45.429688 L 1544.226562 45.429688 L 1544.128906 56.511719 L 1543.976562 67.644531 L 1538.488281 69.492188 C 1535.492188 70.492188 1530.800781 71.839844 1528.105469 72.4375 C 1525.460938 73.085938 1523.316406 73.6875 1523.363281 73.835938 C 1523.613281 74.335938 1527.605469 84.570312 1527.957031 85.515625 C 1528.253906 86.417969 1528.304688 86.417969 1529.851562 85.46875 C 1534.046875 82.921875 1542.578125 78.878906 1543.777344 78.878906 C 1544.027344 78.878906 1544.226562 85.617188 1544.226562 93.855469 C 1544.226562 112.425781 1544.824219 111.128906 1536.339844 110.628906 C 1531 110.328125 1530.652344 110.378906 1531 111.175781 C 1531.199219 111.675781 1531.949219 114.472656 1532.699219 117.46875 L 1533.996094 122.808594 L 1536.988281 122.511719 C 1541.832031 122.011719 1547.273438 120.8125 1549.269531 119.765625 C 1550.316406 119.265625 1551.761719 118.066406 1552.460938 117.117188 C 1555.007812 113.722656 1555.207031 112.175781 1555.207031 92.855469 L 1555.207031 75.035156 L 1558.601562 73.535156 C 1560.449219 72.6875 1563.191406 71.589844 1564.691406 71.089844 L 1567.433594 70.191406 L 1567.433594 58.507812 L 1565.1875 59.40625 C 1563.941406 59.90625 1561.394531 61.003906 1559.550781 61.855469 C 1557.652344 62.703125 1555.90625 63.402344 1555.65625 63.402344 C 1555.40625 63.402344 1555.207031 59.457031 1555.207031 54.414062 L 1555.207031 45.429688 L 1568.683594 45.429688 L 1568.683594 35.296875 L 1561.894531 35.59375 L 1555.058594 35.945312 L 1555.308594 21.714844 L 1555.605469 7.488281 L 1549.917969 7.488281 C 1546.773438 7.488281 1544.226562 7.636719 1544.175781 7.835938 Z M 1544.175781 7.835938 "/>
<path style=" stroke:none;fill-rule:nonzero;fill:rgb(0%,0%,0%);fill-opacity:1;" d="M 1573.273438 28.804688 C 1573.425781 52.21875 1573.375 51.621094 1576.570312 55.015625 C 1578.714844 57.359375 1580.859375 57.511719 1605.867188 57.3125 C 1631.769531 57.160156 1631.46875 57.160156 1634.8125 53.316406 C 1636.261719 51.570312 1641.054688 41.386719 1641.054688 39.988281 C 1641.054688 39.6875 1640.105469 39.238281 1638.957031 38.941406 C 1635.914062 38.191406 1633.21875 36.941406 1630.921875 35.296875 C 1629.875 34.496094 1628.925781 33.949219 1628.824219 34.046875 C 1628.726562 34.148438 1628.175781 36.292969 1627.628906 38.839844 C 1626.328125 44.730469 1625.730469 45.980469 1623.585938 47.078125 C 1621.988281 47.875 1620.242188 47.925781 1604.269531 47.824219 C 1582.707031 47.625 1584.40625 48.375 1584.40625 39.589844 L 1584.40625 33.746094 L 1587.898438 33.046875 C 1590.941406 32.449219 1595.785156 31.402344 1613.351562 27.457031 C 1615.550781 26.957031 1618.742188 26.210938 1620.441406 25.761719 C 1622.085938 25.3125 1625.382812 24.613281 1627.675781 24.164062 C 1634.015625 23.015625 1633.816406 23.265625 1630.621094 20.21875 C 1628.476562 18.171875 1624.484375 13.128906 1623.835938 11.632812 C 1623.785156 11.582031 1621.789062 12.53125 1619.390625 13.828125 C 1613.800781 16.722656 1610.257812 18.121094 1604.769531 19.769531 C 1598.929688 21.464844 1585.054688 24.460938 1584.554688 24.164062 C 1584.355469 24.011719 1584.304688 20.21875 1584.503906 15.675781 L 1584.804688 7.488281 L 1573.125 7.488281 Z M 1573.273438 28.804688 "/>
<path style=" stroke:none;fill-rule:nonzero;fill:rgb(0%,0%,0%);fill-opacity:1;" d="M 21.710938 26.210938 L 21.710938 44.429688 L 101.070312 44.429688 L 100.96875 26.359375 L 100.917969 8.238281 L 61.289062 8.085938 L 21.710938 7.988281 Z M 89.738281 19.570312 L 89.886719 22.464844 L 32.941406 22.464844 L 32.941406 16.472656 L 61.289062 16.574219 L 89.589844 16.722656 Z M 89.839844 33.699219 L 89.839844 36.445312 L 32.941406 36.445312 L 32.941406 30.953125 L 89.839844 30.953125 Z M 89.839844 33.699219 "/>
<path style=" stroke:none;fill-rule:nonzero;fill:rgb(0%,0%,0%);fill-opacity:1;" d="M 906.121094 9.285156 C 903.675781 9.933594 901.132812 10.484375 900.53125 10.484375 C 899.933594 10.484375 899.285156 10.683594 899.136719 10.984375 C 898.734375 11.683594 902.480469 21.015625 905.722656 27.308594 C 911.664062 38.839844 915.058594 43.980469 921.644531 51.171875 C 925.089844 54.964844 938.363281 66.796875 940.511719 67.996094 C 940.960938 68.246094 941.757812 67.445312 942.957031 65.5 C 944.851562 62.402344 947.597656 59.308594 950.195312 57.359375 L 951.890625 56.0625 L 948.148438 54.566406 C 940.761719 51.519531 933.773438 46.226562 927.183594 38.589844 C 919.699219 29.855469 914.507812 20.917969 912.113281 12.628906 C 911.414062 10.234375 910.8125 8.238281 910.714844 8.238281 C 910.664062 8.1875 908.617188 8.636719 906.121094 9.285156 Z M 906.121094 9.285156 "/>
<path style=" stroke:none;fill-rule:nonzero;fill:rgb(0%,0%,0%);fill-opacity:1;" d="M 1072.222656 9.535156 C 1065.835938 12.082031 1049.515625 14.925781 1035.789062 15.875 C 1032.394531 16.125 1029.550781 16.425781 1029.402344 16.574219 C 1029.25 16.722656 1029.351562 23.761719 1029.699219 32.25 C 1031 67.144531 1028.800781 85.066406 1021.367188 100.195312 C 1018.820312 105.386719 1016.722656 108.332031 1012.832031 112.375 L 1010.1875 115.121094 L 1013.28125 116.621094 C 1014.976562 117.417969 1017.820312 119.164062 1019.570312 120.511719 C 1021.316406 121.8125 1022.914062 122.710938 1023.113281 122.511719 C 1025.65625 119.515625 1032.195312 107.382812 1034.34375 101.742188 C 1037.785156 92.457031 1041.128906 71.9375 1041.128906 59.507812 L 1041.128906 55.914062 L 1060.644531 55.914062 L 1060.496094 89.113281 L 1060.347656 122.308594 L 1071.824219 122.308594 L 1071.675781 89.011719 L 1071.476562 55.761719 L 1080.507812 56.0625 L 1089.542969 56.363281 L 1089.542969 46.179688 L 1065.335938 46.328125 L 1041.128906 46.527344 L 1041.128906 35.996094 C 1041.128906 25.511719 1041.128906 25.460938 1042.277344 25.210938 C 1044.722656 24.710938 1071.277344 22.367188 1077.914062 22.117188 L 1084.953125 21.816406 L 1082.355469 18.023438 C 1080.910156 15.875 1078.960938 12.78125 1078.015625 11.082031 C 1077.117188 9.386719 1076.21875 7.988281 1076.066406 8.039062 C 1075.917969 8.085938 1074.222656 8.738281 1072.222656 9.535156 Z M 1072.222656 9.535156 "/>
<path style=" stroke:none;fill-rule:nonzero;fill:rgb(0%,0%,0%);fill-opacity:1;" d="M 769.566406 10.332031 C 769.566406 10.535156 769.566406 19.371094 769.617188 29.855469 L 769.667969 49.023438 L 752.699219 48.824219 L 735.679688 48.675781 L 735.679688 59.457031 L 752.648438 59.109375 L 769.667969 58.757812 L 769.519531 91.757812 L 769.367188 124.804688 L 780.847656 124.804688 L 780.648438 91.757812 L 780.5 58.757812 L 796.21875 59.007812 L 811.941406 59.308594 L 811.992188 53.964844 L 811.992188 48.675781 L 796.21875 48.875 L 780.449219 49.023438 L 780.648438 29.652344 L 780.847656 10.234375 L 775.257812 10.085938 C 772.164062 10.035156 769.617188 10.132812 769.566406 10.332031 Z M 769.566406 10.332031 "/>
<path style=" stroke:none;fill-rule:nonzero;fill:rgb(0%,0%,0%);fill-opacity:1;" d="M 870.9375 16.773438 C 865.445312 27.207031 861.652344 33.097656 855.414062 40.738281 C 850.523438 46.726562 840.492188 55.613281 834.402344 59.359375 C 833.355469 59.957031 832.503906 60.65625 832.503906 60.804688 C 832.554688 61.003906 834.101562 62.105469 836 63.300781 C 837.894531 64.5 840.589844 66.496094 841.988281 67.746094 L 844.535156 70.042969 L 846.082031 68.59375 C 854.714844 60.457031 868.339844 43.382812 878.921875 27.457031 C 880.667969 24.863281 883.265625 21.21875 884.710938 19.417969 L 887.304688 16.125 L 884.511719 14.976562 C 882.964844 14.378906 880.070312 12.980469 878.074219 11.929688 L 874.480469 10.035156 Z M 870.9375 16.773438 "/>
<path style=" stroke:none;fill-rule:nonzero;fill:rgb(0%,0%,0%);fill-opacity:1;" d="M 432.175781 10.832031 C 432.175781 11.082031 432.175781 24.011719 432.222656 39.6875 C 432.273438 69.742188 431.875 80.074219 430.175781 89.410156 C 428.378906 99.644531 424.386719 109.628906 419.445312 116.371094 L 417.300781 119.214844 L 421.394531 121.3125 C 423.640625 122.460938 426.085938 123.859375 426.832031 124.355469 C 427.53125 124.855469 428.332031 125.304688 428.582031 125.304688 C 429.429688 125.304688 436.117188 110.777344 438.214844 104.4375 C 440.210938 98.546875 442.253906 89.410156 442.953125 83.269531 L 443.304688 80.375 L 471.304688 80.375 L 470.804688 120.3125 L 482.882812 120.3125 L 482.734375 100.34375 L 482.535156 80.375 L 512.578125 80.375 L 512.578125 92.457031 C 512.578125 110.128906 512.628906 109.980469 504.394531 110.230469 C 501.199219 110.378906 498.605469 110.628906 498.605469 110.828125 C 498.605469 111.027344 499.152344 112.425781 499.851562 113.875 C 500.5 115.371094 501.449219 118.214844 501.949219 120.214844 L 502.796875 123.859375 L 504.792969 123.558594 C 508.289062 123.007812 516.171875 120.761719 518.167969 119.765625 C 520.214844 118.714844 522.0625 116.519531 523.109375 113.824219 C 523.660156 112.375 523.859375 102.941406 524.058594 61.65625 C 524.207031 33.898438 524.257812 11.082031 524.160156 10.832031 C 524.058594 10.632812 503.347656 10.484375 478.089844 10.484375 C 452.886719 10.484375 432.222656 10.632812 432.175781 10.832031 Z M 471.152344 30.953125 L 471.152344 41.4375 L 443.203125 41.4375 L 443.203125 20.46875 L 471.152344 20.46875 Z M 512.578125 30.953125 L 512.578125 41.4375 L 482.632812 41.4375 L 482.632812 20.46875 L 512.578125 20.46875 Z M 471.152344 60.90625 L 471.152344 70.890625 L 443.203125 70.890625 L 443.203125 50.921875 L 471.152344 50.921875 Z M 512.578125 60.90625 L 512.578125 70.890625 L 482.632812 70.890625 L 482.632812 50.921875 L 512.578125 50.921875 Z M 512.578125 60.90625 "/>
<path style=" stroke:none;fill-rule:nonzero;fill:rgb(0%,0%,0%);fill-opacity:1;" d="M 712.019531 13.480469 C 709.277344 15.125 706.980469 16.574219 706.929688 16.625 C 706.832031 16.722656 709.527344 21.066406 712.871094 26.308594 C 716.214844 31.550781 719.257812 36.292969 719.609375 36.894531 C 720.207031 37.941406 720.207031 37.941406 722.851562 36.292969 C 724.25 35.34375 726.644531 33.996094 728.09375 33.199219 C 729.539062 32.398438 730.636719 31.550781 730.539062 31.25 C 730.386719 30.953125 727.542969 26.507812 724.148438 21.417969 C 720.753906 16.324219 717.761719 11.78125 717.460938 11.332031 C 717.011719 10.582031 716.363281 10.832031 712.019531 13.480469 Z M 712.019531 13.480469 "/>
<path style=" stroke:none;fill-rule:nonzero;fill:rgb(0%,0%,0%);fill-opacity:1;" d="M 183.671875 31.75 C 183.671875 32.699219 178.679688 48.574219 178.230469 49.074219 C 178.03125 49.273438 174.039062 49.375 169.394531 49.324219 L 160.960938 49.171875 L 164.453125 47.976562 C 166.402344 47.328125 168.148438 46.628906 168.398438 46.429688 C 168.746094 46.078125 162.957031 32.148438 162.257812 31.75 C 162.109375 31.652344 160.011719 32.449219 157.617188 33.546875 L 153.273438 35.542969 L 154.472656 37.890625 C 155.570312 40.085938 159.214844 48.875 159.214844 49.324219 C 159.214844 49.472656 155.519531 49.472656 150.980469 49.324219 L 142.742188 49.023438 L 142.742188 60.058594 L 156.21875 59.65625 L 169.695312 59.308594 L 169.695312 71.039062 L 157.46875 70.789062 L 145.238281 70.492188 L 145.238281 81.472656 L 157.46875 81.125 L 169.695312 80.726562 L 169.695312 95.203125 C 169.695312 108.582031 169.644531 109.730469 168.796875 110.480469 C 168.046875 111.175781 166.800781 111.328125 162.609375 111.328125 L 157.316406 111.328125 L 158.964844 114.472656 C 159.863281 116.167969 161.011719 118.867188 161.511719 120.511719 L 162.410156 123.410156 L 166.050781 123.109375 C 173.386719 122.410156 177.183594 120.5625 179.179688 116.570312 C 180.476562 113.921875 180.527344 113.125 180.675781 84.167969 L 180.675781 80.726562 L 192.40625 81.125 L 204.132812 81.472656 L 204.132812 70.492188 L 192.304688 70.789062 L 180.425781 71.039062 L 180.574219 65.199219 L 180.726562 59.308594 L 192.855469 59.65625 L 205.03125 60.058594 L 205.28125 56.113281 C 205.429688 53.917969 205.53125 51.46875 205.480469 50.671875 L 205.382812 49.171875 L 196.796875 49.375 L 188.210938 49.523438 L 189.910156 45.28125 C 192.003906 40.136719 193.351562 37.640625 195 35.84375 L 196.246094 34.546875 L 193.304688 33.699219 C 185.867188 31.453125 183.671875 31 183.671875 31.75 Z M 183.671875 31.75 "/>
<path style=" stroke:none;fill-rule:nonzero;fill:rgb(0%,0%,0%);fill-opacity:1;" d="M 309.09375 37.441406 L 305.003906 41.785156 L 306.300781 42.382812 C 308.296875 43.28125 318.128906 50.871094 322.570312 54.863281 C 324.71875 56.8125 326.613281 58.410156 326.8125 58.410156 C 327.011719 58.410156 327.613281 57.609375 328.160156 56.613281 C 328.710938 55.613281 330.457031 53.617188 332.054688 52.167969 L 334.949219 49.523438 L 330.554688 46.078125 C 326.164062 42.582031 314.636719 33.898438 313.6875 33.347656 C 313.4375 33.199219 311.339844 35.046875 309.09375 37.441406 Z M 309.09375 37.441406 "/>
<path style=" stroke:none;fill-rule:nonzero;fill:rgb(0%,0%,0%);fill-opacity:1;" d="M 339.589844 43.632812 C 339.941406 52.570312 339.289062 71.886719 338.59375 74.683594 L 338.292969 75.933594 L 310.640625 75.78125 L 282.992188 75.632812 L 282.992188 86.417969 L 309.445312 86.066406 C 328.160156 85.816406 335.898438 85.867188 335.898438 86.214844 C 335.898438 88.0625 326.664062 97.648438 321.820312 100.84375 C 314.933594 105.335938 302.058594 110.179688 290.179688 112.625 L 283.589844 113.972656 L 286.734375 116.867188 C 288.480469 118.515625 290.476562 121.011719 291.277344 122.558594 C 292.972656 125.855469 292.375 125.855469 302.457031 122.308594 C 317.929688 116.820312 325.566406 112.824219 334.148438 105.6875 C 340.140625 100.695312 343.382812 96.5 348.824219 86.867188 C 349.171875 86.214844 352.21875 86.117188 372.28125 86.214844 L 395.289062 86.316406 L 395.289062 75.632812 L 372.832031 75.78125 C 355.511719 75.933594 350.371094 75.832031 350.371094 75.332031 C 350.371094 71.238281 352.066406 45.429688 352.617188 41.683594 C 353.367188 36.144531 353.316406 35.996094 350.371094 35.945312 C 349.421875 35.945312 346.527344 35.496094 343.933594 34.996094 L 339.242188 34.097656 Z M 339.589844 43.632812 "/>
<path style=" stroke:none;fill-rule:nonzero;fill:rgb(0%,0%,0%);fill-opacity:1;" d="M 694.253906 54.167969 L 694.253906 60.058594 L 697.398438 59.757812 C 699.09375 59.558594 703.238281 59.257812 706.632812 59.109375 L 712.769531 58.757812 L 712.621094 81.921875 C 712.421875 107.285156 712.46875 106.785156 709.226562 112.324219 L 707.929688 114.574219 L 711.921875 117.367188 C 714.167969 118.914062 716.414062 120.664062 716.914062 121.261719 C 717.460938 121.8125 718.011719 122.308594 718.210938 122.308594 C 718.410156 122.308594 720.007812 120.414062 721.703125 118.066406 C 723.402344 115.71875 726.644531 111.828125 728.890625 109.429688 C 731.136719 107.035156 735.179688 102.640625 737.824219 99.644531 L 742.667969 94.203125 L 740.917969 91.859375 C 739.921875 90.507812 738.625 88.3125 738.023438 86.867188 L 736.875 84.269531 L 730.238281 91.859375 L 723.652344 99.496094 L 723.800781 74.234375 L 723.949219 48.925781 L 712.171875 48.925781 C 705.683594 48.925781 698.996094 48.773438 697.296875 48.625 L 694.253906 48.273438 Z M 694.253906 54.167969 "/>
<path style=" stroke:none;fill-rule:nonzero;fill:rgb(0%,0%,0%);fill-opacity:1;" d="M 1184.722656 58.011719 C 1184.574219 63.851562 1184.171875 69.492188 1183.625 72.386719 C 1180.578125 89.160156 1171.496094 104.089844 1158.820312 113.074219 C 1156.523438 114.671875 1154.476562 116.167969 1154.277344 116.371094 C 1154.027344 116.519531 1154.925781 117.367188 1156.273438 118.167969 C 1158.621094 119.664062 1163.410156 124.15625 1163.410156 124.90625 C 1163.410156 126.15625 1165.355469 124.65625 1170.199219 119.664062 C 1180.179688 109.480469 1184.472656 103.140625 1188.863281 92.257812 C 1190.164062 88.960938 1191.359375 86.214844 1191.460938 86.117188 C 1191.558594 85.964844 1192.160156 87.414062 1192.757812 89.3125 C 1195.003906 96.199219 1199.746094 104.386719 1205.035156 110.480469 C 1207.480469 113.324219 1218.910156 123.308594 1219.710938 123.308594 C 1219.910156 123.308594 1220.507812 122.558594 1221.007812 121.613281 C 1222.15625 119.515625 1226.046875 115.472656 1227.945312 114.523438 C 1228.695312 114.125 1229.292969 113.722656 1229.292969 113.574219 C 1229.292969 113.472656 1227.796875 112.527344 1225.949219 111.527344 C 1219.261719 107.832031 1215.46875 105.039062 1211.074219 100.59375 C 1205.785156 95.253906 1202.589844 90.160156 1200.09375 83.171875 C 1197.300781 75.433594 1196.699219 70.742188 1196.949219 59.359375 L 1197.199219 49.574219 L 1192.410156 49.222656 C 1189.761719 49.074219 1187.019531 48.773438 1186.320312 48.625 L 1184.972656 48.324219 Z M 1184.722656 58.011719 "/>
<path style=" stroke:none;fill-rule:nonzero;fill:rgb(0%,0%,0%);fill-opacity:1;" d="M 300.261719 53.667969 C 299.261719 55.214844 297.617188 57.359375 296.617188 58.460938 C 295.621094 59.558594 294.921875 60.507812 295.019531 60.605469 C 295.121094 60.65625 297.015625 61.554688 299.164062 62.554688 C 303.503906 64.601562 309.59375 68.695312 314.035156 72.488281 L 316.882812 74.933594 L 321.421875 70.339844 C 323.867188 67.84375 325.914062 65.75 325.914062 65.648438 C 325.914062 65.148438 303.105469 50.921875 302.308594 50.921875 C 302.207031 50.921875 301.257812 52.167969 300.261719 53.667969 Z M 300.261719 53.667969 "/>
<path style=" stroke:none;fill-rule:nonzero;fill:rgb(0%,0%,0%);fill-opacity:1;" d="M 1702.34375 54.117188 C 1700.546875 55.613281 1698.898438 57.113281 1698.699219 57.410156 C 1698.5 57.710938 1699.347656 59.257812 1700.597656 60.804688 C 1702.992188 63.902344 1707.433594 70.589844 1707.433594 71.191406 C 1707.433594 71.539062 1697.5 71.089844 1694.355469 70.589844 L 1692.460938 70.242188 L 1692.460938 80.875 L 1704.9375 80.574219 L 1717.414062 80.226562 L 1717.414062 89.511719 L 1705.089844 89.160156 C 1698.25 88.960938 1691.761719 88.710938 1690.613281 88.5625 L 1688.46875 88.261719 L 1688.46875 98.597656 L 1703.042969 98.449219 L 1717.566406 98.246094 L 1717.265625 109.28125 L 1716.964844 120.3125 L 1728.195312 120.3125 L 1727.996094 109.28125 L 1727.796875 98.296875 L 1742.070312 98.449219 L 1756.347656 98.597656 L 1756.347656 88.960938 L 1742.121094 89.261719 L 1727.898438 89.511719 L 1727.898438 80.226562 L 1740.375 80.523438 L 1752.851562 80.773438 L 1752.851562 71.039062 L 1744.867188 71.289062 C 1740.472656 71.4375 1736.882812 71.390625 1736.882812 71.191406 C 1736.882812 71.039062 1737.828125 69.144531 1739.027344 67.046875 C 1741.371094 62.800781 1743.519531 60.355469 1745.816406 59.359375 C 1746.664062 58.957031 1747.363281 58.558594 1747.363281 58.410156 C 1747.363281 58.210938 1736.332031 53.066406 1735.285156 52.769531 C 1735.085938 52.71875 1733.535156 55.464844 1731.890625 58.910156 C 1730.242188 62.351562 1727.996094 66.546875 1726.898438 68.246094 L 1724.953125 71.390625 L 1708.683594 71.390625 L 1711.175781 69.640625 C 1716.566406 65.847656 1716.269531 66.199219 1715.320312 64.601562 C 1713.972656 62.253906 1706.1875 51.421875 1705.886719 51.421875 C 1705.738281 51.421875 1704.140625 52.667969 1702.34375 54.117188 Z M 1702.34375 54.117188 "/>
<path style=" stroke:none;fill-rule:nonzero;fill:rgb(0%,0%,0%);fill-opacity:1;" d="M 3.992188 56.8125 L 3.992188 61.503906 L 10.980469 61.15625 L 17.96875 60.753906 L 17.867188 82.171875 L 17.71875 103.589844 L 15.472656 103.9375 C 14.222656 104.089844 11.378906 104.289062 9.132812 104.339844 C 6.089844 104.4375 4.992188 104.636719 4.992188 105.136719 C 4.992188 105.488281 5.789062 107.984375 6.738281 110.679688 C 7.734375 113.375 8.585938 115.820312 8.734375 116.167969 C 8.882812 116.621094 9.382812 116.621094 10.582031 116.269531 C 18.21875 114.023438 40.128906 108.980469 46.566406 108.082031 L 48.914062 107.734375 L 48.914062 122.308594 L 59.644531 122.308594 L 59.644531 106.085938 L 62.789062 105.636719 L 65.882812 105.136719 L 65.882812 100.246094 C 65.882812 97.546875 65.730469 95.351562 65.53125 95.351562 C 65.28125 95.351562 64.035156 95.703125 62.6875 96.101562 C 61.339844 96.5 60.042969 96.851562 59.792969 96.851562 C 59.59375 96.851562 59.394531 88.710938 59.394531 78.828125 L 59.394531 60.804688 L 88.09375 61.003906 L 116.789062 61.15625 L 116.789062 52.167969 L 3.992188 52.167969 Z M 48.914062 64.898438 L 48.914062 68.894531 L 28.449219 68.894531 L 28.449219 60.90625 L 48.914062 60.90625 Z M 48.914062 81.125 L 48.914062 84.867188 L 28.449219 84.867188 L 28.449219 77.378906 L 48.914062 77.378906 Z M 48.664062 96.101562 L 48.664062 99.097656 L 39.429688 100.445312 C 34.339844 101.144531 29.796875 101.792969 29.347656 101.792969 C 28.546875 101.84375 28.449219 101.292969 28.449219 97.347656 L 28.449219 92.855469 L 38.582031 92.957031 L 48.664062 93.105469 Z M 48.664062 96.101562 "/>
<path style=" stroke:none;fill-rule:nonzero;fill:rgb(0%,0%,0%);fill-opacity:1;" d="M 857.460938 63.25 L 857.460938 68.394531 L 874.429688 68.394531 L 874.179688 69.742188 C 874.082031 70.539062 873.679688 72.835938 873.382812 74.882812 C 871.585938 86.515625 867.441406 94.453125 859.957031 100.59375 C 855.464844 104.289062 849.824219 107.582031 843.335938 110.328125 C 840.390625 111.578125 837.996094 112.726562 837.996094 112.875 C 837.996094 113.074219 838.894531 113.824219 839.992188 114.574219 C 842.085938 116.019531 845.679688 119.714844 847.027344 121.8125 L 847.828125 123.058594 L 851.023438 121.113281 C 869.390625 109.878906 876.726562 102.390625 881.21875 90.359375 C 882.714844 86.367188 884.910156 76.878906 885.660156 70.742188 L 885.960938 68.394531 L 898.285156 68.34375 C 905.074219 68.34375 910.964844 68.246094 911.414062 68.144531 C 913.609375 67.746094 913.609375 68.042969 911.710938 85.816406 C 909.816406 103.339844 909.167969 106.285156 907.222656 107.234375 C 906.621094 107.535156 902.976562 107.882812 899.136719 108.03125 C 895.292969 108.183594 892.097656 108.28125 892.046875 108.28125 C 892 108.332031 892.847656 110.078125 893.894531 112.226562 C 894.941406 114.371094 896.242188 117.519531 896.691406 119.214844 C 897.1875 120.914062 897.6875 122.308594 897.886719 122.308594 C 898.734375 122.308594 912.5625 118.714844 913.957031 118.167969 C 916.355469 117.117188 918.699219 114.472656 919.847656 111.527344 C 920.496094 109.679688 921.496094 102.890625 923.09375 88.761719 C 924.339844 77.679688 925.6875 66.398438 926.085938 63.652344 C 926.484375 60.957031 926.734375 58.660156 926.6875 58.609375 C 926.636719 58.558594 911.015625 58.410156 892.046875 58.308594 L 857.460938 58.109375 Z M 857.460938 63.25 "/>
<path style=" stroke:none;fill-rule:nonzero;fill:rgb(0%,0%,0%);fill-opacity:1;" d="M 1009.9375 60.15625 C 1007.742188 61.40625 1005.742188 62.453125 1005.445312 62.554688 C 1005.195312 62.652344 1005.445312 63.652344 1006.09375 64.699219 C 1006.742188 65.75 1008.988281 70.140625 1011.085938 74.382812 L 1014.925781 82.171875 L 1017.921875 80.074219 C 1019.570312 78.878906 1021.765625 77.53125 1022.8125 77.082031 C 1023.8125 76.632812 1024.660156 76.03125 1024.660156 75.832031 C 1024.660156 75.433594 1022.015625 70.492188 1017.023438 61.503906 C 1015.925781 59.558594 1014.777344 57.910156 1014.476562 57.960938 C 1014.179688 57.960938 1012.132812 58.957031 1009.9375 60.15625 Z M 1009.9375 60.15625 "/>
<path style=" stroke:none;fill-rule:nonzero;fill:rgb(0%,0%,0%);fill-opacity:1;" d="M 1574.324219 74.234375 C 1574.574219 78.878906 1574.621094 92.007812 1574.472656 103.441406 L 1574.222656 124.308594 L 1585.652344 124.308594 L 1585.652344 114.820312 L 1620.089844 114.820312 L 1620.089844 122.808594 L 1631.320312 122.808594 L 1631.320312 65.898438 L 1573.921875 65.898438 Z M 1620.089844 80.375 L 1620.089844 85.367188 L 1585.652344 85.367188 L 1585.652344 75.382812 L 1620.089844 75.382812 Z M 1620.089844 100.09375 L 1620.089844 105.335938 L 1585.652344 105.335938 L 1585.652344 94.851562 L 1620.089844 94.851562 Z M 1620.089844 100.09375 "/>
<path style=" stroke:none;fill-rule:nonzero;fill:rgb(0%,0%,0%);fill-opacity:1;" d="M 62.886719 73.085938 L 62.886719 77.878906 L 67.179688 77.878906 L 68.128906 81.472656 C 70.222656 89.761719 73.269531 96.050781 77.761719 101.292969 L 80.054688 103.988281 L 76.613281 107.183594 C 73.316406 110.277344 66.378906 114.222656 62.738281 115.121094 C 61.988281 115.269531 61.390625 115.621094 61.488281 115.820312 C 61.589844 116.019531 63.386719 118.015625 65.53125 120.3125 L 69.375 124.40625 L 70.773438 123.507812 C 74.117188 121.363281 81.402344 115.671875 84.449219 112.875 L 87.742188 109.828125 L 93.132812 112.773438 C 98.125 115.570312 104.113281 118.214844 110.152344 120.3125 L 112.746094 121.261719 L 113.347656 119.414062 C 113.644531 118.417969 114.792969 115.921875 115.84375 113.972656 C 117.789062 110.378906 117.789062 110.328125 116.691406 110.128906 C 116.042969 109.980469 113.644531 109.480469 111.351562 109.03125 C 105.761719 107.984375 100.21875 106.136719 96.824219 104.238281 C 95.328125 103.390625 94.03125 102.691406 93.929688 102.589844 C 93.882812 102.542969 94.828125 100.695312 96.078125 98.496094 C 99.722656 92.105469 104.863281 78.230469 106.558594 70.492188 L 106.90625 68.894531 L 87.941406 68.894531 C 77.5625 68.894531 67.628906 68.742188 65.929688 68.59375 L 62.886719 68.246094 Z M 94.332031 77.78125 C 94.332031 78.976562 91.035156 87.613281 89.289062 91.109375 C 86.34375 96.898438 86.144531 97.050781 84.097656 94.601562 C 80.605469 90.460938 77.609375 84.21875 76.664062 78.976562 L 76.414062 77.378906 L 85.347656 77.378906 C 90.289062 77.378906 94.332031 77.578125 94.332031 77.78125 Z M 94.332031 77.78125 "/>
<path style=" stroke:none;fill-rule:nonzero;fill:rgb(0%,0%,0%);fill-opacity:1;" d="M 154.472656 87.914062 C 150.828125 94.054688 148.582031 97.25 143.839844 103.039062 L 140.546875 107.035156 L 141.796875 107.78125 C 142.445312 108.230469 144.390625 109.78125 146.136719 111.226562 C 147.882812 112.726562 149.382812 113.824219 149.433594 113.722656 C 151.527344 111.128906 167.699219 89.210938 167.597656 89.160156 C 167.5 89.0625 166.203125 88.3125 164.703125 87.414062 C 163.207031 86.464844 161.011719 84.96875 159.863281 84.070312 L 157.765625 82.371094 Z M 154.472656 87.914062 "/>
<path style=" stroke:none;fill-rule:nonzero;fill:rgb(0%,0%,0%);fill-opacity:1;" d="M 186.914062 86.417969 C 185.019531 87.765625 183.222656 89.113281 182.972656 89.363281 C 182.722656 89.609375 183.621094 91.457031 185.167969 93.953125 C 186.613281 96.25 189.058594 100.394531 190.558594 103.238281 L 193.253906 108.382812 L 195.847656 105.9375 C 197.246094 104.636719 199.140625 103.089844 200.039062 102.589844 C 200.890625 102.042969 201.636719 101.394531 201.636719 101.09375 C 201.636719 100.394531 190.90625 83.820312 190.507812 83.871094 C 190.457031 83.917969 188.859375 85.019531 186.914062 86.417969 Z M 186.914062 86.417969 "/>
<path style=" stroke:none;fill-rule:nonzero;fill:rgb(0%,0%,0%);fill-opacity:1;" d="M 350.121094 96.699219 C 348.324219 99.144531 346.878906 101.191406 346.878906 101.34375 C 346.878906 101.492188 351.769531 104.488281 357.757812 108.082031 C 363.695312 111.675781 371.933594 116.769531 376.023438 119.464844 C 382.0625 123.457031 383.5625 124.257812 384.058594 123.707031 C 387.203125 120.261719 392.34375 114.222656 392.246094 114.125 C 391.894531 113.875 367.339844 99.796875 360.601562 96 C 357.058594 94.003906 353.964844 92.355469 353.714844 92.355469 C 353.515625 92.355469 351.917969 94.304688 350.121094 96.699219 Z M 350.121094 96.699219 "/>
<path style=" stroke:none;fill-rule:nonzero;fill:rgb(0%,0%,0%);fill-opacity:1;" d="M 592.535156 97.148438 C 582.304688 100.542969 574.917969 102.390625 564.734375 104.089844 C 560.34375 104.835938 556.25 105.535156 555.652344 105.636719 C 554.554688 105.835938 554.554688 105.886719 556.25 108.78125 C 557.199219 110.378906 558.597656 113.125 559.34375 114.871094 C 560.042969 116.621094 560.691406 118.117188 560.742188 118.214844 C 560.792969 118.265625 562.390625 117.617188 564.285156 116.769531 C 569.328125 114.472656 571.773438 113.671875 586.695312 109.53125 C 594.132812 107.484375 600.570312 105.6875 601.070312 105.535156 C 601.820312 105.285156 601.917969 104.585938 601.917969 99.796875 C 601.917969 95.75 601.769531 94.355469 601.320312 94.402344 C 600.972656 94.453125 597.027344 95.652344 592.535156 97.148438 Z M 592.535156 97.148438 "/>
</g>
</svg>
