<?xml version="1.0" encoding="UTF-8"?>
<svg xmlns="http://www.w3.org/2000/svg" xmlns:xlink="http://www.w3.org/1999/xlink" width="2238pt" height="162pt" viewBox="0 0 2238 162" version="1.1">
<g id="surface1">
<path style=" stroke:none;fill-rule:nonzero;fill:rgb(0%,0%,0%);fill-opacity:1;" d="M 1783.304688 6.582031 C 1782.992188 7.398438 1781.675781 10.40625 1780.359375 13.292969 C 1772.460938 30.59375 1762.304688 45.265625 1749.207031 58.304688 C 1745.882812 61.566406 1743.1875 64.386719 1743.1875 64.636719 C 1743.1875 64.824219 1743.816406 65.328125 1744.628906 65.640625 C 1745.382812 66.015625 1748.390625 68.210938 1751.273438 70.46875 C 1754.15625 72.722656 1756.726562 74.605469 1756.976562 74.605469 C 1757.230469 74.605469 1759.546875 72.097656 1762.054688 68.960938 L 1766.695312 63.382812 L 1767.007812 100.8125 L 1767.320312 138.238281 L 1769.074219 141.75 C 1770.832031 145.386719 1773.210938 147.457031 1777.664062 149.273438 C 1781.046875 150.589844 1859.589844 150.902344 1865.980469 149.585938 C 1873.941406 147.894531 1878.269531 143.695312 1882.40625 133.726562 C 1885.914062 125.261719 1885.914062 125.636719 1883.15625 125.136719 C 1879.519531 124.570312 1874.570312 122 1871.433594 119.117188 C 1868.175781 116.109375 1868.738281 115.605469 1867.046875 123.820312 C 1865.605469 130.902344 1864.792969 133.539062 1863.539062 134.792969 C 1861.21875 137.109375 1856.957031 137.363281 1821.164062 137.171875 C 1790.136719 136.984375 1786.5625 136.859375 1784.808594 135.917969 C 1781.171875 133.976562 1780.796875 132.03125 1780.796875 117.300781 L 1780.796875 104.070312 L 1836.269531 104.070312 L 1836.269531 57.050781 L 1804.175781 57.050781 C 1786.5 57.050781 1772.023438 56.925781 1772.023438 56.738281 C 1772.023438 56.613281 1774.589844 52.976562 1777.726562 48.777344 C 1780.859375 44.511719 1783.554688 40.6875 1783.742188 40.25 C 1783.992188 39.683594 1792.078125 39.496094 1821.351562 39.496094 L 1858.648438 39.496094 L 1858.273438 44.953125 C 1858.085938 48.023438 1857.457031 59.371094 1856.957031 70.214844 C 1855.640625 98.179688 1855.578125 98.492188 1850.375 99.621094 C 1848.617188 99.996094 1845.546875 100.308594 1843.605469 100.308594 C 1838.589844 100.308594 1838.089844 100.8125 1839.78125 103.695312 C 1840.53125 105.011719 1841.914062 108.335938 1842.914062 111.15625 C 1844.609375 116.109375 1844.796875 116.296875 1846.738281 116.484375 C 1849.496094 116.734375 1860.589844 113.851562 1863.285156 112.222656 C 1865.855469 110.589844 1868.175781 106.765625 1869.117188 102.503906 C 1869.492188 100.75 1870.496094 85.578125 1871.371094 68.648438 C 1872.3125 51.785156 1873.253906 35.984375 1873.566406 33.542969 C 1873.878906 31.160156 1874.195312 28.652344 1874.195312 28.085938 C 1874.195312 27.019531 1871.6875 26.957031 1833.136719 26.832031 L 1792.078125 26.644531 L 1794.835938 22.507812 C 1796.34375 20.25 1798.914062 17.179688 1800.480469 15.671875 L 1803.363281 12.914062 L 1797.847656 10.972656 C 1794.835938 9.84375 1790.449219 8.085938 1788.132812 7.023438 L 1783.867188 5.078125 Z M 1822.167969 80.5625 L 1822.167969 91.53125 L 1780.796875 91.53125 L 1780.796875 69.589844 L 1822.167969 69.589844 Z M 1822.167969 80.5625 "/>
<path style=" stroke:none;fill-rule:nonzero;fill:rgb(0%,0%,0%);fill-opacity:1;" d="M 426.925781 6.332031 C 426.050781 6.644531 422.976562 7.523438 420.03125 8.277344 C 417.085938 8.964844 414.390625 9.78125 414.078125 10.09375 C 413.765625 10.34375 414.703125 13.164062 416.019531 16.425781 C 417.398438 19.625 418.714844 22.882812 418.96875 23.636719 L 419.40625 25.078125 L 356.660156 25.078125 L 356.660156 56.738281 L 372.332031 56.363281 L 372.332031 37.617188 L 423.917969 37.742188 L 475.445312 37.929688 L 475.632812 46.269531 L 475.820312 54.605469 L 483.339844 54.417969 L 490.925781 54.230469 L 490.988281 39.683594 L 491.113281 25.078125 L 436.582031 25.078125 L 434.199219 18.117188 C 431.191406 9.464844 429.558594 5.640625 428.933594 5.707031 C 428.683594 5.707031 427.742188 6.019531 426.925781 6.332031 Z M 426.925781 6.332031 "/>
<path style=" stroke:none;fill-rule:nonzero;fill:rgb(0%,0%,0%);fill-opacity:1;" d="M 795.121094 8.210938 C 792.363281 9.214844 789.480469 10.03125 788.726562 10.03125 C 786.972656 10.03125 786.910156 11.222656 788.476562 14.292969 C 789.480469 16.300781 791.925781 23.257812 793.242188 28.148438 L 793.679688 29.589844 L 774.1875 29.402344 L 754.691406 29.152344 L 754.691406 41.816406 L 769.109375 41.503906 C 777.070312 41.316406 783.527344 41.378906 783.527344 41.691406 C 783.527344 41.941406 782.398438 44.449219 781.082031 47.332031 C 774.6875 61 765.285156 71.597656 757.953125 73.351562 L 754.878906 74.042969 L 757.574219 80.4375 C 759.078125 83.945312 760.332031 87.207031 760.332031 87.707031 C 760.332031 88.148438 760.710938 88.398438 761.273438 88.148438 C 763.28125 87.394531 774.125 85.703125 774.5625 86.140625 C 775.378906 86.894531 775.503906 96.988281 774.8125 105.136719 C 773.808594 117.738281 770.425781 126.453125 763.53125 134.226562 C 760.648438 137.488281 753.625 143.066406 748.359375 146.265625 L 744.789062 148.332031 L 748.738281 150.089844 C 751.433594 151.214844 753.6875 152.847656 755.632812 154.914062 L 758.578125 158.050781 L 761.773438 155.542969 C 766.226562 152.09375 772.933594 145.449219 776.316406 141.058594 C 784.277344 130.714844 787.539062 118.300781 788.351562 95.417969 L 788.726562 84.007812 L 791.613281 84.007812 C 793.179688 84.007812 795.5625 83.820312 796.875 83.632812 L 799.195312 83.195312 L 799.195312 111.03125 C 799.195312 127.707031 799.507812 139.996094 799.886719 141.6875 C 800.824219 145.824219 803.082031 148.835938 806.53125 150.527344 C 809.289062 151.90625 810.480469 152.03125 820.445312 152.21875 C 832.605469 152.46875 834.988281 152.09375 838.308594 149.148438 C 841.320312 146.515625 843.324219 142.816406 845.894531 135.292969 C 848.339844 128.082031 848.464844 128.585938 843.386719 127.332031 C 842.007812 126.953125 838.9375 125.511719 836.679688 124.132812 C 834.359375 122.753906 832.355469 121.625 832.167969 121.625 C 831.917969 121.625 831.789062 122.566406 831.789062 123.757812 C 831.789062 126.953125 830.097656 135.042969 829.03125 137.171875 C 827.777344 139.554688 827.027344 139.804688 821.136719 139.804688 C 816.808594 139.804688 815.996094 139.617188 814.429688 138.300781 L 812.671875 136.796875 L 812.671875 82.441406 L 817.625 81.878906 C 821.761719 81.4375 822.703125 81.5 823.265625 82.253906 C 823.640625 82.816406 825.335938 85.136719 826.964844 87.394531 L 829.972656 91.59375 L 832.917969 89.464844 C 834.550781 88.273438 837.496094 86.328125 839.5 85.136719 L 843.074219 82.945312 L 837.117188 74.292969 C 830.914062 65.328125 821.949219 53.601562 819.882812 51.722656 C 818.691406 50.65625 818.503906 50.65625 815.054688 53.101562 C 813.050781 54.480469 810.226562 56.234375 808.722656 56.988281 L 806.027344 58.367188 L 807.46875 60.375 C 808.347656 61.503906 810.480469 64.324219 812.296875 66.769531 L 815.617188 71.15625 L 810.667969 71.597656 C 804.648438 72.160156 778.261719 73.289062 778.007812 73.039062 C 777.445312 72.472656 793.992188 53.664062 797.316406 51.09375 L 801.078125 48.085938 L 796.125 45.328125 C 793.367188 43.824219 790.921875 42.253906 790.671875 41.878906 C 790.359375 41.441406 798.066406 41.316406 816.996094 41.441406 L 843.699219 41.691406 L 843.699219 29.152344 L 820.070312 29.277344 C 807.03125 29.339844 796.6875 29.277344 797.003906 29.152344 C 797.378906 29.027344 800.011719 28.210938 802.957031 27.335938 C 805.902344 26.519531 808.285156 25.578125 808.285156 25.203125 C 808.285156 23.699219 801.328125 6.332031 800.761719 6.394531 C 800.449219 6.394531 797.878906 7.273438 795.121094 8.210938 Z M 795.121094 8.210938 "/>
<path style=" stroke:none;fill-rule:nonzero;fill:rgb(0%,0%,0%);fill-opacity:1;" d="M 1602.402344 7.960938 C 1601.652344 10.972656 1595.570312 25.765625 1592.75 31.347656 C 1585.167969 46.457031 1573.695312 64.199219 1566.675781 71.597656 C 1565.171875 73.226562 1563.917969 74.792969 1563.917969 75.105469 C 1563.917969 75.421875 1565.109375 76.738281 1566.613281 78.117188 C 1568.054688 79.433594 1570.4375 81.941406 1571.816406 83.632812 L 1574.386719 86.640625 L 1582.472656 75.359375 C 1586.921875 69.089844 1590.746094 64.011719 1591.058594 64.011719 C 1592.1875 63.882812 1591.308594 149.648438 1590.117188 155.605469 C 1589.992188 156.230469 1591.8125 156.484375 1598.015625 156.609375 L 1606.039062 156.796875 L 1605.539062 155.355469 C 1605.289062 154.539062 1604.972656 128.648438 1604.847656 97.738281 L 1604.597656 41.503906 L 1607.730469 34.542969 C 1611.554688 26.082031 1615.378906 19.433594 1618.261719 16.300781 L 1620.394531 13.917969 L 1617.070312 12.851562 C 1615.253906 12.226562 1611.367188 10.53125 1608.484375 9.027344 C 1605.601562 7.523438 1603.15625 6.269531 1603.03125 6.269531 C 1602.90625 6.269531 1602.59375 7.023438 1602.402344 7.960938 Z M 1602.402344 7.960938 "/>
<path style=" stroke:none;fill-rule:nonzero;fill:rgb(0%,0%,0%);fill-opacity:1;" d="M 2155.324219 15.734375 L 2155.824219 25.203125 L 2128.304688 24.890625 C 2113.136719 24.703125 2099.847656 24.324219 2098.78125 24.074219 L 2096.714844 23.699219 L 2096.714844 37.742188 L 2099.097656 37.367188 C 2100.351562 37.113281 2113.640625 36.800781 2128.558594 36.613281 L 2155.636719 36.238281 L 2155.636719 52.035156 L 2100.476562 52.035156 L 2100.914062 59.371094 C 2101.226562 63.445312 2101.414062 83.695312 2101.414062 104.382812 C 2101.414062 125.074219 2101.226562 145.324219 2100.914062 149.335938 L 2100.476562 156.734375 L 2114.890625 156.734375 L 2114.890625 63.320312 L 2210.796875 63.320312 L 2210.671875 101.875 C 2210.546875 132.410156 2210.292969 140.558594 2209.667969 141.1875 C 2209.105469 141.75 2206.410156 142.0625 2201.394531 142.1875 C 2197.257812 142.3125 2193.871094 142.503906 2193.871094 142.628906 C 2193.871094 142.753906 2195.125 145.761719 2196.691406 149.398438 C 2198.257812 153.035156 2199.511719 156.359375 2199.511719 156.796875 C 2199.511719 157.613281 2200.140625 157.546875 2210.671875 155.105469 C 2218.632812 153.285156 2220.636719 152.03125 2222.453125 147.832031 C 2223.519531 145.324219 2223.644531 142 2224.085938 100.625 C 2224.273438 76.109375 2224.710938 55.171875 2224.898438 54.042969 L 2225.339844 52.035156 L 2168.800781 52.035156 L 2168.800781 36.238281 L 2199.828125 36.488281 L 2230.855469 36.675781 L 2230.855469 24.765625 L 2199.765625 24.953125 L 2168.609375 25.203125 L 2168.925781 15.734375 L 2169.238281 6.269531 L 2154.882812 6.269531 Z M 2155.324219 15.734375 "/>
<path style=" stroke:none;fill-rule:nonzero;fill:rgb(0%,0%,0%);fill-opacity:1;" d="M 217.507812 8.839844 C 213.871094 9.78125 210.988281 10.785156 211.050781 11.097656 C 211.113281 11.410156 211.867188 14.480469 212.742188 17.992188 C 213.621094 21.503906 214.371094 24.574219 214.371094 24.828125 C 214.371094 25.015625 207.289062 25.140625 198.703125 24.953125 L 182.96875 24.703125 L 183.15625 31.222656 L 183.34375 37.679688 L 219.261719 37.804688 L 255.117188 37.929688 L 255.117188 24.574219 L 242.078125 24.890625 L 229.039062 25.265625 L 227.160156 16.300781 C 226.15625 11.347656 225.027344 7.273438 224.714844 7.210938 C 224.339844 7.148438 221.140625 7.898438 217.507812 8.839844 Z M 217.507812 8.839844 "/>
<path style=" stroke:none;fill-rule:nonzero;fill:rgb(0%,0%,0%);fill-opacity:1;" d="M 1420.6875 9.214844 C 1419.625 15.546875 1418.308594 22.066406 1417.117188 26.582031 L 1415.800781 31.472656 L 1405.269531 31.222656 L 1394.675781 30.96875 L 1394.675781 43.320312 L 1403.765625 42.882812 C 1411.472656 42.507812 1412.851562 42.570312 1412.601562 43.320312 C 1408.089844 57.425781 1404.765625 66.457031 1402.136719 71.597656 C 1401.382812 73.039062 1399.441406 75.546875 1397.683594 77.300781 L 1394.550781 80.4375 L 1397.183594 86.453125 C 1398.6875 89.777344 1399.878906 92.535156 1399.941406 92.597656 C 1400.003906 92.660156 1402.699219 92.285156 1405.957031 91.785156 C 1409.21875 91.28125 1415.484375 90.71875 1419.9375 90.464844 L 1427.898438 90.089844 L 1427.898438 110.84375 L 1426.203125 111.21875 C 1423.699219 111.71875 1404.078125 113.976562 1397.996094 114.476562 L 1392.859375 114.855469 L 1394.613281 118.429688 C 1395.617188 120.371094 1396.871094 123.445312 1397.433594 125.199219 C 1398.058594 127.015625 1398.625 128.523438 1398.75 128.523438 C 1398.875 128.523438 1401.882812 127.832031 1405.457031 127.015625 C 1408.96875 126.140625 1415.046875 124.886719 1418.808594 124.132812 C 1422.632812 123.378906 1426.265625 122.628906 1426.894531 122.441406 C 1428.085938 122.125 1428.085938 122.566406 1427.644531 140.058594 L 1427.207031 157.988281 L 1441.4375 157.988281 L 1441.1875 139.242188 L 1440.933594 120.558594 L 1449.585938 119.242188 C 1454.410156 118.492188 1459.863281 117.800781 1461.746094 117.738281 L 1465.191406 117.550781 L 1465.507812 111.59375 C 1465.695312 108.335938 1465.757812 105.511719 1465.695312 105.386719 C 1465.632812 105.261719 1461.808594 105.765625 1457.230469 106.453125 C 1452.65625 107.207031 1447.140625 107.957031 1445.007812 108.207031 L 1441.058594 108.648438 L 1441.058594 90.277344 L 1453.472656 90.152344 L 1465.820312 89.964844 L 1466.007812 84.449219 L 1466.195312 78.992188 L 1440.871094 78.992188 L 1441.3125 69.089844 C 1441.5 63.695312 1441.875 58.304688 1442.0625 57.175781 L 1442.4375 55.171875 L 1427.207031 55.171875 L 1427.644531 67.082031 L 1428.085938 78.992188 L 1420.1875 78.992188 C 1415.800781 78.992188 1412.226562 78.929688 1412.226562 78.804688 C 1412.226562 78.679688 1413.417969 75.484375 1414.796875 71.722656 C 1416.238281 67.960938 1419.183594 59.933594 1421.378906 53.917969 L 1425.265625 42.945312 L 1436.796875 42.945312 C 1443.128906 42.945312 1451.464844 43.132812 1455.351562 43.445312 L 1462.433594 43.886719 L 1462.058594 31.097656 L 1445.574219 31.285156 L 1429.027344 31.472656 L 1429.464844 29.96875 C 1431.59375 23.132812 1434.480469 16.300781 1435.984375 14.355469 L 1437.863281 12.039062 L 1434.605469 11.222656 C 1431.722656 10.53125 1425.015625 8.402344 1422.128906 7.210938 C 1421.253906 6.894531 1421.003906 7.273438 1420.6875 9.214844 Z M 1420.6875 9.214844 "/>
<path style=" stroke:none;fill-rule:nonzero;fill:rgb(0%,0%,0%);fill-opacity:1;" d="M 1659.445312 9.214844 C 1659.632812 10.53125 1660.007812 19.433594 1660.195312 28.964844 L 1660.636719 46.394531 L 1649.226562 46.394531 C 1639.824219 46.394531 1637.882812 46.269531 1637.882812 45.515625 C 1637.882812 44.136719 1642.832031 30.15625 1644.527344 26.769531 C 1645.402344 25.140625 1646.34375 23.824219 1646.65625 23.824219 C 1647.035156 23.824219 1647.285156 23.574219 1647.285156 23.320312 C 1647.285156 23.007812 1645.527344 22.320312 1643.398438 21.691406 C 1641.265625 21.128906 1637.507812 19.6875 1635 18.558594 L 1630.484375 16.425781 L 1629.105469 23.449219 C 1626.347656 37.238281 1620.644531 54.230469 1614.5 67.082031 C 1612.746094 70.71875 1611.242188 73.789062 1611.117188 73.976562 C 1610.992188 74.167969 1612.808594 75.105469 1615.128906 76.109375 C 1617.511719 77.113281 1620.457031 78.617188 1621.773438 79.433594 C 1623.152344 80.308594 1624.28125 80.875 1624.40625 80.75 C 1624.53125 80.625 1626.597656 75.734375 1628.980469 69.902344 L 1633.367188 59.246094 L 1646.910156 59.058594 L 1660.449219 58.933594 L 1660.449219 91.59375 L 1636.503906 91.46875 L 1612.496094 91.34375 L 1612.308594 97.925781 L 1612.121094 104.574219 L 1636.378906 104.195312 L 1660.574219 103.882812 L 1660.195312 127.644531 C 1660.007812 140.683594 1659.695312 152.597656 1659.445312 154.101562 L 1659.070312 156.734375 L 1674.550781 156.734375 L 1674.300781 130.339844 L 1674.113281 103.882812 L 1694.234375 104.195312 L 1714.355469 104.511719 L 1714.355469 90.152344 L 1712.347656 90.53125 C 1711.21875 90.78125 1702.195312 91.09375 1692.289062 91.34375 L 1674.238281 91.71875 L 1674.238281 58.871094 L 1709.339844 59.246094 L 1709.339844 45.890625 L 1691.726562 46.207031 L 1674.113281 46.582031 L 1674.488281 29.089844 C 1674.675781 19.496094 1674.988281 10.53125 1675.242188 9.214844 L 1675.617188 6.894531 L 1659.070312 6.894531 Z M 1659.445312 9.214844 "/>
<path style=" stroke:none;fill-rule:nonzero;fill:rgb(0%,0%,0%);fill-opacity:1;" d="M 1247.5 24.828125 L 1247.8125 41.441406 L 1235.652344 41.253906 L 1223.554688 41.0625 L 1223.554688 53.980469 L 1234.085938 53.917969 C 1239.851562 53.917969 1244.867188 53.855469 1245.304688 53.917969 C 1245.804688 53.917969 1245.554688 55.234375 1244.550781 58.117188 C 1238.597656 75.421875 1231.640625 89.148438 1221.484375 103.695312 C 1218.539062 107.894531 1217.410156 110.027344 1217.914062 110.339844 C 1218.351562 110.589844 1221.046875 113.160156 1223.929688 115.984375 C 1226.8125 118.867188 1229.320312 121.0625 1229.507812 120.9375 C 1230.636719 119.746094 1238.785156 105.261719 1242.734375 97.300781 C 1245.367188 92.097656 1247.625 87.769531 1247.8125 87.769531 C 1247.9375 87.769531 1247.9375 102.878906 1247.75 121.3125 L 1247.371094 154.914062 L 1254.707031 154.726562 C 1260.914062 154.539062 1262.039062 154.414062 1261.851562 153.597656 C 1261.414062 151.53125 1261.226562 55.421875 1261.664062 54.667969 C 1262.101562 54.042969 1264.609375 53.917969 1272.632812 54.042969 L 1283.101562 54.230469 L 1283.101562 41.0625 L 1272.257812 41.253906 L 1261.351562 41.441406 L 1261.226562 37.804688 C 1261.101562 33.101562 1262.292969 11.410156 1262.792969 9.53125 C 1263.167969 8.148438 1263.167969 8.148438 1255.207031 8.148438 L 1247.183594 8.148438 Z M 1247.5 24.828125 "/>
<path style=" stroke:none;fill-rule:nonzero;fill:rgb(0%,0%,0%);fill-opacity:1;" d="M 313.972656 9.089844 C 313.347656 9.65625 299.117188 13.101562 292.035156 14.355469 C 288.085938 15.046875 281.316406 15.925781 276.992188 16.300781 C 272.730469 16.675781 268.089844 17.117188 266.710938 17.304688 L 264.203125 17.554688 L 264.203125 55.671875 C 264.203125 95.355469 264.078125 97.550781 261.320312 111.28125 C 258.75 123.632812 252.921875 138.679688 247.34375 146.828125 C 246.589844 147.957031 245.777344 149.210938 245.527344 149.648438 C 245.023438 150.527344 258 156.921875 259.003906 156.292969 C 260.003906 155.730469 266.210938 142.375 268.65625 135.542969 C 274.234375 120.246094 277.617188 97.488281 277.679688 75.671875 L 277.679688 70.214844 L 295.921875 70.214844 L 295.546875 156.105469 L 309.335938 156.105469 L 309.148438 113.035156 L 308.898438 70.027344 L 316.480469 70.46875 L 324.066406 70.90625 L 324.066406 57.363281 L 300.875 57.617188 L 277.679688 57.804688 L 277.808594 42.882812 L 277.996094 27.898438 L 287.082031 26.832031 C 292.097656 26.269531 300.6875 25.453125 306.203125 25.078125 C 311.71875 24.703125 317.984375 24.261719 320.117188 24.074219 L 324.066406 23.699219 L 322.058594 21.316406 C 320.933594 20 318.738281 16.675781 317.171875 13.855469 C 315.542969 11.097656 314.101562 8.902344 313.972656 9.089844 Z M 313.972656 9.089844 "/>
<path style=" stroke:none;fill-rule:nonzero;fill:rgb(0%,0%,0%);fill-opacity:1;" d="M 1480.800781 10.46875 C 1476.976562 27.585938 1469.707031 45.015625 1460.492188 59.058594 C 1458.421875 62.191406 1456.792969 64.824219 1456.855469 64.886719 C 1456.980469 64.949219 1458.421875 65.390625 1460.054688 65.828125 C 1461.683594 66.265625 1464.628906 67.582031 1466.570312 68.710938 C 1468.453125 69.902344 1470.269531 70.84375 1470.457031 70.84375 C 1470.710938 70.84375 1473.53125 65.890625 1476.726562 59.871094 L 1482.554688 48.902344 L 1501.296875 48.902344 C 1514.085938 48.902344 1520.039062 49.089844 1520.039062 49.589844 C 1520.039062 49.902344 1518.785156 54.105469 1517.21875 58.871094 C 1515.652344 63.632812 1514.398438 67.773438 1514.398438 68.085938 C 1514.398438 68.585938 1528.125 71.785156 1528.5 71.34375 C 1528.566406 71.21875 1529.503906 67.707031 1530.632812 63.445312 C 1531.761719 59.183594 1533.890625 51.847656 1535.460938 47.144531 C 1536.964844 42.507812 1538.21875 38.429688 1538.21875 38.117188 C 1538.21875 37.867188 1526.496094 37.617188 1512.203125 37.617188 C 1497.914062 37.617188 1486.191406 37.492188 1486.191406 37.367188 C 1486.191406 37.238281 1487.195312 34.667969 1488.449219 31.597656 C 1491.269531 24.449219 1494.589844 18.371094 1496.972656 15.925781 C 1499.105469 13.667969 1498.980469 13.480469 1494.714844 12.914062 C 1492.082031 12.476562 1485.3125 10.46875 1482.304688 9.152344 C 1481.492188 8.777344 1481.113281 9.027344 1480.800781 10.46875 Z M 1480.800781 10.46875 "/>
<path style=" stroke:none;fill-rule:nonzero;fill:rgb(0%,0%,0%);fill-opacity:1;" d="M 722.097656 12.976562 C 721.03125 17.867188 718.835938 23.824219 714.761719 32.914062 C 708.558594 46.457031 703.105469 54.230469 698.027344 56.863281 C 696.960938 57.363281 695.957031 57.929688 695.894531 58.054688 C 695.769531 58.117188 696.585938 61.0625 697.714844 64.574219 C 699.71875 70.65625 699.84375 70.90625 701.414062 70.46875 C 709.121094 68.523438 726.484375 66.457031 726.484375 67.519531 C 726.484375 68.273438 718.835938 81.1875 715.390625 86.203125 C 711.816406 91.53125 707.867188 95.230469 704.109375 96.988281 C 702.289062 97.863281 700.785156 98.742188 700.785156 99.054688 C 700.785156 99.558594 705.234375 111.71875 705.613281 112.160156 C 705.675781 112.285156 707.992188 111.84375 710.625 111.09375 C 718.710938 108.898438 723.726562 107.957031 735.574219 106.640625 C 754.066406 104.511719 751.996094 105.136719 752.496094 101.375 C 752.75 99.558594 753.5 96.734375 754.128906 95.042969 C 754.753906 93.289062 755.195312 91.847656 755.066406 91.71875 C 754.941406 91.59375 751.371094 92.097656 747.105469 92.785156 C 736.578125 94.480469 723.289062 96.046875 722.914062 95.671875 C 722.472656 95.230469 740.464844 66.519531 745.917969 58.804688 C 748.171875 55.671875 751.496094 51.535156 753.3125 49.589844 C 755.320312 47.457031 756.257812 46.015625 755.820312 45.828125 C 754.753906 45.453125 744.851562 40.3125 742.34375 38.808594 C 740.148438 37.429688 740.148438 37.492188 739.019531 41.0625 C 738.582031 42.445312 736.953125 46.332031 735.386719 49.652344 L 732.566406 55.796875 L 728.050781 55.796875 C 725.542969 55.796875 721.34375 55.984375 718.710938 56.171875 L 713.886719 56.613281 L 717.585938 50.40625 C 719.589844 47.019531 723.601562 40 726.546875 34.859375 C 729.429688 29.714844 733.441406 23.574219 735.449219 21.191406 C 737.453125 18.808594 739.019531 16.738281 738.894531 16.613281 C 738.769531 16.488281 727.488281 11.347656 723.539062 9.65625 C 723.101562 9.402344 722.535156 10.59375 722.097656 12.976562 Z M 722.097656 12.976562 "/>
<path style=" stroke:none;fill-rule:nonzero;fill:rgb(0%,0%,0%);fill-opacity:1;" d="M 1939.320312 9.84375 C 1939.257812 10.15625 1939.320312 18.179688 1939.382812 27.835938 L 1939.507812 45.328125 L 1929.542969 44.824219 C 1924.089844 44.574219 1919.386719 44.324219 1919.011719 44.261719 C 1918.636719 44.261719 1918.320312 46.769531 1918.195312 50.59375 L 1918.007812 57.050781 L 1939.382812 57.050781 L 1939.257812 70.96875 L 1939.070312 84.949219 L 1932.175781 87.269531 C 1928.414062 88.523438 1922.519531 90.214844 1919.136719 90.96875 C 1915.8125 91.785156 1913.117188 92.535156 1913.179688 92.722656 C 1913.496094 93.351562 1918.507812 106.203125 1918.949219 107.394531 C 1919.324219 108.523438 1919.386719 108.523438 1921.332031 107.332031 C 1926.59375 104.132812 1937.3125 99.054688 1938.820312 99.054688 C 1939.132812 99.054688 1939.382812 107.519531 1939.382812 117.863281 C 1939.382812 141.1875 1940.136719 139.554688 1929.480469 138.929688 C 1922.773438 138.550781 1922.332031 138.617188 1922.773438 139.617188 C 1923.023438 140.246094 1923.964844 143.757812 1924.902344 147.519531 L 1926.53125 154.226562 L 1930.292969 153.851562 C 1936.375 153.222656 1943.207031 151.71875 1945.714844 150.402344 C 1947.03125 149.773438 1948.847656 148.269531 1949.726562 147.078125 C 1952.921875 142.816406 1953.171875 140.871094 1953.171875 116.609375 L 1953.171875 94.226562 L 1957.433594 92.347656 C 1959.753906 91.28125 1963.203125 89.902344 1965.082031 89.277344 L 1968.53125 88.148438 L 1968.53125 73.476562 L 1965.710938 74.605469 C 1964.140625 75.230469 1960.945312 76.613281 1958.625 77.675781 C 1956.246094 78.742188 1954.050781 79.621094 1953.738281 79.621094 C 1953.421875 79.621094 1953.171875 74.667969 1953.171875 68.335938 L 1953.171875 57.050781 L 1970.097656 57.050781 L 1970.097656 44.324219 L 1961.570312 44.699219 L 1952.984375 45.140625 L 1953.296875 27.273438 L 1953.675781 9.402344 L 1946.527344 9.402344 C 1942.578125 9.402344 1939.382812 9.59375 1939.320312 9.84375 Z M 1939.320312 9.84375 "/>
<path style=" stroke:none;fill-rule:nonzero;fill:rgb(0%,0%,0%);fill-opacity:1;" d="M 1975.863281 36.175781 C 1976.050781 65.578125 1975.988281 64.824219 1980 69.089844 C 1982.695312 72.035156 1985.390625 72.222656 2016.796875 71.972656 C 2049.328125 71.785156 2048.949219 71.785156 2053.152344 66.957031 C 2054.96875 64.761719 2060.984375 51.972656 2060.984375 50.21875 C 2060.984375 49.839844 2059.796875 49.277344 2058.351562 48.902344 C 2054.53125 47.960938 2051.144531 46.394531 2048.261719 44.324219 C 2046.945312 43.320312 2045.753906 42.632812 2045.628906 42.757812 C 2045.503906 42.882812 2044.8125 45.578125 2044.125 48.777344 C 2042.496094 56.171875 2041.742188 57.742188 2039.046875 59.121094 C 2037.042969 60.125 2034.847656 60.1875 2014.789062 60.058594 C 1987.710938 59.808594 1989.839844 60.75 1989.839844 49.714844 L 1989.839844 42.378906 L 1994.230469 41.503906 C 1998.054688 40.75 2004.132812 39.433594 2026.199219 34.480469 C 2028.957031 33.855469 2032.96875 32.914062 2035.097656 32.351562 C 2037.167969 31.785156 2041.304688 30.90625 2044.1875 30.34375 C 2052.148438 28.902344 2051.898438 29.214844 2047.886719 25.390625 C 2045.191406 22.820312 2040.175781 16.488281 2039.359375 14.609375 C 2039.296875 14.542969 2036.789062 15.734375 2033.78125 17.367188 C 2026.761719 21.003906 2022.3125 22.757812 2015.417969 24.828125 C 2008.082031 26.957031 1990.65625 30.71875 1990.03125 30.34375 C 1989.777344 30.15625 1989.714844 25.390625 1989.96875 19.6875 L 1990.34375 9.402344 L 1975.675781 9.402344 Z M 1975.863281 36.175781 "/>
<path style=" stroke:none;fill-rule:nonzero;fill:rgb(0%,0%,0%);fill-opacity:1;" d="M 27.265625 32.914062 L 27.265625 55.796875 L 126.929688 55.796875 L 126.804688 33.101562 L 126.742188 10.34375 L 76.972656 10.15625 L 27.265625 10.03125 Z M 112.703125 24.574219 L 112.890625 28.210938 L 41.371094 28.210938 L 41.371094 20.6875 L 76.972656 20.8125 L 112.515625 21.003906 Z M 112.828125 42.316406 L 112.828125 45.765625 L 41.371094 45.765625 L 41.371094 38.871094 L 112.828125 38.871094 Z M 112.828125 42.316406 "/>
<path style=" stroke:none;fill-rule:nonzero;fill:rgb(0%,0%,0%);fill-opacity:1;" d="M 1137.992188 11.660156 C 1134.921875 12.476562 1131.722656 13.164062 1130.972656 13.164062 C 1130.21875 13.164062 1129.40625 13.417969 1129.21875 13.792969 C 1128.714844 14.671875 1133.417969 26.394531 1137.492188 34.292969 C 1144.949219 48.777344 1149.210938 55.234375 1157.488281 64.261719 C 1161.8125 69.027344 1178.484375 83.882812 1181.179688 85.386719 C 1181.746094 85.703125 1182.746094 84.699219 1184.253906 82.253906 C 1186.632812 78.367188 1190.082031 74.480469 1193.339844 72.035156 L 1195.472656 70.40625 L 1190.769531 68.523438 C 1181.492188 64.699219 1172.71875 58.054688 1164.445312 48.460938 C 1155.042969 37.492188 1148.523438 26.269531 1145.515625 15.863281 C 1144.636719 12.851562 1143.886719 10.34375 1143.757812 10.34375 C 1143.695312 10.28125 1141.125 10.847656 1137.992188 11.660156 Z M 1137.992188 11.660156 "/>
<path style=" stroke:none;fill-rule:nonzero;fill:rgb(0%,0%,0%);fill-opacity:1;" d="M 1346.597656 11.972656 C 1338.574219 15.171875 1318.078125 18.746094 1300.839844 19.9375 C 1296.578125 20.25 1293.003906 20.625 1292.816406 20.8125 C 1292.628906 21.003906 1292.753906 29.84375 1293.195312 40.5 C 1294.824219 84.324219 1292.066406 106.828125 1282.726562 125.824219 C 1279.527344 132.347656 1276.894531 136.042969 1272.007812 141.125 L 1268.683594 144.570312 L 1272.570312 146.453125 C 1274.703125 147.457031 1278.273438 149.648438 1280.46875 151.34375 C 1282.664062 152.972656 1284.667969 154.101562 1284.917969 153.851562 C 1288.117188 150.089844 1296.328125 134.855469 1299.023438 127.769531 C 1303.347656 116.109375 1307.546875 90.339844 1307.546875 74.730469 L 1307.546875 70.214844 L 1332.054688 70.214844 L 1331.679688 153.597656 L 1346.097656 153.597656 L 1345.910156 111.78125 L 1345.660156 70.027344 L 1357.003906 70.40625 L 1368.347656 70.78125 L 1368.347656 57.992188 L 1337.949219 58.179688 L 1307.546875 58.429688 L 1307.546875 45.203125 C 1307.546875 32.035156 1307.546875 31.972656 1308.988281 31.660156 C 1312.0625 31.035156 1345.40625 28.085938 1353.746094 27.773438 L 1362.582031 27.398438 L 1359.324219 22.632812 C 1357.503906 19.9375 1355.0625 16.050781 1353.871094 13.917969 C 1352.742188 11.785156 1351.613281 10.03125 1351.425781 10.09375 C 1351.238281 10.15625 1349.105469 10.972656 1346.597656 11.972656 Z M 1346.597656 11.972656 "/>
<path style=" stroke:none;fill-rule:nonzero;fill:rgb(0%,0%,0%);fill-opacity:1;" d="M 966.496094 12.976562 C 966.496094 13.226562 966.496094 24.324219 966.558594 37.492188 L 966.621094 61.566406 L 945.308594 61.3125 L 923.933594 61.125 L 923.933594 74.667969 L 945.246094 74.230469 L 966.621094 73.789062 L 966.433594 115.230469 L 966.242188 156.734375 L 980.660156 156.734375 L 980.410156 115.230469 L 980.222656 73.789062 L 999.964844 74.105469 L 1019.710938 74.480469 L 1019.773438 67.773438 L 1019.773438 61.125 L 999.964844 61.375 L 980.160156 61.566406 L 980.410156 37.238281 L 980.660156 12.851562 L 973.640625 12.664062 C 969.753906 12.601562 966.558594 12.726562 966.496094 12.976562 Z M 966.496094 12.976562 "/>
<path style=" stroke:none;fill-rule:nonzero;fill:rgb(0%,0%,0%);fill-opacity:1;" d="M 1093.800781 21.066406 C 1086.90625 34.167969 1082.144531 41.566406 1074.308594 51.15625 C 1068.164062 58.679688 1055.566406 69.839844 1047.917969 74.542969 C 1046.601562 75.292969 1045.535156 76.171875 1045.535156 76.359375 C 1045.597656 76.613281 1047.542969 77.992188 1049.925781 79.496094 C 1052.304688 81 1055.691406 83.507812 1057.445312 85.074219 L 1060.644531 87.957031 L 1062.585938 86.140625 C 1073.429688 75.921875 1090.542969 54.480469 1103.832031 34.480469 C 1106.023438 31.222656 1109.285156 26.644531 1111.101562 24.386719 L 1114.363281 20.25 L 1110.851562 18.808594 C 1108.90625 18.054688 1105.273438 16.300781 1102.765625 14.984375 L 1098.253906 12.601562 Z M 1093.800781 21.066406 "/>
<path style=" stroke:none;fill-rule:nonzero;fill:rgb(0%,0%,0%);fill-opacity:1;" d="M 542.765625 13.605469 C 542.765625 13.917969 542.765625 30.15625 542.828125 49.839844 C 542.890625 87.582031 542.386719 100.558594 540.257812 112.285156 C 538 125.136719 532.984375 137.675781 526.78125 146.136719 L 524.085938 149.710938 L 529.222656 152.34375 C 532.046875 153.789062 535.117188 155.542969 536.058594 156.167969 C 536.933594 156.796875 537.9375 157.359375 538.25 157.359375 C 539.316406 157.359375 547.714844 139.117188 550.347656 131.15625 C 552.855469 123.757812 555.425781 112.285156 556.304688 104.574219 L 556.742188 100.9375 L 591.90625 100.9375 L 591.59375 126.015625 L 591.28125 151.089844 L 606.449219 151.089844 L 606.261719 126.015625 L 606.011719 100.9375 L 643.746094 100.9375 L 643.746094 116.109375 C 643.746094 138.300781 643.808594 138.113281 633.464844 138.425781 C 629.453125 138.617188 626.195312 138.929688 626.195312 139.179688 C 626.195312 139.429688 626.882812 141.1875 627.761719 143.003906 C 628.574219 144.882812 629.765625 148.457031 630.394531 150.964844 L 631.460938 155.542969 L 633.964844 155.167969 C 638.355469 154.476562 648.257812 151.65625 650.765625 150.402344 C 653.335938 149.085938 655.652344 146.328125 656.96875 142.941406 C 657.660156 141.125 657.910156 129.273438 658.160156 77.425781 C 658.347656 42.570312 658.414062 13.917969 658.285156 13.605469 C 658.160156 13.355469 632.148438 13.164062 600.429688 13.164062 C 568.777344 13.164062 542.828125 13.355469 542.765625 13.605469 Z M 591.71875 38.871094 L 591.71875 52.035156 L 556.617188 52.035156 L 556.617188 25.703125 L 591.71875 25.703125 Z M 643.746094 38.871094 L 643.746094 52.035156 L 606.136719 52.035156 L 606.136719 25.703125 L 643.746094 25.703125 Z M 591.71875 76.484375 L 591.71875 89.023438 L 556.617188 89.023438 L 556.617188 63.949219 L 591.71875 63.949219 Z M 643.746094 76.484375 L 643.746094 89.023438 L 606.136719 89.023438 L 606.136719 63.949219 L 643.746094 63.949219 Z M 643.746094 76.484375 "/>
<path style=" stroke:none;fill-rule:nonzero;fill:rgb(0%,0%,0%);fill-opacity:1;" d="M 894.222656 16.925781 C 890.773438 18.996094 887.890625 20.8125 887.828125 20.875 C 887.703125 21.003906 891.089844 26.457031 895.289062 33.039062 C 899.488281 39.621094 903.3125 45.578125 903.75 46.332031 C 904.503906 47.648438 904.503906 47.648438 907.824219 45.578125 C 909.578125 44.386719 912.589844 42.695312 914.40625 41.691406 C 916.222656 40.6875 917.601562 39.621094 917.476562 39.246094 C 917.289062 38.871094 913.714844 33.289062 909.453125 26.894531 C 905.191406 20.5 901.429688 14.796875 901.054688 14.230469 C 900.492188 13.292969 899.675781 13.605469 894.222656 16.925781 Z M 894.222656 16.925781 "/>
<path style=" stroke:none;fill-rule:nonzero;fill:rgb(0%,0%,0%);fill-opacity:1;" d="M 230.671875 39.875 C 230.671875 41.0625 224.402344 61 223.835938 61.628906 C 223.585938 61.878906 218.574219 62.003906 212.742188 61.941406 L 202.148438 61.753906 L 206.539062 60.25 C 208.980469 59.433594 211.175781 58.554688 211.488281 58.304688 C 211.929688 57.867188 204.65625 40.375 203.78125 39.875 C 203.589844 39.746094 200.957031 40.75 197.949219 42.128906 L 192.496094 44.636719 L 194 47.585938 C 195.378906 50.34375 199.957031 61.375 199.957031 61.941406 C 199.957031 62.128906 195.316406 62.128906 189.613281 61.941406 L 179.269531 61.566406 L 179.269531 75.421875 L 196.195312 74.917969 L 213.117188 74.480469 L 213.117188 89.210938 L 197.761719 88.898438 L 182.40625 88.523438 L 182.40625 102.316406 L 197.761719 101.875 L 213.117188 101.375 L 213.117188 119.554688 C 213.117188 136.359375 213.054688 137.800781 211.992188 138.742188 C 211.050781 139.617188 209.484375 139.804688 204.21875 139.804688 L 197.574219 139.804688 L 199.640625 143.757812 C 200.769531 145.886719 202.210938 149.273438 202.839844 151.34375 L 203.96875 154.976562 L 208.542969 154.601562 C 217.757812 153.722656 222.519531 151.40625 225.027344 146.390625 C 226.660156 143.066406 226.722656 142.0625 226.910156 105.703125 L 226.910156 101.375 L 241.640625 101.875 L 256.371094 102.316406 L 256.371094 88.523438 L 241.515625 88.898438 L 226.59375 89.210938 L 226.785156 81.878906 L 226.972656 74.480469 L 242.203125 74.917969 L 257.496094 75.421875 L 257.8125 70.46875 C 258 67.707031 258.125 64.636719 258.0625 63.632812 L 257.9375 61.753906 L 247.15625 62.003906 L 236.375 62.191406 L 238.503906 56.863281 C 241.136719 50.40625 242.832031 47.269531 244.898438 45.015625 L 246.464844 43.382812 L 242.769531 42.316406 C 233.429688 39.496094 230.671875 38.933594 230.671875 39.875 Z M 230.671875 39.875 "/>
<path style=" stroke:none;fill-rule:nonzero;fill:rgb(0%,0%,0%);fill-opacity:1;" d="M 388.191406 47.019531 L 383.050781 52.472656 L 384.679688 53.226562 C 387.1875 54.355469 399.535156 63.882812 405.113281 68.898438 C 407.808594 71.34375 410.191406 73.351562 410.441406 73.351562 C 410.691406 73.351562 411.445312 72.347656 412.132812 71.09375 C 412.824219 69.839844 415.019531 67.332031 417.023438 65.515625 L 420.660156 62.191406 L 415.144531 57.867188 C 409.628906 53.476562 395.148438 42.570312 393.957031 41.878906 C 393.644531 41.691406 391.011719 44.011719 388.191406 47.019531 Z M 388.191406 47.019531 "/>
<path style=" stroke:none;fill-rule:nonzero;fill:rgb(0%,0%,0%);fill-opacity:1;" d="M 426.488281 54.792969 C 426.925781 66.015625 426.113281 90.277344 425.234375 93.789062 L 424.859375 95.355469 L 355.40625 94.980469 L 355.40625 108.523438 L 388.628906 108.082031 C 412.132812 107.769531 421.851562 107.832031 421.851562 108.273438 C 421.851562 110.589844 410.253906 122.628906 404.175781 126.640625 C 395.523438 132.285156 379.351562 138.363281 364.433594 141.4375 L 356.160156 143.128906 L 360.109375 146.765625 C 362.300781 148.835938 364.808594 151.96875 365.8125 153.914062 C 367.945312 158.050781 367.191406 158.050781 379.851562 153.597656 C 399.285156 146.703125 408.875 141.6875 419.65625 132.722656 C 427.179688 126.453125 431.253906 121.1875 438.085938 109.085938 C 438.523438 108.273438 442.347656 108.144531 467.546875 108.273438 L 496.441406 108.398438 L 496.441406 94.980469 L 468.234375 95.167969 C 446.484375 95.355469 440.027344 95.230469 440.027344 94.605469 C 440.027344 89.464844 442.160156 57.050781 442.847656 52.347656 C 443.789062 45.390625 443.726562 45.203125 440.027344 45.140625 C 438.835938 45.140625 435.203125 44.574219 431.941406 43.949219 L 426.050781 42.820312 Z M 426.488281 54.792969 "/>
<path style=" stroke:none;fill-rule:nonzero;fill:rgb(0%,0%,0%);fill-opacity:1;" d="M 871.90625 68.023438 L 871.90625 75.421875 L 875.855469 75.042969 C 877.988281 74.792969 883.191406 74.417969 887.453125 74.230469 L 895.164062 73.789062 L 894.972656 102.878906 C 894.722656 134.726562 894.785156 134.101562 890.710938 141.058594 L 889.082031 143.882812 L 894.097656 147.390625 C 896.917969 149.335938 899.738281 151.53125 900.363281 152.28125 C 901.054688 152.972656 901.742188 153.597656 901.996094 153.597656 C 902.246094 153.597656 904.25 151.214844 906.382812 148.269531 C 908.511719 145.324219 912.589844 140.433594 915.410156 137.425781 C 918.230469 134.414062 923.304688 128.898438 926.628906 125.136719 L 932.707031 118.300781 L 930.515625 115.355469 C 929.261719 113.664062 927.632812 110.90625 926.878906 109.085938 L 925.4375 105.828125 L 917.101562 115.355469 L 908.828125 124.949219 L 909.015625 93.226562 L 909.203125 61.441406 L 894.410156 61.441406 C 886.261719 61.441406 877.863281 61.25 875.730469 61.0625 L 871.90625 60.625 Z M 871.90625 68.023438 "/>
<path style=" stroke:none;fill-rule:nonzero;fill:rgb(0%,0%,0%);fill-opacity:1;" d="M 1487.882812 72.851562 C 1487.695312 80.183594 1487.195312 87.269531 1486.503906 90.90625 C 1482.679688 111.96875 1471.273438 130.714844 1455.351562 142 C 1452.46875 144.007812 1449.898438 145.886719 1449.648438 146.136719 C 1449.335938 146.328125 1450.460938 147.390625 1452.15625 148.394531 C 1455.101562 150.277344 1461.117188 155.917969 1461.117188 156.859375 C 1461.117188 158.425781 1463.5625 156.546875 1469.644531 150.277344 C 1482.179688 137.488281 1487.570312 129.523438 1493.085938 115.859375 C 1494.714844 111.71875 1496.21875 108.273438 1496.347656 108.144531 C 1496.472656 107.957031 1497.222656 109.777344 1497.976562 112.160156 C 1500.796875 120.808594 1506.75 131.09375 1513.394531 138.742188 C 1516.46875 142.3125 1530.820312 154.851562 1531.824219 154.851562 C 1532.074219 154.851562 1532.828125 153.914062 1533.453125 152.722656 C 1534.894531 150.089844 1539.785156 145.011719 1542.167969 143.820312 C 1543.105469 143.316406 1543.859375 142.816406 1543.859375 142.628906 C 1543.859375 142.503906 1541.976562 141.3125 1539.660156 140.058594 C 1531.261719 135.417969 1526.496094 131.90625 1520.980469 126.328125 C 1514.335938 119.621094 1510.324219 113.222656 1507.191406 104.449219 C 1503.679688 94.730469 1502.925781 88.835938 1503.242188 74.542969 L 1503.554688 62.253906 L 1497.535156 61.816406 C 1494.214844 61.628906 1490.765625 61.25 1489.890625 61.0625 L 1488.199219 60.6875 Z M 1487.882812 72.851562 "/>
<path style=" stroke:none;fill-rule:nonzero;fill:rgb(0%,0%,0%);fill-opacity:1;" d="M 377.09375 67.394531 C 375.839844 69.339844 373.773438 72.035156 372.519531 73.414062 C 371.265625 74.792969 370.386719 75.984375 370.511719 76.109375 C 370.640625 76.171875 373.019531 77.300781 375.714844 78.554688 C 381.167969 81.125 388.816406 86.265625 394.394531 91.03125 L 397.96875 94.101562 L 403.671875 88.335938 C 406.742188 85.199219 409.3125 82.566406 409.3125 82.441406 C 409.3125 81.816406 380.667969 63.949219 379.664062 63.949219 C 379.539062 63.949219 378.347656 65.515625 377.09375 67.394531 Z M 377.09375 67.394531 "/>
<path style=" stroke:none;fill-rule:nonzero;fill:rgb(0%,0%,0%);fill-opacity:1;" d="M 2137.960938 67.960938 C 2135.703125 69.839844 2133.632812 71.722656 2133.382812 72.097656 C 2133.132812 72.472656 2134.199219 74.417969 2135.765625 76.359375 C 2138.773438 80.246094 2144.351562 88.648438 2144.351562 89.402344 C 2144.351562 89.839844 2131.878906 89.277344 2127.929688 88.648438 L 2125.546875 88.210938 L 2125.546875 101.5625 L 2141.21875 101.1875 L 2156.890625 100.75 L 2156.890625 112.410156 L 2141.40625 111.96875 C 2132.820312 111.71875 2124.671875 111.40625 2123.230469 111.21875 L 2120.535156 110.84375 L 2120.535156 123.820312 L 2138.835938 123.632812 L 2157.078125 123.378906 L 2156.703125 137.234375 L 2156.324219 151.089844 L 2170.429688 151.089844 L 2170.179688 137.234375 L 2169.925781 123.445312 L 2187.855469 123.632812 L 2205.78125 123.820312 L 2205.78125 111.71875 L 2187.917969 112.097656 L 2170.050781 112.410156 L 2170.050781 100.75 L 2185.722656 101.125 L 2201.394531 101.4375 L 2201.394531 89.210938 L 2191.363281 89.527344 C 2185.847656 89.714844 2181.335938 89.652344 2181.335938 89.402344 C 2181.335938 89.210938 2182.527344 86.832031 2184.03125 84.199219 C 2186.976562 78.867188 2189.671875 75.796875 2192.554688 74.542969 C 2193.621094 74.042969 2194.5 73.539062 2194.5 73.351562 C 2194.5 73.101562 2180.644531 66.644531 2179.328125 66.265625 C 2179.078125 66.203125 2177.136719 69.652344 2175.066406 73.976562 C 2173 78.304688 2170.179688 83.570312 2168.800781 85.703125 L 2166.355469 89.652344 L 2145.921875 89.652344 L 2149.054688 87.457031 C 2155.824219 82.691406 2155.449219 83.132812 2154.257812 81.125 C 2152.5625 78.179688 2142.785156 64.574219 2142.410156 64.574219 C 2142.222656 64.574219 2140.214844 66.140625 2137.960938 67.960938 Z M 2137.960938 67.960938 "/>
<path style=" stroke:none;fill-rule:nonzero;fill:rgb(0%,0%,0%);fill-opacity:1;" d="M 5.015625 71.34375 L 5.015625 77.238281 L 13.789062 76.800781 L 22.566406 76.296875 L 22.441406 103.195312 L 22.253906 130.089844 L 19.429688 130.527344 C 17.863281 130.714844 14.292969 130.964844 11.472656 131.03125 C 7.648438 131.15625 6.269531 131.40625 6.269531 132.03125 C 6.269531 132.472656 7.269531 135.605469 8.460938 138.992188 C 9.714844 142.375 10.78125 145.449219 10.96875 145.886719 C 11.15625 146.453125 11.785156 146.453125 13.289062 146.011719 C 22.878906 143.191406 50.394531 136.859375 58.480469 135.730469 L 61.429688 135.292969 L 61.429688 153.597656 L 74.90625 153.597656 L 74.90625 133.222656 L 78.855469 132.660156 L 82.742188 132.03125 L 82.742188 125.886719 C 82.742188 122.503906 82.550781 119.746094 82.300781 119.746094 C 81.988281 119.746094 80.421875 120.183594 78.730469 120.683594 C 77.035156 121.1875 75.40625 121.625 75.09375 121.625 C 74.84375 121.625 74.589844 111.40625 74.589844 98.992188 L 74.589844 76.359375 L 110.632812 76.613281 L 146.675781 76.800781 L 146.675781 65.515625 L 5.015625 65.515625 Z M 61.429688 81.5 L 61.429688 86.515625 L 35.730469 86.515625 L 35.730469 76.484375 L 61.429688 76.484375 Z M 61.429688 101.875 L 61.429688 106.578125 L 35.730469 106.578125 L 35.730469 97.175781 L 61.429688 97.175781 Z M 61.113281 120.683594 L 61.113281 124.445312 L 49.519531 126.140625 C 43.125 127.015625 37.421875 127.832031 36.855469 127.832031 C 35.855469 127.894531 35.730469 127.207031 35.730469 122.253906 L 35.730469 116.609375 L 48.453125 116.734375 L 61.113281 116.921875 Z M 61.113281 120.683594 "/>
<path style=" stroke:none;fill-rule:nonzero;fill:rgb(0%,0%,0%);fill-opacity:1;" d="M 1076.878906 79.433594 L 1076.878906 85.890625 L 1098.191406 85.890625 L 1097.875 87.582031 C 1097.75 88.585938 1097.25 91.46875 1096.875 94.039062 C 1094.617188 108.648438 1089.414062 118.617188 1080.011719 126.328125 C 1074.371094 130.964844 1067.289062 135.105469 1059.136719 138.550781 C 1055.441406 140.121094 1052.433594 141.5625 1052.433594 141.75 C 1052.433594 142 1053.558594 142.941406 1054.9375 143.882812 C 1057.570312 145.699219 1062.085938 150.339844 1063.777344 152.972656 L 1064.78125 154.539062 L 1068.792969 152.09375 C 1091.859375 137.988281 1101.074219 128.585938 1106.714844 113.476562 C 1108.59375 108.460938 1111.351562 96.546875 1112.292969 88.835938 L 1112.667969 85.890625 L 1128.152344 85.828125 C 1136.675781 85.828125 1144.074219 85.703125 1144.636719 85.578125 C 1147.394531 85.074219 1147.394531 85.453125 1145.011719 107.769531 C 1142.632812 129.777344 1141.816406 133.472656 1139.371094 134.664062 C 1138.621094 135.042969 1134.042969 135.480469 1129.21875 135.667969 C 1124.390625 135.855469 1120.378906 135.980469 1120.316406 135.980469 C 1120.253906 136.042969 1121.320312 138.238281 1122.636719 140.933594 C 1123.953125 143.628906 1125.582031 147.582031 1126.144531 149.710938 C 1126.773438 151.84375 1127.398438 153.597656 1127.648438 153.597656 C 1128.714844 153.597656 1146.078125 149.085938 1147.832031 148.394531 C 1150.84375 147.078125 1153.789062 143.757812 1155.230469 140.058594 C 1156.046875 137.738281 1157.296875 129.210938 1159.304688 111.46875 C 1160.871094 97.550781 1162.5625 83.382812 1163.066406 79.933594 C 1163.566406 76.546875 1163.878906 73.664062 1163.816406 73.601562 C 1163.753906 73.539062 1144.136719 73.351562 1120.316406 73.226562 L 1076.878906 72.976562 Z M 1076.878906 79.433594 "/>
<path style=" stroke:none;fill-rule:nonzero;fill:rgb(0%,0%,0%);fill-opacity:1;" d="M 1268.371094 75.546875 C 1265.613281 77.113281 1263.105469 78.429688 1262.730469 78.554688 C 1262.417969 78.679688 1262.730469 79.933594 1263.542969 81.25 C 1264.359375 82.566406 1267.179688 88.085938 1269.8125 93.414062 L 1274.640625 103.195312 L 1278.402344 100.558594 C 1280.46875 99.054688 1283.226562 97.363281 1284.542969 96.796875 C 1285.796875 96.234375 1286.863281 95.480469 1286.863281 95.230469 C 1286.863281 94.730469 1283.539062 88.523438 1277.273438 77.238281 C 1275.894531 74.792969 1274.453125 72.722656 1274.074219 72.789062 C 1273.699219 72.789062 1271.128906 74.042969 1268.371094 75.546875 Z M 1268.371094 75.546875 "/>
<path style=" stroke:none;fill-rule:nonzero;fill:rgb(0%,0%,0%);fill-opacity:1;" d="M 1977.179688 93.226562 C 1977.492188 99.054688 1977.554688 115.542969 1977.367188 129.902344 L 1977.054688 156.105469 L 1991.410156 156.105469 L 1991.410156 144.195312 L 2034.660156 144.195312 L 2034.660156 154.226562 L 2048.761719 154.226562 L 2048.761719 82.753906 L 1976.679688 82.753906 Z M 2034.660156 100.9375 L 2034.660156 107.207031 L 1991.410156 107.207031 L 1991.410156 94.667969 L 2034.660156 94.667969 Z M 2034.660156 125.699219 L 2034.660156 132.285156 L 1991.410156 132.285156 L 1991.410156 119.117188 L 2034.660156 119.117188 Z M 2034.660156 125.699219 "/>
<path style=" stroke:none;fill-rule:nonzero;fill:rgb(0%,0%,0%);fill-opacity:1;" d="M 78.980469 91.785156 L 78.980469 97.800781 L 84.371094 97.800781 L 85.5625 102.316406 C 88.195312 112.722656 92.015625 120.621094 97.660156 127.207031 L 100.542969 130.589844 L 96.21875 134.601562 C 92.078125 138.488281 83.367188 143.441406 78.792969 144.570312 C 77.851562 144.757812 77.097656 145.199219 77.222656 145.449219 C 77.351562 145.699219 79.605469 148.207031 82.300781 151.089844 L 87.128906 156.230469 L 88.882812 155.105469 C 93.082031 152.40625 102.234375 145.261719 106.058594 141.75 L 110.195312 137.925781 L 116.964844 141.625 C 123.234375 145.136719 130.753906 148.457031 138.339844 151.089844 L 141.597656 152.28125 L 142.351562 149.960938 C 142.726562 148.707031 144.167969 145.574219 145.484375 143.128906 C 147.929688 138.617188 147.929688 138.550781 146.550781 138.300781 C 145.734375 138.113281 142.726562 137.488281 139.84375 136.921875 C 132.824219 135.605469 125.867188 133.285156 121.601562 130.902344 C 119.722656 129.839844 118.09375 128.960938 117.96875 128.835938 C 117.90625 128.773438 119.097656 126.453125 120.664062 123.695312 C 125.238281 115.667969 131.695312 98.242188 133.828125 88.523438 L 134.265625 86.515625 L 110.445312 86.515625 C 97.40625 86.515625 84.933594 86.328125 82.804688 86.140625 L 78.980469 85.703125 Z M 118.46875 97.675781 C 118.46875 99.179688 114.332031 110.027344 112.136719 114.414062 C 108.441406 121.6875 108.1875 121.875 105.621094 118.804688 C 101.230469 113.601562 97.46875 105.765625 96.28125 99.179688 L 95.964844 97.175781 L 107.1875 97.175781 C 113.390625 97.175781 118.46875 97.425781 118.46875 97.675781 Z M 118.46875 97.675781 "/>
<path style=" stroke:none;fill-rule:nonzero;fill:rgb(0%,0%,0%);fill-opacity:1;" d="M 194 110.402344 C 189.425781 118.113281 186.605469 122.125 180.648438 129.398438 L 176.511719 134.414062 L 178.078125 135.355469 C 178.894531 135.917969 181.339844 137.863281 183.53125 139.679688 C 185.726562 141.5625 187.605469 142.941406 187.671875 142.816406 C 190.300781 139.554688 210.613281 112.035156 210.488281 111.96875 C 210.359375 111.84375 208.730469 110.90625 206.851562 109.777344 C 204.96875 108.585938 202.210938 106.703125 200.769531 105.574219 L 198.136719 103.445312 Z M 194 110.402344 "/>
<path style=" stroke:none;fill-rule:nonzero;fill:rgb(0%,0%,0%);fill-opacity:1;" d="M 234.746094 108.523438 C 232.363281 110.214844 230.105469 111.90625 229.792969 112.222656 C 229.480469 112.535156 230.605469 114.855469 232.550781 117.988281 C 234.367188 120.875 237.441406 126.078125 239.320312 129.648438 L 242.703125 136.109375 L 245.964844 133.035156 C 247.71875 131.40625 250.101562 129.460938 251.230469 128.835938 C 252.296875 128.144531 253.234375 127.332031 253.234375 126.953125 C 253.234375 126.078125 239.757812 105.261719 239.257812 105.324219 C 239.195312 105.386719 237.1875 106.765625 234.746094 108.523438 Z M 234.746094 108.523438 "/>
<path style=" stroke:none;fill-rule:nonzero;fill:rgb(0%,0%,0%);fill-opacity:1;" d="M 439.714844 121.4375 C 437.457031 124.507812 435.640625 127.078125 435.640625 127.269531 C 435.640625 127.457031 441.78125 131.21875 449.304688 135.730469 C 456.765625 140.246094 467.105469 146.640625 472.246094 150.027344 C 479.832031 155.042969 481.710938 156.042969 482.339844 155.355469 C 486.289062 151.027344 492.742188 143.441406 492.617188 143.316406 C 492.179688 143.003906 461.339844 125.324219 452.878906 120.558594 C 448.425781 118.050781 444.542969 115.984375 444.226562 115.984375 C 443.976562 115.984375 441.972656 118.429688 439.714844 121.4375 Z M 439.714844 121.4375 "/>
<path style=" stroke:none;fill-rule:nonzero;fill:rgb(0%,0%,0%);fill-opacity:1;" d="M 744.160156 122 C 731.3125 126.265625 722.035156 128.585938 709.246094 130.714844 C 703.730469 131.65625 698.589844 132.535156 697.839844 132.660156 C 696.460938 132.910156 696.460938 132.972656 698.589844 136.609375 C 699.78125 138.617188 701.539062 142.0625 702.476562 144.257812 C 703.355469 146.453125 704.171875 148.332031 704.234375 148.457031 C 704.296875 148.519531 706.300781 147.707031 708.683594 146.640625 C 715.015625 143.757812 718.085938 142.753906 736.828125 137.550781 C 746.167969 134.980469 754.253906 132.722656 754.878906 132.535156 C 755.820312 132.21875 755.945312 131.34375 755.945312 125.324219 C 755.945312 120.246094 755.757812 118.492188 755.195312 118.554688 C 754.753906 118.617188 749.800781 120.121094 744.160156 122 Z M 744.160156 122 "/>
</g>
</svg>
