<?xml version="1.0" encoding="UTF-8"?>
<svg xmlns="http://www.w3.org/2000/svg" xmlns:xlink="http://www.w3.org/1999/xlink" width="443pt" height="32pt" viewBox="0 0 443 32" version="1.1">
<g id="surface1">
<path style=" stroke:none;fill-rule:nonzero;fill:rgb(0%,0%,0%);fill-opacity:1;" d="M 352.839844 1.304688 C 352.777344 1.464844 352.515625 2.0625 352.253906 2.632812 C 350.695312 6.0625 348.683594 8.96875 346.09375 11.554688 C 345.433594 12.199219 344.902344 12.757812 344.902344 12.808594 C 344.902344 12.84375 345.023438 12.945312 345.1875 13.003906 C 345.335938 13.082031 345.929688 13.515625 346.5 13.960938 C 347.070312 14.410156 347.582031 14.78125 347.628906 14.78125 C 347.679688 14.78125 348.136719 14.285156 348.632812 13.664062 L 349.550781 12.558594 L 349.613281 19.976562 L 349.675781 27.390625 L 350.023438 28.085938 C 350.371094 28.804688 350.839844 29.21875 351.722656 29.578125 C 352.390625 29.839844 367.929688 29.898438 369.195312 29.640625 C 370.773438 29.304688 371.628906 28.472656 372.445312 26.496094 C 373.140625 24.820312 373.140625 24.894531 372.59375 24.792969 C 371.875 24.683594 370.894531 24.175781 370.273438 23.601562 C 369.632812 23.003906 369.742188 22.90625 369.40625 24.53125 C 369.121094 25.9375 368.960938 26.457031 368.710938 26.707031 C 368.253906 27.167969 367.410156 27.214844 360.328125 27.179688 C 354.1875 27.144531 353.484375 27.117188 353.136719 26.929688 C 352.417969 26.546875 352.34375 26.160156 352.34375 23.242188 L 352.34375 20.621094 L 363.316406 20.621094 L 363.316406 11.304688 L 356.96875 11.304688 C 353.472656 11.304688 350.605469 11.277344 350.605469 11.242188 C 350.605469 11.21875 351.117188 10.496094 351.734375 9.664062 C 352.355469 8.820312 352.886719 8.0625 352.925781 7.972656 C 352.972656 7.863281 354.574219 7.824219 360.367188 7.824219 L 367.746094 7.824219 L 367.671875 8.90625 C 367.632812 9.515625 367.511719 11.761719 367.410156 13.910156 C 367.152344 19.453125 367.136719 19.515625 366.109375 19.738281 C 365.761719 19.8125 365.152344 19.875 364.769531 19.875 C 363.777344 19.875 363.675781 19.976562 364.011719 20.546875 C 364.160156 20.804688 364.433594 21.464844 364.632812 22.023438 C 364.96875 23.003906 365.003906 23.042969 365.390625 23.082031 C 365.933594 23.128906 368.128906 22.558594 368.664062 22.234375 C 369.171875 21.914062 369.632812 21.15625 369.816406 20.3125 C 369.890625 19.960938 370.089844 16.957031 370.261719 13.601562 C 370.449219 10.261719 370.636719 7.128906 370.695312 6.644531 C 370.757812 6.171875 370.820312 5.675781 370.820312 5.566406 C 370.820312 5.351562 370.324219 5.339844 362.699219 5.316406 L 354.574219 5.28125 L 355.121094 4.460938 C 355.417969 4.011719 355.925781 3.402344 356.238281 3.105469 L 356.808594 2.558594 L 355.714844 2.175781 C 355.121094 1.949219 354.253906 1.601562 353.792969 1.390625 L 352.949219 1.007812 Z M 360.527344 15.960938 L 360.527344 18.136719 L 352.34375 18.136719 L 352.34375 13.789062 L 360.527344 13.789062 Z M 360.527344 15.960938 "/>
<path style=" stroke:none;fill-rule:nonzero;fill:rgb(0%,0%,0%);fill-opacity:1;" d="M 84.46875 1.253906 C 84.296875 1.316406 83.6875 1.492188 83.105469 1.640625 C 82.523438 1.777344 81.988281 1.9375 81.925781 2 C 81.867188 2.050781 82.054688 2.609375 82.3125 3.253906 C 82.585938 3.890625 82.847656 4.53125 82.894531 4.683594 L 82.980469 4.96875 L 70.566406 4.96875 L 70.566406 11.242188 L 72.117188 11.207031 L 73.667969 11.167969 L 73.667969 7.453125 L 83.875 7.480469 L 94.070312 7.515625 L 94.105469 9.167969 L 94.144531 10.820312 L 95.632812 10.78125 L 97.132812 10.746094 L 97.144531 7.863281 L 97.167969 4.96875 L 86.382812 4.96875 L 85.910156 3.589844 C 85.3125 1.875 84.992188 1.117188 84.867188 1.128906 C 84.816406 1.128906 84.632812 1.191406 84.46875 1.253906 Z M 84.46875 1.253906 "/>
<path style=" stroke:none;fill-rule:nonzero;fill:rgb(0%,0%,0%);fill-opacity:1;" d="M 157.320312 1.628906 C 156.773438 1.828125 156.203125 1.988281 156.054688 1.988281 C 155.707031 1.988281 155.695312 2.222656 156.007812 2.832031 C 156.203125 3.230469 156.6875 4.609375 156.949219 5.578125 L 157.035156 5.863281 L 153.179688 5.824219 L 149.320312 5.777344 L 149.320312 8.285156 L 152.171875 8.222656 C 153.75 8.1875 155.027344 8.199219 155.027344 8.261719 C 155.027344 8.308594 154.800781 8.808594 154.542969 9.378906 C 153.277344 12.085938 151.414062 14.1875 149.964844 14.53125 L 149.355469 14.671875 L 149.890625 15.9375 C 150.1875 16.632812 150.4375 17.28125 150.4375 17.378906 C 150.4375 17.464844 150.511719 17.515625 150.621094 17.464844 C 151.019531 17.316406 153.164062 16.980469 153.25 17.066406 C 153.414062 17.214844 153.4375 19.21875 153.300781 20.832031 C 153.101562 23.328125 152.433594 25.054688 151.070312 26.59375 C 150.5 27.242188 149.109375 28.347656 148.066406 28.980469 L 147.363281 29.390625 L 148.140625 29.738281 C 148.675781 29.960938 149.121094 30.285156 149.507812 30.695312 L 150.089844 31.316406 L 150.722656 30.820312 C 151.601562 30.136719 152.929688 28.820312 153.601562 27.949219 C 155.175781 25.902344 155.820312 23.441406 155.980469 18.90625 L 156.054688 16.644531 L 156.625 16.644531 C 156.9375 16.644531 157.40625 16.609375 157.667969 16.570312 L 158.125 16.484375 L 158.125 22 C 158.125 25.304688 158.1875 27.738281 158.261719 28.074219 C 158.449219 28.894531 158.894531 29.492188 159.578125 29.828125 C 160.121094 30.097656 160.359375 30.125 162.328125 30.160156 C 164.734375 30.210938 165.207031 30.136719 165.863281 29.550781 C 166.460938 29.03125 166.859375 28.296875 167.367188 26.808594 C 167.851562 25.378906 167.875 25.476562 166.871094 25.230469 C 166.597656 25.15625 165.988281 24.867188 165.542969 24.59375 C 165.085938 24.324219 164.6875 24.097656 164.648438 24.097656 C 164.601562 24.097656 164.574219 24.285156 164.574219 24.523438 C 164.574219 25.15625 164.242188 26.757812 164.027344 27.179688 C 163.78125 27.652344 163.632812 27.699219 162.464844 27.699219 C 161.609375 27.699219 161.449219 27.664062 161.140625 27.402344 L 160.792969 27.105469 L 160.792969 16.335938 L 161.773438 16.222656 C 162.589844 16.136719 162.777344 16.148438 162.886719 16.296875 C 162.964844 16.410156 163.296875 16.871094 163.621094 17.316406 L 164.214844 18.148438 L 164.800781 17.726562 C 165.121094 17.492188 165.703125 17.105469 166.101562 16.871094 L 166.808594 16.433594 L 165.628906 14.71875 C 164.402344 12.945312 162.628906 10.621094 162.21875 10.25 C 161.984375 10.035156 161.945312 10.035156 161.265625 10.519531 C 160.867188 10.792969 160.308594 11.140625 160.011719 11.292969 L 159.476562 11.5625 L 159.765625 11.960938 C 159.9375 12.1875 160.359375 12.746094 160.71875 13.230469 L 161.375 14.097656 L 160.394531 14.1875 C 159.207031 14.296875 153.984375 14.523438 153.933594 14.472656 C 153.820312 14.359375 157.097656 10.632812 157.753906 10.125 L 158.5 9.527344 L 157.519531 8.980469 C 156.972656 8.683594 156.488281 8.371094 156.441406 8.296875 C 156.378906 8.210938 157.902344 8.1875 161.648438 8.210938 L 166.929688 8.261719 L 166.929688 5.777344 L 162.257812 5.800781 C 159.675781 5.8125 157.628906 5.800781 157.691406 5.777344 C 157.765625 5.753906 158.285156 5.589844 158.871094 5.417969 C 159.453125 5.253906 159.925781 5.066406 159.925781 4.996094 C 159.925781 4.695312 158.546875 1.253906 158.4375 1.265625 C 158.375 1.265625 157.863281 1.441406 157.320312 1.628906 Z M 157.320312 1.628906 "/>
<path style=" stroke:none;fill-rule:nonzero;fill:rgb(0%,0%,0%);fill-opacity:1;" d="M 317.046875 1.578125 C 316.898438 2.175781 315.695312 5.105469 315.136719 6.210938 C 313.636719 9.207031 311.363281 12.71875 309.976562 14.1875 C 309.679688 14.507812 309.429688 14.820312 309.429688 14.882812 C 309.429688 14.945312 309.667969 15.203125 309.964844 15.476562 C 310.25 15.738281 310.722656 16.238281 310.992188 16.570312 L 311.5 17.167969 L 313.101562 14.929688 C 313.984375 13.6875 314.738281 12.683594 314.800781 12.683594 C 315.023438 12.65625 314.851562 29.652344 314.613281 30.832031 C 314.589844 30.957031 314.949219 31.003906 316.179688 31.03125 L 317.765625 31.070312 L 317.664062 30.78125 C 317.617188 30.621094 317.554688 25.488281 317.53125 19.367188 L 317.480469 8.222656 L 318.101562 6.84375 C 318.855469 5.167969 319.613281 3.851562 320.183594 3.230469 L 320.605469 2.757812 L 319.949219 2.546875 C 319.585938 2.421875 318.820312 2.085938 318.25 1.789062 C 317.679688 1.492188 317.195312 1.242188 317.171875 1.242188 C 317.144531 1.242188 317.082031 1.390625 317.046875 1.578125 Z M 317.046875 1.578125 "/>
<path style=" stroke:none;fill-rule:nonzero;fill:rgb(0%,0%,0%);fill-opacity:1;" d="M 426.445312 3.117188 L 426.542969 4.996094 L 421.097656 4.933594 C 418.097656 4.894531 415.46875 4.820312 415.257812 4.769531 L 414.847656 4.695312 L 414.847656 7.480469 L 415.320312 7.402344 C 415.570312 7.351562 418.199219 7.292969 421.148438 7.253906 L 426.507812 7.179688 L 426.507812 10.3125 L 415.589844 10.3125 L 415.679688 11.761719 C 415.742188 12.570312 415.777344 16.582031 415.777344 20.683594 C 415.777344 24.78125 415.742188 28.792969 415.679688 29.589844 L 415.589844 31.054688 L 418.445312 31.054688 L 418.445312 12.546875 L 437.421875 12.546875 L 437.394531 20.183594 C 437.371094 26.234375 437.320312 27.851562 437.199219 27.972656 C 437.085938 28.085938 436.550781 28.148438 435.558594 28.171875 C 434.742188 28.199219 434.070312 28.234375 434.070312 28.261719 C 434.070312 28.285156 434.320312 28.882812 434.628906 29.601562 C 434.941406 30.320312 435.1875 30.980469 435.1875 31.070312 C 435.1875 31.230469 435.3125 31.21875 437.394531 30.734375 C 438.96875 30.371094 439.367188 30.125 439.726562 29.292969 C 439.9375 28.792969 439.964844 28.136719 440.050781 19.9375 C 440.085938 15.082031 440.171875 10.933594 440.210938 10.707031 L 440.296875 10.3125 L 429.113281 10.3125 L 429.113281 7.179688 L 435.25 7.230469 L 441.390625 7.265625 L 441.390625 4.90625 L 435.238281 4.945312 L 429.074219 4.996094 L 429.136719 3.117188 L 429.199219 1.242188 L 426.355469 1.242188 Z M 426.445312 3.117188 "/>
<path style=" stroke:none;fill-rule:nonzero;fill:rgb(0%,0%,0%);fill-opacity:1;" d="M 43.035156 1.75 C 42.316406 1.9375 41.746094 2.136719 41.757812 2.199219 C 41.769531 2.261719 41.917969 2.871094 42.09375 3.566406 C 42.265625 4.261719 42.414062 4.867188 42.414062 4.917969 C 42.414062 4.957031 41.015625 4.980469 39.316406 4.945312 L 36.203125 4.894531 L 36.238281 6.1875 L 36.277344 7.464844 L 43.382812 7.492188 L 50.476562 7.515625 L 50.476562 4.867188 L 47.894531 4.933594 L 45.316406 5.003906 L 44.945312 3.230469 C 44.746094 2.25 44.523438 1.441406 44.460938 1.429688 C 44.386719 1.414062 43.753906 1.5625 43.035156 1.75 Z M 43.035156 1.75 "/>
<path style=" stroke:none;fill-rule:nonzero;fill:rgb(0%,0%,0%);fill-opacity:1;" d="M 281.09375 1.828125 C 280.882812 3.082031 280.621094 4.375 280.386719 5.265625 L 280.125 6.238281 L 278.042969 6.1875 L 275.945312 6.136719 L 275.945312 8.585938 L 277.742188 8.496094 C 279.269531 8.421875 279.542969 8.4375 279.492188 8.585938 C 278.597656 11.378906 277.941406 13.167969 277.421875 14.1875 C 277.273438 14.472656 276.886719 14.96875 276.542969 15.316406 L 275.921875 15.9375 L 276.441406 17.128906 C 276.738281 17.789062 276.976562 18.335938 276.988281 18.347656 C 277 18.359375 277.535156 18.285156 278.175781 18.1875 C 278.824219 18.085938 280.0625 17.972656 280.941406 17.925781 L 282.519531 17.851562 L 282.519531 21.960938 L 282.183594 22.035156 C 281.6875 22.136719 277.804688 22.582031 276.601562 22.683594 L 275.585938 22.757812 L 275.933594 23.464844 C 276.132812 23.851562 276.378906 24.460938 276.492188 24.808594 C 276.613281 25.167969 276.726562 25.464844 276.75 25.464844 C 276.777344 25.464844 277.371094 25.328125 278.078125 25.167969 C 278.773438 24.996094 279.976562 24.746094 280.71875 24.59375 C 281.476562 24.445312 282.195312 24.296875 282.320312 24.261719 C 282.554688 24.199219 282.554688 24.285156 282.46875 27.75 L 282.382812 31.304688 L 285.199219 31.304688 L 285.148438 27.589844 L 285.097656 23.886719 L 286.808594 23.625 C 287.765625 23.476562 288.84375 23.339844 289.214844 23.328125 L 289.898438 23.289062 L 289.960938 22.113281 C 289.996094 21.464844 290.007812 20.90625 289.996094 20.882812 C 289.984375 20.855469 289.226562 20.957031 288.320312 21.09375 C 287.417969 21.242188 286.328125 21.390625 285.90625 21.441406 L 285.121094 21.527344 L 285.121094 17.886719 L 287.578125 17.863281 L 290.019531 17.824219 L 290.058594 16.730469 L 290.097656 15.652344 L 285.085938 15.652344 L 285.171875 13.6875 C 285.210938 12.621094 285.285156 11.554688 285.320312 11.328125 L 285.394531 10.933594 L 282.382812 10.933594 L 282.46875 13.289062 L 282.554688 15.652344 L 280.992188 15.652344 C 280.125 15.652344 279.417969 15.636719 279.417969 15.617188 C 279.417969 15.589844 279.65625 14.957031 279.925781 14.210938 C 280.210938 13.464844 280.792969 11.875 281.226562 10.683594 L 282 8.507812 L 284.277344 8.507812 C 285.53125 8.507812 287.183594 8.546875 287.949219 8.609375 L 289.351562 8.695312 L 289.3125 7.429688 L 289.277344 6.160156 L 286.015625 6.199219 L 282.742188 6.238281 L 282.828125 5.9375 C 283.25 4.582031 283.820312 3.230469 284.121094 2.84375 L 284.492188 2.382812 L 283.847656 2.222656 C 283.277344 2.085938 281.949219 1.664062 281.378906 1.429688 C 281.203125 1.367188 281.15625 1.441406 281.09375 1.828125 Z M 281.09375 1.828125 "/>
<path style=" stroke:none;fill-rule:nonzero;fill:rgb(0%,0%,0%);fill-opacity:1;" d="M 328.332031 1.828125 C 328.371094 2.085938 328.445312 3.851562 328.480469 5.738281 L 328.566406 9.191406 L 326.308594 9.191406 C 324.449219 9.191406 324.066406 9.167969 324.066406 9.019531 C 324.066406 8.746094 325.042969 5.972656 325.378906 5.304688 C 325.554688 4.980469 325.738281 4.71875 325.800781 4.71875 C 325.875 4.71875 325.925781 4.671875 325.925781 4.621094 C 325.925781 4.558594 325.578125 4.421875 325.15625 4.296875 C 324.734375 4.1875 323.992188 3.902344 323.496094 3.675781 L 322.601562 3.253906 L 322.328125 4.644531 C 321.785156 7.378906 320.65625 10.746094 319.4375 13.289062 C 319.09375 14.011719 318.792969 14.621094 318.769531 14.660156 C 318.746094 14.695312 319.105469 14.882812 319.5625 15.082031 C 320.035156 15.28125 320.617188 15.578125 320.878906 15.738281 C 321.152344 15.914062 321.375 16.023438 321.398438 16 C 321.421875 15.972656 321.832031 15.003906 322.304688 13.851562 L 323.171875 11.738281 L 325.851562 11.703125 L 328.53125 11.675781 L 328.53125 18.148438 L 323.792969 18.125 L 319.042969 18.101562 L 319.007812 19.402344 L 318.96875 20.71875 L 323.765625 20.644531 L 328.554688 20.582031 L 328.480469 25.292969 C 328.445312 27.875 328.378906 30.234375 328.332031 30.535156 L 328.257812 31.054688 L 331.320312 31.054688 L 331.273438 25.824219 L 331.234375 20.582031 L 339.195312 20.707031 L 339.195312 17.863281 L 338.800781 17.9375 C 338.574219 17.988281 336.789062 18.050781 334.832031 18.101562 L 331.257812 18.171875 L 331.257812 11.664062 L 338.203125 11.738281 L 338.203125 9.09375 L 334.71875 9.15625 L 331.234375 9.230469 L 331.308594 5.765625 C 331.34375 3.863281 331.40625 2.085938 331.457031 1.828125 L 331.53125 1.367188 L 328.257812 1.367188 Z M 328.332031 1.828125 "/>
<path style=" stroke:none;fill-rule:nonzero;fill:rgb(0%,0%,0%);fill-opacity:1;" d="M 246.824219 4.917969 L 246.886719 8.210938 L 244.480469 8.171875 L 242.089844 8.136719 L 242.089844 10.695312 L 244.171875 10.683594 C 245.3125 10.683594 246.304688 10.671875 246.390625 10.683594 C 246.492188 10.683594 246.441406 10.941406 246.242188 11.515625 C 245.0625 14.945312 243.6875 17.664062 241.679688 20.546875 C 241.097656 21.378906 240.871094 21.800781 240.972656 21.863281 C 241.058594 21.914062 241.589844 22.421875 242.160156 22.980469 C 242.734375 23.554688 243.230469 23.988281 243.265625 23.960938 C 243.488281 23.726562 245.101562 20.855469 245.882812 19.277344 C 246.402344 18.25 246.851562 17.390625 246.886719 17.390625 C 246.910156 17.390625 246.910156 20.382812 246.875 24.039062 L 246.800781 30.695312 L 248.253906 30.65625 C 249.480469 30.621094 249.703125 30.597656 249.664062 30.433594 C 249.578125 30.023438 249.539062 10.980469 249.628906 10.832031 C 249.714844 10.707031 250.210938 10.683594 251.796875 10.707031 L 253.871094 10.746094 L 253.871094 8.136719 L 251.726562 8.171875 L 249.566406 8.210938 L 249.539062 7.492188 C 249.519531 6.558594 249.753906 2.261719 249.851562 1.886719 C 249.925781 1.613281 249.925781 1.613281 248.351562 1.613281 L 246.761719 1.613281 Z M 246.824219 4.917969 "/>
<path style=" stroke:none;fill-rule:nonzero;fill:rgb(0%,0%,0%);fill-opacity:1;" d="M 62.121094 1.800781 C 61.996094 1.914062 59.183594 2.597656 57.78125 2.84375 C 57 2.980469 55.660156 3.15625 54.804688 3.230469 C 53.960938 3.304688 53.042969 3.390625 52.769531 3.429688 L 52.273438 3.476562 L 52.273438 11.03125 C 52.273438 18.894531 52.25 19.328125 51.703125 22.046875 C 51.195312 24.496094 50.042969 27.476562 48.9375 29.09375 C 48.789062 29.316406 48.628906 29.5625 48.578125 29.652344 C 48.480469 29.828125 51.046875 31.09375 51.246094 30.96875 C 51.445312 30.855469 52.671875 28.210938 53.15625 26.855469 C 54.257812 23.824219 54.929688 19.316406 54.941406 14.996094 L 54.941406 13.910156 L 58.550781 13.910156 L 58.511719 22.421875 L 58.476562 30.933594 L 61.203125 30.933594 L 61.167969 22.398438 L 61.117188 13.875 L 64.117188 14.050781 L 64.117188 11.367188 L 59.53125 11.414062 L 54.941406 11.453125 L 54.964844 8.496094 L 55.003906 5.527344 L 56.800781 5.316406 C 57.792969 5.203125 59.492188 5.042969 60.582031 4.96875 C 61.675781 4.894531 62.917969 4.808594 63.339844 4.769531 L 64.117188 4.695312 L 63.722656 4.222656 C 63.496094 3.960938 63.066406 3.304688 62.753906 2.746094 C 62.433594 2.199219 62.144531 1.761719 62.121094 1.800781 Z M 62.121094 1.800781 "/>
<path style=" stroke:none;fill-rule:nonzero;fill:rgb(0%,0%,0%);fill-opacity:1;" d="M 292.984375 2.074219 C 292.230469 5.464844 290.792969 8.917969 288.96875 11.703125 C 288.558594 12.324219 288.234375 12.84375 288.25 12.855469 C 288.273438 12.867188 288.558594 12.957031 288.878906 13.042969 C 289.203125 13.128906 289.785156 13.390625 290.171875 13.613281 C 290.542969 13.851562 290.902344 14.039062 290.941406 14.039062 C 290.988281 14.039062 291.546875 13.054688 292.179688 11.863281 L 293.335938 9.6875 L 297.042969 9.6875 C 299.570312 9.6875 300.75 9.726562 300.75 9.828125 C 300.75 9.886719 300.5 10.71875 300.191406 11.664062 C 299.882812 12.609375 299.632812 13.429688 299.632812 13.488281 C 299.632812 13.589844 302.351562 14.222656 302.421875 14.136719 C 302.4375 14.109375 302.621094 13.417969 302.84375 12.570312 C 303.070312 11.726562 303.492188 10.273438 303.800781 9.34375 C 304.097656 8.421875 304.347656 7.613281 304.347656 7.550781 C 304.347656 7.503906 302.027344 7.453125 299.199219 7.453125 C 296.371094 7.453125 294.050781 7.429688 294.050781 7.402344 C 294.050781 7.378906 294.25 6.871094 294.5 6.261719 C 295.058594 4.84375 295.714844 3.640625 296.183594 3.15625 C 296.605469 2.707031 296.582031 2.671875 295.738281 2.558594 C 295.21875 2.472656 293.878906 2.074219 293.285156 1.8125 C 293.121094 1.738281 293.046875 1.789062 292.984375 2.074219 Z M 292.984375 2.074219 "/>
<path style=" stroke:none;fill-rule:nonzero;fill:rgb(0%,0%,0%);fill-opacity:1;" d="M 142.871094 2.570312 C 142.660156 3.539062 142.226562 4.71875 141.421875 6.523438 C 140.191406 9.207031 139.113281 10.746094 138.109375 11.265625 C 137.898438 11.367188 137.699219 11.476562 137.6875 11.503906 C 137.664062 11.515625 137.824219 12.097656 138.046875 12.796875 C 138.441406 14 138.46875 14.050781 138.777344 13.960938 C 140.304688 13.578125 143.742188 13.167969 143.742188 13.378906 C 143.742188 13.527344 142.226562 16.085938 141.542969 17.078125 C 140.835938 18.136719 140.054688 18.871094 139.3125 19.21875 C 138.953125 19.390625 138.65625 19.5625 138.65625 19.628906 C 138.65625 19.726562 139.535156 22.136719 139.609375 22.222656 C 139.621094 22.246094 140.082031 22.160156 140.601562 22.011719 C 142.203125 21.578125 143.191406 21.390625 145.539062 21.128906 C 149.195312 20.707031 148.785156 20.832031 148.886719 20.085938 C 148.9375 19.726562 149.085938 19.167969 149.207031 18.832031 C 149.332031 18.484375 149.421875 18.199219 149.394531 18.171875 C 149.371094 18.148438 148.664062 18.25 147.820312 18.386719 C 145.734375 18.722656 143.105469 19.03125 143.035156 18.957031 C 142.945312 18.871094 146.507812 13.179688 147.585938 11.652344 C 148.03125 11.03125 148.6875 10.210938 149.046875 9.828125 C 149.445312 9.402344 149.628906 9.117188 149.542969 9.078125 C 149.332031 9.007812 147.371094 7.988281 146.878906 7.6875 C 146.441406 7.414062 146.441406 7.429688 146.21875 8.136719 C 146.132812 8.410156 145.8125 9.179688 145.5 9.839844 L 144.941406 11.054688 L 144.050781 11.054688 C 143.554688 11.054688 142.722656 11.09375 142.203125 11.128906 L 141.246094 11.21875 L 141.976562 9.988281 C 142.375 9.316406 143.171875 7.925781 143.75 6.90625 C 144.320312 5.886719 145.117188 4.671875 145.511719 4.199219 C 145.910156 3.726562 146.21875 3.316406 146.195312 3.292969 C 146.171875 3.269531 143.9375 2.25 143.15625 1.914062 C 143.070312 1.863281 142.957031 2.097656 142.871094 2.570312 Z M 142.871094 2.570312 "/>
<path style=" stroke:none;fill-rule:nonzero;fill:rgb(0%,0%,0%);fill-opacity:1;" d="M 383.707031 1.949219 C 383.695312 2.011719 383.707031 3.601562 383.71875 5.515625 L 383.746094 8.980469 L 381.773438 8.882812 C 380.695312 8.832031 379.761719 8.78125 379.6875 8.769531 C 379.613281 8.769531 379.554688 9.265625 379.527344 10.023438 L 379.488281 11.304688 L 383.71875 11.304688 L 383.695312 14.0625 L 383.65625 16.832031 L 382.292969 17.292969 C 381.546875 17.539062 380.382812 17.875 379.714844 18.023438 C 379.054688 18.1875 378.523438 18.335938 378.535156 18.371094 C 378.597656 18.496094 379.589844 21.042969 379.675781 21.277344 C 379.75 21.503906 379.761719 21.503906 380.148438 21.265625 C 381.1875 20.632812 383.308594 19.628906 383.609375 19.628906 C 383.667969 19.628906 383.71875 21.304688 383.71875 23.355469 C 383.71875 27.972656 383.867188 27.652344 381.761719 27.527344 C 380.433594 27.453125 380.347656 27.464844 380.433594 27.664062 C 380.480469 27.789062 380.667969 28.484375 380.855469 29.226562 L 381.175781 30.558594 L 381.921875 30.484375 C 383.125 30.359375 384.476562 30.0625 384.972656 29.800781 C 385.230469 29.675781 385.589844 29.378906 385.765625 29.140625 C 386.398438 28.296875 386.445312 27.914062 386.445312 23.105469 L 386.445312 18.671875 L 387.289062 18.296875 C 387.75 18.085938 388.433594 17.8125 388.804688 17.6875 L 389.488281 17.464844 L 389.488281 14.558594 L 388.929688 14.78125 C 388.617188 14.90625 387.984375 15.179688 387.527344 15.390625 C 387.054688 15.601562 386.621094 15.777344 386.558594 15.777344 C 386.496094 15.777344 386.445312 14.796875 386.445312 13.539062 L 386.445312 11.304688 L 389.796875 11.304688 L 389.796875 8.78125 L 388.109375 8.855469 L 386.410156 8.945312 L 386.472656 5.402344 L 386.546875 1.863281 L 385.132812 1.863281 C 384.351562 1.863281 383.71875 1.898438 383.707031 1.949219 Z M 383.707031 1.949219 "/>
<path style=" stroke:none;fill-rule:nonzero;fill:rgb(0%,0%,0%);fill-opacity:1;" d="M 390.9375 7.167969 C 390.976562 12.992188 390.960938 12.84375 391.753906 13.6875 C 392.289062 14.273438 392.824219 14.308594 399.035156 14.261719 C 405.472656 14.222656 405.398438 14.222656 406.230469 13.269531 C 406.589844 12.832031 407.777344 10.296875 407.777344 9.949219 C 407.777344 9.875 407.542969 9.765625 407.257812 9.6875 C 406.503906 9.503906 405.832031 9.191406 405.261719 8.78125 C 405 8.585938 404.765625 8.445312 404.742188 8.472656 C 404.714844 8.496094 404.578125 9.03125 404.441406 9.664062 C 404.121094 11.128906 403.972656 11.441406 403.441406 11.714844 C 403.039062 11.914062 402.609375 11.925781 398.640625 11.898438 C 393.28125 11.851562 393.703125 12.035156 393.703125 9.851562 L 393.703125 8.398438 L 394.570312 8.222656 C 395.328125 8.074219 396.53125 7.8125 400.898438 6.832031 C 401.441406 6.707031 402.234375 6.523438 402.65625 6.410156 C 403.066406 6.296875 403.882812 6.125 404.453125 6.011719 C 406.03125 5.726562 405.980469 5.789062 405.1875 5.03125 C 404.65625 4.523438 403.660156 3.269531 403.5 2.894531 C 403.488281 2.882812 402.992188 3.117188 402.398438 3.441406 C 401.007812 4.160156 400.125 4.511719 398.761719 4.917969 C 397.3125 5.339844 393.863281 6.085938 393.738281 6.011719 C 393.691406 5.972656 393.679688 5.03125 393.726562 3.902344 L 393.804688 1.863281 L 390.898438 1.863281 Z M 390.9375 7.167969 "/>
<path style=" stroke:none;fill-rule:nonzero;fill:rgb(0%,0%,0%);fill-opacity:1;" d="M 5.394531 6.523438 L 5.394531 11.054688 L 25.113281 11.054688 L 25.089844 6.558594 L 25.078125 2.050781 L 15.230469 2.011719 L 5.394531 1.988281 Z M 22.300781 4.867188 L 22.335938 5.589844 L 8.1875 5.589844 L 8.1875 4.097656 L 15.230469 4.125 L 22.261719 4.160156 Z M 22.324219 8.386719 L 22.324219 9.066406 L 8.1875 9.066406 L 8.1875 7.703125 L 22.324219 7.703125 Z M 22.324219 8.386719 "/>
<path style=" stroke:none;fill-rule:nonzero;fill:rgb(0%,0%,0%);fill-opacity:1;" d="M 225.160156 2.3125 C 224.550781 2.472656 223.917969 2.609375 223.769531 2.609375 C 223.621094 2.609375 223.460938 2.65625 223.425781 2.734375 C 223.324219 2.90625 224.253906 5.230469 225.058594 6.792969 C 226.535156 9.664062 227.378906 10.941406 229.015625 12.734375 C 229.871094 13.675781 233.171875 16.621094 233.703125 16.917969 C 233.816406 16.980469 234.015625 16.78125 234.3125 16.296875 C 234.78125 15.527344 235.464844 14.757812 236.109375 14.273438 L 236.53125 13.949219 L 235.601562 13.578125 C 233.765625 12.820312 232.03125 11.503906 230.394531 9.601562 C 228.53125 7.429688 227.242188 5.203125 226.648438 3.140625 C 226.472656 2.546875 226.324219 2.050781 226.300781 2.050781 C 226.289062 2.035156 225.78125 2.148438 225.160156 2.3125 Z M 225.160156 2.3125 "/>
<path style=" stroke:none;fill-rule:nonzero;fill:rgb(0%,0%,0%);fill-opacity:1;" d="M 266.433594 2.371094 C 264.847656 3.003906 260.789062 3.714844 257.378906 3.949219 C 256.535156 4.011719 255.828125 4.085938 255.792969 4.125 C 255.753906 4.160156 255.78125 5.914062 255.867188 8.023438 C 256.191406 16.707031 255.644531 21.167969 253.796875 24.929688 C 253.164062 26.222656 252.640625 26.957031 251.675781 27.964844 L 251.019531 28.644531 L 251.785156 29.019531 C 252.207031 29.21875 252.914062 29.652344 253.347656 29.988281 C 253.78125 30.3125 254.179688 30.535156 254.230469 30.484375 C 254.863281 29.738281 256.488281 26.71875 257.019531 25.316406 C 257.875 23.003906 258.707031 17.902344 258.707031 14.808594 L 258.707031 13.910156 L 263.554688 13.910156 L 263.519531 22.175781 L 263.480469 30.433594 L 266.332031 30.433594 L 266.296875 22.148438 L 266.246094 13.875 L 268.492188 13.949219 L 270.734375 14.023438 L 270.734375 11.492188 L 264.722656 11.527344 L 258.707031 11.578125 L 258.707031 8.957031 C 258.707031 6.347656 258.707031 6.335938 258.992188 6.273438 C 259.597656 6.148438 266.199219 5.566406 267.847656 5.503906 L 269.597656 5.429688 L 268.949219 4.484375 C 268.589844 3.949219 268.105469 3.179688 267.871094 2.757812 C 267.648438 2.335938 267.425781 1.988281 267.386719 2 C 267.351562 2.011719 266.929688 2.175781 266.433594 2.371094 Z M 266.433594 2.371094 "/>
<path style=" stroke:none;fill-rule:nonzero;fill:rgb(0%,0%,0%);fill-opacity:1;" d="M 191.226562 2.570312 C 191.226562 2.621094 191.226562 4.820312 191.238281 7.429688 L 191.25 12.199219 L 187.035156 12.148438 L 182.808594 12.113281 L 182.808594 14.796875 L 187.023438 14.707031 L 191.25 14.621094 L 191.214844 22.832031 L 191.179688 31.054688 L 194.03125 31.054688 L 193.980469 22.832031 L 193.945312 14.621094 L 197.851562 14.683594 L 201.757812 14.757812 L 201.769531 13.429688 L 201.769531 12.113281 L 197.851562 12.160156 L 193.929688 12.199219 L 193.980469 7.378906 L 194.03125 2.546875 L 192.640625 2.507812 C 191.871094 2.496094 191.238281 2.519531 191.226562 2.570312 Z M 191.226562 2.570312 "/>
<path style=" stroke:none;fill-rule:nonzero;fill:rgb(0%,0%,0%);fill-opacity:1;" d="M 216.417969 4.175781 C 215.050781 6.769531 214.109375 8.234375 212.558594 10.136719 C 211.34375 11.625 208.851562 13.839844 207.335938 14.769531 C 207.078125 14.917969 206.867188 15.09375 206.867188 15.128906 C 206.878906 15.179688 207.261719 15.453125 207.734375 15.75 C 208.207031 16.050781 208.875 16.546875 209.222656 16.859375 L 209.855469 17.429688 L 210.238281 17.066406 C 212.386719 15.042969 215.769531 10.792969 218.402344 6.832031 C 218.832031 6.1875 219.480469 5.28125 219.839844 4.832031 L 220.484375 4.011719 L 219.789062 3.726562 C 219.402344 3.578125 218.683594 3.230469 218.1875 2.96875 L 217.296875 2.496094 Z M 216.417969 4.175781 "/>
<path style=" stroke:none;fill-rule:nonzero;fill:rgb(0%,0%,0%);fill-opacity:1;" d="M 107.390625 2.695312 C 107.390625 2.757812 107.390625 5.972656 107.402344 9.875 C 107.414062 17.351562 107.316406 19.925781 106.894531 22.246094 C 106.449219 24.792969 105.453125 27.277344 104.226562 28.957031 L 103.691406 29.664062 L 104.710938 30.183594 C 105.269531 30.46875 105.875 30.820312 106.0625 30.941406 C 106.234375 31.070312 106.433594 31.179688 106.496094 31.179688 C 106.707031 31.179688 108.371094 27.566406 108.890625 25.988281 C 109.386719 24.523438 109.894531 22.246094 110.070312 20.71875 L 110.15625 20 L 117.113281 20 L 116.988281 29.9375 L 119.992188 29.9375 L 119.953125 24.96875 L 119.902344 20 L 127.371094 20 L 127.371094 23.003906 C 127.371094 27.402344 127.382812 27.367188 125.335938 27.429688 C 124.542969 27.464844 123.898438 27.527344 123.898438 27.578125 C 123.898438 27.628906 124.035156 27.972656 124.207031 28.335938 C 124.367188 28.707031 124.605469 29.414062 124.726562 29.914062 L 124.9375 30.820312 L 125.433594 30.746094 C 126.300781 30.609375 128.261719 30.046875 128.757812 29.800781 C 129.265625 29.539062 129.726562 28.992188 129.984375 28.320312 C 130.121094 27.964844 130.171875 25.617188 130.222656 15.339844 C 130.257812 8.4375 130.269531 2.757812 130.246094 2.695312 C 130.222656 2.648438 125.074219 2.609375 118.796875 2.609375 C 112.535156 2.609375 107.402344 2.648438 107.390625 2.695312 Z M 117.078125 7.703125 L 117.078125 10.3125 L 110.128906 10.3125 L 110.128906 5.09375 L 117.078125 5.09375 Z M 127.371094 7.703125 L 127.371094 10.3125 L 119.925781 10.3125 L 119.925781 5.09375 L 127.371094 5.09375 Z M 117.078125 15.15625 L 117.078125 17.640625 L 110.128906 17.640625 L 110.128906 12.667969 L 117.078125 12.667969 Z M 127.371094 15.15625 L 127.371094 17.640625 L 119.925781 17.640625 L 119.925781 12.667969 L 127.371094 12.667969 Z M 127.371094 15.15625 "/>
<path style=" stroke:none;fill-rule:nonzero;fill:rgb(0%,0%,0%);fill-opacity:1;" d="M 176.929688 3.355469 C 176.246094 3.761719 175.675781 4.125 175.664062 4.136719 C 175.636719 4.160156 176.308594 5.242188 177.136719 6.546875 C 177.96875 7.851562 178.726562 9.03125 178.8125 9.179688 C 178.960938 9.441406 178.960938 9.441406 179.617188 9.03125 C 179.964844 8.792969 180.5625 8.457031 180.921875 8.261719 C 181.28125 8.0625 181.554688 7.851562 181.53125 7.777344 C 181.492188 7.703125 180.785156 6.59375 179.941406 5.328125 C 179.097656 4.0625 178.351562 2.933594 178.28125 2.820312 C 178.167969 2.632812 178.007812 2.695312 176.929688 3.355469 Z M 176.929688 3.355469 "/>
<path style=" stroke:none;fill-rule:nonzero;fill:rgb(0%,0%,0%);fill-opacity:1;" d="M 45.636719 7.902344 C 45.636719 8.136719 44.398438 12.085938 44.289062 12.210938 C 44.238281 12.261719 43.246094 12.285156 42.09375 12.273438 L 39.996094 12.234375 L 40.867188 11.9375 C 41.347656 11.777344 41.78125 11.601562 41.84375 11.554688 C 41.929688 11.464844 40.492188 8 40.320312 7.902344 C 40.28125 7.875 39.761719 8.074219 39.164062 8.347656 L 38.085938 8.84375 L 38.382812 9.429688 C 38.65625 9.976562 39.5625 12.160156 39.5625 12.273438 C 39.5625 12.3125 38.644531 12.3125 37.515625 12.273438 L 35.46875 12.199219 L 35.46875 14.945312 L 38.816406 14.84375 L 42.167969 14.757812 L 42.167969 17.675781 L 39.128906 17.613281 L 36.089844 17.539062 L 36.089844 20.273438 L 39.128906 20.183594 L 42.167969 20.085938 L 42.167969 23.6875 C 42.167969 27.019531 42.152344 27.304688 41.945312 27.492188 C 41.757812 27.664062 41.449219 27.699219 40.40625 27.699219 L 39.089844 27.699219 L 39.5 28.484375 C 39.722656 28.90625 40.007812 29.578125 40.132812 29.988281 L 40.355469 30.707031 L 41.261719 30.632812 C 43.085938 30.460938 44.027344 30 44.523438 29.007812 C 44.84375 28.347656 44.859375 28.148438 44.894531 20.941406 L 44.894531 20.085938 L 47.808594 20.183594 L 50.722656 20.273438 L 50.722656 17.539062 L 47.785156 17.613281 L 44.832031 17.675781 L 44.871094 16.222656 L 44.910156 14.757812 L 47.921875 14.84375 L 50.945312 14.945312 L 51.007812 13.960938 C 51.046875 13.417969 51.074219 12.808594 51.058594 12.609375 L 51.035156 12.234375 L 48.902344 12.285156 L 46.765625 12.324219 L 47.1875 11.265625 C 47.710938 9.988281 48.046875 9.367188 48.453125 8.917969 L 48.765625 8.59375 L 48.03125 8.386719 C 46.1875 7.824219 45.636719 7.714844 45.636719 7.902344 Z M 45.636719 7.902344 "/>
<path style=" stroke:none;fill-rule:nonzero;fill:rgb(0%,0%,0%);fill-opacity:1;" d="M 76.804688 9.316406 L 75.789062 10.398438 L 76.109375 10.546875 C 76.609375 10.769531 79.050781 12.65625 80.152344 13.652344 C 80.6875 14.136719 81.160156 14.53125 81.210938 14.53125 C 81.257812 14.53125 81.40625 14.335938 81.542969 14.085938 C 81.679688 13.839844 82.113281 13.339844 82.511719 12.980469 L 83.230469 12.324219 L 82.140625 11.464844 C 81.046875 10.597656 78.183594 8.4375 77.945312 8.296875 C 77.882812 8.261719 77.363281 8.722656 76.804688 9.316406 Z M 76.804688 9.316406 "/>
<path style=" stroke:none;fill-rule:nonzero;fill:rgb(0%,0%,0%);fill-opacity:1;" d="M 84.382812 10.855469 C 84.46875 13.082031 84.308594 17.886719 84.136719 18.585938 L 84.0625 18.894531 L 77.191406 18.855469 L 70.320312 18.820312 L 70.320312 21.503906 L 76.894531 21.414062 C 81.542969 21.355469 83.464844 21.367188 83.464844 21.453125 C 83.464844 21.914062 81.171875 24.296875 79.96875 25.09375 C 78.257812 26.210938 75.058594 27.414062 72.105469 28.023438 L 70.46875 28.359375 L 71.25 29.078125 C 71.683594 29.492188 72.179688 30.113281 72.378906 30.496094 C 72.800781 31.316406 72.652344 31.316406 75.15625 30.433594 C 79 29.066406 80.898438 28.074219 83.03125 26.296875 C 84.519531 25.054688 85.324219 24.011719 86.675781 21.613281 C 86.765625 21.453125 87.519531 21.425781 92.507812 21.453125 L 98.226562 21.476562 L 98.226562 18.820312 L 92.644531 18.855469 C 88.339844 18.894531 87.0625 18.871094 87.0625 18.746094 C 87.0625 17.726562 87.484375 11.304688 87.621094 10.371094 C 87.804688 8.992188 87.792969 8.957031 87.0625 8.945312 C 86.824219 8.945312 86.105469 8.832031 85.460938 8.707031 L 84.296875 8.484375 Z M 84.382812 10.855469 "/>
<path style=" stroke:none;fill-rule:nonzero;fill:rgb(0%,0%,0%);fill-opacity:1;" d="M 172.511719 13.476562 L 172.511719 14.945312 L 173.292969 14.867188 C 173.714844 14.820312 174.746094 14.746094 175.585938 14.707031 L 177.113281 14.621094 L 177.078125 20.382812 C 177.027344 26.695312 177.039062 26.570312 176.234375 27.949219 L 175.910156 28.507812 L 176.902344 29.207031 C 177.460938 29.589844 178.019531 30.023438 178.144531 30.171875 C 178.28125 30.3125 178.414062 30.433594 178.464844 30.433594 C 178.515625 30.433594 178.910156 29.960938 179.332031 29.378906 C 179.753906 28.792969 180.5625 27.824219 181.121094 27.230469 C 181.679688 26.632812 182.679688 25.539062 183.339844 24.792969 L 184.542969 23.441406 L 184.109375 22.855469 C 183.859375 22.519531 183.539062 21.976562 183.386719 21.613281 L 183.101562 20.96875 L 181.453125 22.855469 L 179.816406 24.757812 L 179.855469 18.472656 L 179.890625 12.175781 L 176.964844 12.175781 C 175.351562 12.175781 173.691406 12.136719 173.269531 12.097656 L 172.511719 12.011719 Z M 172.511719 13.476562 "/>
<path style=" stroke:none;fill-rule:nonzero;fill:rgb(0%,0%,0%);fill-opacity:1;" d="M 294.386719 14.433594 C 294.351562 15.886719 294.25 17.292969 294.113281 18.011719 C 293.355469 22.1875 291.101562 25.902344 287.949219 28.136719 C 287.378906 28.535156 286.871094 28.90625 286.820312 28.957031 C 286.761719 28.992188 286.984375 29.207031 287.320312 29.402344 C 287.898438 29.777344 289.09375 30.894531 289.09375 31.082031 C 289.09375 31.390625 289.574219 31.019531 290.777344 29.777344 C 293.257812 27.242188 294.324219 25.664062 295.417969 22.957031 C 295.738281 22.136719 296.035156 21.453125 296.0625 21.425781 C 296.085938 21.390625 296.234375 21.75 296.382812 22.222656 C 296.941406 23.9375 298.121094 25.972656 299.433594 27.492188 C 300.042969 28.199219 302.882812 30.683594 303.082031 30.683594 C 303.128906 30.683594 303.277344 30.496094 303.402344 30.261719 C 303.6875 29.738281 304.65625 28.734375 305.128906 28.496094 C 305.3125 28.398438 305.464844 28.296875 305.464844 28.261719 C 305.464844 28.234375 305.089844 28 304.632812 27.75 C 302.96875 26.832031 302.027344 26.136719 300.9375 25.03125 C 299.621094 23.703125 298.828125 22.433594 298.207031 20.695312 C 297.511719 18.769531 297.363281 17.601562 297.425781 14.769531 L 297.488281 12.335938 L 296.296875 12.246094 C 295.640625 12.210938 294.957031 12.136719 294.785156 12.097656 L 294.449219 12.027344 Z M 294.386719 14.433594 "/>
<path style=" stroke:none;fill-rule:nonzero;fill:rgb(0%,0%,0%);fill-opacity:1;" d="M 74.609375 13.355469 C 74.363281 13.738281 73.953125 14.273438 73.703125 14.546875 C 73.457031 14.820312 73.28125 15.054688 73.308594 15.082031 C 73.332031 15.09375 73.804688 15.316406 74.339844 15.566406 C 75.417969 16.074219 76.929688 17.09375 78.03125 18.035156 L 78.738281 18.644531 L 79.867188 17.5 C 80.476562 16.878906 80.984375 16.359375 80.984375 16.335938 C 80.984375 16.210938 75.316406 12.667969 75.117188 12.667969 C 75.09375 12.667969 74.859375 12.980469 74.609375 13.355469 Z M 74.609375 13.355469 "/>
<path style=" stroke:none;fill-rule:nonzero;fill:rgb(0%,0%,0%);fill-opacity:1;" d="M 423.007812 13.464844 C 422.5625 13.839844 422.152344 14.210938 422.105469 14.285156 C 422.054688 14.359375 422.265625 14.746094 422.574219 15.128906 C 423.171875 15.902344 424.273438 17.566406 424.273438 17.714844 C 424.273438 17.800781 421.804688 17.6875 421.027344 17.566406 L 420.554688 17.480469 L 420.554688 20.125 L 423.65625 20.050781 L 426.753906 19.960938 L 426.753906 22.273438 L 423.691406 22.1875 C 421.992188 22.136719 420.378906 22.074219 420.09375 22.035156 L 419.5625 21.960938 L 419.5625 24.53125 L 423.183594 24.496094 L 426.792969 24.445312 L 426.71875 27.191406 L 426.640625 29.9375 L 429.433594 29.9375 L 429.382812 27.191406 L 429.335938 24.460938 L 436.425781 24.53125 L 436.425781 22.136719 L 432.894531 22.210938 L 429.359375 22.273438 L 429.359375 19.960938 L 432.460938 20.035156 L 435.558594 20.097656 L 435.558594 17.675781 L 433.578125 17.738281 C 432.484375 17.777344 431.589844 17.765625 431.589844 17.714844 C 431.589844 17.675781 431.828125 17.203125 432.125 16.683594 C 432.707031 15.625 433.242188 15.019531 433.8125 14.769531 C 434.019531 14.671875 434.195312 14.570312 434.195312 14.53125 C 434.195312 14.484375 431.457031 13.203125 431.195312 13.128906 C 431.144531 13.117188 430.761719 13.800781 430.351562 14.660156 C 429.941406 15.515625 429.382812 16.558594 429.113281 16.980469 L 428.628906 17.765625 L 424.585938 17.765625 L 425.203125 17.328125 C 426.542969 16.386719 426.46875 16.472656 426.234375 16.074219 C 425.898438 15.488281 423.964844 12.796875 423.890625 12.796875 C 423.851562 12.796875 423.457031 13.105469 423.007812 13.464844 Z M 423.007812 13.464844 "/>
<path style=" stroke:none;fill-rule:nonzero;fill:rgb(0%,0%,0%);fill-opacity:1;" d="M 0.992188 14.136719 L 0.992188 15.304688 L 2.730469 15.21875 L 4.464844 15.117188 L 4.441406 20.449219 L 4.402344 25.777344 L 3.84375 25.863281 C 3.535156 25.902344 2.828125 25.949219 2.269531 25.960938 C 1.515625 25.988281 1.242188 26.035156 1.242188 26.160156 C 1.242188 26.25 1.4375 26.871094 1.675781 27.539062 C 1.921875 28.210938 2.132812 28.820312 2.171875 28.90625 C 2.207031 29.019531 2.332031 29.019531 2.628906 28.929688 C 4.527344 28.371094 9.972656 27.117188 11.570312 26.894531 L 12.152344 26.808594 L 12.152344 30.433594 L 14.820312 30.433594 L 14.820312 26.398438 L 15.601562 26.285156 L 16.371094 26.160156 L 16.371094 24.945312 C 16.371094 24.273438 16.332031 23.726562 16.285156 23.726562 C 16.222656 23.726562 15.910156 23.8125 15.578125 23.910156 C 15.242188 24.011719 14.921875 24.097656 14.859375 24.097656 C 14.808594 24.097656 14.757812 22.074219 14.757812 19.613281 L 14.757812 15.128906 L 21.890625 15.179688 L 29.023438 15.21875 L 29.023438 12.980469 L 0.992188 12.980469 Z M 12.152344 16.148438 L 12.152344 17.144531 L 7.070312 17.144531 L 7.070312 15.15625 L 12.152344 15.15625 Z M 12.152344 20.183594 L 12.152344 21.117188 L 7.070312 21.117188 L 7.070312 19.253906 L 12.152344 19.253906 Z M 12.09375 23.910156 L 12.09375 24.660156 L 9.796875 24.996094 C 8.53125 25.167969 7.402344 25.328125 7.292969 25.328125 C 7.09375 25.339844 7.070312 25.203125 7.070312 24.222656 L 7.070312 23.105469 L 9.585938 23.128906 L 12.09375 23.167969 Z M 12.09375 23.910156 "/>
<path style=" stroke:none;fill-rule:nonzero;fill:rgb(0%,0%,0%);fill-opacity:1;" d="M 213.066406 15.738281 L 213.066406 17.019531 L 217.285156 17.019531 L 217.222656 17.351562 C 217.195312 17.550781 217.097656 18.125 217.023438 18.632812 C 216.578125 21.527344 215.546875 23.503906 213.6875 25.03125 C 212.570312 25.949219 211.167969 26.769531 209.558594 27.453125 C 208.824219 27.765625 208.230469 28.050781 208.230469 28.085938 C 208.230469 28.136719 208.453125 28.320312 208.726562 28.507812 C 209.246094 28.871094 210.140625 29.789062 210.472656 30.3125 L 210.675781 30.621094 L 211.46875 30.136719 C 216.03125 27.34375 217.855469 25.476562 218.96875 22.484375 C 219.34375 21.492188 219.886719 19.128906 220.074219 17.601562 L 220.148438 17.019531 L 223.210938 17.007812 C 224.898438 17.007812 226.359375 16.980469 226.472656 16.957031 C 227.019531 16.859375 227.019531 16.929688 226.546875 21.355469 C 226.078125 25.714844 225.917969 26.445312 225.433594 26.683594 C 225.28125 26.757812 224.378906 26.84375 223.425781 26.878906 C 222.46875 26.917969 221.675781 26.945312 221.660156 26.945312 C 221.648438 26.957031 221.859375 27.390625 222.121094 27.925781 C 222.382812 28.457031 222.703125 29.242188 222.816406 29.664062 C 222.9375 30.085938 223.0625 30.433594 223.113281 30.433594 C 223.324219 30.433594 226.761719 29.539062 227.105469 29.402344 C 227.703125 29.140625 228.285156 28.484375 228.570312 27.75 C 228.730469 27.292969 228.980469 25.601562 229.375 22.085938 C 229.6875 19.328125 230.019531 16.523438 230.121094 15.839844 C 230.21875 15.167969 230.28125 14.597656 230.269531 14.582031 C 230.257812 14.570312 226.375 14.53125 221.660156 14.507812 L 213.066406 14.460938 Z M 213.066406 15.738281 "/>
<path style=" stroke:none;fill-rule:nonzero;fill:rgb(0%,0%,0%);fill-opacity:1;" d="M 250.953125 14.96875 C 250.410156 15.28125 249.914062 15.539062 249.839844 15.566406 C 249.777344 15.589844 249.839844 15.839844 250 16.097656 C 250.160156 16.359375 250.71875 17.453125 251.242188 18.507812 L 252.195312 20.449219 L 252.941406 19.925781 C 253.347656 19.628906 253.894531 19.292969 254.15625 19.179688 C 254.402344 19.066406 254.613281 18.917969 254.613281 18.871094 C 254.613281 18.769531 253.957031 17.539062 252.71875 15.304688 C 252.445312 14.820312 252.160156 14.410156 252.082031 14.421875 C 252.011719 14.421875 251.5 14.671875 250.953125 14.96875 Z M 250.953125 14.96875 "/>
<path style=" stroke:none;fill-rule:nonzero;fill:rgb(0%,0%,0%);fill-opacity:1;" d="M 391.195312 18.472656 C 391.261719 19.628906 391.273438 22.894531 391.234375 25.738281 L 391.171875 30.933594 L 394.011719 30.933594 L 394.011719 28.570312 L 402.570312 28.570312 L 402.570312 30.558594 L 405.363281 30.558594 L 405.363281 16.398438 L 391.097656 16.398438 Z M 402.570312 20 L 402.570312 21.242188 L 394.011719 21.242188 L 394.011719 18.757812 L 402.570312 18.757812 Z M 402.570312 24.90625 L 402.570312 26.210938 L 394.011719 26.210938 L 394.011719 23.601562 L 402.570312 23.601562 Z M 402.570312 24.90625 "/>
<path style=" stroke:none;fill-rule:nonzero;fill:rgb(0%,0%,0%);fill-opacity:1;" d="M 15.628906 18.1875 L 15.628906 19.378906 L 16.695312 19.378906 L 16.929688 20.273438 C 17.449219 22.335938 18.207031 23.902344 19.324219 25.203125 L 19.894531 25.875 L 19.035156 26.671875 C 18.21875 27.441406 16.492188 28.421875 15.589844 28.644531 C 15.402344 28.683594 15.253906 28.769531 15.28125 28.820312 C 15.304688 28.871094 15.75 29.367188 16.285156 29.9375 L 17.238281 30.957031 L 17.585938 30.734375 C 18.417969 30.199219 20.230469 28.78125 20.984375 28.085938 L 21.800781 27.328125 L 23.144531 28.0625 C 24.382812 28.757812 25.871094 29.414062 27.371094 29.9375 L 28.015625 30.171875 L 28.164062 29.714844 C 28.238281 29.464844 28.523438 28.84375 28.785156 28.359375 C 29.269531 27.464844 29.269531 27.453125 28.996094 27.402344 C 28.835938 27.367188 28.238281 27.242188 27.667969 27.128906 C 26.28125 26.871094 24.902344 26.410156 24.058594 25.9375 C 23.6875 25.726562 23.367188 25.550781 23.339844 25.527344 C 23.328125 25.515625 23.566406 25.054688 23.875 24.507812 C 24.78125 22.917969 26.058594 19.464844 26.480469 17.539062 L 26.566406 17.144531 L 21.851562 17.144531 C 19.273438 17.144531 16.804688 17.105469 16.382812 17.066406 L 15.628906 16.980469 Z M 23.441406 19.355469 C 23.441406 19.652344 22.621094 21.800781 22.1875 22.667969 C 21.457031 24.109375 21.40625 24.148438 20.898438 23.539062 C 20.03125 22.507812 19.285156 20.957031 19.050781 19.652344 L 18.988281 19.253906 L 21.207031 19.253906 C 22.4375 19.253906 23.441406 19.304688 23.441406 19.355469 Z M 23.441406 19.355469 "/>
<path style=" stroke:none;fill-rule:nonzero;fill:rgb(0%,0%,0%);fill-opacity:1;" d="M 38.382812 21.875 C 37.480469 23.402344 36.921875 24.199219 35.742188 25.636719 L 34.921875 26.632812 L 35.234375 26.820312 C 35.394531 26.929688 35.878906 27.316406 36.3125 27.675781 C 36.746094 28.050781 37.121094 28.320312 37.132812 28.296875 C 37.652344 27.652344 41.671875 22.199219 41.644531 22.1875 C 41.621094 22.160156 41.300781 21.976562 40.925781 21.75 C 40.554688 21.515625 40.007812 21.140625 39.722656 20.917969 L 39.203125 20.496094 Z M 38.382812 21.875 "/>
<path style=" stroke:none;fill-rule:nonzero;fill:rgb(0%,0%,0%);fill-opacity:1;" d="M 46.445312 21.503906 C 45.972656 21.839844 45.527344 22.175781 45.464844 22.234375 C 45.402344 22.296875 45.628906 22.757812 46.011719 23.378906 C 46.371094 23.949219 46.980469 24.980469 47.351562 25.6875 L 48.019531 26.96875 L 48.667969 26.359375 C 49.011719 26.035156 49.484375 25.652344 49.707031 25.527344 C 49.917969 25.390625 50.101562 25.230469 50.101562 25.15625 C 50.101562 24.980469 47.4375 20.855469 47.339844 20.871094 C 47.324219 20.882812 46.929688 21.15625 46.445312 21.503906 Z M 46.445312 21.503906 "/>
<path style=" stroke:none;fill-rule:nonzero;fill:rgb(0%,0%,0%);fill-opacity:1;" d="M 87 24.0625 C 86.554688 24.671875 86.195312 25.179688 86.195312 25.214844 C 86.195312 25.253906 87.410156 26 88.898438 26.894531 C 90.375 27.789062 92.417969 29.054688 93.4375 29.726562 C 94.9375 30.71875 95.3125 30.917969 95.433594 30.78125 C 96.214844 29.925781 97.492188 28.421875 97.46875 28.398438 C 97.382812 28.335938 91.277344 24.832031 89.605469 23.886719 C 88.726562 23.390625 87.953125 22.980469 87.894531 22.980469 C 87.84375 22.980469 87.445312 23.464844 87 24.0625 Z M 87 24.0625 "/>
<path style=" stroke:none;fill-rule:nonzero;fill:rgb(0%,0%,0%);fill-opacity:1;" d="M 147.234375 24.175781 C 144.695312 25.015625 142.859375 25.476562 140.328125 25.902344 C 139.238281 26.085938 138.222656 26.257812 138.070312 26.285156 C 137.800781 26.335938 137.800781 26.347656 138.222656 27.066406 C 138.457031 27.464844 138.804688 28.148438 138.992188 28.585938 C 139.164062 29.019531 139.324219 29.390625 139.335938 29.414062 C 139.347656 29.425781 139.746094 29.265625 140.21875 29.054688 C 141.46875 28.484375 142.078125 28.285156 145.785156 27.253906 C 147.636719 26.746094 149.234375 26.296875 149.355469 26.257812 C 149.542969 26.199219 149.570312 26.023438 149.570312 24.832031 C 149.570312 23.824219 149.53125 23.476562 149.421875 23.488281 C 149.332031 23.503906 148.351562 23.800781 147.234375 24.175781 Z M 147.234375 24.175781 "/>
</g>
</svg>
