<?xml version="1.0" standalone="no"?>
<!DOCTYPE svg PUBLIC "-//W3C//DTD SVG 20010904//EN"
 "http://www.w3.org/TR/2001/REC-SVG-20010904/DTD/svg10.dtd">
<svg version="1.0" xmlns="http://www.w3.org/2000/svg"
 width="3570.000000pt" height="258.000000pt" viewBox="0 0 3570.000000 258.000000"
 preserveAspectRatio="xMidYMid meet">

<g transform="translate(0.000000,258.000000) scale(0.100000,-0.100000)"
fill="#000000" stroke="none">
<path d="M28450 2475 c-5 -13 -26 -61 -47 -107 -126 -276 -288 -510 -497 -718
-53 -52 -96 -97 -96 -101 0 -3 10 -11 23 -16 12 -6 60 -41 106 -77 46 -36 87
-66 91 -66 4 0 41 40 81 90 l74 89 5 -597 5 -597 28 -56 c28 -58 66 -91 137
-120 54 -21 1307 -26 1409 -5 127 27 196 94 262 253 56 135 56 129 12 137 -58
9 -137 50 -187 96 -52 48 -43 56 -70 -75 -23 -113 -36 -155 -56 -175 -37 -37
-105 -41 -676 -38 -495 3 -552 5 -580 20 -58 31 -64 62 -64 297 l0 211 443 0
442 0 0 375 0 375 -512 0 c-282 0 -513 2 -513 5 0 2 41 60 91 127 50 68 93
129 96 136 4 9 133 12 600 12 l595 0 -6 -87 c-3 -49 -13 -230 -21 -403 -21
-446 -22 -451 -105 -469 -28 -6 -77 -11 -108 -11 -80 0 -88 -8 -61 -54 12 -21
34 -74 50 -119 27 -79 30 -82 61 -85 44 -4 221 42 264 68 41 26 78 87 93 155
6 28 22 270 36 540 15 269 30 521 35 560 5 38 10 78 10 87 0 17 -40 18 -655
20 l-655 3 44 66 c24 36 65 85 90 109 l46 44 -88 31 c-48 18 -118 46 -155 63
l-68 31 -9 -24z m620 -1180 l0 -175 -330 0 -330 0 0 175 0 175 330 0 330 0 0
-175z"/>
<path d="M6811 2479 c-14 -5 -63 -19 -110 -31 -47 -11 -90 -24 -95 -29 -5 -4
10 -49 31 -101 22 -51 43 -103 47 -115 l7 -23 -500 0 -501 0 0 -252 0 -253
125 3 125 3 0 150 0 149 823 -2 822 -3 3 -133 3 -133 120 3 121 3 1 232 2 233
-435 0 -435 0 -38 111 c-48 138 -74 199 -84 198 -4 0 -19 -5 -32 -10z"/>
<path d="M12685 2449 c-44 -16 -90 -29 -102 -29 -28 0 -29 -19 -4 -68 16 -32
55 -143 76 -221 l7 -23 -311 3 -311 4 0 -101 0 -101 230 5 c127 3 230 2 230
-3 0 -4 -18 -44 -39 -90 -102 -218 -252 -387 -369 -415 l-49 -11 43 -102 c24
-56 44 -108 44 -116 0 -7 6 -11 15 -7 32 12 205 39 212 32 13 -12 15 -173 4
-303 -16 -201 -70 -340 -180 -464 -46 -52 -158 -141 -242 -192 l-57 -33 63
-28 c43 -18 79 -44 110 -77 l47 -50 51 40 c71 55 178 161 232 231 127 165 179
363 192 728 l6 182 46 0 c25 0 63 3 84 6 l37 7 0 -444 c0 -266 5 -462 11 -489
15 -66 51 -114 106 -141 44 -22 63 -24 222 -27 194 -4 232 2 285 49 48 42 80
101 121 221 39 115 41 107 -40 127 -22 6 -71 29 -107 51 -37 22 -69 40 -72 40
-4 0 -6 -15 -6 -34 0 -51 -27 -180 -44 -214 -20 -38 -32 -42 -126 -42 -69 0
-82 3 -107 24 l-28 24 0 434 0 433 79 9 c66 7 81 6 90 -6 6 -9 33 -46 59 -82
l48 -67 47 34 c26 19 73 50 105 69 l57 35 -95 138 c-99 143 -242 330 -275 360
-19 17 -22 17 -77 -22 -32 -22 -77 -50 -101 -62 l-43 -22 23 -32 c14 -18 48
-63 77 -102 l53 -70 -79 -7 c-96 -9 -517 -27 -521 -23 -9 9 255 309 308 350
l60 48 -79 44 c-44 24 -83 49 -87 55 -5 7 118 9 420 7 l426 -4 0 100 0 100
-377 -2 c-208 -1 -373 0 -368 2 6 2 48 15 95 29 47 13 85 28 85 34 0 24 -111
301 -120 300 -5 0 -46 -14 -90 -29z"/>
<path d="M25564 2453 c-12 -48 -109 -284 -154 -373 -121 -241 -304 -524 -416
-642 -24 -26 -44 -51 -44 -56 0 -5 19 -26 43 -48 23 -21 61 -61 83 -88 l41
-48 129 180 c71 100 132 181 137 181 18 2 4 -1366 -15 -1461 -2 -10 27 -14
126 -16 l128 -3 -8 23 c-4 13 -9 426 -11 919 l-4 897 50 111 c61 135 122 241
168 291 l34 38 -53 17 c-29 10 -91 37 -137 61 -46 24 -85 44 -87 44 -2 0 -7
-12 -10 -27z"/>
<path d="M34385 2329 l8 -151 -439 5 c-242 3 -454 9 -471 13 l-33 6 0 -112 0
-112 38 6 c20 4 232 9 470 12 l432 6 0 -126 0 -126 -440 0 -440 0 7 -117 c5
-65 8 -388 8 -718 0 -330 -3 -653 -8 -717 l-7 -118 115 0 115 0 0 745 0 745
765 0 765 0 -2 -615 c-2 -487 -6 -617 -16 -627 -9 -9 -52 -14 -132 -16 -66 -2
-120 -5 -120 -7 0 -2 20 -50 45 -108 25 -58 45 -111 45 -118 0 -13 10 -12 178
27 127 29 159 49 188 116 17 40 19 93 26 753 3 391 10 725 13 743 l7 32 -451
0 -451 0 0 126 0 126 495 -4 495 -3 0 95 0 95 -496 -3 -497 -4 5 151 5 151
-114 0 -115 0 7 -151z"/>
<path d="M3470 2439 c-58 -15 -104 -31 -103 -36 1 -5 13 -54 27 -110 14 -56
26 -105 26 -109 0 -3 -113 -5 -250 -2 l-251 4 3 -104 3 -103 573 -2 572 -2 0
107 0 106 -208 -5 -208 -6 -30 143 c-16 79 -34 144 -39 145 -6 1 -57 -11 -115
-26z"/>
<path d="M22665 2433 c-17 -101 -38 -205 -57 -277 l-21 -78 -168 4 -169 4 0
-98 0 -99 145 7 c123 6 145 5 141 -7 -72 -225 -125 -369 -167 -451 -12 -23
-43 -63 -71 -91 l-50 -50 42 -96 c24 -53 43 -97 44 -98 1 -1 44 5 96 13 52 8
152 17 223 21 l127 6 0 -166 0 -165 -27 -6 c-40 -8 -353 -44 -450 -52 l-82 -6
28 -57 c16 -31 36 -80 45 -108 10 -29 19 -53 21 -53 2 0 50 11 107 24 56 14
153 34 213 46 61 12 119 24 129 27 19 5 19 -2 12 -281 l-7 -286 113 0 114 0
-4 299 -4 298 138 21 c77 12 164 23 194 24 l55 3 5 95 c3 52 4 97 3 99 -1 2
-62 -6 -135 -17 -73 -12 -161 -24 -195 -28 l-63 -7 0 146 0 147 198 2 197 3 3
88 3 87 -202 0 -202 0 7 158 c3 86 9 172 12 190 l6 32 -121 0 -122 0 7 -190 7
-190 -126 0 c-70 0 -127 1 -127 3 0 2 19 53 41 113 23 60 70 188 105 284 l62
175 184 0 c101 0 234 -3 296 -8 l113 -7 -3 102 -3 102 -263 -3 -264 -3 7 24
c34 109 80 218 104 249 l30 37 -52 13 c-46 11 -153 45 -199 64 -14 5 -18 -1
-23 -32z"/>
<path d="M26474 2433 c3 -21 9 -163 12 -315 l7 -278 -182 0 c-150 0 -181 2
-181 14 0 22 79 245 106 299 14 26 29 47 34 47 6 0 10 4 10 8 0 5 -28 16 -62
26 -34 9 -94 32 -134 50 l-72 34 -22 -112 c-44 -220 -135 -491 -233 -696 -28
-58 -52 -107 -54 -110 -2 -3 27 -18 64 -34 38 -16 85 -40 106 -53 22 -14 40
-23 42 -21 2 2 35 80 73 173 l70 170 216 3 216 2 0 -261 0 -260 -382 2 -383 2
-3 -105 -3 -106 387 6 386 5 -6 -379 c-3 -208 -8 -398 -12 -422 l-6 -42 123 0
124 0 -4 421 -3 422 321 -5 321 -5 0 114 0 115 -32 -6 c-18 -4 -162 -9 -320
-13 l-288 -6 0 262 0 262 280 -3 280 -3 0 107 0 106 -281 -5 -281 -6 6 279 c3
153 8 296 12 317 l6 37 -132 0 -132 0 6 -37z"/>
<path d="M19902 2184 l5 -265 -194 3 -193 3 0 -103 0 -103 168 1 c92 0 172 1
179 0 8 0 4 -21 -12 -67 -95 -276 -206 -495 -368 -727 -47 -67 -65 -101 -57
-106 7 -4 50 -45 96 -90 46 -46 86 -81 89 -79 18 19 148 250 211 377 42 83 78
152 81 152 2 0 2 -241 -1 -535 l-6 -536 117 3 c99 3 117 5 114 18 -7 33 -10
1566 -3 1578 7 10 47 12 175 10 l167 -3 0 105 0 105 -173 -3 -174 -3 -2 58
c-2 75 17 421 25 451 6 22 6 22 -121 22 l-128 0 5 -266z"/>
<path d="M5009 2435 c-10 -9 -237 -64 -350 -84 -63 -11 -171 -25 -240 -31 -68
-6 -142 -13 -164 -16 l-40 -4 0 -608 c0 -633 -2 -668 -46 -887 -41 -197 -134
-437 -223 -567 -12 -18 -25 -38 -29 -45 -8 -14 199 -116 215 -106 16 9 115
222 154 331 89 244 143 607 144 955 l0 87 146 0 145 0 -3 -685 -3 -685 110 0
110 0 -3 687 -4 686 121 -7 121 -7 0 108 0 108 -370 -4 -370 -3 2 238 3 239
145 17 c80 9 217 22 305 28 88 6 188 13 222 16 l63 6 -32 38 c-18 21 -53 74
-78 119 -26 44 -49 79 -51 76z"/>
<path d="M23624 2413 c-61 -273 -177 -551 -324 -775 -33 -50 -59 -92 -58 -93
2 -1 25 -8 51 -15 26 -7 73 -28 104 -46 30 -19 59 -34 62 -34 4 0 49 79 100
175 l93 175 299 0 c204 0 299 -3 299 -11 0 -5 -20 -72 -45 -148 -25 -76 -45
-142 -45 -147 0 -8 219 -59 225 -52 1 2 16 58 34 126 18 68 52 185 77 260 24
74 44 139 44 144 0 4 -187 8 -415 8 -228 0 -415 2 -415 4 0 2 16 43 36 92 45
114 98 211 136 250 34 36 32 39 -36 48 -42 7 -150 39 -198 60 -13 6 -19 2 -24
-21z"/>
<path d="M11520 2373 c-17 -78 -52 -173 -117 -318 -99 -216 -186 -340 -267
-382 -17 -8 -33 -17 -34 -19 -2 -1 11 -48 29 -104 32 -97 34 -101 59 -94 123
31 400 64 400 47 0 -12 -122 -218 -177 -298 -57 -85 -120 -144 -180 -172 -29
-14 -53 -28 -53 -33 0 -8 71 -202 77 -209 1 -2 38 5 80 17 129 35 209 50 398
71 295 34 262 24 270 84 4 29 16 74 26 101 10 28 17 51 15 53 -2 2 -59 -6
-127 -17 -168 -27 -380 -52 -386 -46 -7 7 280 465 367 588 36 50 89 116 118
147 32 34 47 57 40 60 -17 6 -175 88 -215 112 -35 22 -35 21 -53 -36 -7 -22
-33 -84 -58 -137 l-45 -98 -72 0 c-40 0 -107 -3 -149 -6 l-77 -7 59 99 c32 54
96 166 143 248 46 82 110 180 142 218 32 38 57 71 55 73 -2 2 -182 84 -245
111 -7 4 -16 -15 -23 -53z"/>
<path d="M30939 2423 c-1 -5 0 -133 1 -287 l2 -279 -159 8 c-87 4 -162 8 -168
9 -6 0 -11 -40 -13 -101 l-3 -103 171 0 170 0 -2 -222 -3 -223 -110 -37 c-60
-20 -154 -47 -208 -59 -53 -13 -96 -25 -95 -28 5 -10 85 -215 92 -234 6 -18 7
-18 38 1 84 51 255 132 279 132 5 0 9 -135 9 -300 0 -372 12 -346 -158 -336
-107 6 -114 5 -107 -11 4 -10 19 -66 34 -126 l26 -107 60 6 c97 10 206 34 246
55 21 10 50 34 64 53 51 68 55 99 55 486 l0 357 68 30 c37 17 92 39 122 49
l55 18 0 117 0 117 -45 -18 c-25 -10 -76 -32 -113 -49 -38 -17 -73 -31 -78
-31 -5 0 -9 79 -9 180 l0 180 135 0 135 0 0 102 0 101 -136 -6 -137 -7 5 285
6 285 -114 0 c-63 0 -114 -3 -115 -7z"/>
<path d="M31522 2003 c3 -469 2 -457 66 -525 43 -47 86 -50 587 -46 519 3 513
3 580 80 29 35 125 239 125 267 0 6 -19 15 -42 21 -61 15 -115 40 -161 73 -21
16 -40 27 -42 25 -2 -2 -13 -45 -24 -96 -26 -118 -38 -143 -81 -165 -32 -16
-67 -17 -387 -15 -432 4 -398 -11 -398 165 l0 117 70 14 c61 12 158 33 510
112 44 10 108 25 142 34 33 9 99 23 145 32 127 23 123 18 59 79 -43 41 -123
142 -136 172 -1 1 -41 -18 -89 -44 -112 -58 -183 -86 -293 -119 -117 -34 -395
-94 -405 -88 -4 3 -5 79 -1 170 l6 164 -117 0 -117 0 3 -427z"/>
<path d="M435 2055 l0 -365 795 0 795 0 -2 362 -1 363 -794 3 -793 2 0 -365z
m1363 133 l3 -58 -571 0 -570 0 0 60 0 60 568 -2 567 -3 3 -57z m2 -283 l0
-55 -570 0 -570 0 0 55 0 55 570 0 570 0 0 -55z"/>
<path d="M18155 2394 c-49 -13 -100 -24 -112 -24 -12 0 -25 -4 -28 -10 -8 -14
67 -201 132 -327 119 -231 187 -334 319 -478 69 -76 335 -313 378 -337 9 -5
25 11 49 50 38 62 93 124 145 163 l34 26 -75 30 c-148 61 -288 167 -420 320
-150 175 -254 354 -302 520 -14 48 -26 88 -28 88 -1 1 -42 -8 -92 -21z"/>
<path d="M21483 2389 c-128 -51 -455 -108 -730 -127 -68 -5 -125 -11 -128 -14
-3 -3 -1 -144 6 -314 26 -699 -18 -1058 -167 -1361 -51 -104 -93 -163 -171
-244 l-53 -55 62 -30 c34 -16 91 -51 126 -78 35 -26 67 -44 71 -40 51 60 182
303 225 416 69 186 136 597 136 846 l0 72 196 0 195 0 -3 -665 -3 -665 115 0
115 0 -3 667 -4 666 181 -6 181 -6 0 102 0 102 -485 -3 -485 -4 0 211 c0 210
0 211 23 216 49 10 581 57 714 62 l141 6 -52 76 c-29 43 -68 105 -87 139 -18
34 -36 62 -39 61 -3 -1 -37 -14 -77 -30z"/>
<path d="M15419 2373 c0 -4 0 -181 1 -391 l1 -384 -340 4 -341 3 0 -108 0
-108 340 7 341 7 -3 -661 -3 -662 115 0 115 0 -4 662 -3 661 315 -5 315 -6 1
107 0 106 -316 -4 -316 -3 4 388 4 389 -112 3 c-62 1 -113 -1 -114 -5z"/>
<path d="M17450 2244 c-110 -209 -186 -327 -311 -480 -98 -120 -299 -298 -421
-373 -21 -12 -38 -26 -38 -29 1 -4 32 -26 70 -50 38 -24 92 -64 120 -89 l51
-46 31 29 c173 163 446 505 658 824 35 52 87 125 116 161 l52 66 -56 23 c-31
12 -89 40 -129 61 l-72 38 -71 -135z"/>
<path d="M8659 2363 c0 -5 0 -264 1 -578 1 -602 -7 -809 -41 -996 -36 -205
-116 -405 -215 -540 l-43 -57 82 -42 c45 -23 94 -51 109 -61 14 -10 30 -19 35
-19 17 0 151 291 193 418 40 118 81 301 95 424 l7 58 281 0 280 0 -5 -400 -5
-400 121 0 121 0 -3 400 -4 400 301 0 301 0 0 -242 c0 -354 1 -351 -164 -356
-64 -3 -116 -8 -116 -12 0 -4 11 -32 25 -61 13 -30 32 -87 42 -127 l17 -73 40
6 c70 11 228 56 268 76 41 21 78 65 99 119 11 29 15 218 19 1045 3 556 4 1013
2 1018 -2 4 -417 7 -923 7 -505 0 -919 -3 -920 -7z m781 -403 l0 -210 -280 0
-280 0 0 210 0 210 280 0 280 0 0 -210z m830 0 l0 -210 -300 0 -300 0 0 210 0
210 300 0 300 0 0 -210z m-830 -600 l0 -200 -280 0 -280 0 0 200 0 200 280 0
280 0 0 -200z m830 0 l0 -200 -300 0 -300 0 0 200 0 200 300 0 300 0 0 -200z"/>
<path d="M14266 2310 c-55 -33 -101 -62 -102 -63 -2 -2 52 -89 119 -194 67
-105 128 -200 135 -212 12 -21 12 -21 65 12 28 19 76 46 105 62 29 16 51 33
49 39 -3 6 -60 95 -128 197 -68 102 -128 193 -134 202 -9 15 -22 10 -109 -43z"/>
<path d="M3680 1944 c0 -19 -100 -337 -109 -347 -4 -4 -84 -6 -177 -5 l-169 3
70 24 c39 13 74 27 79 31 7 7 -109 286 -123 294 -3 2 -45 -14 -93 -36 l-87
-40 24 -47 c22 -44 95 -220 95 -229 0 -3 -74 -3 -165 0 l-165 6 0 -110 0 -111
270 8 270 7 0 -117 0 -118 -245 5 -245 6 0 -110 0 -110 245 7 245 8 0 -290 c0
-268 -1 -291 -18 -306 -15 -14 -40 -17 -124 -17 l-106 0 33 -63 c18 -34 41
-88 51 -121 l18 -58 73 6 c147 14 223 51 263 131 26 53 27 69 30 649 l0 69
235 -8 235 -7 0 110 0 110 -237 -6 -238 -5 3 117 3 118 243 -7 244 -8 5 79 c3
44 5 93 4 109 l-2 30 -172 -4 -172 -3 34 85 c42 103 69 153 102 189 l25 26
-59 17 c-149 45 -193 54 -193 39z"/>
<path d="M6193 1830 l-82 -87 26 -12 c40 -18 237 -170 326 -250 43 -39 81 -71
85 -71 4 0 16 16 27 36 11 20 46 60 78 89 l58 53 -88 69 c-88 70 -319 244
-338 255 -5 3 -47 -34 -92 -82z"/>
<path d="M6804 1706 c7 -179 -6 -566 -20 -622 l-6 -25 -554 3 -554 3 0 -108 0
-108 530 7 c375 5 530 4 530 -3 0 -37 -185 -229 -282 -293 -138 -90 -396 -187
-634 -236 l-132 -27 63 -58 c35 -33 75 -83 91 -114 34 -66 22 -66 224 5 310
110 463 190 635 333 120 100 185 184 294 377 7 13 68 15 470 13 l461 -2 0 107
0 107 -450 -3 c-347 -3 -450 -1 -450 9 0 82 34 599 45 674 15 111 14 114 -45
115 -19 0 -77 9 -129 19 l-94 18 7 -191z"/>
<path d="M13910 1495 l0 -118 63 6 c34 4 117 10 185 13 l123 7 -3 -464 c-4
-508 -3 -498 -68 -609 l-26 -45 80 -56 c45 -31 90 -66 100 -78 11 -11 22 -21
26 -21 4 0 36 38 70 85 34 47 99 125 144 173 45 48 126 136 179 196 l97 109
-35 47 c-20 27 -46 71 -58 100 l-23 52 -133 -152 -132 -153 3 506 3 507 -236
0 c-130 0 -264 3 -298 6 l-61 7 0 -118z"/>
<path d="M23737 1418 c-3 -117 -11 -230 -22 -288 -61 -336 -243 -635 -497
-815 -46 -32 -87 -62 -91 -66 -5 -3 13 -20 40 -36 47 -30 143 -120 143 -135 0
-25 39 5 136 105 200 204 286 331 374 549 26 66 50 121 52 123 2 3 14 -26 26
-64 45 -138 140 -302 246 -424 49 -57 278 -257 294 -257 4 0 16 15 26 34 23
42 101 123 139 142 15 8 27 16 27 19 0 2 -30 21 -67 41 -134 74 -210 130 -298
219 -106 107 -170 209 -220 349 -56 155 -68 249 -63 477 l5 196 -96 7 c-53 3
-108 9 -122 12 l-27 6 -5 -194z"/>
<path d="M6016 1505 c-20 -31 -53 -74 -73 -96 -20 -22 -34 -41 -32 -43 2 -1
40 -19 83 -39 87 -41 209 -123 298 -199 l57 -49 91 92 c49 50 90 92 90 94 0
10 -457 295 -473 295 -2 0 -21 -25 -41 -55z"/>
<path d="M34108 1496 c-36 -30 -69 -60 -73 -66 -4 -6 13 -37 38 -68 48 -62
137 -196 137 -208 0 -7 -199 2 -262 12 l-38 7 0 -107 0 -106 250 6 250 7 0
-93 0 -93 -247 7 c-137 4 -267 9 -290 12 l-43 6 0 -103 0 -104 292 3 291 4 -6
-221 -6 -221 113 0 112 0 -4 221 -4 220 286 -3 286 -3 0 97 0 96 -285 -6 -285
-5 0 93 0 93 250 -6 250 -5 0 98 0 97 -160 -5 c-88 -3 -160 -2 -160 2 0 3 19
41 43 83 47 85 90 134 136 154 17 8 31 16 31 19 0 4 -221 107 -242 113 -4 1
-35 -54 -68 -123 -33 -69 -78 -153 -100 -187 l-39 -63 -163 0 -163 0 50 35
c108 76 102 69 83 101 -27 47 -183 264 -189 264 -3 0 -35 -25 -71 -54z"/>
<path d="M80 1442 l0 -94 140 7 140 8 -2 -429 -3 -429 -45 -7 c-25 -3 -82 -7
-127 -8 -61 -2 -83 -6 -83 -16 0 -7 16 -57 35 -111 20 -54 37 -103 40 -110 3
-9 13 -9 37 -2 153 45 592 146 721 164 l47 7 0 -146 0 -146 108 0 107 0 0 162
0 163 63 9 62 10 0 98 c0 54 -3 98 -7 98 -5 0 -30 -7 -57 -15 -27 -8 -53 -15
-58 -15 -4 0 -8 163 -8 361 l0 361 575 -4 575 -3 0 90 0 90 -1130 0 -1130 0 0
-93z m900 -162 l0 -80 -205 0 -205 0 0 80 0 80 205 0 205 0 0 -80z m0 -325 l0
-75 -205 0 -205 0 0 75 0 75 205 0 205 0 0 -75z m-5 -300 l0 -60 -185 -27
c-102 -14 -193 -27 -202 -27 -16 -1 -18 10 -18 89 l0 90 203 -2 202 -3 0 -60z"/>
<path d="M17180 1313 l0 -103 170 0 170 0 -5 -27 c-2 -16 -10 -62 -16 -103
-36 -233 -119 -392 -269 -515 -90 -74 -203 -140 -333 -195 -59 -25 -107 -48
-107 -51 0 -4 18 -19 40 -34 42 -29 114 -103 141 -145 l16 -25 64 39 c368 225
515 375 605 616 30 80 74 270 89 393 l6 47 247 1 c136 0 254 2 263 4 44 8 44
2 6 -354 -38 -351 -51 -410 -90 -429 -12 -6 -85 -13 -162 -16 -77 -3 -141 -5
-142 -5 -1 -1 16 -36 37 -79 21 -43 47 -106 56 -140 10 -34 20 -62 24 -62 17
0 294 72 322 83 48 21 95 74 118 133 13 37 33 173 65 456 25 222 52 448 60
503 8 54 13 100 12 101 -1 1 -314 4 -694 6 l-693 4 0 -103z"/>
<path d="M20235 1375 c-44 -25 -84 -46 -90 -48 -5 -2 0 -22 13 -43 13 -21 58
-109 100 -194 l77 -156 60 42 c33 24 77 51 98 60 20 9 37 21 37 25 0 8 -53
107 -153 287 -22 39 -45 72 -51 71 -6 0 -47 -20 -91 -44z"/>
<path d="M31543 1093 c5 -93 6 -356 3 -585 l-5 -418 114 0 115 0 0 95 0 95
345 0 345 0 0 -80 0 -80 113 0 112 0 0 570 0 570 -575 0 -575 0 8 -167z m917
-123 l0 -100 -345 0 -345 0 0 100 0 100 345 0 345 0 0 -100z m0 -395 l0 -105
-345 0 -345 0 0 105 0 105 345 0 345 0 0 -105z"/>
<path d="M1260 1116 l0 -96 43 0 43 0 19 -72 c42 -166 103 -292 193 -397 l46
-54 -69 -64 c-66 -62 -205 -141 -278 -159 -15 -3 -27 -10 -25 -14 2 -4 38 -44
81 -90 l77 -82 28 18 c67 43 213 157 274 213 l66 61 108 -59 c100 -56 220
-109 341 -151 l52 -19 12 37 c6 20 29 70 50 109 39 72 39 73 17 77 -13 3 -61
13 -107 22 -112 21 -223 58 -291 96 -30 17 -56 31 -58 33 -1 1 18 38 43 82 73
128 176 406 210 561 l7 32 -380 0 c-208 0 -407 3 -441 6 l-61 7 0 -97z m630
-94 c0 -24 -66 -197 -101 -267 -59 -116 -63 -119 -104 -70 -70 83 -130 208
-149 313 l-5 32 179 0 c99 0 180 -4 180 -8z"/>
<path d="M3095 819 c-73 -123 -118 -187 -213 -303 l-66 -80 25 -15 c13 -9 52
-40 87 -69 35 -30 65 -52 66 -50 42 52 366 491 364 492 -2 2 -28 17 -58 35
-30 19 -74 49 -97 67 l-42 34 -66 -111z"/>
<path d="M3745 849 c-38 -27 -74 -54 -79 -59 -5 -5 13 -42 44 -92 29 -46 78
-129 108 -186 l54 -103 52 49 c28 26 66 57 84 67 17 11 32 24 32 30 0 14 -215
346 -223 345 -1 -1 -33 -23 -72 -51z"/>
<path d="M7015 643 c-36 -49 -65 -90 -65 -93 0 -3 98 -63 218 -135 119 -72
284 -174 366 -228 121 -80 151 -96 161 -85 63 69 166 190 164 192 -7 5 -499
287 -634 363 -71 40 -133 73 -138 73 -4 0 -36 -39 -72 -87z"/>
<path d="M11872 634 c-205 -68 -353 -105 -557 -139 -88 -15 -170 -29 -182 -31
-22 -4 -22 -5 12 -63 19 -32 47 -87 62 -122 14 -35 27 -65 28 -67 1 -1 33 12
71 29 101 46 150 62 449 145 149 41 278 77 288 80 15 5 17 19 17 115 0 81 -3
109 -12 108 -7 -1 -86 -25 -176 -55z"/>
</g>
</svg>
