<?xml version="1.0" encoding="UTF-8"?>
<svg xmlns="http://www.w3.org/2000/svg" xmlns:xlink="http://www.w3.org/1999/xlink" width="339pt" height="27pt" viewBox="0 0 339 27" version="1.1">
<g id="surface1">
<path style=" stroke:none;fill-rule:nonzero;fill:rgb(0%,0%,0%);fill-opacity:1;" d="M 269.410156 1.566406 C 269.363281 1.6875 269.164062 2.140625 268.964844 2.578125 C 267.769531 5.195312 266.238281 7.414062 264.257812 9.386719 C 263.757812 9.878906 263.351562 10.308594 263.351562 10.332031 C 263.351562 10.363281 263.492188 10.46875 263.664062 10.570312 C 263.824219 10.664062 264.28125 10.996094 264.667969 11.300781 C 265.046875 11.605469 265.394531 11.851562 265.433594 11.851562 C 265.472656 11.851562 265.820312 11.472656 266.199219 10.996094 L 266.898438 10.152344 L 266.996094 21.566406 L 267.269531 22.058594 C 267.542969 22.554688 267.941406 22.894531 268.558594 23.140625 C 268.992188 23.3125 280.734375 23.386719 281.710938 23.226562 C 282.875 23.027344 283.515625 22.535156 284.085938 21.40625 C 284.339844 20.902344 284.832031 19.699219 284.832031 19.585938 C 284.832031 19.566406 284.671875 19.527344 284.480469 19.492188 C 283.933594 19.40625 283.1875 19.015625 282.710938 18.582031 C 282.488281 18.371094 282.277344 18.230469 282.25 18.269531 C 282.230469 18.304688 282.175781 18.554688 282.144531 18.816406 C 282.046875 19.492188 281.796875 20.480469 281.652344 20.78125 C 281.40625 21.277344 281.277344 21.285156 275.367188 21.285156 C 270.421875 21.285156 269.898438 21.261719 269.636719 21.121094 C 269.085938 20.828125 269.027344 20.535156 269.027344 18.304688 L 269.027344 16.308594 L 277.40625 16.308594 L 277.40625 9.195312 L 272.558594 9.195312 C 269.890625 9.195312 267.703125 9.175781 267.703125 9.148438 C 267.703125 9.121094 268.0625 8.621094 268.492188 8.03125 C 268.925781 7.449219 269.339844 6.871094 269.417969 6.75 L 269.550781 6.542969 L 275.152344 6.542969 C 278.238281 6.542969 280.765625 6.566406 280.765625 6.609375 C 280.765625 7.140625 280.375 14.191406 280.328125 14.503906 C 280.300781 14.742188 280.214844 15.066406 280.148438 15.234375 C 280.046875 15.492188 279.960938 15.546875 279.511719 15.632812 C 279.242188 15.691406 278.730469 15.738281 278.378906 15.746094 C 278.019531 15.753906 277.734375 15.800781 277.734375 15.839844 C 277.734375 15.878906 277.832031 16.070312 277.933594 16.261719 C 278.046875 16.449219 278.265625 16.949219 278.40625 17.375 L 278.683594 18.15625 L 279.175781 18.144531 C 279.777344 18.136719 280.757812 17.886719 281.324219 17.613281 C 281.832031 17.367188 282.210938 16.800781 282.363281 16.050781 C 282.421875 15.746094 282.550781 13.8125 282.65625 11.757812 C 282.847656 8.019531 282.988281 5.851562 283.101562 5.0625 L 283.15625 4.644531 L 276.941406 4.625 L 270.734375 4.597656 L 271.074219 4.074219 C 271.261719 3.792969 271.652344 3.320312 271.9375 3.023438 L 272.445312 2.503906 L 271.898438 2.332031 C 271.59375 2.234375 270.933594 1.972656 270.421875 1.753906 L 269.492188 1.335938 Z M 275.277344 12.75 L 275.277344 14.410156 L 269.027344 14.410156 L 269.027344 11.089844 L 275.277344 11.089844 Z M 275.277344 12.75 "/>
<path style=" stroke:none;fill-rule:nonzero;fill:rgb(0%,0%,0%);fill-opacity:1;" d="M 64.800781 1.472656 C 64.773438 1.496094 64.261719 1.648438 63.675781 1.800781 C 63.078125 1.949219 62.605469 2.105469 62.617188 2.152344 C 62.625 2.1875 62.808594 2.605469 63.003906 3.082031 C 63.214844 3.542969 63.410156 4.027344 63.4375 4.144531 L 63.503906 4.363281 L 54.035156 4.363281 L 54.035156 9.101562 L 56.398438 9.101562 L 56.398438 6.257812 L 72.011719 6.257812 L 72.011719 8.824219 L 73.15625 8.796875 L 74.304688 8.769531 L 74.3125 6.566406 L 74.332031 4.363281 L 66.097656 4.363281 L 65.738281 3.308594 C 65.144531 1.59375 64.992188 1.289062 64.800781 1.472656 Z M 64.800781 1.472656 "/>
<path style=" stroke:none;fill-rule:nonzero;fill:rgb(0%,0%,0%);fill-opacity:1;" d="M 120.226562 1.808594 C 119.808594 1.964844 119.375 2.085938 119.261719 2.085938 C 118.996094 2.085938 118.988281 2.269531 119.222656 2.730469 C 119.375 3.035156 119.742188 4.082031 119.941406 4.824219 L 120.007812 5.042969 L 117.066406 5.015625 L 114.125 4.976562 L 114.125 6.894531 L 116.300781 6.84375 C 117.5 6.816406 118.476562 6.824219 118.476562 6.871094 C 118.476562 6.910156 118.304688 7.292969 118.105469 7.726562 C 117.140625 9.792969 115.722656 11.394531 114.613281 11.660156 L 114.148438 11.765625 L 114.554688 12.730469 C 114.785156 13.261719 114.972656 13.753906 114.972656 13.832031 C 114.972656 13.90625 115.03125 13.9375 115.125 13.898438 C 115.464844 13.765625 117.054688 13.527344 117.125 13.597656 C 117.246094 13.707031 117.1875 16.761719 117.054688 17.527344 C 116.859375 18.714844 116.214844 20.03125 115.402344 20.941406 C 114.996094 21.386719 113.914062 22.230469 113.167969 22.6875 L 112.628906 22.996094 L 113.222656 23.265625 C 113.628906 23.433594 113.972656 23.679688 114.261719 23.996094 L 114.707031 24.46875 L 115.191406 24.089844 C 115.863281 23.566406 116.875 22.566406 117.386719 21.898438 C 118.589844 20.335938 119.082031 18.460938 119.203125 14.996094 L 119.261719 13.269531 L 119.699219 13.269531 C 119.933594 13.269531 120.292969 13.246094 120.488281 13.214844 L 120.839844 13.148438 L 120.839844 17.359375 C 120.839844 19.878906 120.886719 21.738281 120.941406 21.992188 C 121.085938 22.621094 121.429688 23.078125 121.949219 23.328125 C 122.363281 23.539062 122.546875 23.558594 124.050781 23.585938 C 125.886719 23.625 126.242188 23.566406 126.746094 23.125 C 127.203125 22.726562 127.503906 22.167969 127.890625 21.027344 C 128.261719 19.9375 128.277344 20.011719 127.511719 19.824219 C 127.304688 19.765625 126.84375 19.550781 126.5 19.339844 C 126.148438 19.128906 125.847656 18.960938 125.816406 18.960938 C 125.78125 18.960938 125.761719 19.101562 125.761719 19.285156 C 125.761719 19.765625 125.503906 20.992188 125.34375 21.308594 C 125.15625 21.671875 125.042969 21.707031 124.152344 21.707031 C 123.5 21.707031 123.375 21.683594 123.140625 21.480469 L 122.875 21.253906 L 122.847656 17.199219 C 122.839844 14.972656 122.855469 13.109375 122.894531 13.074219 C 122.933594 13.035156 123.292969 12.980469 123.679688 12.941406 L 124.398438 12.871094 L 124.816406 13.480469 C 125.515625 14.496094 125.4375 14.457031 125.941406 14.085938 C 126.179688 13.90625 126.621094 13.621094 126.925781 13.441406 L 127.464844 13.109375 L 126.566406 11.804688 C 125.621094 10.4375 124.277344 8.675781 123.957031 8.382812 C 123.773438 8.222656 123.765625 8.222656 123.511719 8.417969 C 123.367188 8.53125 122.945312 8.796875 122.5625 9.015625 C 122.089844 9.28125 121.902344 9.441406 121.957031 9.519531 C 122.003906 9.574219 122.335938 10.003906 122.6875 10.476562 L 123.320312 11.328125 L 122.582031 11.394531 C 121.730469 11.472656 117.691406 11.644531 117.644531 11.605469 C 117.546875 11.535156 120.027344 8.703125 120.527344 8.300781 L 121.117188 7.839844 L 120.386719 7.425781 C 119.988281 7.195312 119.617188 6.957031 119.5625 6.910156 C 119.496094 6.835938 120.679688 6.816406 123.519531 6.84375 L 127.558594 6.871094 L 127.558594 4.976562 L 124.417969 5.003906 C 122.6875 5.023438 121.078125 5.023438 120.839844 5.003906 C 120.421875 4.976562 120.421875 4.976562 121.269531 4.75 C 121.738281 4.625 122.15625 4.496094 122.195312 4.457031 C 122.234375 4.417969 122.035156 3.792969 121.738281 3.0625 C 121.453125 2.324219 121.222656 1.679688 121.222656 1.621094 C 121.222656 1.480469 121.105469 1.496094 120.226562 1.808594 Z M 120.226562 1.808594 "/>
<path style=" stroke:none;fill-rule:nonzero;fill:rgb(0%,0%,0%);fill-opacity:1;" d="M 242.101562 1.773438 C 241.984375 2.226562 241.066406 4.464844 240.640625 5.308594 C 240.007812 6.582031 239.167969 8 238.265625 9.335938 C 237.507812 10.476562 236.5625 11.660156 236.375 11.738281 C 236.191406 11.804688 236.304688 12.019531 236.695312 12.390625 C 236.921875 12.609375 237.28125 12.980469 237.492188 13.222656 L 237.867188 13.667969 L 239.085938 11.964844 C 239.761719 11.015625 240.339844 10.246094 240.386719 10.246094 C 240.554688 10.230469 240.425781 23.179688 240.242188 24.097656 C 240.226562 24.191406 240.519531 24.230469 241.4375 24.25 L 242.648438 24.277344 L 242.574219 24.0625 C 242.53125 23.9375 242.484375 20.019531 242.46875 15.347656 L 242.429688 6.84375 L 242.902344 5.792969 C 243.480469 4.511719 244.054688 3.507812 244.492188 3.035156 L 244.8125 2.675781 L 244.3125 2.511719 C 244.039062 2.417969 243.449219 2.160156 243.015625 1.933594 C 242.582031 1.707031 242.210938 1.519531 242.195312 1.519531 C 242.175781 1.519531 242.125 1.632812 242.101562 1.773438 Z M 242.101562 1.773438 "/>
<path style=" stroke:none;fill-rule:nonzero;fill:rgb(0%,0%,0%);fill-opacity:1;" d="M 325.570312 2.949219 L 325.648438 4.378906 L 321.542969 4.332031 C 319.277344 4.292969 317.269531 4.246094 317.082031 4.210938 L 316.722656 4.152344 L 316.722656 6.277344 L 317.035156 6.21875 C 317.195312 6.183594 319.203125 6.121094 321.484375 6.097656 L 325.617188 6.046875 L 325.617188 8.4375 L 317.292969 8.4375 L 317.363281 9.59375 C 317.402344 10.238281 317.433594 13.269531 317.433594 16.355469 C 317.433594 19.425781 317.402344 22.46875 317.363281 23.105469 L 317.292969 24.269531 L 319.46875 24.269531 L 319.46875 10.144531 L 333.945312 10.144531 L 333.925781 15.976562 C 333.90625 20.59375 333.871094 21.824219 333.773438 21.917969 C 333.691406 22.003906 333.28125 22.050781 332.527344 22.070312 C 331.902344 22.089844 331.390625 22.117188 331.390625 22.136719 C 331.390625 22.15625 331.578125 22.613281 331.816406 23.160156 C 332.050781 23.710938 332.242188 24.214844 332.242188 24.277344 C 332.242188 24.402344 332.335938 24.394531 333.925781 24.023438 C 335.128906 23.746094 335.429688 23.558594 335.703125 22.921875 C 335.867188 22.542969 335.886719 22.042969 335.949219 15.785156 C 335.980469 12.078125 336.046875 8.910156 336.074219 8.742188 L 336.140625 8.4375 L 327.605469 8.4375 L 327.605469 6.046875 L 332.289062 6.089844 L 336.972656 6.113281 L 336.972656 4.3125 L 332.28125 4.339844 L 327.578125 4.378906 L 327.671875 1.519531 L 325.503906 1.519531 Z M 325.570312 2.949219 "/>
<path style=" stroke:none;fill-rule:nonzero;fill:rgb(0%,0%,0%);fill-opacity:1;" d="M 33.027344 1.902344 C 32.476562 2.046875 32.039062 2.199219 32.050781 2.246094 C 32.058594 2.292969 32.171875 2.757812 32.308594 3.289062 C 32.4375 3.820312 32.554688 4.285156 32.554688 4.320312 C 32.554688 4.363281 31.480469 4.371094 30.1875 4.339844 L 27.8125 4.292969 L 27.839844 5.28125 L 27.867188 6.265625 L 33.289062 6.285156 L 38.703125 6.304688 L 38.703125 4.285156 L 36.734375 4.332031 L 34.757812 4.386719 L 34.558594 3.355469 C 34.300781 2.085938 34.171875 1.613281 34.085938 1.621094 C 34.046875 1.632812 33.574219 1.753906 33.027344 1.902344 Z M 33.027344 1.902344 "/>
<path style=" stroke:none;fill-rule:nonzero;fill:rgb(0%,0%,0%);fill-opacity:1;" d="M 214.664062 1.964844 C 214.503906 2.921875 214.304688 3.90625 214.125 4.589844 L 213.929688 5.328125 L 212.335938 5.292969 L 210.738281 5.261719 L 210.738281 7.121094 L 212.113281 7.054688 C 213.273438 6.996094 213.484375 7.007812 213.445312 7.121094 C 212.765625 9.253906 212.261719 10.617188 211.867188 11.394531 C 211.753906 11.613281 211.457031 11.992188 211.195312 12.257812 L 210.71875 12.730469 L 211.117188 13.644531 C 211.34375 14.144531 211.523438 14.558594 211.53125 14.574219 C 211.542969 14.582031 211.929688 14.535156 212.394531 14.457031 C 212.859375 14.382812 213.804688 14.289062 214.496094 14.257812 L 215.753906 14.191406 L 215.753906 17.339844 L 215.453125 17.394531 C 214.894531 17.480469 212.894531 17.71875 211.664062 17.832031 L 210.460938 17.949219 L 210.730469 18.476562 C 210.878906 18.769531 211.070312 19.238281 211.15625 19.5 C 211.25 19.777344 211.332031 20.003906 211.355469 20.003906 C 211.371094 20.003906 211.824219 19.898438 212.367188 19.777344 C 212.894531 19.644531 213.8125 19.453125 214.382812 19.339844 C 214.957031 19.222656 215.507812 19.109375 215.605469 19.082031 C 215.78125 19.035156 215.78125 19.101562 215.714844 21.746094 L 215.652344 24.460938 L 217.796875 24.460938 L 217.757812 21.636719 L 217.722656 18.808594 L 219.027344 18.601562 C 219.757812 18.488281 220.582031 18.382812 220.863281 18.371094 L 221.386719 18.347656 L 221.433594 17.441406 C 221.457031 16.949219 221.46875 16.523438 221.457031 16.503906 C 221.449219 16.488281 220.875 16.5625 220.179688 16.667969 C 219.492188 16.78125 218.660156 16.894531 218.339844 16.929688 L 217.742188 16.996094 L 217.742188 14.222656 L 219.613281 14.199219 L 221.480469 14.175781 L 221.503906 13.339844 L 221.535156 12.511719 L 217.710938 12.511719 L 217.78125 10.96875 C 217.808594 10.125 217.863281 9.320312 217.890625 9.167969 L 217.949219 8.910156 L 215.652344 8.910156 L 215.714844 10.714844 L 215.78125 12.511719 L 214.589844 12.511719 C 213.929688 12.511719 213.386719 12.503906 213.386719 12.488281 C 213.386719 12.464844 213.566406 11.980469 213.777344 11.414062 C 213.996094 10.847656 214.4375 9.632812 214.769531 8.722656 L 215.355469 7.0625 L 217.097656 7.0625 C 218.050781 7.0625 219.3125 7.089844 219.898438 7.140625 L 220.96875 7.203125 L 220.910156 5.269531 L 218.421875 5.300781 L 215.921875 5.328125 L 215.988281 5.101562 C 216.3125 4.066406 216.746094 3.035156 216.976562 2.738281 L 217.257812 2.390625 L 216.769531 2.269531 C 216.328125 2.160156 215.320312 1.839844 214.882812 1.660156 C 214.753906 1.613281 214.710938 1.667969 214.664062 1.964844 Z M 214.664062 1.964844 "/>
<path style=" stroke:none;fill-rule:nonzero;fill:rgb(0%,0%,0%);fill-opacity:1;" d="M 250.710938 1.964844 C 250.738281 2.160156 250.792969 3.507812 250.824219 4.949219 L 250.886719 7.585938 L 249.164062 7.585938 C 247.746094 7.585938 247.453125 7.566406 247.453125 7.449219 C 247.453125 7.242188 248.203125 5.128906 248.457031 4.617188 C 248.589844 4.371094 248.734375 4.171875 248.78125 4.171875 C 248.835938 4.171875 248.871094 4.132812 248.871094 4.097656 C 248.871094 4.050781 248.609375 3.941406 248.289062 3.847656 C 247.964844 3.765625 247.398438 3.542969 247.019531 3.375 L 246.335938 3.050781 L 246.175781 3.878906 C 245.761719 6.019531 244.859375 8.761719 243.925781 10.707031 C 243.660156 11.253906 243.433594 11.726562 243.414062 11.757812 C 243.394531 11.785156 243.671875 11.925781 244.019531 12.078125 C 244.378906 12.230469 244.824219 12.457031 245.019531 12.582031 C 245.230469 12.710938 245.402344 12.800781 245.417969 12.777344 C 245.441406 12.757812 245.753906 12.019531 246.109375 11.136719 L 246.773438 9.527344 L 248.816406 9.5 L 250.863281 9.480469 L 250.863281 14.417969 L 247.246094 14.402344 L 243.621094 14.382812 L 243.59375 15.378906 L 243.566406 16.382812 L 247.226562 16.324219 L 250.878906 16.277344 L 250.824219 19.871094 C 250.792969 21.84375 250.746094 23.644531 250.710938 23.871094 L 250.652344 24.269531 L 252.992188 24.269531 L 252.953125 20.277344 L 252.921875 16.277344 L 255.960938 16.324219 L 259 16.375 L 259 14.199219 L 258.695312 14.257812 C 258.527344 14.289062 257.164062 14.34375 255.667969 14.371094 L 252.945312 14.4375 L 252.945312 9.472656 L 258.242188 9.527344 L 258.242188 7.507812 L 255.585938 7.554688 L 252.921875 7.613281 L 252.980469 4.96875 C 253.007812 3.515625 253.058594 2.160156 253.09375 1.964844 L 253.152344 1.613281 L 250.652344 1.613281 Z M 250.710938 1.964844 "/>
<path style=" stroke:none;fill-rule:nonzero;fill:rgb(0%,0%,0%);fill-opacity:1;" d="M 188.519531 4.3125 L 188.558594 6.835938 L 184.90625 6.777344 L 184.90625 8.730469 L 186.492188 8.722656 C 187.363281 8.722656 188.121094 8.714844 188.1875 8.722656 C 188.265625 8.722656 188.222656 8.921875 188.074219 9.355469 C 187.175781 11.964844 186 14.289062 184.515625 16.375 L 183.964844 17.152344 L 184.546875 17.699219 C 184.867188 18.003906 185.273438 18.402344 185.441406 18.582031 C 185.605469 18.761719 185.765625 18.886719 185.792969 18.859375 C 185.984375 18.675781 187.203125 16.496094 187.800781 15.28125 C 188.1875 14.496094 188.539062 13.839844 188.566406 13.839844 C 188.597656 13.839844 188.585938 16.125 188.558594 18.914062 L 188.492188 23.996094 L 189.609375 23.964844 C 190.542969 23.9375 190.714844 23.917969 190.6875 23.792969 C 190.621094 23.472656 190.589844 8.949219 190.65625 8.835938 C 190.726562 8.742188 191.101562 8.722656 192.3125 8.742188 L 193.894531 8.769531 L 193.894531 6.777344 L 192.285156 6.804688 C 190.855469 6.835938 190.667969 6.816406 190.621094 6.683594 C 190.542969 6.503906 190.734375 2.332031 190.828125 2.011719 C 190.886719 1.800781 190.886719 1.800781 189.683594 1.800781 L 188.480469 1.800781 Z M 188.519531 4.3125 "/>
<path style=" stroke:none;fill-rule:nonzero;fill:rgb(0%,0%,0%);fill-opacity:1;" d="M 46.890625 2.152344 C 45.296875 2.605469 42.1875 3.128906 41.011719 3.128906 C 40.792969 3.128906 40.5 3.15625 40.347656 3.183594 L 40.074219 3.242188 L 40.113281 7.964844 C 40.140625 12.75 40.058594 15.066406 39.800781 16.550781 C 39.359375 19.0625 38.722656 20.816406 37.566406 22.695312 L 37.195312 23.3125 L 38.203125 23.785156 C 38.75 24.050781 39.242188 24.238281 39.289062 24.203125 C 39.441406 24.117188 40.378906 22.105469 40.746094 21.085938 C 41.589844 18.730469 42.109375 15.289062 42.109375 11.964844 L 42.109375 11.183594 L 44.863281 11.183594 L 44.804688 24.175781 L 46.898438 24.175781 L 46.859375 17.660156 L 46.820312 11.160156 L 47.96875 11.226562 L 49.109375 11.292969 L 49.109375 9.242188 L 45.609375 9.28125 L 42.109375 9.308594 L 42.128906 7.054688 L 42.15625 4.785156 L 43.105469 4.671875 C 43.957031 4.570312 46.671875 4.332031 48.421875 4.210938 L 49.109375 4.152344 L 48.808594 3.792969 C 48.640625 3.59375 48.308594 3.097656 48.070312 2.683594 L 47.644531 1.933594 Z M 46.890625 2.152344 "/>
<path style=" stroke:none;fill-rule:nonzero;fill:rgb(0%,0%,0%);fill-opacity:1;" d="M 223.738281 2.152344 C 223.164062 4.738281 222.066406 7.375 220.675781 9.5 C 220.363281 9.972656 220.117188 10.371094 220.125 10.378906 C 220.144531 10.386719 220.363281 10.457031 220.609375 10.523438 C 220.855469 10.589844 221.296875 10.785156 221.59375 10.960938 C 221.875 11.136719 222.140625 11.28125 222.179688 11.28125 C 222.214844 11.28125 222.644531 10.53125 223.125 9.621094 L 224.007812 7.964844 L 226.832031 7.964844 C 228.765625 7.964844 229.664062 7.992188 229.664062 8.066406 C 229.664062 8.113281 229.476562 8.75 229.238281 9.472656 C 229 10.191406 228.8125 10.816406 228.8125 10.863281 C 228.8125 10.941406 230.882812 11.421875 230.941406 11.359375 C 230.953125 11.339844 231.09375 10.808594 231.265625 10.164062 C 231.433594 9.519531 231.753906 8.410156 231.992188 7.699219 C 232.21875 6.996094 232.40625 6.378906 232.40625 6.332031 C 232.40625 6.296875 230.636719 6.257812 228.480469 6.257812 C 226.324219 6.257812 224.554688 6.238281 224.554688 6.21875 C 224.554688 6.203125 224.703125 5.8125 224.894531 5.347656 C 225.320312 4.265625 225.820312 3.347656 226.183594 2.976562 C 226.503906 2.632812 226.484375 2.605469 225.839844 2.523438 C 225.445312 2.457031 224.421875 2.152344 223.96875 1.949219 C 223.84375 1.894531 223.789062 1.933594 223.738281 2.152344 Z M 223.738281 2.152344 "/>
<path style=" stroke:none;fill-rule:nonzero;fill:rgb(0%,0%,0%);fill-opacity:1;" d="M 109.164062 2.664062 C 108.863281 4.027344 107.46875 7.074219 106.664062 8.132812 C 106.277344 8.644531 105.644531 9.195312 105.304688 9.308594 C 105.234375 9.335938 105.3125 9.679688 105.511719 10.285156 C 105.679688 10.808594 105.832031 11.246094 105.839844 11.253906 C 105.851562 11.273438 106.238281 11.195312 106.703125 11.089844 C 107.648438 10.894531 109.742188 10.65625 109.824219 10.738281 C 109.863281 10.777344 109.621094 11.261719 109.296875 11.820312 C 108.019531 14.019531 107.339844 14.835938 106.484375 15.234375 C 106.210938 15.367188 105.984375 15.5 105.984375 15.546875 C 105.984375 15.625 106.65625 17.453125 106.703125 17.527344 C 106.722656 17.550781 107.234375 17.433594 107.851562 17.273438 C 108.917969 16.988281 110.050781 16.808594 112.085938 16.589844 C 113.847656 16.402344 113.714844 16.457031 113.789062 15.898438 C 113.832031 15.625 113.941406 15.195312 114.035156 14.941406 C 114.132812 14.675781 114.195312 14.457031 114.179688 14.4375 C 114.160156 14.417969 113.621094 14.496094 112.976562 14.597656 C 111.386719 14.855469 109.382812 15.09375 109.324219 15.035156 C 109.257812 14.972656 111.972656 10.625 112.796875 9.460938 C 113.136719 8.988281 113.628906 8.363281 113.902344 8.066406 C 114.179688 7.785156 114.386719 7.539062 114.378906 7.539062 C 114.367188 7.527344 114.085938 7.386719 113.742188 7.222656 C 113.402344 7.0625 112.863281 6.789062 112.542969 6.597656 C 112.222656 6.417969 111.9375 6.296875 111.917969 6.332031 C 111.890625 6.371094 111.824219 6.566406 111.757812 6.777344 C 111.691406 6.988281 111.445312 7.574219 111.207031 8.078125 L 110.785156 9.003906 L 110.101562 9.003906 C 109.722656 9.003906 109.097656 9.035156 108.699219 9.0625 L 107.972656 9.128906 L 108.972656 7.386719 C 109.53125 6.425781 110.148438 5.347656 110.355469 4.988281 C 110.5625 4.625 110.96875 4.058594 111.253906 3.726562 C 111.539062 3.382812 111.757812 3.097656 111.738281 3.082031 C 111.71875 3.0625 110.082031 2.316406 109.429688 2.03125 C 109.363281 2 109.257812 2.234375 109.164062 2.664062 Z M 109.164062 2.664062 "/>
<path style=" stroke:none;fill-rule:nonzero;fill:rgb(0%,0%,0%);fill-opacity:1;" d="M 292.964844 2.058594 C 292.953125 2.105469 292.964844 3.320312 292.972656 4.777344 L 292.988281 7.425781 L 291.484375 7.347656 C 290.660156 7.308594 289.949219 7.269531 289.894531 7.261719 C 289.839844 7.261719 289.792969 7.640625 289.773438 8.222656 L 289.746094 9.195312 L 292.972656 9.195312 L 292.972656 13.433594 L 291.863281 13.777344 C 291.25 13.964844 290.367188 14.210938 289.894531 14.335938 C 289.429688 14.449219 289.035156 14.542969 289.023438 14.542969 C 289.015625 14.550781 289.191406 15.019531 289.421875 15.585938 C 289.648438 16.144531 289.855469 16.691406 289.878906 16.800781 L 289.933594 16.988281 L 290.246094 16.800781 C 291.078125 16.296875 292.660156 15.546875 292.894531 15.546875 C 292.933594 15.546875 292.972656 16.828125 292.972656 18.394531 C 292.972656 21.917969 293.085938 21.671875 291.476562 21.578125 C 290.460938 21.519531 290.394531 21.53125 290.460938 21.683594 C 290.5 21.777344 290.644531 22.308594 290.785156 22.875 L 291.03125 23.890625 L 291.601562 23.832031 C 292.507812 23.738281 293.546875 23.511719 293.925781 23.320312 C 294.398438 23.078125 294.742188 22.648438 294.910156 22.070312 C 295.023438 21.671875 295.054688 20.949219 295.054688 18.203125 L 295.054688 14.816406 L 295.695312 14.535156 C 296.046875 14.371094 296.566406 14.164062 296.847656 14.066406 L 297.371094 13.898438 L 297.371094 11.679688 L 296.945312 11.851562 C 296.710938 11.945312 296.226562 12.15625 295.875 12.316406 C 295.515625 12.472656 295.1875 12.609375 295.140625 12.609375 C 295.09375 12.609375 295.054688 11.859375 295.054688 10.902344 L 295.054688 9.195312 L 297.605469 9.195312 L 297.605469 7.269531 L 296.320312 7.328125 L 295.023438 7.394531 L 295.070312 4.691406 L 295.128906 1.992188 L 294.050781 1.992188 C 293.453125 1.992188 292.972656 2.019531 292.964844 2.058594 Z M 292.964844 2.058594 "/>
<path style=" stroke:none;fill-rule:nonzero;fill:rgb(0%,0%,0%);fill-opacity:1;" d="M 298.457031 5.878906 C 298.457031 9.527344 298.46875 9.785156 298.648438 10.265625 C 298.886719 10.894531 299.234375 11.234375 299.78125 11.375 C 300.078125 11.453125 301.589844 11.472656 304.609375 11.453125 C 309.566406 11.421875 309.511719 11.421875 310.148438 10.691406 C 310.421875 10.371094 311.328125 8.429688 311.328125 8.171875 C 311.328125 8.125 311.128906 8.03125 310.882812 7.964844 C 310.335938 7.8125 309.777344 7.546875 309.359375 7.234375 C 309.191406 7.101562 309.03125 7.015625 309.007812 7.035156 C 308.992188 7.054688 308.886719 7.460938 308.78125 7.945312 C 308.535156 9.0625 308.425781 9.300781 308.019531 9.511719 C 307.714844 9.660156 307.382812 9.671875 304.355469 9.652344 C 300.265625 9.613281 300.585938 9.753906 300.585938 8.085938 L 300.585938 6.976562 L 301.25 6.84375 C 301.828125 6.730469 302.757812 6.535156 306.078125 5.785156 C 306.496094 5.691406 307.101562 5.546875 307.421875 5.460938 C 307.730469 5.375 308.359375 5.242188 308.792969 5.160156 C 309.996094 4.941406 309.957031 4.988281 309.351562 4.410156 C 308.941406 4.019531 308.1875 3.0625 308.066406 2.777344 C 308.054688 2.769531 307.675781 2.949219 307.21875 3.195312 C 306.164062 3.746094 305.488281 4.011719 304.449219 4.320312 C 303.351562 4.636719 300.722656 5.214844 300.628906 5.160156 C 300.578125 5.128906 300.578125 4.410156 300.609375 3.554688 L 300.664062 1.992188 L 298.457031 1.992188 Z M 298.457031 5.878906 "/>
<path style=" stroke:none;fill-rule:nonzero;fill:rgb(0%,0%,0%);fill-opacity:1;" d="M 4.304688 5.546875 L 4.304688 9.003906 L 19.351562 9.003906 L 19.332031 5.566406 L 19.320312 2.132812 L 11.808594 2.105469 L 4.304688 2.085938 Z M 17.203125 4.285156 L 17.230469 4.832031 L 6.433594 4.832031 L 6.433594 3.6875 L 11.808594 3.71875 L 17.175781 3.746094 Z M 17.222656 6.964844 L 17.222656 7.488281 L 6.433594 7.488281 L 6.433594 6.445312 L 17.222656 6.445312 Z M 17.222656 6.964844 "/>
<path style=" stroke:none;fill-rule:nonzero;fill:rgb(0%,0%,0%);fill-opacity:1;" d="M 171.988281 2.332031 C 171.523438 2.445312 171.042969 2.550781 170.929688 2.550781 C 170.816406 2.558594 170.691406 2.605469 170.664062 2.652344 C 170.578125 2.789062 171.390625 4.796875 171.96875 5.878906 C 173.113281 8.050781 173.75 8.988281 174.929688 10.285156 C 175.59375 11.015625 178.101562 13.253906 178.519531 13.492188 C 178.613281 13.539062 178.695312 13.480469 178.792969 13.292969 C 179.066406 12.769531 179.789062 11.886719 180.210938 11.574219 C 180.449219 11.394531 180.617188 11.214844 180.578125 11.183594 C 180.53125 11.148438 180.296875 11.042969 180.03125 10.960938 C 177.34375 9.992188 174.0625 6.203125 173.121094 2.96875 C 172.992188 2.511719 172.875 2.140625 172.859375 2.132812 C 172.847656 2.125 172.460938 2.21875 171.988281 2.332031 Z M 171.988281 2.332031 "/>
<path style=" stroke:none;fill-rule:nonzero;fill:rgb(0%,0%,0%);fill-opacity:1;" d="M 203.480469 2.378906 C 202.269531 2.863281 199.175781 3.402344 196.570312 3.582031 C 195.925781 3.628906 195.390625 3.6875 195.359375 3.71875 C 195.332031 3.746094 195.351562 5.082031 195.417969 6.691406 C 195.542969 9.945312 195.484375 12.871094 195.277344 14.464844 C 194.832031 17.773438 193.914062 20.097656 192.390625 21.730469 L 191.726562 22.441406 L 192.3125 22.714844 C 192.636719 22.867188 193.167969 23.199219 193.496094 23.441406 C 193.839844 23.691406 194.113281 23.890625 194.132812 23.871094 C 194.347656 23.585938 195 22.535156 195.332031 21.945312 C 195.925781 20.878906 196.402344 19.730469 196.683594 18.628906 C 197.148438 16.820312 197.585938 13.605469 197.585938 11.871094 L 197.585938 11.183594 L 201.285156 11.183594 L 201.226562 23.792969 L 203.40625 23.792969 L 203.367188 17.472656 L 203.339844 11.160156 L 205.050781 11.214844 L 206.761719 11.273438 L 206.761719 9.335938 L 202.175781 9.367188 L 197.585938 9.402344 L 197.585938 5.414062 L 197.894531 5.355469 C 198.605469 5.230469 203.222656 4.824219 204.511719 4.769531 L 205.894531 4.710938 L 205.398438 3.988281 C 205.128906 3.582031 204.757812 2.996094 204.578125 2.675781 C 204.40625 2.347656 204.234375 2.085938 204.210938 2.09375 C 204.179688 2.105469 203.859375 2.226562 203.480469 2.378906 Z M 203.480469 2.378906 "/>
<path style=" stroke:none;fill-rule:nonzero;fill:rgb(0%,0%,0%);fill-opacity:1;" d="M 146.097656 2.53125 C 146.097656 2.570312 146.097656 4.246094 146.105469 6.238281 L 146.113281 9.878906 L 142.898438 9.839844 L 139.671875 9.8125 L 139.671875 11.859375 L 142.890625 11.792969 L 146.113281 11.726562 L 146.089844 17.996094 L 146.058594 24.269531 L 148.234375 24.269531 L 148.195312 17.996094 L 148.171875 11.726562 L 151.140625 11.773438 L 154.105469 11.832031 L 154.128906 10.816406 L 154.152344 9.8125 L 151.164062 9.847656 L 148.160156 9.878906 L 148.195312 6.203125 L 148.234375 2.511719 L 147.175781 2.484375 C 146.589844 2.472656 146.105469 2.492188 146.097656 2.53125 Z M 146.097656 2.53125 "/>
<path style=" stroke:none;fill-rule:nonzero;fill:rgb(0%,0%,0%);fill-opacity:1;" d="M 165.355469 3.675781 C 163.546875 7.121094 161.957031 9.128906 159.527344 11.015625 C 159.089844 11.347656 158.578125 11.714844 158.386719 11.839844 C 158.191406 11.953125 158.027344 12.089844 158.027344 12.113281 C 158.027344 12.15625 158.273438 12.332031 158.570312 12.503906 C 158.875 12.683594 159.382812 13.074219 159.726562 13.359375 L 160.339844 13.878906 L 161.417969 12.742188 C 163.113281 10.960938 165.050781 8.464844 166.832031 5.785156 C 167.164062 5.292969 167.652344 4.597656 167.929688 4.257812 L 168.417969 3.628906 L 167.890625 3.414062 C 167.597656 3.300781 167.046875 3.035156 166.671875 2.835938 L 165.988281 2.472656 Z M 165.355469 3.675781 "/>
<path style=" stroke:none;fill-rule:nonzero;fill:rgb(0%,0%,0%);fill-opacity:1;" d="M 82.128906 2.625 C 82.128906 2.675781 82.128906 5.109375 82.136719 8.058594 C 82.148438 13.753906 82.070312 15.792969 81.761719 17.539062 C 81.410156 19.5 80.652344 21.386719 79.703125 22.667969 L 79.296875 23.226562 L 79.847656 23.472656 C 80.140625 23.617188 80.613281 23.871094 80.890625 24.050781 C 81.164062 24.222656 81.417969 24.363281 81.457031 24.363281 C 81.609375 24.363281 82.894531 21.558594 83.273438 20.402344 C 83.652344 19.285156 84.039062 17.550781 84.171875 16.382812 L 84.238281 15.832031 L 89.546875 15.832031 L 89.453125 23.417969 L 91.742188 23.417969 L 91.714844 19.621094 L 91.675781 15.832031 L 97.375 15.832031 L 97.363281 18.171875 C 97.355469 20.742188 97.285156 21.195312 96.902344 21.398438 C 96.757812 21.472656 96.273438 21.519531 95.648438 21.519531 L 94.636719 21.519531 L 94.910156 22.097656 C 95.0625 22.421875 95.261719 22.996094 95.347656 23.386719 L 95.519531 24.089844 L 95.898438 24.03125 C 96.558594 23.929688 98.054688 23.503906 98.433594 23.3125 C 98.820312 23.113281 99.171875 22.695312 99.367188 22.183594 C 99.472656 21.910156 99.511719 20.097656 99.550781 12.277344 C 99.578125 7.007812 99.589844 2.675781 99.566406 2.625 C 99.550781 2.585938 95.621094 2.558594 90.835938 2.558594 C 86.058594 2.558594 82.136719 2.585938 82.128906 2.625 Z M 89.519531 6.445312 L 89.519531 8.4375 L 84.21875 8.4375 L 84.21875 4.457031 L 89.519531 4.457031 Z M 97.375 6.445312 L 97.375 8.4375 L 91.695312 8.4375 L 91.695312 4.457031 L 97.375 4.457031 Z M 89.519531 12.136719 L 89.519531 14.03125 L 84.21875 14.03125 L 84.21875 10.238281 L 89.519531 10.238281 Z M 97.375 12.136719 L 97.375 14.03125 L 91.695312 14.03125 L 91.695312 10.238281 L 97.375 10.238281 Z M 97.375 12.136719 "/>
<path style=" stroke:none;fill-rule:nonzero;fill:rgb(0%,0%,0%);fill-opacity:1;" d="M 135.183594 3.128906 C 134.664062 3.441406 134.230469 3.71875 134.210938 3.734375 C 134.191406 3.753906 134.636719 4.472656 135.195312 5.339844 C 135.753906 6.203125 136.332031 7.101562 136.476562 7.339844 L 136.738281 7.773438 L 137.230469 7.460938 C 137.503906 7.28125 137.960938 7.027344 138.234375 6.871094 C 138.507812 6.722656 138.71875 6.558594 138.699219 6.503906 C 138.667969 6.445312 138.128906 5.601562 137.488281 4.636719 C 136.839844 3.667969 136.273438 2.808594 136.21875 2.722656 C 136.132812 2.578125 136.011719 2.625 135.183594 3.128906 Z M 135.183594 3.128906 "/>
<path style=" stroke:none;fill-rule:nonzero;fill:rgb(0%,0%,0%);fill-opacity:1;" d="M 35.011719 6.589844 C 35.011719 6.777344 34.066406 9.792969 33.980469 9.886719 C 33.945312 9.925781 33.1875 9.945312 32.308594 9.933594 L 30.707031 9.910156 L 31.367188 9.679688 C 31.738281 9.558594 32.070312 9.425781 32.117188 9.386719 C 32.179688 9.320312 31.085938 6.675781 30.953125 6.589844 C 30.914062 6.566406 30.527344 6.730469 30.074219 6.941406 L 29.246094 7.328125 L 29.476562 7.761719 C 29.6875 8.183594 30.375 9.847656 30.375 9.933594 C 30.375 9.964844 29.675781 9.964844 28.816406 9.933594 L 27.253906 9.878906 L 27.253906 11.972656 L 29.808594 11.898438 L 32.363281 11.832031 L 32.363281 14.058594 L 30.042969 14.011719 L 27.726562 13.953125 L 27.726562 16.039062 L 30.042969 15.976562 L 32.363281 15.898438 L 32.363281 18.648438 C 32.363281 21.1875 32.355469 21.40625 32.191406 21.546875 C 32.050781 21.683594 31.816406 21.707031 31.019531 21.707031 L 30.015625 21.707031 L 30.328125 22.308594 C 30.5 22.628906 30.714844 23.140625 30.808594 23.457031 L 30.980469 24.015625 L 31.652344 23.957031 C 33.027344 23.832031 33.785156 23.464844 34.160156 22.707031 C 34.390625 22.25 34.398438 22.144531 34.425781 20.195312 C 34.4375 19.074219 34.445312 17.652344 34.445312 17.027344 L 34.445312 15.910156 L 38.894531 16.039062 L 38.894531 13.953125 L 36.648438 14.011719 L 34.398438 14.058594 L 34.425781 12.949219 L 34.453125 11.832031 L 36.773438 11.90625 L 39.082031 11.972656 L 39.082031 11.746094 C 39.09375 11.621094 39.101562 11.195312 39.121094 10.808594 C 39.128906 10.421875 39.128906 10.050781 39.109375 9.992188 C 39.082031 9.917969 38.589844 9.898438 37.472656 9.933594 L 35.863281 9.980469 L 36.207031 9.140625 C 36.640625 8.050781 36.753906 7.847656 37.09375 7.449219 L 37.386719 7.128906 L 37.074219 7.027344 C 36.90625 6.964844 36.367188 6.816406 35.890625 6.691406 C 35.195312 6.503906 35.011719 6.488281 35.011719 6.589844 Z M 35.011719 6.589844 "/>
<path style=" stroke:none;fill-rule:nonzero;fill:rgb(0%,0%,0%);fill-opacity:1;" d="M 58.792969 7.679688 L 58.015625 8.503906 L 58.261719 8.621094 C 58.660156 8.796875 60.535156 10.246094 61.339844 10.988281 C 61.738281 11.359375 62.097656 11.660156 62.144531 11.660156 C 62.191406 11.660156 62.304688 11.511719 62.410156 11.320312 C 62.511719 11.128906 62.84375 10.753906 63.144531 10.476562 L 63.691406 9.972656 L 62.863281 9.320312 C 62.027344 8.652344 59.84375 7.007812 59.664062 6.902344 C 59.617188 6.871094 59.21875 7.222656 58.792969 7.679688 Z M 58.792969 7.679688 "/>
<path style=" stroke:none;fill-rule:nonzero;fill:rgb(0%,0%,0%);fill-opacity:1;" d="M 64.574219 8.855469 C 64.632812 10.53125 64.519531 14.230469 64.375 14.761719 L 64.328125 14.988281 L 59.085938 14.957031 L 53.84375 14.933594 L 53.84375 16.976562 L 58.859375 16.914062 C 62.410156 16.867188 63.875 16.875 63.875 16.941406 C 63.875 17.113281 63.136719 18.011719 62.445312 18.683594 C 61.707031 19.40625 60.722656 20.082031 59.824219 20.496094 C 58.757812 20.972656 56.511719 21.683594 55.207031 21.957031 L 53.957031 22.214844 L 54.554688 22.761719 C 54.882812 23.078125 55.265625 23.550781 55.414062 23.839844 C 55.734375 24.46875 55.621094 24.46875 57.535156 23.792969 C 59.292969 23.171875 59.71875 22.996094 60.703125 22.496094 C 63.261719 21.195312 64.945312 19.632812 66.117188 17.441406 L 66.402344 16.921875 L 70.765625 16.941406 L 75.136719 16.960938 L 75.136719 14.933594 L 70.867188 14.957031 L 66.601562 14.988281 L 66.660156 14.011719 C 66.683594 13.472656 66.761719 12.21875 66.816406 11.234375 C 66.863281 10.238281 66.976562 9.003906 67.054688 8.492188 C 67.207031 7.433594 67.1875 7.402344 66.617188 7.394531 C 66.4375 7.394531 65.890625 7.308594 65.398438 7.214844 L 64.507812 7.042969 Z M 64.574219 8.855469 "/>
<path style=" stroke:none;fill-rule:nonzero;fill:rgb(0%,0%,0%);fill-opacity:1;" d="M 131.820312 10.855469 L 131.820312 11.972656 L 132.414062 11.917969 C 132.734375 11.878906 133.523438 11.820312 134.164062 11.792969 L 135.328125 11.726562 L 135.300781 16.125 C 135.265625 20.941406 135.273438 20.847656 134.65625 21.898438 L 134.410156 22.328125 L 135.167969 22.855469 C 135.59375 23.152344 136.019531 23.484375 136.117188 23.597656 C 136.21875 23.699219 136.320312 23.792969 136.359375 23.792969 C 136.398438 23.792969 136.699219 23.433594 137.023438 22.988281 C 137.34375 22.542969 137.960938 21.804688 138.386719 21.347656 C 138.8125 20.894531 139.578125 20.058594 140.078125 19.492188 L 140.996094 18.460938 L 140.667969 18.011719 C 140.476562 17.757812 140.230469 17.339844 140.117188 17.066406 L 139.898438 16.570312 L 138.78125 17.851562 C 138.175781 18.554688 137.609375 19.207031 137.535156 19.300781 C 137.417969 19.460938 137.402344 18.894531 137.417969 14.667969 L 137.449219 9.859375 L 135.273438 9.859375 C 134.078125 9.859375 132.8125 9.832031 132.460938 9.792969 L 131.820312 9.734375 Z M 131.820312 10.855469 "/>
<path style=" stroke:none;fill-rule:nonzero;fill:rgb(0%,0%,0%);fill-opacity:1;" d="M 224.808594 11.582031 C 224.734375 14.863281 224.167969 16.894531 222.691406 19.128906 C 222.007812 20.175781 220.875 21.347656 219.910156 22.035156 C 219.472656 22.34375 219.074219 22.628906 219.039062 22.667969 C 218.992188 22.695312 219.160156 22.855469 219.417969 23.011719 C 219.863281 23.292969 220.769531 24.144531 220.769531 24.289062 C 220.769531 24.324219 220.824219 24.363281 220.902344 24.363281 C 221.089844 24.363281 223.191406 22.15625 223.914062 21.1875 C 224.542969 20.34375 225.398438 18.722656 225.785156 17.632812 C 225.90625 17.292969 226.03125 16.988281 226.066406 16.941406 C 226.097656 16.902344 226.21875 17.167969 226.332031 17.527344 C 226.597656 18.347656 227.375 19.871094 227.914062 20.628906 C 228.460938 21.398438 229.609375 22.554688 230.609375 23.347656 C 231.046875 23.699219 231.433594 23.984375 231.464844 23.984375 C 231.5 23.984375 231.613281 23.824219 231.71875 23.625 C 231.964844 23.199219 232.429688 22.707031 232.910156 22.390625 C 233.097656 22.269531 233.257812 22.136719 233.25 22.097656 C 233.25 22.070312 232.964844 21.898438 232.617188 21.71875 C 231.5 21.148438 230.675781 20.550781 229.804688 19.671875 C 228.804688 18.65625 228.195312 17.691406 227.722656 16.363281 C 227.195312 14.882812 227.082031 14.003906 227.136719 11.839844 L 227.175781 9.980469 L 226.3125 9.917969 C 225.839844 9.886719 225.320312 9.832031 225.160156 9.800781 L 224.855469 9.746094 Z M 224.808594 11.582031 "/>
<path style=" stroke:none;fill-rule:nonzero;fill:rgb(0%,0%,0%);fill-opacity:1;" d="M 57.117188 10.761719 C 56.929688 11.054688 56.617188 11.460938 56.425781 11.667969 C 56.238281 11.878906 56.105469 12.058594 56.125 12.078125 C 56.140625 12.097656 56.492188 12.269531 56.898438 12.449219 C 57.714844 12.824219 58.878906 13.605469 59.730469 14.335938 L 60.269531 14.796875 L 61.132812 13.925781 C 61.59375 13.453125 61.980469 13.054688 61.980469 13.035156 C 61.980469 12.941406 57.65625 10.238281 57.507812 10.238281 C 57.488281 10.238281 57.304688 10.476562 57.117188 10.761719 Z M 57.117188 10.761719 "/>
<path style=" stroke:none;fill-rule:nonzero;fill:rgb(0%,0%,0%);fill-opacity:1;" d="M 322.949219 10.847656 C 322.609375 11.128906 322.296875 11.414062 322.257812 11.472656 C 322.21875 11.527344 322.378906 11.820312 322.617188 12.113281 C 323.070312 12.703125 323.914062 13.972656 323.914062 14.085938 C 323.914062 14.152344 322.03125 14.066406 321.4375 13.972656 L 321.078125 13.90625 L 321.078125 15.925781 L 323.441406 15.871094 L 325.808594 15.800781 L 325.808594 17.566406 L 323.46875 17.5 C 322.171875 17.464844 320.941406 17.417969 320.726562 17.386719 L 320.320312 17.328125 L 320.320312 19.292969 L 323.082031 19.265625 L 325.835938 19.222656 L 325.777344 21.324219 L 325.71875 23.417969 L 327.847656 23.417969 L 327.8125 21.324219 L 327.777344 19.238281 L 330.480469 19.265625 L 333.191406 19.292969 L 333.191406 17.464844 L 330.492188 17.519531 L 327.792969 17.566406 L 327.792969 15.800781 L 330.160156 15.863281 L 332.527344 15.910156 L 332.527344 14.058594 L 331.011719 14.105469 C 330.179688 14.136719 329.5 14.128906 329.5 14.085938 C 329.5 14.058594 329.675781 13.707031 329.90625 13.300781 C 330.328125 12.519531 330.773438 12.019531 331.210938 11.832031 C 331.363281 11.765625 331.484375 11.691406 331.484375 11.660156 C 331.484375 11.605469 329.300781 10.609375 329.175781 10.609375 C 329.128906 10.609375 328.84375 11.128906 328.542969 11.773438 C 328.238281 12.417969 327.8125 13.207031 327.613281 13.527344 L 327.234375 14.128906 L 324.148438 14.128906 L 324.625 13.792969 C 325.648438 13.074219 325.589844 13.140625 325.410156 12.839844 C 325.152344 12.390625 323.679688 10.332031 323.621094 10.332031 C 323.589844 10.332031 323.289062 10.570312 322.949219 10.847656 Z M 322.949219 10.847656 "/>
<path style=" stroke:none;fill-rule:nonzero;fill:rgb(0%,0%,0%);fill-opacity:1;" d="M 0.949219 11.359375 L 0.949219 12.25 L 2.273438 12.183594 L 3.597656 12.105469 L 3.597656 16.144531 C 3.597656 18.894531 3.566406 20.203125 3.492188 20.242188 C 3.445312 20.277344 2.886719 20.324219 2.261719 20.355469 C 1.425781 20.402344 1.132812 20.441406 1.132812 20.535156 C 1.132812 20.601562 1.285156 21.074219 1.46875 21.585938 C 1.65625 22.097656 1.816406 22.566406 1.835938 22.621094 C 1.867188 22.695312 2.25 22.628906 3.046875 22.410156 C 4.21875 22.089844 8.175781 21.207031 9.019531 21.09375 L 9.464844 21.027344 L 9.464844 23.792969 L 11.496094 23.792969 L 11.496094 20.714844 L 12.09375 20.628906 L 12.679688 20.535156 L 12.679688 19.605469 C 12.679688 19.09375 12.652344 18.675781 12.613281 18.675781 C 12.566406 18.675781 12.328125 18.746094 12.074219 18.816406 C 11.820312 18.894531 11.574219 18.960938 11.527344 18.960938 C 11.488281 18.960938 11.449219 17.417969 11.449219 15.539062 L 11.449219 12.113281 L 16.890625 12.15625 L 22.332031 12.183594 L 22.332031 10.476562 L 0.949219 10.476562 Z M 9.464844 12.894531 L 9.464844 13.652344 L 5.582031 13.652344 L 5.582031 12.136719 L 9.464844 12.136719 Z M 9.464844 15.976562 L 9.464844 16.683594 L 5.582031 16.683594 L 5.582031 15.261719 L 9.464844 15.261719 Z M 9.417969 18.816406 L 9.417969 19.386719 L 7.664062 19.644531 C 6.699219 19.777344 5.839844 19.898438 5.753906 19.898438 C 5.601562 19.910156 5.582031 19.804688 5.582031 19.0625 L 5.582031 18.210938 L 7.503906 18.230469 L 9.417969 18.25 Z M 9.417969 18.816406 "/>
<path style=" stroke:none;fill-rule:nonzero;fill:rgb(0%,0%,0%);fill-opacity:1;" d="M 162.761719 12.582031 L 162.761719 13.554688 L 165.976562 13.554688 L 165.929688 13.8125 C 165.914062 13.964844 165.835938 14.402344 165.78125 14.789062 C 165.441406 16.996094 164.652344 18.507812 163.234375 19.671875 C 162.382812 20.371094 161.3125 21 160.085938 21.519531 C 159.527344 21.757812 159.070312 21.976562 159.070312 22.003906 C 159.070312 22.042969 159.238281 22.183594 159.449219 22.328125 C 159.847656 22.601562 160.53125 23.300781 160.785156 23.699219 L 160.9375 23.9375 L 161.542969 23.566406 C 166.195312 20.714844 167.476562 18.867188 168.105469 14.011719 L 168.164062 13.566406 L 170.691406 13.539062 C 172.082031 13.519531 173.257812 13.539062 173.304688 13.574219 C 173.425781 13.667969 172.734375 20.003906 172.546875 20.46875 C 172.46875 20.667969 172.308594 20.878906 172.195312 20.933594 C 172.082031 20.992188 171.382812 21.054688 170.644531 21.066406 C 169.898438 21.085938 169.292969 21.09375 169.292969 21.101562 C 169.292969 21.113281 169.460938 21.445312 169.660156 21.84375 C 169.859375 22.238281 170.105469 22.847656 170.199219 23.1875 C 170.292969 23.519531 170.410156 23.792969 170.445312 23.792969 C 170.472656 23.792969 171.175781 23.625 171.988281 23.425781 C 173.550781 23.027344 173.933594 22.839844 174.296875 22.316406 C 174.667969 21.777344 174.78125 21.179688 175.203125 17.394531 C 175.441406 15.355469 175.6875 13.253906 175.761719 12.703125 C 175.839844 12.164062 175.894531 11.707031 175.886719 11.699219 C 175.878906 11.691406 172.914062 11.660156 169.320312 11.644531 L 162.761719 11.605469 Z M 162.761719 12.582031 "/>
<path style=" stroke:none;fill-rule:nonzero;fill:rgb(0%,0%,0%);fill-opacity:1;" d="M 191.667969 11.992188 C 191.253906 12.230469 190.875 12.425781 190.820312 12.457031 C 190.761719 12.472656 190.78125 12.582031 190.855469 12.710938 C 191.246094 13.367188 191.90625 14.648438 192.230469 15.367188 L 192.597656 16.183594 L 193.238281 15.738281 C 193.601562 15.492188 194.027344 15.234375 194.179688 15.167969 C 194.339844 15.101562 194.460938 15.019531 194.460938 14.980469 C 194.460938 14.796875 192.636719 11.566406 192.542969 11.574219 C 192.472656 11.574219 192.085938 11.765625 191.667969 11.992188 Z M 191.667969 11.992188 "/>
<path style=" stroke:none;fill-rule:nonzero;fill:rgb(0%,0%,0%);fill-opacity:1;" d="M 298.695312 18.628906 L 298.695312 24.175781 L 300.824219 24.175781 L 300.824219 22.375 L 307.355469 22.375 L 307.355469 23.890625 L 309.484375 23.890625 L 309.484375 13.082031 L 298.695312 13.082031 Z M 307.355469 15.832031 L 307.355469 16.78125 L 300.832031 16.78125 L 300.804688 15.871094 C 300.785156 15.367188 300.796875 14.941406 300.816406 14.925781 C 300.832031 14.902344 302.320312 14.882812 304.109375 14.882812 L 307.355469 14.882812 Z M 307.355469 19.574219 L 307.355469 20.574219 L 300.832031 20.574219 L 300.804688 19.613281 C 300.785156 19.09375 300.796875 18.636719 300.816406 18.621094 C 300.832031 18.601562 302.320312 18.582031 304.109375 18.582031 L 307.355469 18.582031 Z M 307.355469 19.574219 "/>
<path style=" stroke:none;fill-rule:nonzero;fill:rgb(0%,0%,0%);fill-opacity:1;" d="M 12.113281 14.449219 L 12.113281 15.355469 L 12.925781 15.355469 L 13.050781 15.851562 C 13.492188 17.625 14.128906 18.933594 15.039062 19.9375 L 15.378906 20.316406 L 14.714844 20.925781 C 14.089844 21.511719 12.773438 22.261719 12.085938 22.429688 C 11.945312 22.457031 11.828125 22.523438 11.847656 22.566406 C 11.867188 22.601562 12.207031 22.988281 12.613281 23.417969 L 13.351562 24.191406 L 13.75 23.9375 C 14.4375 23.484375 15.539062 22.613281 16.203125 22.003906 L 16.824219 21.425781 L 17.84375 21.984375 C 18.792969 22.515625 19.925781 23.019531 21.074219 23.417969 L 21.566406 23.597656 L 21.679688 23.246094 C 21.738281 23.058594 21.953125 22.582031 22.152344 22.214844 C 22.523438 21.53125 22.523438 21.519531 22.3125 21.480469 C 22.191406 21.453125 21.738281 21.359375 21.300781 21.277344 C 20.242188 21.074219 19.191406 20.722656 18.546875 20.363281 C 18.261719 20.203125 18.019531 20.070312 17.996094 20.050781 C 17.988281 20.042969 18.171875 19.691406 18.402344 19.273438 C 19.097656 18.058594 20.070312 15.425781 20.394531 13.953125 L 20.460938 13.652344 L 16.863281 13.652344 C 14.894531 13.652344 13.011719 13.621094 12.691406 13.597656 L 12.113281 13.527344 Z M 18.074219 15.339844 C 18.074219 15.566406 17.449219 17.214844 17.109375 17.898438 C 16.578125 18.960938 16.519531 18.988281 16.132812 18.523438 C 15.46875 17.746094 14.902344 16.550781 14.726562 15.566406 L 14.675781 15.261719 L 16.371094 15.261719 C 17.308594 15.261719 18.074219 15.300781 18.074219 15.339844 Z M 18.074219 15.339844 "/>
<path style=" stroke:none;fill-rule:nonzero;fill:rgb(0%,0%,0%);fill-opacity:1;" d="M 29.5625 17.128906 C 28.9375 18.210938 28.320312 19.082031 27.460938 20.136719 L 26.835938 20.894531 L 27.070312 21.039062 C 27.199219 21.121094 27.566406 21.417969 27.898438 21.691406 C 28.226562 21.976562 28.511719 22.183594 28.523438 22.167969 C 28.917969 21.671875 31.984375 17.511719 31.964844 17.5 C 31.949219 17.480469 31.703125 17.339844 31.417969 17.167969 C 31.132812 16.988281 30.714844 16.707031 30.5 16.535156 L 30.101562 16.210938 Z M 29.5625 17.128906 "/>
<path style=" stroke:none;fill-rule:nonzero;fill:rgb(0%,0%,0%);fill-opacity:1;" d="M 35.625 16.976562 C 35.269531 17.234375 34.925781 17.488281 34.878906 17.539062 C 34.820312 17.597656 35.003906 17.957031 35.332031 18.488281 C 35.636719 18.953125 36.089844 19.746094 36.359375 20.242188 L 36.832031 21.140625 L 37.398438 20.609375 C 37.71875 20.316406 38.078125 20.03125 38.203125 19.972656 C 38.316406 19.925781 38.417969 19.832031 38.417969 19.777344 C 38.417969 19.644531 36.382812 16.488281 36.3125 16.496094 C 36.300781 16.503906 35.996094 16.714844 35.625 16.976562 Z M 35.625 16.976562 "/>
<path style=" stroke:none;fill-rule:nonzero;fill:rgb(0%,0%,0%);fill-opacity:1;" d="M 66.570312 18.933594 C 66.230469 19.398438 65.957031 19.785156 65.957031 19.8125 C 65.964844 19.84375 66.882812 20.410156 68.007812 21.09375 C 69.136719 21.769531 70.707031 22.742188 71.484375 23.265625 L 72.902344 24.191406 L 73.128906 23.929688 C 73.25 23.777344 73.628906 23.339844 73.972656 22.964844 C 74.3125 22.582031 74.574219 22.261719 74.558594 22.238281 C 74.492188 22.191406 69.863281 19.539062 68.558594 18.800781 C 67.886719 18.417969 67.300781 18.109375 67.253906 18.109375 C 67.214844 18.109375 66.914062 18.476562 66.570312 18.933594 Z M 66.570312 18.933594 "/>
<path style=" stroke:none;fill-rule:nonzero;fill:rgb(0%,0%,0%);fill-opacity:1;" d="M 112.53125 19.015625 C 110.59375 19.664062 109.191406 20.011719 107.261719 20.335938 C 106.429688 20.480469 105.652344 20.609375 105.539062 20.628906 C 105.332031 20.667969 105.332031 20.675781 105.652344 21.230469 C 105.832031 21.53125 106.097656 22.050781 106.238281 22.382812 C 106.371094 22.714844 106.496094 22.996094 106.503906 23.019531 C 106.511719 23.027344 106.816406 22.902344 107.175781 22.742188 C 108.132812 22.308594 108.597656 22.15625 111.425781 21.371094 C 112.835938 20.980469 114.054688 20.640625 114.148438 20.609375 C 114.292969 20.5625 114.308594 20.429688 114.308594 19.519531 C 114.308594 18.753906 114.285156 18.488281 114.195312 18.496094 C 114.132812 18.507812 113.382812 18.730469 112.53125 19.015625 Z M 112.53125 19.015625 "/>
</g>
</svg>
