<?xml version="1.0" encoding="UTF-8"?>
<svg xmlns="http://www.w3.org/2000/svg" xmlns:xlink="http://www.w3.org/1999/xlink" width="414pt" height="30pt" viewBox="0 0 414 30" version="1.1">
<g id="surface1">
<path style=" stroke:none;fill-rule:nonzero;fill:rgb(0%,0%,0%);fill-opacity:1;" d="M 329.515625 1.21875 C 329.457031 1.375 329.214844 1.929688 328.972656 2.464844 C 327.511719 5.675781 325.632812 8.394531 323.214844 10.8125 C 322.601562 11.417969 322.101562 11.941406 322.101562 11.988281 C 322.101562 12.023438 322.21875 12.117188 322.371094 12.171875 C 322.507812 12.246094 323.066406 12.652344 323.59375 13.070312 C 324.128906 13.488281 324.605469 13.835938 324.652344 13.835938 C 324.699219 13.835938 325.125 13.371094 325.589844 12.792969 L 326.445312 11.753906 L 326.503906 18.699219 L 326.5625 25.636719 L 326.882812 26.289062 C 327.210938 26.964844 327.648438 27.347656 328.472656 27.6875 C 329.097656 27.929688 343.613281 27.988281 344.792969 27.742188 C 346.261719 27.429688 347.0625 26.652344 347.828125 24.804688 C 348.472656 23.234375 348.472656 23.300781 347.964844 23.210938 C 347.292969 23.105469 346.378906 22.628906 345.800781 22.09375 C 345.199219 21.53125 345.300781 21.441406 344.992188 22.964844 C 344.722656 24.28125 344.574219 24.765625 344.339844 25 C 343.910156 25.429688 343.121094 25.476562 336.507812 25.441406 C 330.777344 25.40625 330.117188 25.382812 329.792969 25.210938 C 329.121094 24.847656 329.050781 24.488281 329.050781 21.757812 L 329.050781 19.304688 L 339.300781 19.304688 L 339.300781 10.578125 L 333.375 10.578125 C 330.105469 10.578125 327.429688 10.558594 327.429688 10.523438 C 327.429688 10.5 327.90625 9.824219 328.484375 9.046875 C 329.0625 8.253906 329.558594 7.546875 329.597656 7.46875 C 329.644531 7.359375 331.136719 7.324219 336.546875 7.324219 L 343.4375 7.324219 L 343.367188 8.339844 C 343.335938 8.90625 343.21875 11.011719 343.121094 13.023438 C 342.882812 18.207031 342.871094 18.265625 341.910156 18.476562 C 341.582031 18.546875 341.015625 18.601562 340.660156 18.601562 C 339.730469 18.601562 339.636719 18.699219 339.949219 19.234375 C 340.089844 19.480469 340.34375 20.09375 340.53125 20.617188 C 340.839844 21.53125 340.878906 21.570312 341.234375 21.605469 C 341.746094 21.648438 343.792969 21.117188 344.296875 20.816406 C 344.769531 20.511719 345.199219 19.800781 345.371094 19.015625 C 345.441406 18.6875 345.625 15.871094 345.789062 12.734375 C 345.960938 9.605469 346.132812 6.675781 346.191406 6.222656 C 346.25 5.777344 346.308594 5.3125 346.308594 5.210938 C 346.308594 5.007812 345.84375 5 338.726562 4.976562 L 331.136719 4.945312 L 331.648438 4.175781 C 331.925781 3.757812 332.402344 3.1875 332.691406 2.90625 L 333.222656 2.394531 L 332.203125 2.035156 C 331.648438 1.824219 330.835938 1.5 330.410156 1.304688 L 329.617188 0.941406 Z M 336.695312 14.941406 L 336.695312 16.976562 L 329.050781 16.976562 L 329.050781 12.90625 L 336.695312 12.90625 Z M 336.695312 14.941406 "/>
<path style=" stroke:none;fill-rule:nonzero;fill:rgb(0%,0%,0%);fill-opacity:1;" d="M 78.886719 1.175781 C 78.722656 1.234375 78.15625 1.394531 77.613281 1.535156 C 77.070312 1.664062 76.570312 1.8125 76.511719 1.871094 C 76.453125 1.917969 76.628906 2.441406 76.871094 3.046875 C 77.128906 3.640625 77.367188 4.246094 77.414062 4.382812 L 77.496094 4.652344 L 65.902344 4.652344 L 65.902344 10.523438 L 68.800781 10.453125 L 68.800781 6.976562 L 78.328125 7 L 87.851562 7.035156 L 87.921875 10.128906 L 89.3125 10.09375 L 90.710938 10.058594 L 90.726562 7.359375 L 90.746094 4.652344 L 80.667969 4.652344 L 80.230469 3.363281 C 79.675781 1.757812 79.371094 1.046875 79.257812 1.058594 C 79.210938 1.058594 79.039062 1.117188 78.886719 1.175781 Z M 78.886719 1.175781 "/>
<path style=" stroke:none;fill-rule:nonzero;fill:rgb(0%,0%,0%);fill-opacity:1;" d="M 146.921875 1.523438 C 146.414062 1.710938 145.878906 1.859375 145.742188 1.859375 C 145.414062 1.859375 145.40625 2.078125 145.691406 2.652344 C 145.878906 3.023438 146.328125 4.3125 146.574219 5.222656 L 146.65625 5.488281 L 143.054688 5.453125 L 139.449219 5.410156 L 139.449219 7.757812 L 142.113281 7.699219 C 143.582031 7.660156 144.777344 7.675781 144.777344 7.734375 C 144.777344 7.777344 144.570312 8.242188 144.324219 8.777344 C 143.144531 11.3125 141.410156 13.277344 140.050781 13.605469 L 139.484375 13.734375 L 139.984375 14.917969 C 140.261719 15.570312 140.492188 16.175781 140.492188 16.265625 C 140.492188 16.347656 140.5625 16.394531 140.667969 16.347656 C 141.035156 16.207031 143.042969 15.898438 143.125 15.976562 C 143.273438 16.117188 143.296875 17.988281 143.167969 19.5 C 142.984375 21.835938 142.359375 23.453125 141.082031 24.894531 C 140.550781 25.5 139.253906 26.535156 138.28125 27.128906 L 137.621094 27.511719 L 138.347656 27.835938 C 138.847656 28.046875 139.261719 28.347656 139.625 28.734375 L 140.167969 29.316406 L 140.757812 28.851562 C 141.582031 28.210938 142.820312 26.976562 143.445312 26.164062 C 144.917969 24.242188 145.519531 21.945312 145.671875 17.699219 L 145.742188 15.582031 L 146.269531 15.582031 C 146.5625 15.582031 147 15.546875 147.246094 15.511719 L 147.675781 15.429688 L 147.675781 20.59375 C 147.675781 23.6875 147.734375 25.964844 147.800781 26.28125 C 147.972656 27.046875 148.390625 27.605469 149.027344 27.921875 C 149.539062 28.171875 149.757812 28.199219 151.601562 28.230469 C 153.847656 28.277344 154.289062 28.210938 154.902344 27.664062 C 155.457031 27.171875 155.828125 26.488281 156.300781 25.09375 C 156.753906 23.757812 156.777344 23.847656 155.839844 23.617188 C 155.585938 23.546875 155.019531 23.28125 154.601562 23.023438 C 154.171875 22.765625 153.800781 22.558594 153.765625 22.558594 C 153.71875 22.558594 153.699219 22.730469 153.699219 22.953125 C 153.699219 23.546875 153.382812 25.046875 153.1875 25.441406 C 152.957031 25.882812 152.816406 25.929688 151.726562 25.929688 C 150.929688 25.929688 150.777344 25.894531 150.488281 25.648438 L 150.164062 25.371094 L 150.164062 15.289062 L 151.078125 15.1875 C 151.839844 15.101562 152.015625 15.117188 152.125 15.257812 C 152.191406 15.363281 152.503906 15.789062 152.808594 16.207031 L 153.363281 16.988281 L 153.90625 16.59375 C 154.207031 16.375 154.75 16.011719 155.121094 15.789062 L 155.78125 15.382812 L 154.683594 13.78125 C 153.535156 12.117188 151.878906 9.941406 151.496094 9.59375 C 151.273438 9.394531 151.242188 9.394531 150.601562 9.847656 C 150.234375 10.105469 149.710938 10.429688 149.4375 10.570312 L 148.933594 10.824219 L 149.203125 11.199219 C 149.363281 11.40625 149.757812 11.929688 150.09375 12.386719 L 150.707031 13.199219 L 149.792969 13.277344 C 148.679688 13.386719 143.808594 13.59375 143.757812 13.546875 C 143.652344 13.445312 146.714844 9.953125 147.328125 9.476562 L 148.023438 8.917969 L 147.105469 8.40625 C 146.597656 8.125 146.144531 7.835938 146.097656 7.765625 C 146.039062 7.6875 147.464844 7.660156 150.964844 7.6875 L 155.894531 7.734375 L 155.894531 5.410156 L 151.53125 5.429688 C 149.121094 5.441406 147.210938 5.429688 147.269531 5.410156 C 147.339844 5.382812 147.824219 5.234375 148.367188 5.070312 C 148.914062 4.917969 149.351562 4.742188 149.351562 4.675781 C 149.351562 4.394531 148.070312 1.175781 147.964844 1.1875 C 147.90625 1.1875 147.429688 1.347656 146.921875 1.523438 Z M 146.921875 1.523438 "/>
<path style=" stroke:none;fill-rule:nonzero;fill:rgb(0%,0%,0%);fill-opacity:1;" d="M 296.089844 1.476562 C 295.949219 2.035156 294.824219 4.777344 294.308594 5.816406 C 292.902344 8.617188 290.78125 11.90625 289.484375 13.277344 C 289.207031 13.582031 288.976562 13.871094 288.976562 13.929688 C 288.976562 13.988281 289.195312 14.230469 289.472656 14.488281 C 289.742188 14.734375 290.179688 15.199219 290.4375 15.511719 L 290.910156 16.070312 L 292.40625 13.976562 C 293.230469 12.8125 293.933594 11.871094 293.992188 11.871094 C 294.199219 11.851562 294.039062 27.753906 293.816406 28.859375 C 293.796875 28.976562 294.132812 29.023438 295.277344 29.046875 L 296.757812 29.082031 L 296.667969 28.8125 C 296.621094 28.664062 296.5625 23.863281 296.539062 18.128906 L 296.492188 7.699219 L 297.074219 6.410156 C 297.78125 4.835938 298.484375 3.601562 299.019531 3.023438 L 299.414062 2.582031 L 298.800781 2.382812 C 298.464844 2.265625 297.746094 1.953125 297.214844 1.671875 C 296.679688 1.394531 296.226562 1.164062 296.203125 1.164062 C 296.183594 1.164062 296.125 1.304688 296.089844 1.476562 Z M 296.089844 1.476562 "/>
<path style=" stroke:none;fill-rule:nonzero;fill:rgb(0%,0%,0%);fill-opacity:1;" d="M 398.253906 2.917969 L 398.347656 4.675781 L 393.265625 4.617188 C 390.460938 4.582031 388.003906 4.511719 387.808594 4.464844 L 387.425781 4.394531 L 387.425781 7 L 387.867188 6.929688 C 388.097656 6.882812 390.550781 6.828125 393.308594 6.789062 L 398.3125 6.71875 L 398.3125 9.652344 L 388.121094 9.652344 L 388.203125 11.011719 C 388.261719 11.765625 388.296875 15.523438 388.296875 19.363281 C 388.296875 23.195312 388.261719 26.953125 388.203125 27.695312 L 388.121094 29.070312 L 390.785156 29.070312 L 390.785156 11.746094 L 408.507812 11.746094 L 408.480469 18.898438 C 408.460938 24.558594 408.414062 26.070312 408.300781 26.1875 C 408.195312 26.289062 407.695312 26.347656 406.769531 26.371094 C 406.003906 26.398438 405.378906 26.429688 405.378906 26.453125 C 405.378906 26.476562 405.609375 27.035156 405.902344 27.707031 C 406.191406 28.386719 406.421875 29 406.421875 29.082031 C 406.421875 29.230469 406.539062 29.21875 408.480469 28.765625 C 409.957031 28.429688 410.324219 28.199219 410.660156 27.417969 C 410.859375 26.953125 410.878906 26.335938 410.960938 18.664062 C 410.996094 14.117188 411.078125 10.230469 411.109375 10.023438 L 411.195312 9.652344 L 400.746094 9.652344 L 400.746094 6.71875 L 406.480469 6.765625 L 412.210938 6.800781 L 412.210938 4.59375 L 406.46875 4.628906 L 400.710938 4.675781 L 400.828125 1.164062 L 398.175781 1.164062 Z M 398.253906 2.917969 "/>
<path style=" stroke:none;fill-rule:nonzero;fill:rgb(0%,0%,0%);fill-opacity:1;" d="M 40.1875 1.640625 C 39.519531 1.8125 38.984375 2 38.996094 2.058594 C 39.007812 2.117188 39.148438 2.683594 39.3125 3.335938 C 39.472656 3.988281 39.609375 4.558594 39.609375 4.601562 C 39.609375 4.640625 38.300781 4.660156 36.714844 4.628906 L 33.808594 4.582031 L 33.84375 5.789062 L 33.878906 6.988281 L 40.515625 7.011719 L 47.140625 7.035156 L 47.140625 4.558594 L 44.730469 4.617188 L 42.320312 4.6875 L 41.972656 3.023438 C 41.789062 2.105469 41.582031 1.347656 41.523438 1.335938 C 41.453125 1.324219 40.859375 1.464844 40.1875 1.640625 Z M 40.1875 1.640625 "/>
<path style=" stroke:none;fill-rule:nonzero;fill:rgb(0%,0%,0%);fill-opacity:1;" d="M 262.511719 1.710938 C 262.3125 2.882812 262.074219 4.09375 261.851562 4.929688 L 261.609375 5.835938 L 259.664062 5.789062 L 257.703125 5.742188 L 257.703125 8.035156 L 259.386719 7.953125 C 260.808594 7.882812 261.0625 7.894531 261.015625 8.035156 C 260.183594 10.652344 259.570312 12.328125 259.082031 13.277344 C 258.945312 13.546875 258.585938 14.011719 258.261719 14.335938 L 257.683594 14.917969 L 258.167969 16.035156 C 258.445312 16.652344 258.664062 17.164062 258.675781 17.175781 C 258.691406 17.1875 259.1875 17.117188 259.789062 17.023438 C 260.390625 16.929688 261.550781 16.828125 262.371094 16.78125 L 263.84375 16.710938 L 263.84375 20.558594 L 263.53125 20.628906 C 263.066406 20.71875 259.441406 21.136719 258.320312 21.234375 L 257.367188 21.300781 L 257.695312 21.964844 C 257.878906 22.324219 258.109375 22.894531 258.214844 23.222656 C 258.328125 23.558594 258.4375 23.835938 258.457031 23.835938 C 258.484375 23.835938 259.039062 23.707031 259.695312 23.558594 C 260.347656 23.398438 261.46875 23.164062 262.164062 23.023438 C 262.871094 22.882812 263.542969 22.746094 263.660156 22.707031 C 263.878906 22.648438 263.878906 22.730469 263.796875 25.976562 L 263.71875 29.300781 L 266.347656 29.300781 L 266.296875 25.824219 L 266.253906 22.359375 L 267.851562 22.117188 C 268.742188 21.976562 269.75 21.847656 270.097656 21.835938 L 270.738281 21.804688 L 270.792969 20.699219 C 270.828125 20.09375 270.839844 19.570312 270.828125 19.542969 C 270.816406 19.523438 270.109375 19.617188 269.261719 19.746094 C 268.417969 19.886719 267.398438 20.023438 267.003906 20.070312 L 266.277344 20.152344 L 266.277344 16.742188 L 268.570312 16.722656 L 270.851562 16.6875 L 270.886719 15.664062 L 270.917969 14.652344 L 266.238281 14.652344 L 266.324219 12.8125 C 266.355469 11.8125 266.425781 10.8125 266.464844 10.605469 L 266.53125 10.230469 L 263.71875 10.230469 L 263.796875 12.445312 L 263.878906 14.652344 L 262.421875 14.652344 C 261.609375 14.652344 260.945312 14.640625 260.945312 14.617188 C 260.945312 14.59375 261.171875 14 261.421875 13.304688 C 261.6875 12.605469 262.234375 11.117188 262.640625 10 L 263.355469 7.964844 L 265.488281 7.964844 C 266.65625 7.964844 268.199219 8 268.914062 8.054688 L 270.222656 8.140625 L 270.191406 6.953125 L 270.15625 5.769531 L 267.109375 5.800781 L 264.050781 5.835938 L 264.132812 5.558594 C 264.527344 4.292969 265.058594 3.023438 265.335938 2.664062 L 265.683594 2.234375 L 265.082031 2.078125 C 264.550781 1.953125 263.3125 1.558594 262.777344 1.335938 C 262.617188 1.277344 262.570312 1.347656 262.511719 1.710938 Z M 262.511719 1.710938 "/>
<path style=" stroke:none;fill-rule:nonzero;fill:rgb(0%,0%,0%);fill-opacity:1;" d="M 306.628906 1.710938 C 306.664062 1.953125 306.730469 3.601562 306.769531 5.371094 L 306.847656 8.605469 L 304.738281 8.605469 C 303.003906 8.605469 302.644531 8.582031 302.644531 8.441406 C 302.644531 8.183594 303.558594 5.59375 303.875 4.964844 C 304.035156 4.660156 304.207031 4.417969 304.265625 4.417969 C 304.332031 4.417969 304.382812 4.371094 304.382812 4.324219 C 304.382812 4.265625 304.054688 4.136719 303.664062 4.023438 C 303.269531 3.917969 302.574219 3.652344 302.113281 3.441406 L 301.277344 3.046875 L 301.023438 4.351562 C 300.515625 6.90625 299.460938 10.058594 298.324219 12.445312 C 298 13.117188 297.722656 13.683594 297.699219 13.722656 C 297.671875 13.753906 298.011719 13.929688 298.441406 14.117188 C 298.878906 14.304688 299.425781 14.582031 299.667969 14.734375 C 299.921875 14.894531 300.128906 15 300.152344 14.976562 C 300.175781 14.953125 300.5625 14.046875 301 12.964844 L 301.8125 10.984375 L 304.3125 10.953125 L 306.8125 10.929688 L 306.8125 16.988281 L 302.390625 16.964844 L 297.957031 16.941406 L 297.917969 18.164062 L 297.886719 19.394531 L 302.367188 19.324219 L 306.839844 19.265625 L 306.769531 23.675781 C 306.730469 26.09375 306.671875 28.300781 306.628906 28.582031 L 306.558594 29.070312 L 309.417969 29.070312 L 309.375 24.171875 L 309.339844 19.265625 L 316.773438 19.382812 L 316.773438 16.722656 L 316.40625 16.789062 C 316.195312 16.839844 314.527344 16.898438 312.699219 16.941406 L 309.359375 17.011719 L 309.359375 10.921875 L 312.605469 10.953125 L 315.847656 10.984375 L 315.847656 8.511719 L 312.59375 8.570312 L 309.339844 8.640625 L 309.40625 5.394531 C 309.445312 3.617188 309.5 1.953125 309.546875 1.710938 L 309.617188 1.277344 L 306.558594 1.277344 Z M 306.628906 1.710938 "/>
<path style=" stroke:none;fill-rule:nonzero;fill:rgb(0%,0%,0%);fill-opacity:1;" d="M 230.511719 4.601562 L 230.570312 7.6875 L 228.320312 7.648438 L 226.085938 7.617188 L 226.085938 10.011719 L 228.03125 10 C 229.097656 10 230.023438 9.988281 230.105469 10 C 230.195312 10 230.148438 10.242188 229.964844 10.777344 C 228.867188 13.988281 227.578125 16.535156 225.703125 19.234375 C 225.160156 20.011719 224.953125 20.40625 225.042969 20.464844 C 225.125 20.511719 225.625 20.988281 226.152344 21.511719 C 226.6875 22.046875 227.152344 22.453125 227.183594 22.429688 C 227.394531 22.210938 228.898438 19.523438 229.628906 18.046875 C 230.117188 17.078125 230.535156 16.277344 230.570312 16.277344 C 230.589844 16.277344 230.589844 19.078125 230.554688 22.5 L 230.484375 28.734375 L 231.84375 28.695312 C 232.988281 28.664062 233.199219 28.640625 233.160156 28.488281 C 233.082031 28.105469 233.042969 10.28125 233.128906 10.140625 C 233.210938 10.023438 233.671875 10 235.152344 10.023438 L 237.085938 10.058594 L 237.085938 7.617188 L 235.085938 7.648438 L 233.070312 7.6875 L 233.042969 7.011719 C 233.023438 6.140625 233.242188 2.117188 233.335938 1.769531 C 233.40625 1.511719 233.40625 1.511719 231.933594 1.511719 L 230.453125 1.511719 Z M 230.511719 4.601562 "/>
<path style=" stroke:none;fill-rule:nonzero;fill:rgb(0%,0%,0%);fill-opacity:1;" d="M 58.015625 1.683594 C 57.898438 1.789062 55.269531 2.429688 53.960938 2.664062 C 53.230469 2.789062 51.980469 2.953125 51.179688 3.023438 C 50.394531 3.09375 49.535156 3.175781 49.285156 3.207031 L 48.820312 3.253906 L 48.820312 10.328125 C 48.820312 17.6875 48.796875 18.09375 48.285156 20.640625 C 47.808594 22.933594 46.734375 25.722656 45.703125 27.230469 C 45.566406 27.441406 45.414062 27.675781 45.367188 27.753906 C 45.277344 27.921875 47.671875 29.105469 47.859375 28.988281 C 48.042969 28.882812 49.1875 26.40625 49.640625 25.140625 C 50.671875 22.300781 51.296875 18.078125 51.308594 14.035156 L 51.308594 13.023438 L 54.679688 13.023438 L 54.609375 28.953125 L 57.15625 28.953125 L 57.125 20.964844 L 57.078125 12.988281 L 58.476562 13.070312 L 59.878906 13.152344 L 59.878906 10.636719 L 55.597656 10.6875 L 51.308594 10.71875 L 51.335938 7.953125 L 51.367188 5.175781 L 53.046875 4.976562 C 53.972656 4.871094 55.558594 4.71875 56.578125 4.652344 C 57.597656 4.582031 58.757812 4.5 59.148438 4.464844 L 59.878906 4.394531 L 59.511719 3.953125 C 59.304688 3.710938 58.898438 3.09375 58.605469 2.570312 C 58.304688 2.058594 58.039062 1.652344 58.015625 1.683594 Z M 58.015625 1.683594 "/>
<path style=" stroke:none;fill-rule:nonzero;fill:rgb(0%,0%,0%);fill-opacity:1;" d="M 273.621094 1.941406 C 272.910156 5.117188 271.570312 8.351562 269.867188 10.953125 C 269.484375 11.535156 269.183594 12.023438 269.195312 12.035156 C 269.21875 12.042969 269.484375 12.128906 269.785156 12.210938 C 270.085938 12.289062 270.628906 12.535156 270.988281 12.742188 C 271.335938 12.964844 271.671875 13.140625 271.707031 13.140625 C 271.757812 13.140625 272.273438 12.21875 272.867188 11.101562 L 273.941406 9.070312 L 277.40625 9.070312 C 279.769531 9.070312 280.871094 9.105469 280.871094 9.199219 C 280.871094 9.253906 280.640625 10.035156 280.351562 10.921875 C 280.058594 11.804688 279.828125 12.570312 279.828125 12.625 C 279.828125 12.722656 282.363281 13.316406 282.433594 13.230469 C 282.445312 13.210938 282.621094 12.558594 282.828125 11.765625 C 283.035156 10.976562 283.429688 9.617188 283.71875 8.746094 C 283.996094 7.882812 284.230469 7.125 284.230469 7.066406 C 284.230469 7.023438 282.066406 6.976562 279.421875 6.976562 C 276.78125 6.976562 274.613281 6.953125 274.613281 6.929688 C 274.613281 6.90625 274.800781 6.429688 275.03125 5.859375 C 275.554688 4.535156 276.167969 3.40625 276.605469 2.953125 C 277 2.535156 276.980469 2.5 276.191406 2.394531 C 275.703125 2.3125 274.453125 1.941406 273.898438 1.699219 C 273.75 1.625 273.675781 1.671875 273.621094 1.941406 Z M 273.621094 1.941406 "/>
<path style=" stroke:none;fill-rule:nonzero;fill:rgb(0%,0%,0%);fill-opacity:1;" d="M 133.429688 2.40625 C 133.230469 3.3125 132.824219 4.417969 132.074219 6.105469 C 130.925781 8.617188 129.917969 10.058594 128.980469 10.546875 C 128.78125 10.636719 128.597656 10.746094 128.585938 10.765625 C 128.5625 10.777344 128.714844 11.328125 128.921875 11.980469 C 129.289062 13.101562 129.316406 13.152344 129.605469 13.070312 C 131.03125 12.710938 134.238281 12.328125 134.238281 12.523438 C 134.238281 12.664062 132.824219 15.058594 132.191406 15.988281 C 131.527344 16.976562 130.796875 17.664062 130.101562 17.988281 C 129.765625 18.152344 129.488281 18.3125 129.488281 18.371094 C 129.488281 18.464844 130.3125 20.71875 130.378906 20.800781 C 130.390625 20.828125 130.824219 20.746094 131.308594 20.601562 C 132.804688 20.195312 133.730469 20.023438 135.917969 19.777344 C 139.335938 19.382812 138.953125 19.5 139.042969 18.800781 C 139.089844 18.464844 139.230469 17.941406 139.347656 17.628906 C 139.464844 17.304688 139.542969 17.035156 139.519531 17.011719 C 139.496094 16.988281 138.835938 17.078125 138.050781 17.207031 C 136.101562 17.523438 133.648438 17.8125 133.578125 17.742188 C 133.5 17.664062 136.820312 12.335938 137.832031 10.90625 C 138.246094 10.328125 138.859375 9.558594 139.199219 9.199219 C 139.566406 8.804688 139.738281 8.535156 139.65625 8.5 C 139.464844 8.429688 137.632812 7.476562 137.167969 7.195312 C 136.761719 6.945312 136.761719 6.953125 136.554688 7.617188 C 136.472656 7.875 136.175781 8.59375 135.882812 9.210938 L 135.363281 10.347656 L 134.527344 10.347656 C 134.066406 10.347656 133.289062 10.386719 132.804688 10.417969 L 131.910156 10.5 L 132.59375 9.347656 C 132.964844 8.71875 133.707031 7.417969 134.25 6.464844 C 134.78125 5.511719 135.523438 4.371094 135.894531 3.929688 C 136.265625 3.488281 136.554688 3.105469 136.53125 3.078125 C 136.507812 3.058594 134.421875 2.105469 133.695312 1.789062 C 133.613281 1.742188 133.507812 1.964844 133.429688 2.40625 Z M 133.429688 2.40625 "/>
<path style=" stroke:none;fill-rule:nonzero;fill:rgb(0%,0%,0%);fill-opacity:1;" d="M 358.34375 1.824219 C 358.332031 1.882812 358.34375 3.371094 358.355469 5.164062 L 358.375 8.40625 L 356.539062 8.3125 C 355.527344 8.269531 354.660156 8.222656 354.589844 8.210938 C 354.519531 8.210938 354.460938 8.675781 354.441406 9.382812 L 354.40625 10.578125 L 358.355469 10.578125 L 358.332031 13.160156 L 358.296875 15.753906 L 357.023438 16.1875 C 356.328125 16.417969 355.242188 16.730469 354.613281 16.871094 C 354 17.023438 353.503906 17.164062 353.515625 17.195312 C 353.570312 17.3125 354.5 19.699219 354.578125 19.917969 C 354.648438 20.125 354.660156 20.125 355.015625 19.90625 C 355.992188 19.3125 357.972656 18.371094 358.253906 18.371094 C 358.308594 18.371094 358.355469 19.941406 358.355469 21.859375 C 358.355469 26.1875 358.492188 25.882812 356.523438 25.765625 C 355.285156 25.695312 355.203125 25.707031 355.285156 25.894531 C 355.332031 26.011719 355.507812 26.664062 355.679688 27.359375 L 355.980469 28.605469 L 356.675781 28.535156 C 357.800781 28.417969 359.058594 28.140625 359.523438 27.894531 C 359.769531 27.78125 360.101562 27.5 360.265625 27.277344 C 360.855469 26.488281 360.902344 26.128906 360.902344 21.628906 L 360.902344 17.476562 L 361.691406 17.128906 C 362.121094 16.929688 362.757812 16.671875 363.101562 16.554688 L 363.738281 16.347656 L 363.738281 13.625 L 363.21875 13.835938 C 362.929688 13.953125 362.339844 14.210938 361.910156 14.40625 C 361.46875 14.605469 361.066406 14.769531 361.007812 14.769531 C 360.949219 14.769531 360.902344 13.851562 360.902344 12.675781 L 360.902344 10.578125 L 364.03125 10.578125 L 364.03125 8.222656 L 362.457031 8.289062 L 360.871094 8.371094 L 360.929688 5.058594 L 360.992188 1.742188 L 359.675781 1.742188 C 358.945312 1.742188 358.355469 1.78125 358.34375 1.824219 Z M 358.34375 1.824219 "/>
<path style=" stroke:none;fill-rule:nonzero;fill:rgb(0%,0%,0%);fill-opacity:1;" d="M 365.09375 6.710938 C 365.132812 12.160156 365.117188 12.023438 365.859375 12.8125 C 366.355469 13.359375 366.855469 13.394531 372.660156 13.347656 C 378.671875 13.316406 378.597656 13.316406 379.378906 12.417969 C 379.714844 12.011719 380.824219 9.636719 380.824219 9.3125 C 380.824219 9.242188 380.605469 9.140625 380.339844 9.070312 C 379.632812 8.894531 379.007812 8.605469 378.472656 8.222656 C 378.230469 8.035156 378.011719 7.90625 377.988281 7.929688 C 377.960938 7.953125 377.835938 8.453125 377.710938 9.046875 C 377.40625 10.417969 377.269531 10.707031 376.769531 10.964844 C 376.402344 11.152344 375.996094 11.164062 372.289062 11.140625 C 367.285156 11.09375 367.679688 11.269531 367.679688 9.222656 L 367.679688 7.859375 L 368.488281 7.699219 C 369.195312 7.558594 370.320312 7.3125 374.394531 6.394531 C 374.90625 6.28125 375.648438 6.105469 376.039062 6.003906 C 376.421875 5.894531 377.1875 5.730469 377.722656 5.628906 C 379.191406 5.359375 379.144531 5.421875 378.40625 4.710938 C 377.902344 4.234375 376.980469 3.058594 376.828125 2.710938 C 376.820312 2.699219 376.355469 2.917969 375.796875 3.222656 C 374.5 3.898438 373.679688 4.222656 372.402344 4.601562 C 371.050781 5 367.828125 5.699219 367.710938 5.628906 C 367.667969 5.59375 367.652344 4.710938 367.703125 3.652344 L 367.769531 1.742188 L 365.0625 1.742188 Z M 365.09375 6.710938 "/>
<path style=" stroke:none;fill-rule:nonzero;fill:rgb(0%,0%,0%);fill-opacity:1;" d="M 5.039062 6.105469 L 5.039062 10.347656 L 23.453125 10.347656 L 23.433594 6.140625 L 23.421875 1.917969 L 14.222656 1.882812 L 5.039062 1.859375 Z M 20.824219 4.558594 L 20.859375 5.234375 L 7.644531 5.234375 L 7.644531 3.835938 L 14.222656 3.859375 L 20.789062 3.898438 Z M 20.847656 7.847656 L 20.847656 8.488281 L 7.644531 8.488281 L 7.644531 7.210938 L 20.847656 7.210938 Z M 20.847656 7.847656 "/>
<path style=" stroke:none;fill-rule:nonzero;fill:rgb(0%,0%,0%);fill-opacity:1;" d="M 210.273438 2.164062 C 209.707031 2.3125 209.121094 2.441406 208.976562 2.441406 C 208.839844 2.441406 208.6875 2.488281 208.65625 2.558594 C 208.558594 2.722656 209.429688 4.894531 210.183594 6.359375 C 211.5625 9.046875 212.351562 10.242188 213.878906 11.921875 C 214.675781 12.804688 217.757812 15.554688 218.253906 15.839844 C 218.359375 15.898438 218.546875 15.710938 218.824219 15.257812 C 219.261719 14.535156 219.898438 13.8125 220.503906 13.359375 L 220.898438 13.058594 L 220.027344 12.710938 C 218.3125 12 216.695312 10.765625 215.160156 8.988281 C 213.425781 6.953125 212.222656 4.871094 211.667969 2.941406 C 211.503906 2.382812 211.363281 1.917969 211.34375 1.917969 C 211.332031 1.90625 210.855469 2.011719 210.273438 2.164062 Z M 210.273438 2.164062 "/>
<path style=" stroke:none;fill-rule:nonzero;fill:rgb(0%,0%,0%);fill-opacity:1;" d="M 248.820312 2.21875 C 247.335938 2.8125 243.550781 3.476562 240.367188 3.699219 C 239.578125 3.757812 238.917969 3.828125 238.882812 3.859375 C 238.847656 3.898438 238.871094 5.535156 238.953125 7.511719 C 239.253906 15.640625 238.742188 19.8125 237.019531 23.339844 C 236.429688 24.546875 235.945312 25.230469 235.039062 26.171875 L 234.425781 26.8125 L 235.144531 27.160156 C 235.539062 27.347656 236.195312 27.753906 236.601562 28.070312 C 237.007812 28.375 237.378906 28.582031 237.425781 28.535156 C 238.015625 27.835938 239.53125 25.011719 240.03125 23.699219 C 240.832031 21.53125 241.605469 16.753906 241.605469 13.859375 L 241.605469 13.023438 L 246.136719 13.023438 L 246.097656 20.757812 L 246.066406 28.488281 L 248.730469 28.488281 L 248.695312 20.730469 L 248.644531 12.988281 L 250.746094 13.058594 L 252.839844 13.128906 L 252.839844 10.753906 L 247.222656 10.792969 L 241.605469 10.835938 L 241.605469 8.382812 C 241.605469 5.945312 241.605469 5.929688 241.871094 5.871094 C 242.4375 5.757812 248.601562 5.210938 250.140625 5.152344 L 251.773438 5.082031 L 251.171875 4.195312 C 250.835938 3.699219 250.386719 2.976562 250.167969 2.582031 C 249.957031 2.1875 249.75 1.859375 249.714844 1.871094 C 249.675781 1.882812 249.285156 2.035156 248.820312 2.21875 Z M 248.820312 2.21875 "/>
<path style=" stroke:none;fill-rule:nonzero;fill:rgb(0%,0%,0%);fill-opacity:1;" d="M 178.585938 2.40625 C 178.585938 2.453125 178.585938 4.511719 178.601562 6.953125 L 178.609375 11.417969 L 174.671875 11.371094 L 170.722656 11.335938 L 170.722656 13.851562 L 174.660156 13.769531 L 178.609375 13.683594 L 178.574219 21.371094 L 178.542969 29.070312 L 181.207031 29.070312 L 181.160156 21.371094 L 181.121094 13.683594 L 184.769531 13.742188 L 188.417969 13.8125 L 188.433594 12.570312 L 188.433594 11.335938 L 184.769531 11.386719 L 181.109375 11.417969 L 181.160156 6.90625 L 181.207031 2.382812 L 179.910156 2.347656 C 179.1875 2.335938 178.601562 2.359375 178.585938 2.40625 Z M 178.585938 2.40625 "/>
<path style=" stroke:none;fill-rule:nonzero;fill:rgb(0%,0%,0%);fill-opacity:1;" d="M 202.113281 3.90625 C 200.835938 6.335938 199.957031 7.707031 198.507812 9.488281 C 197.375 10.882812 195.046875 12.953125 193.632812 13.824219 C 193.390625 13.964844 193.191406 14.128906 193.191406 14.160156 C 193.203125 14.210938 193.5625 14.464844 194.003906 14.742188 C 194.441406 15.023438 195.066406 15.488281 195.394531 15.78125 L 195.984375 16.316406 L 196.34375 15.976562 C 198.347656 14.082031 201.507812 10.105469 203.964844 6.394531 C 204.367188 5.789062 204.96875 4.945312 205.308594 4.523438 L 205.910156 3.757812 L 205.257812 3.488281 C 204.902344 3.351562 204.226562 3.023438 203.769531 2.78125 L 202.933594 2.335938 Z M 202.113281 3.90625 "/>
<path style=" stroke:none;fill-rule:nonzero;fill:rgb(0%,0%,0%);fill-opacity:1;" d="M 100.292969 2.523438 C 100.292969 2.582031 100.292969 5.59375 100.304688 9.242188 C 100.3125 16.246094 100.222656 18.652344 99.828125 20.828125 C 99.410156 23.210938 98.484375 25.535156 97.339844 27.101562 L 96.835938 27.765625 L 97.789062 28.257812 C 98.3125 28.523438 98.878906 28.851562 99.050781 28.964844 C 99.214844 29.082031 99.398438 29.1875 99.457031 29.1875 C 99.652344 29.1875 101.207031 25.804688 101.691406 24.324219 C 102.15625 22.953125 102.632812 20.828125 102.792969 19.394531 L 102.871094 18.71875 L 109.371094 18.71875 L 109.253906 28.023438 L 112.058594 28.023438 L 112.023438 23.371094 L 111.980469 18.71875 L 118.949219 18.71875 L 118.949219 21.53125 C 118.949219 25.648438 118.960938 25.617188 117.046875 25.675781 C 116.308594 25.707031 115.707031 25.765625 115.707031 25.8125 C 115.707031 25.863281 115.835938 26.1875 115.996094 26.523438 C 116.144531 26.871094 116.363281 27.535156 116.480469 28 L 116.679688 28.851562 L 117.144531 28.78125 C 117.957031 28.652344 119.78125 28.128906 120.246094 27.894531 C 120.722656 27.652344 121.148438 27.140625 121.394531 26.515625 C 121.519531 26.171875 121.566406 23.976562 121.613281 14.359375 C 121.648438 7.894531 121.660156 2.582031 121.636719 2.523438 C 121.613281 2.476562 116.808594 2.441406 110.949219 2.441406 C 105.097656 2.441406 100.304688 2.476562 100.292969 2.523438 Z M 109.335938 7.210938 L 109.335938 9.652344 L 102.851562 9.652344 L 102.851562 4.769531 L 109.335938 4.769531 Z M 118.949219 7.210938 L 118.949219 9.652344 L 112 9.652344 L 112 4.769531 L 118.949219 4.769531 Z M 109.335938 14.1875 L 109.335938 16.511719 L 102.851562 16.511719 L 102.851562 11.863281 L 109.335938 11.863281 Z M 118.949219 14.1875 L 118.949219 16.511719 L 112 16.511719 L 112 11.863281 L 118.949219 11.863281 Z M 118.949219 14.1875 "/>
<path style=" stroke:none;fill-rule:nonzero;fill:rgb(0%,0%,0%);fill-opacity:1;" d="M 165.230469 3.136719 C 164.59375 3.523438 164.0625 3.859375 164.050781 3.871094 C 164.027344 3.898438 164.652344 4.90625 165.429688 6.125 C 166.203125 7.351562 166.914062 8.453125 166.992188 8.59375 C 167.132812 8.835938 167.132812 8.835938 167.746094 8.453125 C 168.070312 8.230469 168.628906 7.917969 168.964844 7.734375 C 169.296875 7.546875 169.550781 7.351562 169.53125 7.28125 C 169.492188 7.210938 168.835938 6.175781 168.046875 4.988281 C 167.261719 3.800781 166.566406 2.742188 166.496094 2.640625 C 166.390625 2.464844 166.242188 2.523438 165.230469 3.136719 Z M 165.230469 3.136719 "/>
<path style=" stroke:none;fill-rule:nonzero;fill:rgb(0%,0%,0%);fill-opacity:1;" d="M 42.621094 7.394531 C 42.621094 7.617188 41.464844 11.3125 41.363281 11.429688 C 41.3125 11.476562 40.390625 11.5 39.3125 11.488281 L 37.351562 11.453125 L 38.164062 11.171875 C 38.617188 11.023438 39.023438 10.863281 39.078125 10.8125 C 39.15625 10.734375 37.816406 7.488281 37.65625 7.394531 C 37.617188 7.371094 37.132812 7.558594 36.578125 7.816406 L 35.566406 8.28125 L 35.847656 8.824219 C 36.101562 9.339844 36.945312 11.386719 36.945312 11.488281 C 36.945312 11.523438 36.089844 11.523438 35.039062 11.488281 L 33.125 11.417969 L 33.125 13.988281 L 36.25 13.894531 L 39.378906 13.8125 L 39.378906 16.546875 L 36.542969 16.488281 L 33.703125 16.417969 L 33.703125 18.976562 L 36.542969 18.898438 L 39.378906 18.800781 L 39.378906 22.175781 C 39.378906 25.289062 39.371094 25.558594 39.171875 25.734375 C 38.996094 25.894531 38.707031 25.929688 37.734375 25.929688 L 36.507812 25.929688 L 36.890625 26.664062 C 37.097656 27.058594 37.363281 27.6875 37.480469 28.070312 L 37.6875 28.742188 L 38.53125 28.675781 C 40.234375 28.511719 41.117188 28.082031 41.582031 27.152344 C 41.882812 26.535156 41.890625 26.347656 41.929688 19.601562 L 41.929688 18.800781 L 44.652344 18.898438 L 47.371094 18.976562 L 47.371094 16.417969 L 44.625 16.488281 L 41.871094 16.546875 L 41.902344 15.1875 L 41.9375 13.8125 L 44.753906 13.894531 L 47.578125 13.988281 L 47.636719 13.070312 C 47.671875 12.558594 47.695312 11.988281 47.6875 11.804688 L 47.660156 11.453125 L 45.667969 11.5 L 43.675781 11.535156 L 44.070312 10.546875 C 44.558594 9.347656 44.871094 8.765625 45.25 8.351562 L 45.539062 8.046875 L 44.859375 7.847656 C 43.132812 7.324219 42.621094 7.222656 42.621094 7.394531 Z M 42.621094 7.394531 "/>
<path style=" stroke:none;fill-rule:nonzero;fill:rgb(0%,0%,0%);fill-opacity:1;" d="M 71.726562 8.71875 L 70.78125 9.734375 L 71.082031 9.871094 C 71.546875 10.082031 73.828125 11.851562 74.855469 12.777344 C 75.355469 13.230469 75.792969 13.605469 75.839844 13.605469 C 75.886719 13.605469 76.027344 13.417969 76.15625 13.1875 C 76.28125 12.953125 76.683594 12.488281 77.058594 12.152344 L 77.730469 11.535156 L 76.710938 10.734375 C 75.691406 9.917969 73.015625 7.894531 72.796875 7.765625 C 72.738281 7.734375 72.25 8.164062 71.726562 8.71875 Z M 71.726562 8.71875 "/>
<path style=" stroke:none;fill-rule:nonzero;fill:rgb(0%,0%,0%);fill-opacity:1;" d="M 78.804688 10.164062 C 78.886719 12.246094 78.734375 16.742188 78.574219 17.394531 L 78.503906 17.6875 L 72.085938 17.652344 L 65.671875 17.613281 L 65.671875 20.125 L 71.808594 20.046875 C 76.15625 19.988281 77.949219 20 77.949219 20.078125 C 77.949219 20.511719 75.808594 22.746094 74.679688 23.488281 C 73.085938 24.535156 70.097656 25.664062 67.335938 26.230469 L 65.808594 26.546875 L 66.539062 27.21875 C 66.945312 27.605469 67.40625 28.1875 67.59375 28.546875 C 67.988281 29.316406 67.847656 29.316406 70.1875 28.488281 C 73.777344 27.210938 75.550781 26.28125 77.542969 24.617188 C 78.933594 23.453125 79.6875 22.476562 80.945312 20.234375 C 81.027344 20.078125 81.738281 20.058594 86.394531 20.078125 L 91.730469 20.105469 L 91.730469 17.613281 L 86.519531 17.652344 C 82.5 17.6875 81.308594 17.664062 81.308594 17.546875 C 81.308594 16.59375 81.699219 10.578125 81.828125 9.707031 C 82.003906 8.417969 81.992188 8.382812 81.308594 8.371094 C 81.085938 8.371094 80.417969 8.269531 79.8125 8.152344 L 78.722656 7.941406 Z M 78.804688 10.164062 "/>
<path style=" stroke:none;fill-rule:nonzero;fill:rgb(0%,0%,0%);fill-opacity:1;" d="M 161.109375 12.617188 L 161.109375 13.988281 L 161.839844 13.917969 C 162.234375 13.871094 163.195312 13.800781 163.980469 13.769531 L 165.40625 13.683594 L 165.371094 19.078125 C 165.328125 24.992188 165.335938 24.875 164.585938 26.164062 L 164.28125 26.6875 L 165.210938 27.335938 C 165.730469 27.695312 166.25 28.105469 166.367188 28.246094 C 166.496094 28.375 166.621094 28.488281 166.667969 28.488281 C 166.714844 28.488281 167.085938 28.046875 167.480469 27.5 C 167.875 26.953125 168.628906 26.046875 169.148438 25.488281 C 169.667969 24.929688 170.605469 23.90625 171.21875 23.210938 L 172.34375 21.945312 L 171.941406 21.394531 C 171.707031 21.082031 171.40625 20.570312 171.265625 20.234375 L 171 19.628906 L 169.460938 21.394531 L 167.933594 23.171875 L 167.964844 17.289062 L 168 11.398438 L 165.269531 11.398438 C 163.761719 11.398438 162.207031 11.359375 161.8125 11.328125 L 161.109375 11.242188 Z M 161.109375 12.617188 "/>
<path style=" stroke:none;fill-rule:nonzero;fill:rgb(0%,0%,0%);fill-opacity:1;" d="M 274.929688 13.511719 C 274.894531 14.871094 274.800781 16.1875 274.671875 16.859375 C 273.96875 20.769531 271.859375 24.242188 268.914062 26.335938 C 268.386719 26.707031 267.910156 27.058594 267.863281 27.101562 C 267.804688 27.140625 268.011719 27.335938 268.328125 27.523438 C 268.871094 27.871094 269.984375 28.917969 269.984375 29.09375 C 269.984375 29.382812 270.433594 29.03125 271.558594 27.871094 C 273.871094 25.5 274.871094 24.023438 275.890625 21.488281 C 276.191406 20.71875 276.46875 20.078125 276.488281 20.058594 C 276.515625 20.023438 276.65625 20.359375 276.792969 20.800781 C 277.3125 22.410156 278.414062 24.3125 279.640625 25.734375 C 280.207031 26.398438 282.863281 28.722656 283.046875 28.722656 C 283.09375 28.722656 283.230469 28.546875 283.347656 28.328125 C 283.613281 27.835938 284.515625 26.894531 284.960938 26.675781 C 285.132812 26.582031 285.269531 26.488281 285.269531 26.453125 C 285.269531 26.429688 284.921875 26.210938 284.496094 25.976562 C 282.941406 25.113281 282.066406 24.464844 281.042969 23.429688 C 279.816406 22.183594 279.074219 21 278.492188 19.371094 C 277.847656 17.570312 277.707031 16.476562 277.765625 13.824219 L 277.824219 11.546875 L 276.714844 11.464844 C 276.097656 11.429688 275.460938 11.359375 275.296875 11.328125 L 274.988281 11.257812 Z M 274.929688 13.511719 "/>
<path style=" stroke:none;fill-rule:nonzero;fill:rgb(0%,0%,0%);fill-opacity:1;" d="M 69.675781 12.5 C 69.445312 12.859375 69.066406 13.359375 68.832031 13.617188 C 68.601562 13.871094 68.441406 14.089844 68.464844 14.117188 C 68.484375 14.128906 68.925781 14.335938 69.425781 14.570312 C 70.429688 15.046875 71.84375 16 72.875 16.882812 L 73.539062 17.453125 L 74.589844 16.382812 C 75.15625 15.800781 75.632812 15.316406 75.632812 15.289062 C 75.632812 15.175781 70.339844 11.863281 70.152344 11.863281 C 70.128906 11.863281 69.910156 12.152344 69.675781 12.5 Z M 69.675781 12.5 "/>
<path style=" stroke:none;fill-rule:nonzero;fill:rgb(0%,0%,0%);fill-opacity:1;" d="M 395.046875 12.605469 C 394.632812 12.953125 394.246094 13.304688 394.199219 13.371094 C 394.15625 13.445312 394.355469 13.800781 394.644531 14.160156 C 395.199219 14.882812 396.230469 16.441406 396.230469 16.582031 C 396.230469 16.664062 393.921875 16.554688 393.195312 16.441406 L 392.753906 16.363281 L 392.753906 18.835938 L 395.648438 18.769531 L 398.546875 18.6875 L 398.546875 20.847656 L 395.683594 20.769531 C 394.097656 20.71875 392.59375 20.660156 392.324219 20.628906 L 391.828125 20.558594 L 391.828125 22.964844 L 395.210938 22.933594 L 398.578125 22.882812 L 398.511719 25.457031 L 398.441406 28.023438 L 401.046875 28.023438 L 401 25.457031 L 400.957031 22.894531 L 404.269531 22.933594 L 407.578125 22.964844 L 407.578125 20.71875 L 404.277344 20.789062 L 400.976562 20.847656 L 400.976562 18.6875 L 403.871094 18.753906 L 406.769531 18.8125 L 406.769531 16.546875 L 404.914062 16.605469 C 403.894531 16.640625 403.0625 16.628906 403.0625 16.582031 C 403.0625 16.546875 403.28125 16.105469 403.5625 15.617188 C 404.101562 14.625 404.605469 14.058594 405.136719 13.824219 C 405.332031 13.734375 405.496094 13.636719 405.496094 13.605469 C 405.496094 13.558594 402.933594 12.359375 402.691406 12.289062 C 402.644531 12.277344 402.285156 12.917969 401.90625 13.722656 C 401.523438 14.523438 401 15.5 400.746094 15.898438 L 400.292969 16.628906 L 396.519531 16.628906 L 397.09375 16.21875 C 398.347656 15.335938 398.28125 15.417969 398.0625 15.046875 C 397.746094 14.5 395.941406 11.980469 395.871094 11.980469 C 395.835938 11.980469 395.464844 12.269531 395.046875 12.605469 Z M 395.046875 12.605469 "/>
<path style=" stroke:none;fill-rule:nonzero;fill:rgb(0%,0%,0%);fill-opacity:1;" d="M 0.925781 13.230469 L 0.925781 14.324219 L 2.546875 14.246094 L 4.171875 14.148438 L 4.144531 19.136719 L 4.113281 24.128906 L 3.589844 24.210938 C 3.300781 24.242188 2.640625 24.289062 2.121094 24.300781 C 1.414062 24.324219 1.160156 24.371094 1.160156 24.488281 C 1.160156 24.570312 1.34375 25.152344 1.566406 25.78125 C 1.792969 26.40625 1.992188 26.976562 2.023438 27.058594 C 2.0625 27.160156 2.179688 27.160156 2.457031 27.082031 C 4.230469 26.558594 9.3125 25.382812 10.804688 25.171875 L 11.351562 25.09375 L 11.351562 28.488281 L 13.839844 28.488281 L 13.839844 24.707031 L 14.570312 24.605469 L 15.289062 24.488281 L 15.289062 23.351562 C 15.289062 22.71875 15.253906 22.210938 15.207031 22.210938 C 15.148438 22.210938 14.859375 22.292969 14.550781 22.382812 C 14.234375 22.476562 13.933594 22.558594 13.875 22.558594 C 13.828125 22.558594 13.785156 20.660156 13.785156 18.363281 L 13.785156 14.160156 L 20.441406 14.210938 L 27.101562 14.246094 L 27.101562 12.152344 L 0.925781 12.152344 Z M 11.351562 15.117188 L 11.351562 16.046875 L 6.601562 16.046875 L 6.601562 14.1875 L 11.351562 14.1875 Z M 11.351562 18.898438 L 11.351562 19.769531 L 6.601562 19.769531 L 6.601562 18.019531 L 11.351562 18.019531 Z M 11.292969 22.382812 L 11.292969 23.082031 L 9.148438 23.398438 C 7.96875 23.558594 6.917969 23.707031 6.808594 23.707031 C 6.625 23.722656 6.601562 23.589844 6.601562 22.675781 L 6.601562 21.628906 L 8.953125 21.648438 L 11.292969 21.6875 Z M 11.292969 22.382812 "/>
<path style=" stroke:none;fill-rule:nonzero;fill:rgb(0%,0%,0%);fill-opacity:1;" d="M 198.984375 14.734375 L 198.984375 15.929688 L 202.917969 15.929688 L 202.863281 16.246094 C 202.839844 16.429688 202.746094 16.964844 202.679688 17.441406 C 202.261719 20.152344 201.300781 22 199.5625 23.429688 C 198.519531 24.289062 197.210938 25.054688 195.703125 25.695312 C 195.019531 25.988281 194.464844 26.257812 194.464844 26.289062 C 194.464844 26.335938 194.671875 26.515625 194.929688 26.6875 C 195.414062 27.023438 196.25 27.882812 196.5625 28.375 L 196.75 28.664062 L 197.488281 28.210938 C 201.75 25.59375 203.453125 23.847656 204.496094 21.046875 C 204.84375 20.117188 205.355469 17.90625 205.527344 16.476562 L 205.59375 15.929688 L 208.457031 15.917969 C 210.035156 15.917969 211.402344 15.898438 211.503906 15.871094 C 212.015625 15.78125 212.015625 15.851562 211.574219 19.988281 C 211.132812 24.070312 210.984375 24.757812 210.53125 24.976562 C 210.390625 25.046875 209.546875 25.128906 208.65625 25.164062 C 207.761719 25.199219 207.019531 25.222656 207.011719 25.222656 C 207 25.230469 207.195312 25.636719 207.4375 26.140625 C 207.683594 26.636719 207.984375 27.375 208.089844 27.765625 C 208.203125 28.160156 208.320312 28.488281 208.363281 28.488281 C 208.558594 28.488281 211.769531 27.652344 212.09375 27.523438 C 212.652344 27.277344 213.195312 26.664062 213.460938 25.976562 C 213.613281 25.546875 213.84375 23.964844 214.214844 20.671875 C 214.503906 18.09375 214.816406 15.464844 214.910156 14.824219 C 215 14.199219 215.058594 13.664062 215.046875 13.652344 C 215.039062 13.636719 211.410156 13.605469 207.011719 13.582031 L 198.984375 13.535156 Z M 198.984375 14.734375 "/>
<path style=" stroke:none;fill-rule:nonzero;fill:rgb(0%,0%,0%);fill-opacity:1;" d="M 234.367188 14.011719 C 233.855469 14.304688 233.390625 14.546875 233.324219 14.570312 C 233.269531 14.59375 233.324219 14.824219 233.476562 15.070312 C 233.625 15.316406 234.148438 16.335938 234.632812 17.324219 L 235.523438 19.136719 L 236.222656 18.652344 C 236.601562 18.371094 237.113281 18.058594 237.355469 17.957031 C 237.589844 17.847656 237.78125 17.710938 237.78125 17.664062 C 237.78125 17.570312 237.171875 16.417969 236.011719 14.324219 C 235.757812 13.871094 235.488281 13.488281 235.421875 13.5 C 235.351562 13.5 234.875 13.734375 234.367188 14.011719 Z M 234.367188 14.011719 "/>
<path style=" stroke:none;fill-rule:nonzero;fill:rgb(0%,0%,0%);fill-opacity:1;" d="M 365.339844 17.289062 C 365.398438 18.371094 365.410156 21.429688 365.375 24.09375 L 365.316406 28.953125 L 367.96875 28.953125 L 367.96875 26.746094 L 375.960938 26.746094 L 375.960938 28.605469 L 378.566406 28.605469 L 378.566406 15.347656 L 365.246094 15.347656 Z M 375.960938 18.71875 L 375.960938 19.886719 L 367.96875 19.886719 L 367.96875 17.558594 L 375.960938 17.558594 Z M 375.960938 23.3125 L 375.960938 24.535156 L 367.96875 24.535156 L 367.96875 22.09375 L 375.960938 22.09375 Z M 375.960938 23.3125 "/>
<path style=" stroke:none;fill-rule:nonzero;fill:rgb(0%,0%,0%);fill-opacity:1;" d="M 14.59375 17.023438 L 14.59375 18.136719 L 15.589844 18.136719 L 15.808594 18.976562 C 16.296875 20.90625 17 22.371094 18.046875 23.589844 L 18.578125 24.222656 L 17.78125 24.964844 C 17.011719 25.6875 15.402344 26.605469 14.558594 26.8125 C 14.382812 26.847656 14.246094 26.929688 14.265625 26.976562 C 14.292969 27.023438 14.710938 27.488281 15.207031 28.023438 L 16.097656 28.976562 L 16.425781 28.765625 C 17.199219 28.269531 18.890625 26.941406 19.597656 26.289062 L 20.359375 25.578125 L 21.609375 26.269531 C 22.769531 26.921875 24.160156 27.535156 25.5625 28.023438 L 26.164062 28.246094 L 26.304688 27.8125 C 26.371094 27.582031 26.636719 27 26.882812 26.546875 C 27.335938 25.707031 27.335938 25.695312 27.078125 25.648438 C 26.929688 25.617188 26.371094 25.5 25.839844 25.398438 C 24.542969 25.152344 23.257812 24.722656 22.46875 24.28125 C 22.121094 24.082031 21.820312 23.917969 21.796875 23.894531 C 21.785156 23.882812 22.007812 23.453125 22.292969 22.941406 C 23.144531 21.453125 24.335938 18.222656 24.730469 16.417969 L 24.808594 16.046875 L 20.410156 16.046875 C 18 16.046875 15.691406 16.011719 15.296875 15.976562 L 14.59375 15.898438 Z M 21.890625 18.117188 C 21.890625 18.394531 21.125 20.40625 20.71875 21.222656 C 20.035156 22.570312 19.992188 22.605469 19.515625 22.035156 C 18.707031 21.070312 18.011719 19.617188 17.792969 18.394531 L 17.734375 18.019531 L 19.804688 18.019531 C 20.953125 18.019531 21.890625 18.070312 21.890625 18.117188 Z M 21.890625 18.117188 "/>
<path style=" stroke:none;fill-rule:nonzero;fill:rgb(0%,0%,0%);fill-opacity:1;" d="M 35.847656 20.476562 C 35 21.90625 34.480469 22.648438 33.378906 24 L 32.613281 24.929688 L 32.90625 25.105469 C 33.054688 25.210938 33.507812 25.570312 33.910156 25.90625 C 34.316406 26.257812 34.664062 26.515625 34.675781 26.488281 C 35.164062 25.882812 38.917969 20.777344 38.894531 20.769531 C 38.867188 20.746094 38.570312 20.570312 38.222656 20.359375 C 37.875 20.136719 37.363281 19.789062 37.097656 19.582031 L 36.609375 19.1875 Z M 35.847656 20.476562 "/>
<path style=" stroke:none;fill-rule:nonzero;fill:rgb(0%,0%,0%);fill-opacity:1;" d="M 43.375 20.125 C 42.9375 20.441406 42.519531 20.757812 42.460938 20.816406 C 42.402344 20.871094 42.613281 21.300781 42.96875 21.882812 C 43.304688 22.417969 43.875 23.382812 44.21875 24.046875 L 44.84375 25.242188 L 45.449219 24.675781 C 45.773438 24.371094 46.210938 24.011719 46.421875 23.894531 C 46.617188 23.765625 46.789062 23.617188 46.789062 23.546875 C 46.789062 23.382812 44.300781 19.523438 44.210938 19.535156 C 44.199219 19.542969 43.824219 19.800781 43.375 20.125 Z M 43.375 20.125 "/>
<path style=" stroke:none;fill-rule:nonzero;fill:rgb(0%,0%,0%);fill-opacity:1;" d="M 81.25 22.523438 C 80.832031 23.09375 80.496094 23.570312 80.496094 23.605469 C 80.496094 23.640625 81.628906 24.339844 83.023438 25.171875 C 84.398438 26.011719 86.308594 27.199219 87.261719 27.824219 C 88.660156 28.753906 89.011719 28.941406 89.125 28.8125 C 89.855469 28.011719 91.046875 26.605469 91.023438 26.582031 C 90.945312 26.523438 85.246094 23.242188 83.679688 22.359375 C 82.859375 21.894531 82.140625 21.511719 82.082031 21.511719 C 82.035156 21.511719 81.667969 21.964844 81.25 22.523438 Z M 81.25 22.523438 "/>
<path style=" stroke:none;fill-rule:nonzero;fill:rgb(0%,0%,0%);fill-opacity:1;" d="M 137.503906 22.628906 C 135.128906 23.417969 133.414062 23.847656 131.054688 24.242188 C 130.03125 24.417969 129.082031 24.578125 128.945312 24.605469 C 128.691406 24.648438 128.691406 24.664062 129.082031 25.339844 C 129.304688 25.707031 129.628906 26.347656 129.800781 26.753906 C 129.964844 27.160156 130.113281 27.511719 130.128906 27.535156 C 130.140625 27.546875 130.507812 27.394531 130.945312 27.199219 C 132.121094 26.664062 132.6875 26.476562 136.148438 25.511719 C 137.875 25.035156 139.367188 24.617188 139.484375 24.578125 C 139.65625 24.523438 139.683594 24.359375 139.683594 23.242188 C 139.683594 22.300781 139.648438 21.976562 139.542969 21.988281 C 139.464844 22 138.546875 22.28125 137.503906 22.628906 Z M 137.503906 22.628906 "/>
</g>
</svg>
