<?xml version="1.0" encoding="UTF-8"?>
<svg xmlns="http://www.w3.org/2000/svg" xmlns:xlink="http://www.w3.org/1999/xlink" width="679pt" height="49pt" viewBox="0 0 679 49" version="1.1">
<g id="surface1">
<path style=" stroke:none;fill-rule:nonzero;fill:rgb(0%,0%,0%);fill-opacity:1;" d="M 540.808594 1.996094 C 540.710938 2.246094 540.3125 3.15625 539.914062 4.03125 C 537.519531 9.285156 534.441406 13.730469 530.464844 17.691406 C 529.460938 18.679688 528.640625 19.535156 528.640625 19.609375 C 528.640625 19.667969 528.832031 19.820312 529.078125 19.914062 C 529.304688 20.03125 530.21875 20.695312 531.089844 21.378906 C 531.96875 22.066406 532.746094 22.636719 532.820312 22.636719 C 532.898438 22.636719 533.601562 21.875 534.363281 20.925781 L 535.769531 19.230469 L 535.863281 30.585938 L 535.960938 41.941406 L 536.492188 43.007812 C 537.023438 44.109375 537.746094 44.738281 539.09375 45.289062 C 540.121094 45.6875 563.9375 45.785156 565.878906 45.386719 C 568.292969 44.871094 569.605469 43.597656 570.859375 40.574219 C 571.925781 38.003906 571.925781 38.117188 571.085938 37.964844 C 569.984375 37.796875 568.484375 37.015625 567.53125 36.140625 C 566.546875 35.226562 566.71875 35.078125 566.203125 37.566406 C 565.765625 39.71875 565.519531 40.515625 565.136719 40.894531 C 564.433594 41.597656 563.140625 41.675781 552.289062 41.617188 C 542.878906 41.5625 541.792969 41.523438 541.261719 41.238281 C 540.160156 40.648438 540.046875 40.058594 540.046875 35.589844 L 540.046875 31.574219 L 556.867188 31.574219 L 556.867188 17.308594 L 547.136719 17.308594 C 541.777344 17.308594 537.386719 17.269531 537.386719 17.214844 C 537.386719 17.175781 538.164062 16.070312 539.113281 14.796875 C 540.0625 13.503906 540.882812 12.34375 540.941406 12.210938 C 541.015625 12.039062 543.46875 11.984375 552.34375 11.984375 L 563.65625 11.984375 L 563.539062 13.636719 C 563.484375 14.570312 563.296875 18.011719 563.140625 21.304688 C 562.742188 29.785156 562.722656 29.882812 561.144531 30.226562 C 560.613281 30.339844 559.683594 30.433594 559.09375 30.433594 C 557.570312 30.433594 557.421875 30.585938 557.933594 31.460938 C 558.160156 31.859375 558.582031 32.871094 558.882812 33.722656 C 559.398438 35.226562 559.453125 35.285156 560.042969 35.34375 C 560.878906 35.417969 564.242188 34.542969 565.0625 34.046875 C 565.839844 33.554688 566.546875 32.394531 566.828125 31.101562 C 566.945312 30.566406 567.25 25.964844 567.515625 20.828125 C 567.800781 15.710938 568.082031 10.917969 568.179688 10.175781 C 568.273438 9.453125 568.371094 8.691406 568.371094 8.523438 C 568.371094 8.195312 567.609375 8.179688 555.917969 8.140625 L 543.46875 8.085938 L 544.304688 6.828125 C 544.761719 6.144531 545.539062 5.210938 546.015625 4.753906 L 546.890625 3.917969 L 545.214844 3.328125 C 544.304688 2.984375 542.976562 2.453125 542.269531 2.128906 L 540.976562 1.542969 Z M 552.59375 24.441406 L 552.59375 27.773438 L 540.046875 27.773438 L 540.046875 21.113281 L 552.59375 21.113281 Z M 552.59375 24.441406 "/>
<path style=" stroke:none;fill-rule:nonzero;fill:rgb(0%,0%,0%);fill-opacity:1;" d="M 129.46875 1.921875 C 129.203125 2.015625 128.269531 2.285156 127.378906 2.511719 C 126.484375 2.71875 125.667969 2.96875 125.574219 3.0625 C 125.480469 3.140625 125.765625 3.992188 126.164062 4.984375 C 126.578125 5.953125 126.980469 6.941406 127.054688 7.171875 L 127.1875 7.609375 L 108.160156 7.609375 L 108.160156 17.214844 L 110.535156 17.160156 L 112.914062 17.097656 L 112.914062 11.414062 L 128.558594 11.453125 L 144.183594 11.507812 L 144.242188 14.035156 L 144.296875 16.566406 L 146.578125 16.511719 L 148.878906 16.453125 L 148.894531 12.039062 L 148.933594 7.609375 L 132.398438 7.609375 L 131.675781 5.496094 C 130.761719 2.871094 130.269531 1.714844 130.078125 1.730469 C 130 1.730469 129.71875 1.824219 129.46875 1.921875 Z M 129.46875 1.921875 "/>
<path style=" stroke:none;fill-rule:nonzero;fill:rgb(0%,0%,0%);fill-opacity:1;" d="M 241.128906 2.492188 C 240.292969 2.796875 239.417969 3.042969 239.1875 3.042969 C 238.65625 3.042969 238.640625 3.40625 239.117188 4.335938 C 239.417969 4.945312 240.160156 7.054688 240.558594 8.539062 L 240.691406 8.980469 L 234.78125 8.921875 L 228.867188 8.84375 L 228.867188 12.6875 L 233.242188 12.59375 C 235.65625 12.535156 237.613281 12.554688 237.613281 12.648438 C 237.613281 12.726562 237.269531 13.488281 236.871094 14.363281 C 234.933594 18.507812 232.078125 21.722656 229.855469 22.253906 L 228.925781 22.464844 L 229.742188 24.40625 C 230.199219 25.46875 230.582031 26.460938 230.582031 26.609375 C 230.582031 26.742188 230.691406 26.820312 230.863281 26.742188 C 231.472656 26.515625 234.761719 26.003906 234.894531 26.136719 C 235.140625 26.363281 235.179688 29.425781 234.96875 31.898438 C 234.667969 35.722656 233.640625 38.367188 231.546875 40.722656 C 230.675781 41.714844 228.546875 43.40625 226.949219 44.378906 L 225.867188 45.003906 L 227.0625 45.535156 C 227.878906 45.878906 228.5625 46.375 229.15625 47 L 230.046875 47.953125 L 231.015625 47.191406 C 232.367188 46.148438 234.402344 44.128906 235.429688 42.796875 C 237.839844 39.660156 238.828125 35.894531 239.078125 28.949219 L 239.1875 25.488281 L 240.066406 25.488281 C 240.542969 25.488281 241.261719 25.433594 241.660156 25.375 L 242.367188 25.238281 L 242.367188 33.6875 C 242.367188 38.746094 242.460938 42.476562 242.574219 42.988281 C 242.859375 44.246094 243.542969 45.15625 244.589844 45.671875 C 245.425781 46.089844 245.789062 46.125 248.808594 46.183594 C 252.496094 46.257812 253.21875 46.148438 254.226562 45.253906 C 255.136719 44.453125 255.75 43.328125 256.527344 41.050781 C 257.269531 38.859375 257.304688 39.015625 255.765625 38.632812 C 255.347656 38.515625 254.417969 38.082031 253.730469 37.660156 C 253.03125 37.246094 252.421875 36.902344 252.363281 36.902344 C 252.289062 36.902344 252.25 37.183594 252.25 37.546875 C 252.25 38.515625 251.738281 40.972656 251.410156 41.617188 C 251.035156 42.34375 250.804688 42.417969 249.015625 42.417969 C 247.707031 42.417969 247.457031 42.359375 246.984375 41.960938 L 246.453125 41.503906 L 246.453125 25.011719 L 247.953125 24.839844 C 249.210938 24.707031 249.492188 24.730469 249.664062 24.957031 C 249.777344 25.128906 250.292969 25.832031 250.785156 26.515625 L 251.699219 27.789062 L 252.59375 27.140625 C 253.085938 26.78125 253.980469 26.191406 254.589844 25.832031 L 255.671875 25.167969 L 253.863281 22.539062 C 251.984375 19.820312 249.265625 16.261719 248.636719 15.695312 C 248.277344 15.367188 248.21875 15.367188 247.175781 16.109375 C 246.566406 16.53125 245.710938 17.0625 245.253906 17.292969 L 244.433594 17.707031 L 244.875 18.316406 C 245.140625 18.660156 245.789062 19.515625 246.335938 20.257812 L 247.347656 21.589844 L 245.84375 21.722656 C 244.019531 21.894531 236.015625 22.234375 235.9375 22.160156 C 235.765625 21.988281 240.785156 16.28125 241.792969 15.5 L 242.9375 14.589844 L 241.433594 13.753906 C 240.597656 13.296875 239.855469 12.820312 239.78125 12.707031 C 239.683594 12.574219 242.023438 12.535156 247.761719 12.574219 L 255.859375 12.648438 L 255.859375 8.84375 L 248.695312 8.882812 C 244.738281 8.902344 241.605469 8.882812 241.699219 8.84375 C 241.8125 8.808594 242.609375 8.558594 243.503906 8.292969 C 244.398438 8.046875 245.121094 7.757812 245.121094 7.648438 C 245.121094 7.191406 243.011719 1.921875 242.839844 1.941406 C 242.742188 1.941406 241.964844 2.207031 241.128906 2.492188 Z M 241.128906 2.492188 "/>
<path style=" stroke:none;fill-rule:nonzero;fill:rgb(0%,0%,0%);fill-opacity:1;" d="M 485.945312 2.417969 C 485.71875 3.328125 483.875 7.820312 483.019531 9.511719 C 480.71875 14.09375 477.238281 19.476562 475.109375 21.722656 C 474.65625 22.214844 474.273438 22.691406 474.273438 22.789062 C 474.273438 22.882812 474.636719 23.28125 475.09375 23.703125 C 475.53125 24.101562 476.253906 24.863281 476.667969 25.375 L 477.449219 26.289062 L 479.902344 22.863281 C 481.25 20.960938 482.410156 19.421875 482.503906 19.421875 C 482.847656 19.382812 482.582031 45.402344 482.21875 47.210938 C 482.183594 47.402344 482.734375 47.476562 484.617188 47.515625 L 487.050781 47.574219 L 486.894531 47.132812 C 486.820312 46.886719 486.722656 39.03125 486.6875 29.652344 L 486.613281 12.59375 L 487.5625 10.480469 C 488.71875 7.914062 489.878906 5.894531 490.753906 4.945312 L 491.402344 4.222656 L 490.394531 3.898438 C 489.84375 3.710938 488.664062 3.195312 487.789062 2.738281 C 486.917969 2.285156 486.175781 1.902344 486.136719 1.902344 C 486.097656 1.902344 486.003906 2.128906 485.945312 2.417969 Z M 485.945312 2.417969 "/>
<path style=" stroke:none;fill-rule:nonzero;fill:rgb(0%,0%,0%);fill-opacity:1;" d="M 653.625 4.773438 L 653.777344 7.648438 L 645.429688 7.554688 C 640.832031 7.492188 636.800781 7.382812 636.480469 7.304688 L 635.851562 7.191406 L 635.851562 11.453125 L 636.574219 11.335938 C 636.957031 11.261719 640.984375 11.164062 645.507812 11.109375 L 653.722656 10.992188 L 653.722656 15.789062 L 636.992188 15.789062 L 637.125 18.011719 C 637.222656 19.25 637.277344 25.394531 637.277344 31.671875 C 637.277344 37.949219 637.222656 44.089844 637.125 45.308594 L 636.992188 47.554688 L 641.363281 47.554688 L 641.363281 19.210938 L 670.449219 19.210938 L 670.410156 30.910156 C 670.371094 40.171875 670.296875 42.648438 670.105469 42.835938 C 669.933594 43.007812 669.117188 43.101562 667.597656 43.140625 C 666.34375 43.179688 665.316406 43.234375 665.316406 43.273438 C 665.316406 43.3125 665.695312 44.222656 666.171875 45.328125 C 666.644531 46.429688 667.027344 47.4375 667.027344 47.574219 C 667.027344 47.820312 667.214844 47.800781 670.410156 47.058594 C 672.824219 46.507812 673.429688 46.125 673.984375 44.851562 C 674.308594 44.089844 674.347656 43.085938 674.480469 30.53125 C 674.535156 23.09375 674.667969 16.738281 674.722656 16.398438 L 674.855469 15.789062 L 657.710938 15.789062 L 657.710938 10.992188 L 667.121094 11.070312 L 676.53125 11.128906 L 676.53125 7.515625 L 667.101562 7.570312 L 657.652344 7.648438 L 657.75 4.773438 L 657.84375 1.902344 L 653.492188 1.902344 Z M 653.625 4.773438 "/>
<path style=" stroke:none;fill-rule:nonzero;fill:rgb(0%,0%,0%);fill-opacity:1;" d="M 65.960938 2.683594 C 64.859375 2.96875 63.984375 3.273438 64.003906 3.367188 C 64.023438 3.460938 64.25 4.394531 64.515625 5.457031 C 64.78125 6.523438 65.007812 7.457031 65.007812 7.53125 C 65.007812 7.589844 62.863281 7.625 60.257812 7.570312 L 55.488281 7.492188 L 55.542969 9.472656 L 55.601562 11.429688 L 66.496094 11.46875 L 77.367188 11.507812 L 77.367188 7.457031 L 73.410156 7.554688 L 69.457031 7.664062 L 68.890625 4.945312 C 68.585938 3.445312 68.242188 2.207031 68.148438 2.1875 C 68.03125 2.167969 67.0625 2.394531 65.960938 2.683594 Z M 65.960938 2.683594 "/>
<path style=" stroke:none;fill-rule:nonzero;fill:rgb(0%,0%,0%);fill-opacity:1;" d="M 430.839844 2.796875 C 430.515625 4.71875 430.117188 6.695312 429.757812 8.0625 L 429.355469 9.550781 L 426.164062 9.472656 L 422.949219 9.394531 L 422.949219 13.144531 L 425.707031 13.011719 C 428.042969 12.894531 428.464844 12.917969 428.386719 13.144531 C 427.015625 17.425781 426.011719 20.164062 425.214844 21.722656 C 424.984375 22.160156 424.394531 22.921875 423.863281 23.453125 L 422.914062 24.40625 L 423.710938 26.230469 C 424.167969 27.238281 424.527344 28.074219 424.546875 28.09375 C 424.566406 28.113281 425.382812 28 426.371094 27.847656 C 427.359375 27.695312 429.261719 27.523438 430.609375 27.445312 L 433.023438 27.335938 L 433.023438 33.628906 L 432.511719 33.746094 C 431.753906 33.894531 425.800781 34.582031 423.957031 34.734375 L 422.398438 34.847656 L 422.929688 35.929688 C 423.234375 36.519531 423.617188 37.453125 423.789062 37.984375 C 423.976562 38.539062 424.148438 38.992188 424.1875 38.992188 C 424.222656 38.992188 425.136719 38.785156 426.21875 38.539062 C 427.285156 38.273438 429.128906 37.890625 430.269531 37.660156 C 431.429688 37.433594 432.53125 37.207031 432.722656 37.148438 C 433.082031 37.050781 433.082031 37.183594 432.949219 42.492188 L 432.816406 47.933594 L 437.132812 47.933594 L 437.054688 42.246094 L 436.976562 36.578125 L 439.601562 36.179688 C 441.066406 35.949219 442.71875 35.742188 443.289062 35.722656 L 444.335938 35.664062 L 444.429688 33.859375 C 444.488281 32.871094 444.507812 32.011719 444.488281 31.976562 C 444.46875 31.9375 443.308594 32.089844 441.921875 32.296875 C 440.53125 32.527344 438.863281 32.753906 438.214844 32.832031 L 437.015625 32.964844 L 437.015625 27.390625 L 440.78125 27.351562 L 444.523438 27.296875 L 444.582031 25.621094 L 444.640625 23.96875 L 436.960938 23.96875 L 437.09375 20.960938 C 437.148438 19.328125 437.265625 17.691406 437.320312 17.347656 L 437.4375 16.738281 L 432.816406 16.738281 L 432.949219 20.351562 L 433.082031 23.96875 L 430.6875 23.96875 C 429.355469 23.96875 428.273438 23.945312 428.273438 23.910156 C 428.273438 23.871094 428.636719 22.902344 429.050781 21.761719 C 429.488281 20.621094 430.382812 18.183594 431.046875 16.359375 L 432.226562 13.027344 L 435.722656 13.027344 C 437.644531 13.027344 440.171875 13.085938 441.351562 13.183594 L 443.5 13.316406 L 443.441406 11.375 L 443.386719 9.433594 L 438.386719 9.492188 L 433.367188 9.550781 L 433.5 9.09375 C 434.148438 7.019531 435.019531 4.945312 435.480469 4.355469 L 436.046875 3.652344 L 435.058594 3.40625 C 434.183594 3.195312 432.152344 2.550781 431.277344 2.1875 C 431.007812 2.089844 430.933594 2.207031 430.839844 2.796875 Z M 430.839844 2.796875 "/>
<path style=" stroke:none;fill-rule:nonzero;fill:rgb(0%,0%,0%);fill-opacity:1;" d="M 503.246094 2.796875 C 503.300781 3.195312 503.417969 5.894531 503.472656 8.789062 L 503.605469 14.074219 L 500.144531 14.074219 C 497.292969 14.074219 496.707031 14.035156 496.707031 13.808594 C 496.707031 13.390625 498.207031 9.148438 498.71875 8.121094 C 498.984375 7.625 499.273438 7.226562 499.367188 7.226562 C 499.480469 7.226562 499.558594 7.152344 499.558594 7.078125 C 499.558594 6.980469 499.023438 6.773438 498.378906 6.582031 C 497.730469 6.410156 496.589844 5.972656 495.832031 5.628906 L 494.460938 4.984375 L 494.042969 7.113281 C 493.207031 11.296875 491.476562 16.453125 489.613281 20.351562 C 489.082031 21.457031 488.625 22.386719 488.585938 22.445312 C 488.550781 22.503906 489.101562 22.789062 489.804688 23.09375 C 490.527344 23.398438 491.421875 23.851562 491.820312 24.101562 C 492.238281 24.367188 492.582031 24.539062 492.617188 24.5 C 492.65625 24.460938 493.285156 22.976562 494.003906 21.207031 L 495.335938 17.972656 L 499.441406 17.917969 L 503.550781 17.878906 L 503.550781 27.789062 L 496.285156 27.75 L 489.007812 27.714844 L 488.949219 29.710938 L 488.890625 31.726562 L 496.25 31.613281 L 503.589844 31.515625 L 503.472656 38.726562 C 503.417969 42.683594 503.320312 46.296875 503.246094 46.753906 L 503.128906 47.554688 L 507.824219 47.554688 L 507.75 39.546875 L 507.691406 31.515625 L 513.792969 31.613281 L 519.898438 31.710938 L 519.898438 27.351562 L 519.289062 27.46875 C 518.945312 27.542969 516.210938 27.640625 513.207031 27.714844 L 507.730469 27.828125 L 507.730469 17.863281 L 518.375 17.972656 L 518.375 13.925781 L 513.035156 14.019531 L 507.691406 14.132812 L 507.808594 8.824219 C 507.863281 5.917969 507.957031 3.195312 508.035156 2.796875 L 508.148438 2.089844 L 503.128906 2.089844 Z M 503.246094 2.796875 "/>
<path style=" stroke:none;fill-rule:nonzero;fill:rgb(0%,0%,0%);fill-opacity:1;" d="M 378.316406 7.53125 L 378.414062 12.574219 L 374.722656 12.515625 L 371.054688 12.460938 L 371.054688 16.378906 L 374.246094 16.359375 C 376 16.359375 377.519531 16.339844 377.652344 16.359375 C 377.804688 16.359375 377.730469 16.757812 377.425781 17.632812 C 375.617188 22.882812 373.507812 27.046875 370.425781 31.460938 C 369.535156 32.738281 369.195312 33.382812 369.34375 33.476562 C 369.476562 33.554688 370.292969 34.335938 371.167969 35.1875 C 372.046875 36.066406 372.804688 36.730469 372.859375 36.691406 C 373.203125 36.332031 375.675781 31.9375 376.871094 29.519531 C 377.667969 27.941406 378.355469 26.628906 378.414062 26.628906 C 378.449219 26.628906 378.449219 31.210938 378.394531 36.808594 L 378.277344 47 L 380.503906 46.945312 C 382.382812 46.886719 382.726562 46.851562 382.671875 46.601562 C 382.539062 45.976562 382.480469 16.816406 382.613281 16.585938 C 382.746094 16.398438 383.507812 16.359375 385.9375 16.398438 L 389.117188 16.453125 L 389.117188 12.460938 L 385.828125 12.515625 L 382.515625 12.574219 L 382.480469 11.46875 C 382.445312 10.042969 382.804688 3.460938 382.953125 2.890625 C 383.070312 2.472656 383.070312 2.472656 380.65625 2.472656 L 378.222656 2.472656 Z M 378.316406 7.53125 "/>
<path style=" stroke:none;fill-rule:nonzero;fill:rgb(0%,0%,0%);fill-opacity:1;" d="M 95.21875 2.757812 C 95.027344 2.929688 90.710938 3.976562 88.5625 4.355469 C 87.363281 4.566406 85.3125 4.832031 84 4.945312 C 82.707031 5.058594 81.300781 5.191406 80.882812 5.25 L 80.121094 5.324219 L 80.121094 16.890625 C 80.121094 28.933594 80.085938 29.597656 79.25 33.761719 C 78.46875 37.511719 76.699219 42.074219 75.007812 44.550781 C 74.78125 44.890625 74.535156 45.269531 74.457031 45.402344 C 74.304688 45.671875 78.242188 47.609375 78.546875 47.421875 C 78.851562 47.25 80.730469 43.195312 81.472656 41.121094 C 83.164062 36.480469 84.191406 29.578125 84.210938 22.960938 L 84.210938 21.304688 L 89.742188 21.304688 L 89.683594 34.335938 L 89.628906 47.363281 L 93.808594 47.363281 L 93.753906 34.296875 L 93.675781 21.246094 L 98.277344 21.511719 L 98.277344 17.402344 L 91.242188 17.480469 L 84.210938 17.535156 L 84.246094 13.011719 L 84.304688 8.464844 L 87.058594 8.140625 C 88.582031 7.96875 91.1875 7.722656 92.859375 7.609375 C 94.53125 7.492188 96.433594 7.359375 97.082031 7.304688 L 98.277344 7.191406 L 97.667969 6.464844 C 97.324219 6.066406 96.660156 5.058594 96.1875 4.203125 C 95.691406 3.367188 95.253906 2.699219 95.21875 2.757812 Z M 95.21875 2.757812 "/>
<path style=" stroke:none;fill-rule:nonzero;fill:rgb(0%,0%,0%);fill-opacity:1;" d="M 449.066406 3.175781 C 447.910156 8.367188 445.707031 13.660156 442.910156 17.917969 C 442.285156 18.867188 441.789062 19.667969 441.808594 19.6875 C 441.847656 19.703125 442.285156 19.839844 442.777344 19.972656 C 443.269531 20.105469 444.164062 20.503906 444.753906 20.847656 C 445.324219 21.207031 445.875 21.496094 445.933594 21.496094 C 446.007812 21.496094 446.863281 19.992188 447.832031 18.164062 L 449.601562 14.835938 L 455.285156 14.835938 C 459.160156 14.835938 460.96875 14.894531 460.96875 15.046875 C 460.96875 15.140625 460.585938 16.414062 460.113281 17.863281 C 459.636719 19.304688 459.257812 20.5625 459.257812 20.65625 C 459.257812 20.808594 463.421875 21.777344 463.535156 21.644531 C 463.554688 21.605469 463.839844 20.542969 464.179688 19.25 C 464.523438 17.957031 465.167969 15.730469 465.644531 14.304688 C 466.101562 12.894531 466.480469 11.660156 466.480469 11.5625 C 466.480469 11.492188 462.925781 11.414062 458.59375 11.414062 C 454.257812 11.414062 450.703125 11.375 450.703125 11.335938 C 450.703125 11.296875 451.007812 10.519531 451.386719 9.589844 C 452.246094 7.417969 453.25 5.574219 453.972656 4.832031 C 454.617188 4.148438 454.582031 4.089844 453.289062 3.917969 C 452.488281 3.785156 450.4375 3.175781 449.527344 2.777344 C 449.277344 2.664062 449.164062 2.738281 449.066406 3.175781 Z M 449.066406 3.175781 "/>
<path style=" stroke:none;fill-rule:nonzero;fill:rgb(0%,0%,0%);fill-opacity:1;" d="M 218.984375 3.9375 C 218.660156 5.421875 217.996094 7.226562 216.761719 9.988281 C 214.878906 14.09375 213.222656 16.453125 211.6875 17.253906 C 211.359375 17.402344 211.058594 17.574219 211.039062 17.613281 C 211 17.632812 211.246094 18.527344 211.589844 19.59375 C 212.195312 21.4375 212.234375 21.511719 212.710938 21.378906 C 215.046875 20.792969 220.316406 20.164062 220.316406 20.484375 C 220.316406 20.714844 217.996094 24.632812 216.949219 26.152344 C 215.867188 27.773438 214.667969 28.894531 213.527344 29.425781 C 212.976562 29.691406 212.519531 29.957031 212.519531 30.054688 C 212.519531 30.207031 213.871094 33.894531 213.984375 34.027344 C 214.003906 34.066406 214.707031 33.933594 215.507812 33.707031 C 217.957031 33.042969 219.476562 32.753906 223.070312 32.355469 C 228.679688 31.710938 228.050781 31.898438 228.203125 30.757812 C 228.28125 30.207031 228.507812 29.347656 228.695312 28.835938 C 228.886719 28.304688 229.023438 27.867188 228.984375 27.828125 C 228.945312 27.789062 227.859375 27.941406 226.566406 28.152344 C 223.375 28.667969 219.34375 29.140625 219.230469 29.027344 C 219.097656 28.894531 224.554688 20.179688 226.207031 17.839844 C 226.894531 16.890625 227.898438 15.632812 228.453125 15.046875 C 229.058594 14.398438 229.34375 13.960938 229.210938 13.902344 C 228.886719 13.792969 225.882812 12.230469 225.125 11.773438 C 224.457031 11.355469 224.457031 11.375 224.113281 12.460938 C 223.980469 12.878906 223.488281 14.058594 223.011719 15.0625 L 222.15625 16.929688 L 220.789062 16.929688 C 220.027344 16.929688 218.757812 16.988281 217.957031 17.042969 L 216.496094 17.175781 L 217.613281 15.292969 C 218.222656 14.265625 219.441406 12.132812 220.332031 10.574219 C 221.207031 9.015625 222.421875 7.152344 223.03125 6.429688 C 223.640625 5.707031 224.113281 5.078125 224.078125 5.042969 C 224.039062 5.003906 220.621094 3.445312 219.421875 2.929688 C 219.289062 2.851562 219.117188 3.214844 218.984375 3.9375 Z M 218.984375 3.9375 "/>
<path style=" stroke:none;fill-rule:nonzero;fill:rgb(0%,0%,0%);fill-opacity:1;" d="M 588.121094 2.984375 C 588.101562 3.082031 588.121094 5.515625 588.140625 8.445312 L 588.175781 13.753906 L 585.152344 13.597656 C 583.5 13.527344 582.074219 13.449219 581.960938 13.429688 C 581.847656 13.429688 581.753906 14.191406 581.714844 15.351562 L 581.65625 17.308594 L 588.140625 17.308594 L 588.101562 21.53125 L 588.042969 25.773438 L 585.953125 26.476562 C 584.8125 26.859375 583.027344 27.371094 582 27.601562 C 580.992188 27.847656 580.171875 28.074219 580.195312 28.132812 C 580.289062 28.324219 581.808594 32.222656 581.941406 32.582031 C 582.058594 32.925781 582.074219 32.925781 582.664062 32.566406 C 584.257812 31.59375 587.511719 30.054688 587.96875 30.054688 C 588.0625 30.054688 588.140625 32.621094 588.140625 35.761719 C 588.140625 42.835938 588.367188 42.34375 585.136719 42.152344 C 583.101562 42.039062 582.96875 42.054688 583.101562 42.359375 C 583.175781 42.550781 583.460938 43.617188 583.75 44.757812 L 584.242188 46.792969 L 585.382812 46.679688 C 587.226562 46.488281 589.300781 46.03125 590.058594 45.632812 C 590.457031 45.441406 591.007812 44.988281 591.273438 44.625 C 592.246094 43.328125 592.320312 42.742188 592.320312 35.378906 L 592.320312 28.589844 L 593.613281 28.019531 C 594.316406 27.695312 595.363281 27.273438 595.933594 27.085938 L 596.976562 26.742188 L 596.976562 22.292969 L 596.121094 22.636719 C 595.648438 22.828125 594.679688 23.242188 593.976562 23.570312 C 593.253906 23.890625 592.589844 24.15625 592.492188 24.15625 C 592.394531 24.15625 592.320312 22.65625 592.320312 20.734375 L 592.320312 17.308594 L 597.453125 17.308594 L 597.453125 13.449219 L 594.867188 13.5625 L 592.261719 13.695312 L 592.359375 8.273438 L 592.472656 2.851562 L 590.304688 2.851562 C 589.105469 2.851562 588.140625 2.910156 588.121094 2.984375 Z M 588.121094 2.984375 "/>
<path style=" stroke:none;fill-rule:nonzero;fill:rgb(0%,0%,0%);fill-opacity:1;" d="M 599.203125 10.976562 C 599.261719 19.898438 599.238281 19.667969 600.457031 20.960938 C 601.273438 21.855469 602.089844 21.910156 611.617188 21.835938 C 621.480469 21.777344 621.367188 21.777344 622.640625 20.316406 C 623.191406 19.648438 625.015625 15.765625 625.015625 15.234375 C 625.015625 15.125 624.65625 14.953125 624.21875 14.835938 C 623.058594 14.550781 622.03125 14.074219 621.15625 13.449219 C 620.757812 13.144531 620.394531 12.933594 620.359375 12.972656 C 620.320312 13.011719 620.113281 13.828125 619.902344 14.796875 C 619.410156 17.042969 619.179688 17.519531 618.363281 17.9375 C 617.753906 18.242188 617.089844 18.261719 611.007812 18.222656 C 602.792969 18.144531 603.441406 18.433594 603.441406 15.085938 L 603.441406 12.859375 L 604.773438 12.59375 C 605.933594 12.363281 607.773438 11.964844 614.46875 10.460938 C 615.304688 10.269531 616.519531 9.988281 617.164062 9.816406 C 617.792969 9.644531 619.046875 9.378906 619.921875 9.207031 C 622.335938 8.769531 622.257812 8.863281 621.042969 7.703125 C 620.226562 6.921875 618.703125 5.003906 618.460938 4.429688 C 618.4375 4.414062 617.679688 4.773438 616.765625 5.269531 C 614.640625 6.371094 613.285156 6.90625 611.195312 7.53125 C 608.972656 8.179688 603.6875 9.320312 603.496094 9.207031 C 603.421875 9.148438 603.402344 7.703125 603.480469 5.972656 L 603.59375 2.851562 L 599.144531 2.851562 Z M 599.203125 10.976562 "/>
<path style=" stroke:none;fill-rule:nonzero;fill:rgb(0%,0%,0%);fill-opacity:1;" d="M 8.269531 9.988281 L 8.269531 16.929688 L 38.492188 16.929688 L 38.457031 10.042969 L 38.4375 3.140625 L 23.34375 3.082031 L 8.269531 3.042969 Z M 34.179688 7.457031 L 34.234375 8.558594 L 12.546875 8.558594 L 12.546875 6.277344 L 23.34375 6.316406 L 34.121094 6.371094 Z M 34.21875 12.839844 L 34.21875 13.886719 L 12.546875 13.886719 L 12.546875 11.792969 L 34.21875 11.792969 Z M 34.21875 12.839844 "/>
<path style=" stroke:none;fill-rule:nonzero;fill:rgb(0%,0%,0%);fill-opacity:1;" d="M 345.109375 3.539062 C 344.175781 3.785156 343.207031 3.992188 342.980469 3.992188 C 342.753906 3.992188 342.503906 4.070312 342.449219 4.183594 C 342.296875 4.453125 343.722656 8.007812 344.957031 10.402344 C 347.21875 14.796875 348.511719 16.757812 351.019531 19.496094 C 352.332031 20.941406 357.386719 25.449219 358.207031 25.90625 C 358.375 26.003906 358.679688 25.699219 359.136719 24.957031 C 359.859375 23.777344 360.90625 22.597656 361.894531 21.855469 L 362.539062 21.363281 L 361.113281 20.792969 C 358.300781 19.632812 355.640625 17.613281 353.128906 14.703125 C 350.277344 11.375 348.304688 7.96875 347.390625 4.8125 C 347.121094 3.898438 346.894531 3.140625 346.855469 3.140625 C 346.839844 3.121094 346.058594 3.289062 345.109375 3.539062 Z M 345.109375 3.539062 "/>
<path style=" stroke:none;fill-rule:nonzero;fill:rgb(0%,0%,0%);fill-opacity:1;" d="M 408.371094 3.632812 C 405.9375 4.601562 399.71875 5.6875 394.496094 6.050781 C 393.203125 6.144531 392.117188 6.257812 392.0625 6.316406 C 392.003906 6.371094 392.042969 9.054688 392.175781 12.289062 C 392.671875 25.582031 391.832031 32.410156 389 38.175781 C 388.03125 40.152344 387.230469 41.277344 385.75 42.816406 L 384.742188 43.863281 L 385.921875 44.433594 C 386.566406 44.738281 387.652344 45.402344 388.316406 45.917969 C 388.980469 46.414062 389.589844 46.753906 389.664062 46.679688 C 390.636719 45.535156 393.125 40.917969 393.941406 38.765625 C 395.253906 35.226562 396.527344 27.410156 396.527344 22.671875 L 396.527344 21.304688 L 403.960938 21.304688 L 403.902344 33.953125 L 403.847656 46.601562 L 408.21875 46.601562 L 408.160156 33.914062 L 408.085938 21.246094 L 411.527344 21.363281 L 414.964844 21.472656 L 414.964844 17.597656 L 405.746094 17.652344 L 396.527344 17.730469 L 396.527344 13.714844 C 396.527344 9.722656 396.527344 9.699219 396.964844 9.605469 C 397.894531 9.417969 408.011719 8.523438 410.539062 8.425781 L 413.21875 8.3125 L 412.230469 6.867188 C 411.675781 6.050781 410.9375 4.871094 410.574219 4.222656 C 410.234375 3.578125 409.890625 3.042969 409.835938 3.0625 C 409.777344 3.082031 409.132812 3.328125 408.371094 3.632812 Z M 408.371094 3.632812 "/>
<path style=" stroke:none;fill-rule:nonzero;fill:rgb(0%,0%,0%);fill-opacity:1;" d="M 293.101562 3.9375 C 293.101562 4.015625 293.101562 7.382812 293.117188 11.375 L 293.136719 18.679688 L 286.675781 18.601562 L 280.195312 18.546875 L 280.195312 22.65625 L 286.65625 22.523438 L 293.136719 22.386719 L 293.082031 34.960938 L 293.023438 47.554688 L 297.398438 47.554688 L 297.320312 34.960938 L 297.265625 22.386719 L 303.25 22.484375 L 309.238281 22.597656 L 309.257812 20.5625 L 309.257812 18.546875 L 303.25 18.621094 L 297.242188 18.679688 L 297.320312 11.296875 L 297.398438 3.898438 L 295.269531 3.84375 C 294.085938 3.820312 293.117188 3.859375 293.101562 3.9375 Z M 293.101562 3.9375 "/>
<path style=" stroke:none;fill-rule:nonzero;fill:rgb(0%,0%,0%);fill-opacity:1;" d="M 331.707031 6.390625 C 329.613281 10.367188 328.171875 12.609375 325.792969 15.523438 C 323.933594 17.800781 320.113281 21.191406 317.792969 22.617188 C 317.394531 22.84375 317.070312 23.109375 317.070312 23.167969 C 317.089844 23.242188 317.679688 23.664062 318.402344 24.117188 C 319.121094 24.574219 320.148438 25.335938 320.679688 25.8125 L 321.652344 26.6875 L 322.242188 26.136719 C 325.527344 23.035156 330.71875 16.53125 334.75 10.460938 C 335.414062 9.472656 336.402344 8.085938 336.953125 7.398438 L 337.945312 6.144531 L 336.878906 5.707031 C 336.289062 5.480469 335.1875 4.945312 334.425781 4.546875 L 333.058594 3.820312 Z M 331.707031 6.390625 "/>
<path style=" stroke:none;fill-rule:nonzero;fill:rgb(0%,0%,0%);fill-opacity:1;" d="M 164.597656 4.125 C 164.597656 4.222656 164.597656 9.148438 164.617188 15.125 C 164.636719 26.574219 164.484375 30.511719 163.835938 34.066406 C 163.15625 37.964844 161.632812 41.769531 159.75 44.339844 L 158.933594 45.421875 L 160.492188 46.222656 C 161.347656 46.660156 162.277344 47.191406 162.566406 47.382812 C 162.832031 47.574219 163.136719 47.742188 163.230469 47.742188 C 163.554688 47.742188 166.101562 42.210938 166.898438 39.792969 C 167.65625 37.546875 168.4375 34.066406 168.707031 31.726562 L 168.839844 30.625 L 179.503906 30.625 L 179.40625 38.234375 L 179.3125 45.84375 L 183.914062 45.84375 L 183.855469 38.234375 L 183.78125 30.625 L 195.222656 30.625 L 195.222656 35.226562 C 195.222656 41.960938 195.242188 41.90625 192.105469 42 C 190.890625 42.054688 189.902344 42.152344 189.902344 42.226562 C 189.902344 42.304688 190.109375 42.835938 190.375 43.386719 C 190.621094 43.957031 190.984375 45.042969 191.171875 45.804688 L 191.496094 47.191406 L 192.257812 47.078125 C 193.589844 46.867188 196.589844 46.011719 197.351562 45.632812 C 198.132812 45.230469 198.835938 44.394531 199.234375 43.367188 C 199.441406 42.816406 199.519531 39.222656 199.597656 23.492188 C 199.652344 12.917969 199.667969 4.222656 199.632812 4.125 C 199.597656 4.050781 191.703125 3.992188 182.085938 3.992188 C 172.488281 3.992188 164.617188 4.050781 164.597656 4.125 Z M 179.445312 11.792969 L 179.445312 15.789062 L 168.800781 15.789062 L 168.800781 7.796875 L 179.445312 7.796875 Z M 195.222656 11.792969 L 195.222656 15.789062 L 183.816406 15.789062 L 183.816406 7.796875 L 195.222656 7.796875 Z M 179.445312 23.203125 L 179.445312 27.007812 L 168.800781 27.007812 L 168.800781 19.402344 L 179.445312 19.402344 Z M 195.222656 23.203125 L 195.222656 27.007812 L 183.816406 27.007812 L 183.816406 19.402344 L 195.222656 19.402344 Z M 195.222656 23.203125 "/>
<path style=" stroke:none;fill-rule:nonzero;fill:rgb(0%,0%,0%);fill-opacity:1;" d="M 271.183594 5.136719 C 270.136719 5.761719 269.261719 6.316406 269.242188 6.332031 C 269.207031 6.371094 270.234375 8.027344 271.503906 10.023438 C 272.78125 12.023438 273.9375 13.828125 274.070312 14.058594 C 274.300781 14.457031 274.300781 14.457031 275.308594 13.828125 C 275.839844 13.464844 276.75 12.953125 277.304688 12.648438 C 277.855469 12.34375 278.273438 12.023438 278.234375 11.90625 C 278.175781 11.792969 277.09375 10.097656 275.800781 8.160156 C 274.511719 6.21875 273.367188 4.488281 273.253906 4.320312 C 273.085938 4.03125 272.835938 4.125 271.183594 5.136719 Z M 271.183594 5.136719 "/>
<path style=" stroke:none;fill-rule:nonzero;fill:rgb(0%,0%,0%);fill-opacity:1;" d="M 69.953125 12.097656 C 69.953125 12.460938 68.054688 18.507812 67.882812 18.699219 C 67.804688 18.773438 66.285156 18.8125 64.515625 18.792969 L 61.304688 18.734375 L 62.636719 18.277344 C 63.378906 18.03125 64.042969 17.765625 64.136719 17.691406 C 64.269531 17.558594 62.0625 12.25 61.796875 12.097656 C 61.742188 12.058594 60.945312 12.363281 60.027344 12.78125 L 58.375 13.542969 L 58.832031 14.4375 C 59.25 15.273438 60.640625 18.621094 60.640625 18.792969 C 60.640625 18.851562 59.230469 18.851562 57.5 18.792969 L 54.367188 18.679688 L 54.367188 22.882812 L 59.496094 22.730469 L 64.632812 22.597656 L 64.632812 27.070312 L 59.972656 26.972656 L 55.316406 26.859375 L 55.316406 31.042969 L 59.972656 30.910156 L 64.632812 30.757812 L 64.632812 36.273438 C 64.632812 41.371094 64.609375 41.808594 64.289062 42.09375 C 64.003906 42.359375 63.527344 42.417969 61.929688 42.417969 L 59.917969 42.417969 L 60.542969 43.617188 C 60.886719 44.261719 61.320312 45.289062 61.515625 45.917969 L 61.855469 47.023438 L 63.242188 46.90625 C 66.035156 46.640625 67.480469 45.9375 68.242188 44.417969 C 68.734375 43.40625 68.757812 43.101562 68.8125 32.070312 L 68.8125 30.757812 L 73.277344 30.910156 L 77.746094 31.042969 L 77.746094 26.859375 L 73.242188 26.972656 L 68.71875 27.070312 L 68.773438 24.839844 L 68.832031 22.597656 L 73.449219 22.730469 L 78.089844 22.882812 L 78.183594 21.378906 C 78.242188 20.542969 78.28125 19.609375 78.257812 19.304688 L 78.222656 18.734375 L 74.953125 18.8125 L 71.683594 18.867188 L 72.328125 17.253906 C 73.128906 15.292969 73.640625 14.339844 74.269531 13.660156 L 74.742188 13.164062 L 73.621094 12.839844 C 70.789062 11.984375 69.953125 11.8125 69.953125 12.097656 Z M 69.953125 12.097656 "/>
<path style=" stroke:none;fill-rule:nonzero;fill:rgb(0%,0%,0%);fill-opacity:1;" d="M 117.722656 14.265625 L 116.164062 15.921875 L 116.65625 16.148438 C 117.417969 16.492188 121.164062 19.382812 122.855469 20.902344 C 123.671875 21.644531 124.394531 22.253906 124.472656 22.253906 C 124.546875 22.253906 124.777344 21.949219 124.984375 21.570312 C 125.191406 21.191406 125.859375 20.429688 126.46875 19.875 L 127.570312 18.867188 L 125.898438 17.558594 C 124.222656 16.226562 119.832031 12.917969 119.46875 12.707031 C 119.375 12.648438 118.578125 13.355469 117.722656 14.265625 Z M 117.722656 14.265625 "/>
<path style=" stroke:none;fill-rule:nonzero;fill:rgb(0%,0%,0%);fill-opacity:1;" d="M 129.335938 16.625 C 129.46875 20.03125 129.222656 27.390625 128.957031 28.457031 L 128.84375 28.933594 L 107.78125 28.816406 L 107.78125 32.925781 L 117.855469 32.792969 C 124.984375 32.699219 127.933594 32.714844 127.933594 32.847656 C 127.933594 33.554688 124.414062 37.207031 122.570312 38.421875 C 119.945312 40.136719 115.042969 41.980469 110.519531 42.914062 L 108.011719 43.425781 L 109.207031 44.527344 C 109.871094 45.15625 110.632812 46.109375 110.933594 46.695312 C 111.582031 47.953125 111.355469 47.953125 115.195312 46.601562 C 121.089844 44.511719 123.996094 42.988281 127.265625 40.269531 C 129.546875 38.367188 130.78125 36.769531 132.851562 33.097656 C 132.984375 32.847656 134.144531 32.8125 141.785156 32.847656 L 150.550781 32.886719 L 150.550781 28.816406 L 141.996094 28.875 C 135.402344 28.933594 133.445312 28.894531 133.445312 28.703125 C 133.445312 27.140625 134.089844 17.308594 134.300781 15.882812 C 134.582031 13.769531 134.566406 13.714844 133.445312 13.695312 C 133.082031 13.695312 131.980469 13.527344 130.992188 13.332031 L 129.203125 12.992188 Z M 129.335938 16.625 "/>
<path style=" stroke:none;fill-rule:nonzero;fill:rgb(0%,0%,0%);fill-opacity:1;" d="M 264.417969 20.636719 L 264.417969 22.882812 L 265.613281 22.769531 C 266.257812 22.691406 267.839844 22.578125 269.128906 22.523438 L 271.464844 22.386719 L 271.410156 31.210938 C 271.332031 40.878906 271.355469 40.6875 270.117188 42.796875 L 269.625 43.652344 L 271.144531 44.71875 C 272 45.308594 272.855469 45.976562 273.046875 46.203125 C 273.253906 46.414062 273.460938 46.601562 273.539062 46.601562 C 273.617188 46.601562 274.222656 45.878906 274.871094 44.988281 C 275.515625 44.089844 276.75 42.609375 277.609375 41.695312 C 278.464844 40.78125 280 39.109375 281.011719 37.964844 L 282.855469 35.894531 L 282.1875 35 C 281.808594 34.484375 281.316406 33.648438 281.085938 33.097656 L 280.648438 32.109375 L 278.121094 35 L 275.613281 37.910156 L 275.667969 28.285156 L 275.726562 18.640625 L 271.238281 18.640625 C 268.769531 18.640625 266.21875 18.585938 265.574219 18.527344 L 264.417969 18.394531 Z M 264.417969 20.636719 "/>
<path style=" stroke:none;fill-rule:nonzero;fill:rgb(0%,0%,0%);fill-opacity:1;" d="M 451.21875 22.101562 C 451.160156 24.328125 451.007812 26.476562 450.796875 27.578125 C 449.636719 33.972656 446.179688 39.660156 441.351562 43.085938 C 440.476562 43.691406 439.699219 44.261719 439.621094 44.339844 C 439.527344 44.394531 439.867188 44.71875 440.382812 45.023438 C 441.273438 45.59375 443.101562 47.304688 443.101562 47.589844 C 443.101562 48.066406 443.84375 47.496094 445.683594 45.59375 C 449.488281 41.714844 451.121094 39.296875 452.792969 35.148438 C 453.289062 33.894531 453.746094 32.847656 453.78125 32.8125 C 453.820312 32.753906 454.046875 33.308594 454.277344 34.027344 C 455.132812 36.652344 456.9375 39.773438 458.953125 42.09375 C 459.886719 43.179688 464.238281 46.984375 464.539062 46.984375 C 464.617188 46.984375 464.84375 46.695312 465.035156 46.335938 C 465.472656 45.535156 466.957031 43.996094 467.679688 43.636719 C 467.960938 43.484375 468.191406 43.328125 468.191406 43.273438 C 468.191406 43.234375 467.621094 42.875 466.917969 42.492188 C 464.371094 41.085938 462.925781 40.019531 461.253906 38.328125 C 459.238281 36.292969 458.023438 34.351562 457.070312 31.6875 C 456.007812 28.742188 455.777344 26.953125 455.875 22.617188 L 455.96875 18.890625 L 454.144531 18.753906 C 453.136719 18.699219 452.089844 18.585938 451.824219 18.527344 L 451.3125 18.414062 Z M 451.21875 22.101562 "/>
<path style=" stroke:none;fill-rule:nonzero;fill:rgb(0%,0%,0%);fill-opacity:1;" d="M 114.355469 20.449219 C 113.980469 21.035156 113.351562 21.855469 112.96875 22.273438 C 112.589844 22.691406 112.324219 23.054688 112.363281 23.09375 C 112.398438 23.109375 113.125 23.453125 113.941406 23.835938 C 115.59375 24.613281 117.910156 26.171875 119.601562 27.617188 L 120.6875 28.550781 L 122.417969 26.800781 C 123.351562 25.847656 124.128906 25.050781 124.128906 25.011719 C 124.128906 24.824219 115.441406 19.402344 115.136719 19.402344 C 115.097656 19.402344 114.738281 19.875 114.355469 20.449219 Z M 114.355469 20.449219 "/>
<path style=" stroke:none;fill-rule:nonzero;fill:rgb(0%,0%,0%);fill-opacity:1;" d="M 648.359375 20.621094 C 647.675781 21.191406 647.050781 21.761719 646.972656 21.875 C 646.894531 21.988281 647.21875 22.578125 647.691406 23.167969 C 648.609375 24.347656 650.300781 26.898438 650.300781 27.125 C 650.300781 27.257812 646.515625 27.085938 645.320312 26.898438 L 644.59375 26.765625 L 644.59375 30.8125 L 649.347656 30.703125 L 654.097656 30.566406 L 654.097656 34.105469 L 649.40625 33.972656 C 646.800781 33.894531 644.328125 33.800781 643.894531 33.746094 L 643.074219 33.628906 L 643.074219 37.566406 L 648.625 37.511719 L 654.15625 37.433594 L 654.042969 41.636719 L 653.929688 45.84375 L 658.207031 45.84375 L 658.128906 41.636719 L 658.054688 37.453125 L 668.925781 37.566406 L 668.925781 33.894531 L 663.507812 34.011719 L 658.089844 34.105469 L 658.089844 30.566406 L 662.84375 30.679688 L 667.597656 30.777344 L 667.597656 27.070312 L 664.554688 27.164062 C 662.882812 27.21875 661.511719 27.203125 661.511719 27.125 C 661.511719 27.070312 661.875 26.34375 662.332031 25.542969 C 663.226562 23.929688 664.042969 23 664.917969 22.617188 C 665.238281 22.464844 665.507812 22.3125 665.507812 22.253906 C 665.507812 22.179688 661.304688 20.21875 660.902344 20.105469 C 660.832031 20.085938 660.238281 21.132812 659.613281 22.445312 C 658.984375 23.757812 658.128906 25.355469 657.710938 26.003906 L 656.972656 27.203125 L 650.773438 27.203125 L 651.722656 26.535156 C 653.777344 25.089844 653.664062 25.222656 653.300781 24.613281 C 652.789062 23.71875 649.824219 19.59375 649.710938 19.59375 C 649.652344 19.59375 649.042969 20.066406 648.359375 20.621094 Z M 648.359375 20.621094 "/>
<path style=" stroke:none;fill-rule:nonzero;fill:rgb(0%,0%,0%);fill-opacity:1;" d="M 1.519531 21.644531 L 1.519531 23.433594 L 4.183594 23.300781 L 6.84375 23.148438 L 6.804688 31.308594 L 6.75 39.46875 L 5.894531 39.601562 C 5.417969 39.660156 4.332031 39.734375 3.476562 39.753906 C 2.320312 39.792969 1.902344 39.867188 1.902344 40.058594 C 1.902344 40.191406 2.207031 41.144531 2.566406 42.171875 C 2.945312 43.195312 3.269531 44.128906 3.328125 44.261719 C 3.382812 44.433594 3.574219 44.433594 4.03125 44.300781 C 6.9375 43.445312 15.285156 41.523438 17.734375 41.183594 L 18.628906 41.050781 L 18.628906 46.601562 L 22.714844 46.601562 L 22.714844 40.417969 L 23.914062 40.25 L 25.089844 40.058594 L 25.089844 38.195312 C 25.089844 37.167969 25.035156 36.332031 24.957031 36.332031 C 24.863281 36.332031 24.390625 36.464844 23.875 36.617188 C 23.363281 36.769531 22.867188 36.902344 22.773438 36.902344 C 22.695312 36.902344 22.621094 33.800781 22.621094 30.035156 L 22.621094 23.167969 L 33.550781 23.242188 L 44.480469 23.300781 L 44.480469 19.875 L 1.519531 19.875 Z M 18.628906 24.730469 L 18.628906 26.25 L 10.835938 26.25 L 10.835938 23.203125 L 18.628906 23.203125 Z M 18.628906 30.910156 L 18.628906 32.335938 L 10.835938 32.335938 L 10.835938 29.480469 L 18.628906 29.480469 Z M 18.535156 36.617188 L 18.535156 37.757812 L 15.019531 38.273438 C 13.078125 38.539062 11.347656 38.785156 11.175781 38.785156 C 10.875 38.804688 10.835938 38.59375 10.835938 37.089844 L 10.835938 35.378906 L 14.695312 35.417969 L 18.535156 35.476562 Z M 18.535156 36.617188 "/>
<path style=" stroke:none;fill-rule:nonzero;fill:rgb(0%,0%,0%);fill-opacity:1;" d="M 326.574219 24.101562 L 326.574219 26.058594 L 333.035156 26.058594 L 332.941406 26.574219 C 332.902344 26.875 332.753906 27.75 332.636719 28.53125 C 331.953125 32.964844 330.375 35.988281 327.523438 38.328125 C 325.816406 39.734375 323.667969 40.988281 321.195312 42.039062 C 320.074219 42.515625 319.160156 42.953125 319.160156 43.007812 C 319.160156 43.085938 319.503906 43.367188 319.921875 43.652344 C 320.71875 44.207031 322.089844 45.613281 322.601562 46.414062 L 322.90625 46.886719 L 324.125 46.148438 C 331.117188 41.867188 333.914062 39.015625 335.621094 34.429688 C 336.191406 32.910156 337.027344 29.292969 337.316406 26.953125 L 337.429688 26.058594 L 342.125 26.039062 C 344.710938 26.039062 346.949219 26.003906 347.121094 25.964844 C 347.960938 25.8125 347.960938 25.925781 347.238281 32.699219 C 346.515625 39.375 346.269531 40.496094 345.527344 40.855469 C 345.296875 40.972656 343.910156 41.105469 342.449219 41.160156 C 340.984375 41.21875 339.769531 41.257812 339.746094 41.257812 C 339.730469 41.277344 340.050781 41.941406 340.449219 42.757812 C 340.851562 43.578125 341.34375 44.777344 341.515625 45.421875 C 341.703125 46.070312 341.898438 46.601562 341.972656 46.601562 C 342.296875 46.601562 347.5625 45.230469 348.09375 45.023438 C 349.003906 44.625 349.898438 43.617188 350.335938 42.492188 C 350.582031 41.789062 350.964844 39.203125 351.570312 33.820312 C 352.046875 29.597656 352.558594 25.300781 352.710938 24.253906 C 352.863281 23.226562 352.957031 22.351562 352.941406 22.332031 C 352.921875 22.3125 346.972656 22.253906 339.746094 22.214844 L 326.574219 22.140625 Z M 326.574219 24.101562 "/>
<path style=" stroke:none;fill-rule:nonzero;fill:rgb(0%,0%,0%);fill-opacity:1;" d="M 384.644531 22.921875 C 383.808594 23.398438 383.050781 23.796875 382.9375 23.835938 C 382.84375 23.871094 382.9375 24.253906 383.183594 24.652344 C 383.429688 25.050781 384.285156 26.726562 385.085938 28.339844 L 386.546875 31.308594 L 387.691406 30.511719 C 388.316406 30.054688 389.152344 29.539062 389.550781 29.371094 C 389.929688 29.199219 390.253906 28.972656 390.253906 28.894531 C 390.253906 28.742188 389.25 26.859375 387.347656 23.433594 C 386.929688 22.691406 386.492188 22.066406 386.375 22.082031 C 386.265625 22.082031 385.484375 22.464844 384.644531 22.921875 Z M 384.644531 22.921875 "/>
<path style=" stroke:none;fill-rule:nonzero;fill:rgb(0%,0%,0%);fill-opacity:1;" d="M 599.601562 28.285156 C 599.695312 30.054688 599.714844 35.054688 599.660156 39.414062 L 599.5625 47.363281 L 603.914062 47.363281 L 603.914062 43.75 L 617.03125 43.75 L 617.03125 46.792969 L 621.3125 46.792969 L 621.3125 25.105469 L 599.449219 25.105469 Z M 617.03125 30.625 L 617.03125 32.527344 L 603.914062 32.527344 L 603.914062 28.722656 L 617.03125 28.722656 Z M 617.03125 38.136719 L 617.03125 40.136719 L 603.914062 40.136719 L 603.914062 36.140625 L 617.03125 36.140625 Z M 617.03125 38.136719 "/>
<path style=" stroke:none;fill-rule:nonzero;fill:rgb(0%,0%,0%);fill-opacity:1;" d="M 23.953125 27.847656 L 23.953125 29.675781 L 25.585938 29.675781 L 25.949219 31.042969 C 26.746094 34.199219 27.90625 36.597656 29.617188 38.59375 L 30.492188 39.621094 L 29.175781 40.839844 C 27.921875 42.019531 25.28125 43.519531 23.894531 43.863281 C 23.609375 43.921875 23.382812 44.054688 23.421875 44.128906 C 23.457031 44.207031 24.140625 44.964844 24.957031 45.84375 L 26.421875 47.402344 L 26.953125 47.058594 C 28.226562 46.242188 31.003906 44.074219 32.164062 43.007812 L 33.417969 41.847656 L 35.472656 42.96875 C 37.375 44.035156 39.652344 45.042969 41.953125 45.84375 L 42.941406 46.203125 L 43.167969 45.5 C 43.285156 45.121094 43.71875 44.167969 44.117188 43.425781 C 44.859375 42.054688 44.859375 42.039062 44.445312 41.960938 C 44.195312 41.90625 43.285156 41.714844 42.410156 41.542969 C 40.28125 41.144531 38.171875 40.441406 36.878906 39.71875 C 36.308594 39.390625 35.8125 39.125 35.777344 39.085938 C 35.753906 39.070312 36.117188 38.367188 36.59375 37.527344 C 37.980469 35.09375 39.9375 29.808594 40.585938 26.859375 L 40.71875 26.25 L 33.492188 26.25 C 29.539062 26.25 25.753906 26.191406 25.113281 26.136719 L 23.953125 26.003906 Z M 35.925781 29.636719 C 35.925781 30.089844 34.671875 33.382812 34.007812 34.714844 C 32.886719 36.917969 32.808594 36.980469 32.03125 36.046875 C 30.699219 34.46875 29.558594 32.089844 29.199219 30.089844 L 29.105469 29.480469 L 32.503906 29.480469 C 34.386719 29.480469 35.925781 29.558594 35.925781 29.636719 Z M 35.925781 29.636719 "/>
<path style=" stroke:none;fill-rule:nonzero;fill:rgb(0%,0%,0%);fill-opacity:1;" d="M 58.832031 33.496094 C 57.445312 35.835938 56.589844 37.050781 54.78125 39.257812 L 53.527344 40.78125 L 54.003906 41.066406 C 54.25 41.238281 54.992188 41.828125 55.660156 42.378906 C 56.324219 42.953125 56.894531 43.367188 56.914062 43.328125 C 57.710938 42.34375 63.871094 33.992188 63.832031 33.972656 C 63.792969 33.933594 63.300781 33.648438 62.730469 33.308594 C 62.160156 32.945312 61.320312 32.375 60.886719 32.03125 L 60.089844 31.382812 Z M 58.832031 33.496094 "/>
<path style=" stroke:none;fill-rule:nonzero;fill:rgb(0%,0%,0%);fill-opacity:1;" d="M 71.1875 32.925781 C 70.464844 33.441406 69.785156 33.953125 69.6875 34.046875 C 69.589844 34.144531 69.933594 34.847656 70.523438 35.796875 C 71.074219 36.675781 72.007812 38.25 72.578125 39.335938 L 73.605469 41.292969 L 74.59375 40.363281 C 75.125 39.867188 75.84375 39.28125 76.1875 39.085938 C 76.511719 38.882812 76.796875 38.632812 76.796875 38.515625 C 76.796875 38.25 72.710938 31.9375 72.558594 31.957031 C 72.539062 31.976562 71.929688 32.394531 71.1875 32.925781 Z M 71.1875 32.925781 "/>
<path style=" stroke:none;fill-rule:nonzero;fill:rgb(0%,0%,0%);fill-opacity:1;" d="M 133.347656 36.84375 C 132.664062 37.777344 132.113281 38.554688 132.113281 38.613281 C 132.113281 38.671875 133.976562 39.8125 136.257812 41.183594 C 138.519531 42.550781 141.652344 44.488281 143.214844 45.519531 C 145.511719 47.039062 146.085938 47.34375 146.273438 47.132812 C 147.472656 45.824219 149.429688 43.519531 149.390625 43.484375 C 149.257812 43.386719 139.90625 38.023438 137.339844 36.578125 C 135.992188 35.816406 134.8125 35.1875 134.714844 35.1875 C 134.640625 35.1875 134.03125 35.929688 133.347656 36.84375 Z M 133.347656 36.84375 "/>
<path style=" stroke:none;fill-rule:nonzero;fill:rgb(0%,0%,0%);fill-opacity:1;" d="M 225.671875 37.015625 C 221.78125 38.308594 218.964844 39.015625 215.085938 39.660156 C 213.414062 39.945312 211.855469 40.210938 211.625 40.25 C 211.210938 40.324219 211.210938 40.34375 211.855469 41.449219 C 212.21875 42.054688 212.75 43.101562 213.035156 43.769531 C 213.300781 44.433594 213.546875 45.003906 213.566406 45.042969 C 213.582031 45.058594 214.191406 44.816406 214.914062 44.488281 C 216.835938 43.617188 217.765625 43.3125 223.449219 41.734375 C 226.285156 40.953125 228.734375 40.269531 228.925781 40.210938 C 229.210938 40.117188 229.25 39.851562 229.25 38.023438 C 229.25 36.480469 229.191406 35.949219 229.023438 35.96875 C 228.886719 35.988281 227.386719 36.445312 225.671875 37.015625 Z M 225.671875 37.015625 "/>
</g>
</svg>
