<?xml version="1.0" encoding="UTF-8"?>
<svg xmlns="http://www.w3.org/2000/svg" xmlns:xlink="http://www.w3.org/1999/xlink" width="209pt" height="15pt" viewBox="0 0 209 15" version="1.1">
<g id="surface1">
<path style=" stroke:none;fill-rule:nonzero;fill:rgb(0%,0%,0%);fill-opacity:1;" d="M 166.214844 0.613281 C 166.1875 0.691406 166.0625 0.96875 165.941406 1.242188 C 165.203125 2.855469 164.257812 4.222656 163.039062 5.4375 C 162.726562 5.742188 162.476562 6.003906 162.476562 6.027344 C 162.476562 6.042969 162.535156 6.089844 162.609375 6.121094 C 162.679688 6.15625 162.960938 6.363281 163.230469 6.570312 C 163.5 6.78125 163.738281 6.957031 163.757812 6.957031 C 163.785156 6.957031 164 6.722656 164.234375 6.433594 L 164.667969 5.910156 L 164.695312 9.402344 L 164.726562 12.890625 L 164.890625 13.21875 C 165.050781 13.558594 165.273438 13.753906 165.6875 13.921875 C 166.003906 14.042969 173.324219 14.070312 173.921875 13.949219 C 174.664062 13.792969 175.066406 13.402344 175.453125 12.46875 C 175.777344 11.683594 175.777344 11.714844 175.523438 11.671875 C 175.183594 11.617188 174.722656 11.375 174.429688 11.109375 C 174.125 10.828125 174.179688 10.78125 174.019531 11.546875 C 173.886719 12.210938 173.8125 12.453125 173.695312 12.570312 C 173.476562 12.785156 173.078125 12.808594 169.742188 12.792969 C 166.851562 12.777344 166.519531 12.765625 166.355469 12.675781 C 166.015625 12.496094 165.980469 12.3125 165.980469 10.941406 L 165.980469 9.703125 L 171.152344 9.703125 L 171.152344 5.320312 L 168.160156 5.320312 C 166.515625 5.320312 165.164062 5.308594 165.164062 5.289062 C 165.164062 5.277344 165.402344 4.9375 165.695312 4.546875 C 165.984375 4.148438 166.238281 3.792969 166.257812 3.753906 C 166.28125 3.703125 167.035156 3.683594 169.761719 3.683594 L 173.238281 3.683594 L 173.203125 4.191406 C 173.1875 4.476562 173.128906 5.539062 173.078125 6.546875 C 172.957031 9.15625 172.953125 9.183594 172.464844 9.292969 C 172.300781 9.324219 172.015625 9.355469 171.835938 9.355469 C 171.367188 9.355469 171.320312 9.402344 171.480469 9.671875 C 171.546875 9.792969 171.675781 10.105469 171.769531 10.367188 C 171.929688 10.828125 171.945312 10.84375 172.125 10.863281 C 172.386719 10.886719 173.417969 10.617188 173.667969 10.464844 C 173.910156 10.316406 174.125 9.957031 174.214844 9.558594 C 174.25 9.394531 174.34375 7.980469 174.421875 6.402344 C 174.511719 4.828125 174.597656 3.355469 174.628906 3.128906 C 174.65625 2.90625 174.6875 2.671875 174.6875 2.621094 C 174.6875 2.519531 174.453125 2.515625 170.859375 2.503906 L 167.035156 2.484375 L 167.289062 2.097656 C 167.429688 1.890625 167.671875 1.601562 167.816406 1.460938 L 168.085938 1.203125 L 167.570312 1.023438 C 167.289062 0.917969 166.882812 0.753906 166.664062 0.65625 L 166.265625 0.472656 Z M 169.839844 7.511719 L 169.839844 8.539062 L 165.980469 8.539062 L 165.980469 6.488281 L 169.839844 6.488281 Z M 169.839844 7.511719 "/>
<path style=" stroke:none;fill-rule:nonzero;fill:rgb(0%,0%,0%);fill-opacity:1;" d="M 39.792969 0.589844 C 39.710938 0.621094 39.425781 0.703125 39.152344 0.773438 C 38.875 0.835938 38.625 0.914062 38.59375 0.941406 C 38.566406 0.964844 38.65625 1.226562 38.777344 1.53125 C 38.902344 1.832031 39.027344 2.132812 39.050781 2.203125 L 39.09375 2.339844 L 33.242188 2.339844 L 33.242188 5.289062 L 34.703125 5.257812 L 34.703125 3.507812 L 39.511719 3.519531 L 44.3125 3.539062 L 44.332031 4.3125 L 44.347656 5.09375 L 45.050781 5.074219 L 45.757812 5.054688 L 45.761719 3.703125 L 45.773438 2.339844 L 40.695312 2.339844 L 40.472656 1.691406 C 40.1875 0.882812 40.039062 0.527344 39.976562 0.53125 C 39.957031 0.53125 39.867188 0.5625 39.792969 0.589844 Z M 39.792969 0.589844 "/>
<path style=" stroke:none;fill-rule:nonzero;fill:rgb(0%,0%,0%);fill-opacity:1;" d="M 74.113281 0.765625 C 73.851562 0.859375 73.585938 0.933594 73.511719 0.933594 C 73.351562 0.933594 73.34375 1.046875 73.492188 1.332031 C 73.585938 1.519531 73.8125 2.167969 73.9375 2.625 L 73.976562 2.761719 L 72.160156 2.742188 L 70.34375 2.71875 L 70.34375 3.898438 L 71.6875 3.871094 C 72.429688 3.851562 73.03125 3.859375 73.03125 3.886719 C 73.03125 3.910156 72.925781 4.144531 72.804688 4.414062 C 72.207031 5.6875 71.328125 6.675781 70.644531 6.839844 L 70.359375 6.902344 L 70.609375 7.503906 C 70.753906 7.828125 70.871094 8.132812 70.871094 8.179688 C 70.871094 8.21875 70.902344 8.246094 70.953125 8.21875 C 71.144531 8.148438 72.152344 7.992188 72.195312 8.035156 C 72.269531 8.101562 72.28125 9.046875 72.21875 9.804688 C 72.125 10.980469 71.808594 11.792969 71.164062 12.515625 C 70.898438 12.820312 70.246094 13.34375 69.75 13.640625 L 69.417969 13.832031 L 69.789062 13.996094 C 70.039062 14.101562 70.25 14.253906 70.429688 14.445312 L 70.703125 14.738281 L 71 14.503906 C 71.417969 14.183594 72.042969 13.5625 72.359375 13.15625 C 73.097656 12.191406 73.402344 11.03125 73.480469 8.898438 L 73.511719 7.835938 L 73.785156 7.835938 C 73.929688 7.835938 74.152344 7.816406 74.273438 7.800781 L 74.488281 7.757812 L 74.488281 10.355469 C 74.488281 11.910156 74.519531 13.054688 74.554688 13.210938 C 74.640625 13.601562 74.851562 13.878906 75.171875 14.039062 C 75.429688 14.167969 75.542969 14.175781 76.46875 14.195312 C 77.605469 14.21875 77.828125 14.183594 78.136719 13.910156 C 78.414062 13.664062 78.605469 13.316406 78.84375 12.617188 C 79.070312 11.945312 79.082031 11.992188 78.609375 11.875 C 78.480469 11.839844 78.195312 11.707031 77.984375 11.574219 C 77.769531 11.449219 77.582031 11.34375 77.5625 11.34375 C 77.539062 11.34375 77.53125 11.429688 77.53125 11.539062 C 77.53125 11.839844 77.371094 12.59375 77.269531 12.792969 C 77.15625 13.015625 77.085938 13.039062 76.535156 13.039062 C 76.132812 13.039062 76.054688 13.019531 75.910156 12.898438 L 75.746094 12.757812 L 75.746094 7.6875 L 76.207031 7.632812 C 76.59375 7.59375 76.679688 7.601562 76.734375 7.671875 C 76.769531 7.726562 76.925781 7.9375 77.078125 8.148438 L 77.359375 8.542969 L 77.632812 8.34375 C 77.785156 8.230469 78.058594 8.050781 78.246094 7.9375 L 78.578125 7.738281 L 78.023438 6.929688 C 77.445312 6.089844 76.613281 4.996094 76.417969 4.824219 C 76.304688 4.722656 76.289062 4.722656 75.96875 4.953125 C 75.78125 5.082031 75.519531 5.242188 75.378906 5.316406 L 75.128906 5.441406 L 75.261719 5.628906 C 75.34375 5.734375 75.542969 6 75.710938 6.226562 L 76.019531 6.636719 L 75.558594 6.675781 C 74.996094 6.730469 72.539062 6.832031 72.515625 6.8125 C 72.460938 6.757812 74.003906 5.003906 74.3125 4.761719 L 74.664062 4.484375 L 74.203125 4.226562 C 73.949219 4.085938 73.71875 3.941406 73.695312 3.90625 C 73.667969 3.863281 74.386719 3.851562 76.148438 3.863281 L 78.636719 3.886719 L 78.636719 2.71875 L 76.4375 2.730469 C 75.21875 2.738281 74.257812 2.730469 74.285156 2.71875 C 74.320312 2.707031 74.566406 2.632812 74.839844 2.546875 C 75.113281 2.472656 75.335938 2.386719 75.335938 2.351562 C 75.335938 2.210938 74.691406 0.589844 74.636719 0.597656 C 74.605469 0.597656 74.367188 0.679688 74.113281 0.765625 Z M 74.113281 0.765625 "/>
<path style=" stroke:none;fill-rule:nonzero;fill:rgb(0%,0%,0%);fill-opacity:1;" d="M 149.351562 0.742188 C 149.285156 1.023438 148.71875 2.40625 148.453125 2.925781 C 147.746094 4.332031 146.675781 5.984375 146.023438 6.675781 C 145.882812 6.828125 145.765625 6.976562 145.765625 7.003906 C 145.765625 7.035156 145.878906 7.15625 146.019531 7.285156 C 146.152344 7.40625 146.375 7.640625 146.5 7.800781 L 146.742188 8.082031 L 147.496094 7.027344 C 147.910156 6.441406 148.265625 5.96875 148.296875 5.96875 C 148.402344 5.957031 148.320312 13.953125 148.207031 14.511719 C 148.199219 14.570312 148.367188 14.59375 148.945312 14.605469 L 149.691406 14.625 L 149.644531 14.488281 C 149.621094 14.410156 149.59375 11.996094 149.582031 9.113281 L 149.558594 3.871094 L 149.851562 3.222656 C 150.207031 2.429688 150.5625 1.8125 150.832031 1.519531 L 151.03125 1.296875 L 150.71875 1.199219 C 150.550781 1.140625 150.191406 0.980469 149.917969 0.84375 C 149.652344 0.703125 149.421875 0.585938 149.410156 0.585938 C 149.398438 0.585938 149.371094 0.65625 149.351562 0.742188 Z M 149.351562 0.742188 "/>
<path style=" stroke:none;fill-rule:nonzero;fill:rgb(0%,0%,0%);fill-opacity:1;" d="M 200.890625 1.46875 L 200.9375 2.351562 L 198.371094 2.320312 C 196.957031 2.300781 195.71875 2.269531 195.621094 2.246094 L 195.425781 2.210938 L 195.425781 3.519531 L 195.648438 3.484375 C 195.765625 3.460938 197.003906 3.433594 198.394531 3.414062 L 200.921875 3.378906 L 200.921875 4.851562 L 195.777344 4.851562 L 195.816406 5.539062 C 195.851562 5.917969 195.863281 7.804688 195.863281 9.734375 C 195.863281 11.664062 195.851562 13.550781 195.816406 13.925781 L 195.777344 14.617188 L 197.121094 14.617188 L 197.121094 5.90625 L 206.058594 5.90625 L 206.046875 9.5 C 206.039062 12.347656 206.011719 13.109375 205.953125 13.167969 C 205.902344 13.21875 205.652344 13.25 205.183594 13.257812 C 204.800781 13.273438 204.484375 13.289062 204.484375 13.300781 C 204.484375 13.3125 204.601562 13.59375 204.746094 13.933594 C 204.890625 14.273438 205.007812 14.578125 205.007812 14.625 C 205.007812 14.699219 205.066406 14.691406 206.046875 14.464844 C 206.789062 14.292969 206.976562 14.175781 207.144531 13.785156 C 207.246094 13.550781 207.257812 13.246094 207.300781 9.382812 C 207.316406 7.101562 207.355469 5.144531 207.375 5.042969 L 207.414062 4.851562 L 202.144531 4.851562 L 202.144531 3.378906 L 205.035156 3.402344 L 207.929688 3.421875 L 207.929688 2.308594 L 205.03125 2.328125 L 202.125 2.351562 L 202.15625 1.46875 L 202.183594 0.585938 L 200.851562 0.585938 Z M 200.890625 1.46875 "/>
<path style=" stroke:none;fill-rule:nonzero;fill:rgb(0%,0%,0%);fill-opacity:1;" d="M 20.273438 0.824219 C 19.933594 0.914062 19.664062 1.007812 19.671875 1.035156 C 19.679688 1.0625 19.746094 1.351562 19.828125 1.675781 C 19.910156 2.003906 19.980469 2.292969 19.980469 2.316406 C 19.980469 2.335938 19.320312 2.34375 18.519531 2.328125 L 17.054688 2.300781 L 17.070312 2.914062 L 17.089844 3.511719 L 20.4375 3.523438 L 23.78125 3.539062 L 23.78125 2.292969 L 22.5625 2.320312 L 21.347656 2.355469 L 21.175781 1.519531 C 21.078125 1.058594 20.972656 0.679688 20.945312 0.671875 C 20.910156 0.667969 20.609375 0.734375 20.273438 0.824219 Z M 20.273438 0.824219 "/>
<path style=" stroke:none;fill-rule:nonzero;fill:rgb(0%,0%,0%);fill-opacity:1;" d="M 132.417969 0.859375 C 132.316406 1.449219 132.195312 2.058594 132.085938 2.476562 L 131.960938 2.933594 L 130.980469 2.914062 L 129.992188 2.886719 L 129.992188 4.039062 L 130.839844 4 C 131.558594 3.960938 131.6875 3.96875 131.664062 4.039062 C 131.242188 5.355469 130.933594 6.199219 130.6875 6.675781 C 130.617188 6.8125 130.4375 7.046875 130.273438 7.210938 L 129.980469 7.503906 L 130.226562 8.0625 C 130.367188 8.371094 130.476562 8.628906 130.484375 8.636719 C 130.488281 8.640625 130.738281 8.605469 131.046875 8.558594 C 131.347656 8.511719 131.929688 8.460938 132.347656 8.433594 L 133.089844 8.402344 L 133.089844 10.335938 L 132.933594 10.375 C 132.699219 10.417969 130.867188 10.628906 130.304688 10.675781 L 129.820312 10.710938 L 129.984375 11.046875 C 130.082031 11.226562 130.199219 11.511719 130.25 11.675781 C 130.308594 11.84375 130.359375 11.984375 130.375 11.984375 C 130.382812 11.984375 130.664062 11.921875 130.996094 11.84375 C 131.324219 11.765625 131.890625 11.644531 132.242188 11.574219 C 132.597656 11.507812 132.9375 11.4375 132.996094 11.417969 C 133.105469 11.390625 133.105469 11.429688 133.066406 13.0625 L 133.023438 14.734375 L 134.351562 14.734375 L 134.328125 12.984375 L 134.304688 11.242188 L 135.109375 11.121094 C 135.5625 11.050781 136.070312 10.984375 136.242188 10.980469 L 136.566406 10.960938 L 136.59375 10.40625 C 136.609375 10.105469 136.617188 9.839844 136.609375 9.828125 C 136.605469 9.816406 136.25 9.863281 135.824219 9.925781 C 135.394531 9.996094 134.882812 10.070312 134.683594 10.09375 L 134.316406 10.132812 L 134.316406 8.421875 L 135.472656 8.40625 L 136.625 8.390625 L 136.640625 7.875 L 136.65625 7.367188 L 134.300781 7.367188 L 134.339844 6.441406 C 134.355469 5.941406 134.390625 5.4375 134.410156 5.332031 L 134.445312 5.144531 L 133.023438 5.144531 L 133.066406 6.253906 L 133.105469 7.367188 L 132.371094 7.367188 C 131.960938 7.367188 131.628906 7.359375 131.628906 7.347656 C 131.628906 7.335938 131.742188 7.039062 131.867188 6.6875 C 132 6.335938 132.277344 5.589844 132.480469 5.027344 L 132.84375 4.003906 L 133.917969 4.003906 C 134.507812 4.003906 135.285156 4.023438 135.648438 4.054688 L 136.308594 4.09375 L 136.292969 3.496094 L 136.273438 2.898438 L 134.734375 2.917969 L 133.195312 2.933594 L 133.234375 2.796875 C 133.433594 2.15625 133.703125 1.519531 133.84375 1.335938 L 134.019531 1.125 L 133.714844 1.046875 C 133.445312 0.980469 132.820312 0.785156 132.550781 0.671875 C 132.46875 0.640625 132.445312 0.679688 132.417969 0.859375 Z M 132.417969 0.859375 "/>
<path style=" stroke:none;fill-rule:nonzero;fill:rgb(0%,0%,0%);fill-opacity:1;" d="M 154.671875 0.859375 C 154.6875 0.980469 154.722656 1.8125 154.742188 2.703125 L 154.78125 4.328125 L 153.71875 4.328125 C 152.84375 4.328125 152.660156 4.3125 152.660156 4.246094 C 152.660156 4.117188 153.121094 2.8125 153.277344 2.496094 C 153.363281 2.34375 153.449219 2.222656 153.480469 2.222656 C 153.511719 2.222656 153.539062 2.195312 153.539062 2.175781 C 153.539062 2.144531 153.375 2.082031 153.175781 2.023438 C 152.976562 1.96875 152.625 1.835938 152.394531 1.730469 L 151.96875 1.53125 L 151.84375 2.1875 C 151.585938 3.472656 151.054688 5.054688 150.480469 6.253906 C 150.316406 6.59375 150.179688 6.882812 150.164062 6.898438 C 150.152344 6.917969 150.324219 7.003906 150.539062 7.101562 C 150.761719 7.191406 151.039062 7.332031 151.160156 7.40625 C 151.289062 7.488281 151.394531 7.542969 151.402344 7.53125 C 151.414062 7.519531 151.609375 7.0625 151.832031 6.519531 L 152.238281 5.523438 L 153.5 5.507812 L 154.765625 5.496094 L 154.765625 8.542969 L 150.296875 8.519531 L 150.277344 9.132812 L 150.257812 9.75 L 152.523438 9.714844 L 154.777344 9.6875 L 154.742188 11.90625 C 154.722656 13.121094 154.695312 14.230469 154.671875 14.371094 L 154.636719 14.617188 L 156.078125 14.617188 L 156.054688 12.15625 L 156.039062 9.6875 L 157.914062 9.714844 L 159.789062 9.746094 L 159.789062 8.40625 L 159.601562 8.441406 C 159.496094 8.464844 158.65625 8.496094 157.730469 8.519531 L 156.050781 8.554688 L 156.050781 5.492188 L 159.320312 5.523438 L 159.320312 4.28125 L 157.679688 4.308594 L 156.039062 4.34375 L 156.074219 2.710938 C 156.089844 1.820312 156.117188 0.980469 156.144531 0.859375 L 156.175781 0.640625 L 154.636719 0.640625 Z M 154.671875 0.859375 "/>
<path style=" stroke:none;fill-rule:nonzero;fill:rgb(0%,0%,0%);fill-opacity:1;" d="M 116.273438 2.316406 L 116.304688 3.863281 L 115.171875 3.847656 L 114.042969 3.832031 L 114.042969 5.035156 L 115.023438 5.027344 C 115.5625 5.027344 116.03125 5.023438 116.070312 5.027344 C 116.117188 5.027344 116.09375 5.152344 116 5.417969 C 115.445312 7.035156 114.796875 8.3125 113.851562 9.671875 C 113.578125 10.0625 113.472656 10.261719 113.515625 10.289062 C 113.558594 10.316406 113.808594 10.554688 114.078125 10.816406 C 114.347656 11.085938 114.582031 11.289062 114.597656 11.28125 C 114.703125 11.167969 115.464844 9.816406 115.832031 9.074219 C 116.074219 8.589844 116.285156 8.1875 116.304688 8.1875 C 116.316406 8.1875 116.316406 9.59375 116.300781 11.3125 L 116.261719 14.445312 L 116.945312 14.429688 C 117.523438 14.410156 117.628906 14.402344 117.613281 14.324219 C 117.574219 14.132812 117.554688 5.167969 117.59375 5.097656 C 117.636719 5.042969 117.871094 5.027344 118.617188 5.042969 L 119.59375 5.054688 L 119.59375 3.832031 L 118.585938 3.847656 L 117.566406 3.863281 L 117.554688 3.523438 C 117.542969 3.085938 117.652344 1.0625 117.699219 0.886719 C 117.734375 0.757812 117.734375 0.757812 116.996094 0.757812 L 116.246094 0.757812 Z M 116.273438 2.316406 "/>
<path style=" stroke:none;fill-rule:nonzero;fill:rgb(0%,0%,0%);fill-opacity:1;" d="M 29.265625 0.847656 C 29.207031 0.902344 27.882812 1.222656 27.21875 1.335938 C 26.851562 1.402344 26.222656 1.484375 25.816406 1.519531 C 25.421875 1.554688 24.988281 1.597656 24.859375 1.613281 L 24.625 1.636719 L 24.625 5.191406 C 24.625 8.894531 24.613281 9.097656 24.359375 10.378906 C 24.117188 11.53125 23.574219 12.933594 23.054688 13.695312 C 22.984375 13.796875 22.90625 13.914062 22.882812 13.953125 C 22.835938 14.039062 24.046875 14.632812 24.140625 14.574219 C 24.234375 14.523438 24.8125 13.277344 25.042969 12.640625 C 25.558594 11.214844 25.875 9.089844 25.882812 7.058594 L 25.882812 6.546875 L 27.582031 6.546875 L 27.5625 10.554688 L 27.546875 14.558594 L 28.832031 14.558594 L 28.816406 10.542969 L 28.792969 6.53125 L 30.207031 6.609375 L 30.207031 5.347656 L 28.042969 5.375 L 25.882812 5.390625 L 25.894531 4 L 25.910156 2.601562 L 26.757812 2.503906 C 27.226562 2.449219 28.027344 2.371094 28.539062 2.339844 C 29.054688 2.300781 29.640625 2.261719 29.839844 2.246094 L 30.207031 2.210938 L 30.015625 1.988281 C 29.914062 1.867188 29.707031 1.554688 29.5625 1.292969 C 29.410156 1.035156 29.273438 0.828125 29.265625 0.847656 Z M 29.265625 0.847656 "/>
<path style=" stroke:none;fill-rule:nonzero;fill:rgb(0%,0%,0%);fill-opacity:1;" d="M 138.019531 0.976562 C 137.664062 2.570312 136.988281 4.199219 136.128906 5.507812 C 135.933594 5.796875 135.785156 6.042969 135.789062 6.050781 C 135.800781 6.058594 135.933594 6.097656 136.085938 6.140625 C 136.238281 6.179688 136.511719 6.300781 136.695312 6.410156 C 136.871094 6.519531 137.039062 6.605469 137.054688 6.605469 C 137.082031 6.605469 137.339844 6.144531 137.640625 5.582031 L 138.183594 4.5625 L 139.929688 4.5625 C 141.121094 4.5625 141.675781 4.578125 141.675781 4.625 C 141.675781 4.652344 141.558594 5.046875 141.414062 5.492188 C 141.265625 5.933594 141.152344 6.320312 141.152344 6.351562 C 141.152344 6.394531 142.429688 6.695312 142.464844 6.652344 C 142.472656 6.640625 142.558594 6.3125 142.664062 5.917969 C 142.769531 5.519531 142.96875 4.835938 143.117188 4.398438 C 143.253906 3.960938 143.371094 3.585938 143.371094 3.554688 C 143.371094 3.53125 142.277344 3.507812 140.945312 3.507812 C 139.613281 3.507812 138.523438 3.496094 138.523438 3.484375 C 138.523438 3.472656 138.617188 3.234375 138.734375 2.945312 C 138.996094 2.28125 139.304688 1.714844 139.527344 1.484375 C 139.722656 1.273438 139.714844 1.257812 139.316406 1.203125 C 139.070312 1.164062 138.441406 0.976562 138.160156 0.855469 C 138.082031 0.816406 138.050781 0.84375 138.019531 0.976562 Z M 138.019531 0.976562 "/>
<path style=" stroke:none;fill-rule:nonzero;fill:rgb(0%,0%,0%);fill-opacity:1;" d="M 67.304688 1.210938 C 67.203125 1.667969 67 2.222656 66.621094 3.070312 C 66.042969 4.332031 65.53125 5.054688 65.0625 5.300781 C 64.960938 5.347656 64.867188 5.402344 64.863281 5.414062 C 64.851562 5.417969 64.925781 5.695312 65.03125 6.023438 C 65.21875 6.589844 65.230469 6.609375 65.375 6.570312 C 66.09375 6.390625 67.710938 6.199219 67.710938 6.296875 C 67.710938 6.367188 67 7.570312 66.679688 8.039062 C 66.34375 8.539062 65.976562 8.882812 65.628906 9.046875 C 65.457031 9.125 65.316406 9.207031 65.316406 9.238281 C 65.316406 9.285156 65.734375 10.417969 65.765625 10.460938 C 65.773438 10.472656 65.988281 10.429688 66.234375 10.359375 C 66.988281 10.15625 67.457031 10.070312 68.558594 9.945312 C 70.285156 9.746094 70.089844 9.804688 70.136719 9.453125 C 70.160156 9.285156 70.230469 9.019531 70.289062 8.863281 C 70.347656 8.699219 70.390625 8.566406 70.378906 8.554688 C 70.367188 8.542969 70.03125 8.589844 69.632812 8.652344 C 68.65625 8.8125 67.414062 8.957031 67.378906 8.921875 C 67.339844 8.882812 69.015625 6.203125 69.523438 5.484375 C 69.738281 5.191406 70.042969 4.804688 70.214844 4.625 C 70.402344 4.425781 70.488281 4.292969 70.445312 4.273438 C 70.347656 4.242188 69.425781 3.757812 69.191406 3.617188 C 68.988281 3.492188 68.988281 3.496094 68.878906 3.832031 C 68.839844 3.957031 68.6875 4.320312 68.542969 4.628906 L 68.277344 5.203125 L 67.859375 5.203125 C 67.625 5.203125 67.234375 5.222656 66.988281 5.238281 L 66.539062 5.277344 L 66.882812 4.699219 C 67.070312 4.382812 67.445312 3.730469 67.71875 3.25 C 67.988281 2.769531 68.363281 2.195312 68.546875 1.976562 C 68.734375 1.753906 68.878906 1.558594 68.871094 1.550781 C 68.859375 1.539062 67.808594 1.058594 67.4375 0.902344 C 67.398438 0.875 67.347656 0.988281 67.304688 1.210938 Z M 67.304688 1.210938 "/>
<path style=" stroke:none;fill-rule:nonzero;fill:rgb(0%,0%,0%);fill-opacity:1;" d="M 180.757812 0.917969 C 180.75 0.945312 180.757812 1.695312 180.765625 2.59375 L 180.773438 4.226562 L 179.84375 4.179688 C 179.335938 4.15625 178.898438 4.132812 178.863281 4.128906 C 178.828125 4.128906 178.800781 4.363281 178.789062 4.71875 L 178.769531 5.320312 L 180.765625 5.320312 L 180.75 6.617188 L 180.734375 7.921875 L 180.089844 8.136719 C 179.742188 8.257812 179.191406 8.414062 178.875 8.484375 C 178.566406 8.558594 178.3125 8.628906 178.320312 8.648438 C 178.351562 8.707031 178.816406 9.90625 178.859375 10.015625 C 178.894531 10.121094 178.898438 10.121094 179.078125 10.007812 C 179.570312 9.710938 180.570312 9.238281 180.710938 9.238281 C 180.738281 9.238281 180.765625 10.027344 180.765625 10.992188 C 180.765625 13.167969 180.832031 13.015625 179.839844 12.957031 C 179.214844 12.921875 179.175781 12.925781 179.214844 13.019531 C 179.238281 13.078125 179.324219 13.40625 179.414062 13.757812 L 179.566406 14.382812 L 179.914062 14.347656 C 180.484375 14.289062 181.121094 14.148438 181.351562 14.027344 C 181.476562 13.96875 181.644531 13.828125 181.726562 13.714844 C 182.023438 13.316406 182.046875 13.136719 182.046875 10.875 L 182.046875 8.789062 L 182.445312 8.613281 C 182.660156 8.511719 182.984375 8.382812 183.160156 8.324219 L 183.480469 8.21875 L 183.480469 6.851562 L 183.214844 6.957031 C 183.070312 7.015625 182.773438 7.144531 182.554688 7.246094 C 182.335938 7.34375 182.132812 7.425781 182.101562 7.425781 C 182.070312 7.425781 182.046875 6.960938 182.046875 6.371094 L 182.046875 5.320312 L 183.625 5.320312 L 183.625 4.132812 L 182.828125 4.171875 L 182.027344 4.210938 L 182.0625 2.542969 L 182.09375 0.875 L 181.429688 0.875 C 181.058594 0.875 180.765625 0.894531 180.757812 0.917969 Z M 180.757812 0.917969 "/>
<path style=" stroke:none;fill-rule:nonzero;fill:rgb(0%,0%,0%);fill-opacity:1;" d="M 184.164062 3.375 C 184.183594 6.117188 184.175781 6.042969 184.546875 6.441406 C 184.800781 6.71875 185.050781 6.734375 187.976562 6.710938 C 191.011719 6.695312 190.972656 6.695312 191.367188 6.246094 C 191.535156 6.039062 192.097656 4.847656 192.097656 4.683594 C 192.097656 4.648438 191.988281 4.597656 191.851562 4.5625 C 191.492188 4.472656 191.179688 4.328125 190.910156 4.132812 C 190.789062 4.039062 190.675781 3.976562 190.667969 3.988281 C 190.65625 4 190.589844 4.25 190.523438 4.546875 C 190.375 5.238281 190.304688 5.386719 190.050781 5.511719 C 189.867188 5.609375 189.660156 5.613281 187.789062 5.601562 C 185.265625 5.574219 185.464844 5.667969 185.464844 4.636719 L 185.464844 3.953125 L 185.875 3.871094 C 186.234375 3.800781 186.796875 3.675781 188.855469 3.214844 C 189.109375 3.15625 189.484375 3.070312 189.683594 3.015625 C 189.878906 2.964844 190.261719 2.882812 190.53125 2.828125 C 191.273438 2.695312 191.25 2.726562 190.875 2.367188 C 190.625 2.125 190.15625 1.539062 190.082031 1.363281 C 190.074219 1.355469 189.839844 1.46875 189.5625 1.617188 C 188.910156 1.957031 188.492188 2.125 187.847656 2.316406 C 187.164062 2.515625 185.542969 2.863281 185.484375 2.828125 C 185.460938 2.8125 185.453125 2.367188 185.476562 1.835938 L 185.511719 0.875 L 184.144531 0.875 Z M 184.164062 3.375 "/>
<path style=" stroke:none;fill-rule:nonzero;fill:rgb(0%,0%,0%);fill-opacity:1;" d="M 2.542969 3.070312 L 2.542969 5.203125 L 11.832031 5.203125 L 11.820312 3.085938 L 11.8125 0.964844 L 7.175781 0.945312 L 2.542969 0.933594 Z M 10.503906 2.292969 L 10.523438 2.632812 L 3.859375 2.632812 L 3.859375 1.929688 L 7.175781 1.941406 L 10.484375 1.957031 Z M 10.519531 3.949219 L 10.519531 4.265625 L 3.859375 4.265625 L 3.859375 3.625 L 10.519531 3.625 Z M 10.519531 3.949219 "/>
<path style=" stroke:none;fill-rule:nonzero;fill:rgb(0%,0%,0%);fill-opacity:1;" d="M 106.070312 1.089844 C 105.78125 1.164062 105.484375 1.226562 105.414062 1.226562 C 105.34375 1.226562 105.269531 1.25 105.25 1.285156 C 105.207031 1.371094 105.640625 2.460938 106.019531 3.199219 C 106.714844 4.546875 107.113281 5.152344 107.886719 5.992188 C 108.289062 6.4375 109.839844 7.820312 110.09375 7.964844 C 110.148438 7.992188 110.238281 7.898438 110.378906 7.671875 C 110.601562 7.308594 110.921875 6.945312 111.226562 6.71875 L 111.425781 6.566406 L 110.988281 6.390625 C 110.121094 6.035156 109.304688 5.414062 108.53125 4.519531 C 107.65625 3.496094 107.050781 2.449219 106.769531 1.480469 C 106.6875 1.199219 106.617188 0.964844 106.605469 0.964844 C 106.597656 0.960938 106.359375 1.011719 106.070312 1.089844 Z M 106.070312 1.089844 "/>
<path style=" stroke:none;fill-rule:nonzero;fill:rgb(0%,0%,0%);fill-opacity:1;" d="M 125.511719 1.117188 C 124.761719 1.414062 122.851562 1.746094 121.246094 1.859375 C 120.851562 1.890625 120.515625 1.921875 120.5 1.941406 C 120.480469 1.957031 120.492188 2.78125 120.535156 3.777344 C 120.6875 7.863281 120.425781 9.960938 119.558594 11.734375 C 119.261719 12.339844 119.015625 12.6875 118.558594 13.160156 L 118.25 13.480469 L 118.609375 13.65625 C 118.8125 13.753906 119.144531 13.953125 119.347656 14.113281 C 119.550781 14.265625 119.738281 14.371094 119.761719 14.347656 C 120.0625 13.996094 120.824219 12.578125 121.078125 11.917969 C 121.480469 10.828125 121.871094 8.425781 121.871094 6.96875 L 121.871094 6.546875 L 124.15625 6.546875 L 124.136719 10.4375 L 124.121094 14.324219 L 125.464844 14.324219 L 125.445312 10.425781 L 125.425781 6.53125 L 126.480469 6.566406 L 127.539062 6.597656 L 127.539062 5.410156 L 124.703125 5.425781 L 121.871094 5.449219 L 121.871094 4.214844 C 121.871094 2.988281 121.871094 2.980469 122.007812 2.953125 C 122.292969 2.894531 125.398438 2.621094 126.175781 2.589844 L 127 2.554688 L 126.695312 2.113281 C 126.527344 1.859375 126.300781 1.496094 126.1875 1.296875 C 126.085938 1.097656 125.980469 0.933594 125.960938 0.941406 C 125.945312 0.945312 125.746094 1.023438 125.511719 1.117188 Z M 125.511719 1.117188 "/>
<path style=" stroke:none;fill-rule:nonzero;fill:rgb(0%,0%,0%);fill-opacity:1;" d="M 90.082031 1.210938 C 90.082031 1.234375 90.082031 2.269531 90.085938 3.496094 L 90.09375 5.742188 L 88.109375 5.71875 L 86.117188 5.699219 L 86.117188 6.960938 L 88.101562 6.921875 L 90.09375 6.882812 L 90.078125 10.746094 L 90.0625 14.617188 L 91.402344 14.617188 L 91.378906 10.746094 L 91.363281 6.882812 L 93.203125 6.910156 L 95.042969 6.945312 L 95.050781 6.320312 L 95.050781 5.699219 L 93.203125 5.722656 L 91.359375 5.742188 L 91.378906 3.472656 L 91.402344 1.199219 L 90.75 1.179688 C 90.386719 1.175781 90.085938 1.1875 90.082031 1.210938 Z M 90.082031 1.210938 "/>
<path style=" stroke:none;fill-rule:nonzero;fill:rgb(0%,0%,0%);fill-opacity:1;" d="M 101.949219 1.964844 C 101.304688 3.1875 100.863281 3.875 100.132812 4.769531 C 99.5625 5.472656 98.386719 6.511719 97.671875 6.953125 C 97.550781 7.019531 97.453125 7.105469 97.453125 7.121094 C 97.457031 7.144531 97.636719 7.273438 97.859375 7.414062 C 98.082031 7.554688 98.394531 7.789062 98.558594 7.933594 L 98.859375 8.203125 L 99.039062 8.035156 C 100.050781 7.078125 101.644531 5.082031 102.882812 3.214844 C 103.089844 2.914062 103.390625 2.484375 103.5625 2.273438 L 103.867188 1.890625 L 103.539062 1.753906 C 103.355469 1.683594 103.019531 1.519531 102.785156 1.398438 L 102.367188 1.175781 Z M 101.949219 1.964844 "/>
<path style=" stroke:none;fill-rule:nonzero;fill:rgb(0%,0%,0%);fill-opacity:1;" d="M 50.589844 1.265625 C 50.589844 1.296875 50.589844 2.8125 50.597656 4.648438 C 50.601562 8.167969 50.554688 9.378906 50.355469 10.472656 C 50.148438 11.671875 49.679688 12.839844 49.097656 13.628906 L 48.847656 13.960938 L 49.328125 14.210938 C 49.589844 14.34375 49.875 14.503906 49.964844 14.566406 C 50.046875 14.625 50.140625 14.675781 50.167969 14.675781 C 50.269531 14.675781 51.050781 12.972656 51.296875 12.230469 C 51.527344 11.539062 51.769531 10.472656 51.851562 9.75 L 51.890625 9.414062 L 55.171875 9.414062 L 55.140625 11.753906 L 55.113281 14.09375 L 56.527344 14.09375 L 56.507812 11.753906 L 56.484375 9.414062 L 60 9.414062 L 60 10.828125 C 60 12.898438 60.007812 12.882812 59.042969 12.910156 C 58.667969 12.925781 58.367188 12.957031 58.367188 12.976562 C 58.367188 13.003906 58.429688 13.167969 58.511719 13.335938 C 58.585938 13.511719 58.699219 13.84375 58.753906 14.078125 L 58.855469 14.503906 L 59.089844 14.46875 C 59.5 14.40625 60.421875 14.144531 60.65625 14.027344 C 60.894531 13.902344 61.109375 13.644531 61.234375 13.328125 C 61.300781 13.160156 61.320312 12.054688 61.34375 7.222656 C 61.363281 3.96875 61.367188 1.296875 61.359375 1.265625 C 61.34375 1.246094 58.917969 1.226562 55.964844 1.226562 C 53.011719 1.226562 50.597656 1.246094 50.589844 1.265625 Z M 55.152344 3.625 L 55.152344 4.851562 L 51.878906 4.851562 L 51.878906 2.398438 L 55.152344 2.398438 Z M 60 3.625 L 60 4.851562 L 56.496094 4.851562 L 56.496094 2.398438 L 60 2.398438 Z M 55.152344 7.132812 L 55.152344 8.300781 L 51.878906 8.300781 L 51.878906 5.964844 L 55.152344 5.964844 Z M 60 7.132812 L 60 8.300781 L 56.496094 8.300781 L 56.496094 5.964844 L 60 5.964844 Z M 60 7.132812 "/>
<path style=" stroke:none;fill-rule:nonzero;fill:rgb(0%,0%,0%);fill-opacity:1;" d="M 83.347656 1.578125 C 83.023438 1.769531 82.757812 1.941406 82.75 1.945312 C 82.738281 1.957031 83.058594 2.46875 83.445312 3.082031 C 83.835938 3.695312 84.195312 4.25 84.234375 4.320312 C 84.308594 4.445312 84.308594 4.445312 84.613281 4.25 C 84.777344 4.136719 85.058594 3.980469 85.230469 3.886719 C 85.398438 3.792969 85.527344 3.695312 85.515625 3.660156 C 85.496094 3.625 85.164062 3.101562 84.765625 2.507812 C 84.371094 1.910156 84.019531 1.378906 83.984375 1.328125 C 83.933594 1.242188 83.855469 1.265625 83.347656 1.578125 Z M 83.347656 1.578125 "/>
<path style=" stroke:none;fill-rule:nonzero;fill:rgb(0%,0%,0%);fill-opacity:1;" d="M 21.5 3.71875 C 21.5 3.832031 20.914062 5.6875 20.863281 5.746094 C 20.839844 5.769531 20.375 5.785156 19.828125 5.777344 L 18.84375 5.757812 L 19.25 5.617188 C 19.480469 5.542969 19.683594 5.460938 19.710938 5.4375 C 19.753906 5.398438 19.074219 3.765625 18.996094 3.71875 C 18.976562 3.707031 18.730469 3.800781 18.449219 3.929688 L 17.941406 4.164062 L 18.082031 4.4375 C 18.210938 4.695312 18.636719 5.722656 18.636719 5.777344 C 18.636719 5.792969 18.203125 5.792969 17.671875 5.777344 L 16.710938 5.742188 L 16.710938 7.035156 L 18.285156 6.988281 L 19.867188 6.945312 L 19.867188 8.320312 L 18.433594 8.289062 L 17.003906 8.257812 L 17.003906 9.539062 L 18.433594 9.5 L 19.867188 9.453125 L 19.867188 11.148438 C 19.867188 12.71875 19.859375 12.851562 19.757812 12.9375 C 19.671875 13.019531 19.523438 13.039062 19.035156 13.039062 L 18.414062 13.039062 L 18.609375 13.40625 C 18.714844 13.605469 18.847656 13.921875 18.90625 14.113281 L 19.011719 14.453125 L 19.4375 14.417969 C 20.296875 14.335938 20.738281 14.121094 20.972656 13.652344 C 21.125 13.34375 21.132812 13.25 21.148438 9.859375 L 21.148438 9.453125 L 22.523438 9.5 L 23.894531 9.539062 L 23.894531 8.257812 L 22.511719 8.289062 L 21.121094 8.320312 L 21.136719 7.632812 L 21.15625 6.945312 L 22.574219 6.988281 L 24 7.035156 L 24.027344 6.570312 C 24.046875 6.3125 24.058594 6.027344 24.054688 5.933594 L 24.039062 5.757812 L 23.039062 5.785156 L 22.03125 5.796875 L 22.230469 5.300781 C 22.476562 4.699219 22.632812 4.40625 22.828125 4.199219 L 22.972656 4.046875 L 22.628906 3.949219 C 21.757812 3.683594 21.5 3.628906 21.5 3.71875 Z M 21.5 3.71875 "/>
<path style=" stroke:none;fill-rule:nonzero;fill:rgb(0%,0%,0%);fill-opacity:1;" d="M 36.183594 4.382812 L 35.703125 4.894531 L 35.855469 4.964844 C 36.089844 5.066406 37.238281 5.957031 37.757812 6.425781 C 38.011719 6.652344 38.234375 6.839844 38.257812 6.839844 C 38.277344 6.839844 38.351562 6.746094 38.414062 6.628906 C 38.476562 6.511719 38.683594 6.277344 38.871094 6.109375 L 39.210938 5.796875 L 38.695312 5.398438 C 38.179688 4.988281 36.832031 3.96875 36.71875 3.90625 C 36.691406 3.886719 36.445312 4.105469 36.183594 4.382812 Z M 36.183594 4.382812 "/>
<path style=" stroke:none;fill-rule:nonzero;fill:rgb(0%,0%,0%);fill-opacity:1;" d="M 39.75 5.109375 C 39.792969 6.15625 39.71875 8.421875 39.632812 8.746094 L 39.601562 8.894531 L 33.128906 8.855469 L 33.128906 10.121094 L 36.222656 10.082031 C 38.414062 10.050781 39.320312 10.054688 39.320312 10.097656 C 39.320312 10.316406 38.238281 11.4375 37.671875 11.808594 C 36.867188 12.335938 35.359375 12.902344 33.96875 13.191406 L 33.199219 13.347656 L 33.566406 13.6875 C 33.769531 13.878906 34 14.171875 34.09375 14.351562 C 34.292969 14.738281 34.222656 14.738281 35.40625 14.324219 C 37.21875 13.679688 38.109375 13.210938 39.113281 12.378906 C 39.816406 11.792969 40.195312 11.300781 40.832031 10.171875 C 40.871094 10.097656 41.226562 10.085938 43.578125 10.097656 L 46.273438 10.109375 L 46.273438 8.855469 L 43.644531 8.875 C 41.617188 8.894531 41.011719 8.882812 41.011719 8.824219 C 41.011719 8.34375 41.210938 5.320312 41.277344 4.882812 C 41.363281 4.234375 41.359375 4.214844 41.011719 4.210938 C 40.902344 4.210938 40.5625 4.15625 40.261719 4.097656 L 39.710938 3.992188 Z M 39.75 5.109375 "/>
<path style=" stroke:none;fill-rule:nonzero;fill:rgb(0%,0%,0%);fill-opacity:1;" d="M 81.265625 6.34375 L 81.265625 7.035156 L 81.636719 7 C 81.832031 6.976562 82.320312 6.941406 82.714844 6.921875 L 83.433594 6.882812 L 83.417969 9.59375 C 83.394531 12.566406 83.402344 12.507812 83.019531 13.15625 L 82.867188 13.417969 L 83.335938 13.746094 C 83.597656 13.925781 83.863281 14.132812 83.921875 14.203125 C 83.984375 14.265625 84.046875 14.324219 84.070312 14.324219 C 84.09375 14.324219 84.28125 14.101562 84.480469 13.828125 C 84.679688 13.550781 85.058594 13.097656 85.320312 12.816406 C 85.585938 12.535156 86.058594 12.023438 86.367188 11.671875 L 86.933594 11.03125 L 86.726562 10.757812 C 86.613281 10.601562 86.460938 10.34375 86.390625 10.171875 L 86.257812 9.871094 L 85.476562 10.757812 L 84.710938 11.652344 L 84.726562 8.695312 L 84.742188 5.730469 L 83.363281 5.730469 C 82.605469 5.730469 81.820312 5.710938 81.625 5.695312 L 81.265625 5.652344 Z M 81.265625 6.34375 "/>
<path style=" stroke:none;fill-rule:nonzero;fill:rgb(0%,0%,0%);fill-opacity:1;" d="M 138.679688 6.792969 C 138.664062 7.476562 138.617188 8.136719 138.550781 8.476562 C 138.195312 10.441406 137.132812 12.191406 135.648438 13.246094 C 135.378906 13.429688 135.140625 13.605469 135.117188 13.628906 C 135.085938 13.644531 135.191406 13.746094 135.347656 13.839844 C 135.625 14.015625 136.1875 14.539062 136.1875 14.628906 C 136.1875 14.773438 136.414062 14.601562 136.980469 14.015625 C 138.148438 12.820312 138.648438 12.078125 139.164062 10.804688 C 139.316406 10.417969 139.457031 10.097656 139.46875 10.085938 C 139.480469 10.070312 139.550781 10.238281 139.621094 10.460938 C 139.882812 11.265625 140.4375 12.226562 141.058594 12.9375 C 141.34375 13.273438 142.683594 14.441406 142.773438 14.441406 C 142.796875 14.441406 142.867188 14.351562 142.925781 14.242188 C 143.0625 13.996094 143.519531 13.523438 143.742188 13.414062 C 143.824219 13.367188 143.898438 13.316406 143.898438 13.300781 C 143.898438 13.289062 143.71875 13.179688 143.507812 13.0625 C 142.722656 12.628906 142.277344 12.300781 141.765625 11.78125 C 141.144531 11.15625 140.773438 10.558594 140.476562 9.742188 C 140.152344 8.835938 140.082031 8.285156 140.113281 6.953125 L 140.140625 5.804688 L 139.582031 5.765625 C 139.269531 5.746094 138.949219 5.710938 138.867188 5.695312 L 138.707031 5.660156 Z M 138.679688 6.792969 "/>
<path style=" stroke:none;fill-rule:nonzero;fill:rgb(0%,0%,0%);fill-opacity:1;" d="M 35.148438 6.285156 C 35.03125 6.464844 34.839844 6.71875 34.722656 6.84375 C 34.605469 6.976562 34.523438 7.085938 34.535156 7.101562 C 34.546875 7.105469 34.769531 7.210938 35.019531 7.328125 C 35.527344 7.566406 36.242188 8.042969 36.761719 8.488281 L 37.09375 8.777344 L 37.625 8.238281 C 37.914062 7.945312 38.148438 7.699219 38.148438 7.6875 C 38.148438 7.628906 35.480469 5.964844 35.386719 5.964844 C 35.375 5.964844 35.265625 6.109375 35.148438 6.285156 Z M 35.148438 6.285156 "/>
<path style=" stroke:none;fill-rule:nonzero;fill:rgb(0%,0%,0%);fill-opacity:1;" d="M 199.269531 6.335938 C 199.058594 6.511719 198.871094 6.6875 198.84375 6.722656 C 198.820312 6.757812 198.921875 6.941406 199.066406 7.121094 C 199.347656 7.484375 199.867188 8.269531 199.867188 8.335938 C 199.867188 8.378906 198.703125 8.324219 198.335938 8.269531 L 198.113281 8.226562 L 198.113281 9.46875 L 199.574219 9.4375 L 201.035156 9.394531 L 201.035156 10.484375 L 199.59375 10.441406 C 198.792969 10.417969 198.03125 10.390625 197.898438 10.375 L 197.648438 10.335938 L 197.648438 11.546875 L 199.351562 11.53125 L 201.050781 11.507812 L 201.019531 12.796875 L 200.984375 14.09375 L 202.296875 14.09375 L 202.273438 12.796875 L 202.25 11.511719 L 205.59375 11.546875 L 205.59375 10.417969 L 203.929688 10.453125 L 202.261719 10.484375 L 202.261719 9.394531 L 203.722656 9.429688 L 205.183594 9.460938 L 205.183594 8.320312 L 204.25 8.351562 C 203.734375 8.367188 203.3125 8.363281 203.3125 8.335938 C 203.3125 8.320312 203.425781 8.097656 203.566406 7.851562 C 203.839844 7.355469 204.09375 7.070312 204.359375 6.953125 C 204.457031 6.902344 204.539062 6.859375 204.539062 6.839844 C 204.539062 6.816406 203.25 6.214844 203.128906 6.179688 C 203.105469 6.175781 202.921875 6.496094 202.730469 6.898438 C 202.535156 7.300781 202.273438 7.792969 202.144531 7.992188 L 201.917969 8.363281 L 200.011719 8.363281 L 200.304688 8.15625 C 200.9375 7.710938 200.902344 7.753906 200.789062 7.566406 C 200.632812 7.289062 199.722656 6.023438 199.6875 6.023438 C 199.667969 6.023438 199.484375 6.167969 199.269531 6.335938 Z M 199.269531 6.335938 "/>
<path style=" stroke:none;fill-rule:nonzero;fill:rgb(0%,0%,0%);fill-opacity:1;" d="M 0.464844 6.652344 L 0.464844 7.203125 L 1.285156 7.164062 L 2.105469 7.113281 L 2.09375 9.625 L 2.074219 12.132812 L 1.8125 12.171875 C 1.664062 12.191406 1.332031 12.214844 1.070312 12.21875 C 0.714844 12.230469 0.582031 12.253906 0.582031 12.3125 C 0.582031 12.351562 0.679688 12.648438 0.789062 12.964844 C 0.90625 13.277344 1.007812 13.5625 1.023438 13.605469 C 1.039062 13.65625 1.097656 13.65625 1.238281 13.617188 C 2.132812 13.355469 4.699219 12.765625 5.453125 12.660156 L 5.726562 12.617188 L 5.726562 14.324219 L 6.984375 14.324219 L 6.984375 12.425781 L 7.351562 12.375 L 7.710938 12.3125 L 7.710938 11.742188 C 7.710938 11.425781 7.695312 11.167969 7.671875 11.167969 C 7.640625 11.167969 7.496094 11.207031 7.339844 11.253906 C 7.179688 11.300781 7.027344 11.34375 7 11.34375 C 6.976562 11.34375 6.953125 10.390625 6.953125 9.230469 L 6.953125 7.121094 L 10.3125 7.144531 L 13.671875 7.164062 L 13.671875 6.109375 L 0.464844 6.109375 Z M 5.726562 7.601562 L 5.726562 8.070312 L 3.332031 8.070312 L 3.332031 7.132812 L 5.726562 7.132812 Z M 5.726562 9.5 L 5.726562 9.9375 L 3.332031 9.9375 L 3.332031 9.0625 L 5.726562 9.0625 Z M 5.695312 11.253906 L 5.695312 11.605469 L 4.617188 11.765625 C 4.019531 11.84375 3.488281 11.921875 3.433594 11.921875 C 3.34375 11.929688 3.332031 11.863281 3.332031 11.402344 L 3.332031 10.875 L 4.515625 10.886719 L 5.695312 10.90625 Z M 5.695312 11.253906 "/>
<path style=" stroke:none;fill-rule:nonzero;fill:rgb(0%,0%,0%);fill-opacity:1;" d="M 100.371094 7.40625 L 100.371094 8.011719 L 102.359375 8.011719 L 102.328125 8.167969 C 102.316406 8.261719 102.269531 8.53125 102.234375 8.769531 C 102.023438 10.132812 101.539062 11.0625 100.664062 11.78125 C 100.140625 12.214844 99.476562 12.597656 98.71875 12.921875 C 98.375 13.070312 98.09375 13.203125 98.09375 13.21875 C 98.09375 13.246094 98.199219 13.328125 98.328125 13.417969 C 98.570312 13.589844 98.996094 14.019531 99.148438 14.265625 L 99.242188 14.410156 L 99.621094 14.183594 C 101.769531 12.867188 102.625 11.992188 103.152344 10.582031 C 103.328125 10.113281 103.585938 9.003906 103.675781 8.285156 L 103.707031 8.011719 L 105.152344 8.003906 C 105.945312 8.003906 106.632812 7.992188 106.6875 7.980469 C 106.945312 7.933594 106.945312 7.96875 106.722656 10.050781 C 106.5 12.101562 106.425781 12.449219 106.195312 12.558594 C 106.125 12.59375 105.699219 12.632812 105.25 12.652344 C 104.800781 12.671875 104.425781 12.679688 104.417969 12.679688 C 104.414062 12.6875 104.515625 12.890625 104.636719 13.140625 C 104.761719 13.394531 104.914062 13.765625 104.964844 13.960938 C 105.023438 14.160156 105.082031 14.324219 105.105469 14.324219 C 105.207031 14.324219 106.820312 13.902344 106.984375 13.839844 C 107.265625 13.714844 107.539062 13.40625 107.675781 13.0625 C 107.75 12.84375 107.867188 12.050781 108.054688 10.394531 C 108.199219 9.097656 108.355469 7.777344 108.40625 7.457031 C 108.453125 7.136719 108.480469 6.871094 108.476562 6.863281 C 108.46875 6.859375 106.640625 6.839844 104.417969 6.828125 L 100.371094 6.804688 Z M 100.371094 7.40625 "/>
<path style=" stroke:none;fill-rule:nonzero;fill:rgb(0%,0%,0%);fill-opacity:1;" d="M 118.21875 7.046875 C 117.960938 7.191406 117.730469 7.3125 117.695312 7.328125 C 117.664062 7.335938 117.695312 7.457031 117.769531 7.578125 C 117.847656 7.699219 118.109375 8.214844 118.355469 8.710938 L 118.804688 9.625 L 119.15625 9.378906 C 119.347656 9.238281 119.605469 9.078125 119.726562 9.027344 C 119.84375 8.976562 119.945312 8.90625 119.945312 8.882812 C 119.945312 8.835938 119.632812 8.257812 119.050781 7.203125 C 118.921875 6.976562 118.785156 6.78125 118.75 6.789062 C 118.71875 6.789062 118.476562 6.902344 118.21875 7.046875 Z M 118.21875 7.046875 "/>
<path style=" stroke:none;fill-rule:nonzero;fill:rgb(0%,0%,0%);fill-opacity:1;" d="M 184.285156 8.695312 C 184.3125 9.238281 184.320312 10.773438 184.304688 12.113281 L 184.273438 14.558594 L 185.609375 14.558594 L 185.609375 13.445312 L 189.644531 13.445312 L 189.644531 14.382812 L 190.960938 14.382812 L 190.960938 7.71875 L 184.238281 7.71875 Z M 189.644531 9.414062 L 189.644531 9.996094 L 185.609375 9.996094 L 185.609375 8.828125 L 189.644531 8.828125 Z M 189.644531 11.722656 L 189.644531 12.335938 L 185.609375 12.335938 L 185.609375 11.109375 L 189.644531 11.109375 Z M 189.644531 11.722656 "/>
<path style=" stroke:none;fill-rule:nonzero;fill:rgb(0%,0%,0%);fill-opacity:1;" d="M 7.359375 8.558594 L 7.359375 9.121094 L 7.863281 9.121094 L 7.976562 9.539062 C 8.21875 10.511719 8.578125 11.25 9.101562 11.863281 L 9.371094 12.179688 L 8.96875 12.554688 C 8.582031 12.914062 7.769531 13.375 7.34375 13.480469 C 7.257812 13.5 7.1875 13.542969 7.199219 13.5625 C 7.210938 13.589844 7.417969 13.820312 7.671875 14.09375 L 8.121094 14.570312 L 8.285156 14.464844 C 8.675781 14.214844 9.527344 13.546875 9.886719 13.21875 L 10.269531 12.863281 L 10.902344 13.207031 C 11.488281 13.535156 12.1875 13.84375 12.894531 14.09375 L 13.199219 14.203125 L 13.265625 13.988281 C 13.304688 13.871094 13.4375 13.578125 13.558594 13.347656 C 13.785156 12.925781 13.785156 12.921875 13.660156 12.898438 C 13.585938 12.882812 13.304688 12.820312 13.035156 12.769531 C 12.378906 12.648438 11.730469 12.429688 11.335938 12.210938 C 11.160156 12.105469 11.007812 12.027344 10.996094 12.015625 C 10.988281 12.007812 11.101562 11.792969 11.246094 11.535156 C 11.671875 10.785156 12.277344 9.164062 12.472656 8.257812 L 12.515625 8.070312 L 10.292969 8.070312 C 9.078125 8.070312 7.914062 8.050781 7.71875 8.035156 L 7.359375 7.992188 Z M 11.042969 9.109375 C 11.042969 9.246094 10.65625 10.261719 10.453125 10.671875 C 10.109375 11.347656 10.082031 11.367188 9.84375 11.078125 C 9.4375 10.59375 9.085938 9.863281 8.976562 9.246094 L 8.945312 9.0625 L 9.992188 9.0625 C 10.570312 9.0625 11.042969 9.085938 11.042969 9.109375 Z M 11.042969 9.109375 "/>
<path style=" stroke:none;fill-rule:nonzero;fill:rgb(0%,0%,0%);fill-opacity:1;" d="M 18.082031 10.296875 C 17.65625 11.015625 17.394531 11.390625 16.835938 12.066406 L 16.453125 12.535156 L 16.597656 12.621094 C 16.671875 12.675781 16.902344 12.855469 17.105469 13.027344 C 17.3125 13.203125 17.484375 13.328125 17.492188 13.316406 C 17.738281 13.015625 19.632812 10.449219 19.621094 10.441406 C 19.605469 10.429688 19.457031 10.34375 19.28125 10.238281 C 19.105469 10.125 18.847656 9.949219 18.714844 9.847656 L 18.46875 9.644531 Z M 18.082031 10.296875 "/>
<path style=" stroke:none;fill-rule:nonzero;fill:rgb(0%,0%,0%);fill-opacity:1;" d="M 21.878906 10.121094 C 21.65625 10.277344 21.449219 10.4375 21.417969 10.464844 C 21.390625 10.496094 21.496094 10.710938 21.675781 11.003906 C 21.84375 11.273438 22.132812 11.757812 22.308594 12.089844 L 22.621094 12.691406 L 22.925781 12.40625 C 23.089844 12.253906 23.3125 12.074219 23.414062 12.015625 C 23.515625 11.949219 23.605469 11.875 23.605469 11.839844 C 23.605469 11.757812 22.347656 9.816406 22.300781 9.820312 C 22.296875 9.828125 22.105469 9.957031 21.878906 10.121094 Z M 21.878906 10.121094 "/>
<path style=" stroke:none;fill-rule:nonzero;fill:rgb(0%,0%,0%);fill-opacity:1;" d="M 40.984375 11.324219 C 40.773438 11.609375 40.605469 11.851562 40.605469 11.867188 C 40.605469 11.886719 41.175781 12.234375 41.878906 12.660156 C 42.574219 13.078125 43.539062 13.675781 44.015625 13.992188 C 44.722656 14.457031 44.898438 14.554688 44.957031 14.488281 C 45.324219 14.085938 45.929688 13.375 45.914062 13.367188 C 45.875 13.335938 43 11.6875 42.210938 11.242188 C 41.796875 11.007812 41.433594 10.816406 41.402344 10.816406 C 41.382812 10.816406 41.195312 11.046875 40.984375 11.324219 Z M 40.984375 11.324219 "/>
<path style=" stroke:none;fill-rule:nonzero;fill:rgb(0%,0%,0%);fill-opacity:1;" d="M 69.359375 11.375 C 68.164062 11.773438 67.296875 11.992188 66.105469 12.191406 C 65.59375 12.277344 65.113281 12.359375 65.042969 12.375 C 64.914062 12.394531 64.914062 12.398438 65.113281 12.742188 C 65.226562 12.925781 65.386719 13.25 65.476562 13.453125 C 65.558594 13.65625 65.632812 13.832031 65.640625 13.84375 C 65.644531 13.851562 65.832031 13.773438 66.050781 13.675781 C 66.644531 13.40625 66.929688 13.3125 68.675781 12.828125 C 69.546875 12.585938 70.300781 12.378906 70.359375 12.359375 C 70.445312 12.332031 70.460938 12.25 70.460938 11.6875 C 70.460938 11.214844 70.441406 11.050781 70.390625 11.058594 C 70.347656 11.0625 69.886719 11.203125 69.359375 11.375 Z M 69.359375 11.375 "/>
</g>
</svg>
