<?xml version="1.0" standalone="no"?>
<!DOCTYPE svg PUBLIC "-//W3C//DTD SVG 20010904//EN"
 "http://www.w3.org/TR/2001/REC-SVG-20010904/DTD/svg10.dtd">
<svg version="1.0" xmlns="http://www.w3.org/2000/svg"
 width="940.000000pt" height="129.000000pt" viewBox="0 0 940.000000 129.000000"
 preserveAspectRatio="xMidYMid meet">

<g transform="translate(0.000000,129.000000) scale(0.100000,-0.100000)"
fill="#000000" stroke="none">
<path d="M1955 1230 c-9 -14 11 -43 72 -107 50 -54 85 -67 111 -41 17 17 15
70 -4 97 -32 45 -160 81 -179 51z"/>
<path d="M3383 1214 c-3 -8 0 -27 8 -41 9 -17 14 -64 14 -147 l0 -121 -67 -35
c-100 -51 -86 -84 17 -40 26 11 48 20 50 20 2 0 6 -18 10 -40 9 -53 43 -101
85 -122 67 -34 248 -19 286 23 18 20 16 40 -12 177 -8 38 -24 21 -47 -48 -26
-78 -45 -90 -138 -90 -88 0 -110 17 -117 88 -3 32 -1 52 6 52 5 0 64 36 131
81 80 53 121 87 121 99 0 19 -60 70 -84 70 -8 0 -20 -16 -26 -35 -12 -36 -142
-165 -148 -146 -3 8 4 61 25 193 5 37 4 38 -38 58 -53 24 -68 25 -76 4z"/>
<path d="M390 1206 c0 -7 9 -33 19 -57 11 -24 23 -79 27 -121 l7 -77 -39 -10
c-22 -5 -56 -13 -77 -17 -87 -15 -45 -58 51 -51 l62 5 0 -49 c0 -47 -1 -48
-37 -58 -77 -20 -192 -41 -262 -47 -39 -4 -74 -11 -78 -16 -11 -19 34 -50 79
-55 32 -4 70 3 141 26 110 35 132 38 141 15 7 -17 8 -224 2 -224 -6 0 -100 40
-104 45 -2 2 4 17 12 33 19 37 13 58 -25 77 -47 25 -56 20 -61 -35 -8 -78 -70
-194 -145 -268 -80 -81 -83 -103 -10 -66 57 29 116 84 159 147 22 34 42 64 44
65 5 7 160 -67 249 -119 50 -28 149 -81 220 -117 163 -82 194 -85 360 -28 117
40 159 61 150 76 -4 6 -74 10 -163 10 -226 0 -308 17 -524 108 l-88 37 0 68 0
67 38 1 c86 2 142 46 88 70 -25 12 -56 7 -113 -17 -9 -4 -12 7 -10 38 0 24 -2
50 -6 59 -7 13 5 19 73 32 97 20 112 27 100 47 -10 16 -82 20 -138 8 l-33 -8
3 47 3 46 65 22 c50 17 66 27 68 43 3 17 -3 21 -30 24 -18 2 -48 0 -67 -4
l-34 -7 8 72 c14 133 15 129 -35 155 -50 25 -90 29 -90 8z"/>
<path d="M4716 1198 c-3 -7 -7 -39 -9 -71 -13 -138 -211 -405 -409 -551 -73
-53 -97 -86 -64 -86 8 0 49 18 91 39 146 76 307 235 406 401 23 38 45 68 49
65 4 -2 47 -60 95 -127 136 -190 194 -259 231 -274 47 -20 267 -20 283 0 15
17 19 15 -117 75 -60 26 -135 65 -166 86 -65 43 -192 167 -256 250 l-42 55 26
31 c31 37 25 56 -32 94 -39 27 -80 33 -86 13z"/>
<path d="M3170 1164 c0 -68 -74 -190 -202 -336 -32 -36 -54 -69 -49 -73 19
-11 92 36 158 102 l66 66 -6 -141 c-8 -151 -1 -192 32 -192 30 0 41 51 41 197
0 107 -3 141 -16 163 -16 27 -16 29 16 76 18 27 45 62 59 77 l26 28 -37 35
c-22 20 -48 34 -63 34 -22 0 -25 -4 -25 -36z"/>
<path d="M9160 1159 c-118 -28 -462 -80 -637 -95 -46 -3 -83 -10 -83 -14 0
-13 36 -40 68 -51 30 -10 66 -5 286 38 l29 5 -6 -53 c-3 -30 -13 -71 -22 -93
l-16 -39 -64 7 c-69 7 -83 0 -65 -35 15 -28 15 -210 0 -274 -20 -81 -11 -144
24 -167 20 -13 27 -9 43 30 12 27 18 85 22 211 l6 175 30 7 c50 13 267 38 281
32 8 -3 17 -16 20 -29 5 -20 7 -191 3 -337 -1 -49 34 -92 62 -77 33 18 42 73
34 226 -7 136 -6 146 14 180 12 20 20 42 17 49 -2 7 -25 24 -51 40 -54 31 -56
31 -283 -20 -21 -5 -22 -4 -11 17 6 13 27 42 45 65 38 46 42 67 17 82 -25 14
38 21 255 29 145 6 185 11 192 22 15 23 8 33 -40 58 -46 23 -105 27 -170 11z"/>
<path d="M7773 1125 c-23 -7 -155 -26 -293 -41 -215 -24 -258 -26 -297 -15
-60 15 -72 5 -53 -47 29 -77 12 -491 -25 -622 -26 -91 -29 -132 -12 -173 18
-42 40 -47 61 -14 31 47 49 194 66 557 6 118 13 216 16 219 5 6 176 26 373 45
160 15 192 12 210 -22 15 -28 31 -468 21 -600 -4 -62 -12 -118 -18 -124 -9 -9
-26 -8 -63 0 -29 7 -55 10 -58 7 -12 -13 122 -185 144 -185 19 0 59 55 81 109
16 41 17 65 4 371 -13 329 -12 344 17 413 16 36 16 38 -8 63 -27 29 -75 59
-104 67 -11 3 -39 -1 -62 -8z"/>
<path d="M6087 1113 c-4 -3 -5 -34 -1 -67 4 -50 1 -76 -21 -140 -79 -240 -236
-456 -415 -571 -73 -48 -94 -83 -42 -71 47 11 144 64 216 118 80 60 159 152
221 258 24 41 48 81 52 88 6 9 36 -26 98 -110 163 -224 283 -367 312 -374 14
-4 80 -2 146 3 165 15 181 36 54 74 -132 39 -214 86 -311 179 -48 47 -128 133
-177 191 l-88 106 30 79 c17 43 41 97 54 120 22 37 23 43 9 63 -27 39 -117 74
-137 54z"/>
<path d="M927 1103 c-4 -3 -4 -23 -1 -43 6 -37 -24 -167 -49 -217 -13 -24 -14
-23 -88 69 -71 89 -109 118 -109 84 0 -16 46 -96 116 -201 l36 -54 -66 -100
c-36 -55 -89 -124 -116 -154 -28 -30 -50 -60 -50 -66 0 -52 184 107 243 211
12 21 24 38 27 38 3 0 35 -55 71 -122 49 -93 70 -124 87 -126 16 -3 25 4 33
24 21 57 7 89 -124 272 l-28 40 71 142 c69 138 70 143 53 162 -32 36 -90 58
-106 41z"/>
<path d="M2304 1050 c-59 -12 -577 -69 -690 -77 -52 -3 -98 -11 -101 -16 -9
-15 33 -45 74 -53 22 -4 84 2 157 14 210 37 304 45 553 47 255 1 280 5 257 43
-28 46 -136 64 -250 42z"/>
<path d="M7659 938 c-1 -7 0 -28 1 -46 2 -44 -9 -124 -20 -142 -7 -12 -19 -5
-60 35 -38 37 -53 46 -62 37 -11 -11 -12 -11 68 -123 l25 -37 -36 -73 c-21
-41 -55 -97 -76 -126 -43 -58 -48 -73 -21 -73 22 0 98 78 144 148 39 59 40 59
81 -24 32 -64 51 -81 72 -64 35 29 13 107 -52 186 l-34 42 36 98 c19 55 35
107 35 116 0 35 -98 79 -101 46z"/>
<path d="M7417 923 c-3 -5 -5 -30 -6 -58 0 -27 -6 -67 -14 -89 l-13 -39 -48
57 c-47 54 -76 71 -76 42 0 -8 20 -47 45 -87 25 -40 45 -79 45 -86 0 -17 -51
-119 -101 -201 -22 -35 -39 -68 -39 -73 0 -41 99 54 150 145 18 31 34 56 36
56 2 0 15 -25 29 -55 18 -41 29 -55 44 -55 45 0 40 84 -9 155 l-30 44 40 93
c22 51 40 99 40 106 0 13 -57 52 -77 52 -6 0 -14 -3 -16 -7z"/>
<path d="M2167 874 c-8 -9 -68 -22 -199 -44 -91 -15 -125 -17 -149 -8 -49 17
-58 -2 -27 -59 23 -43 44 -104 62 -185 7 -31 40 -39 50 -12 4 11 16 14 43 12
47 -4 51 -16 52 -164 1 -138 -6 -152 -70 -136 -24 6 -48 7 -52 3 -5 -5 11 -38
35 -73 24 -36 48 -73 54 -83 17 -30 59 -12 89 38 24 42 25 49 25 225 0 110 -4
183 -10 187 -23 14 -6 23 60 29 82 8 101 22 93 69 -4 30 0 38 41 74 25 22 46
47 46 56 0 32 -121 93 -143 71z m3 -88 c0 -29 -32 -102 -49 -113 -23 -15 -173
-46 -198 -41 -12 2 -20 20 -29 68 -6 36 -11 66 -10 67 4 5 263 39 274 35 6 -2
12 -10 12 -16z"/>
<path d="M4704 795 c-4 -9 0 -30 7 -48 19 -43 18 -363 -1 -467 -16 -93 -15
-134 8 -180 22 -45 53 -51 73 -13 10 21 15 97 19 323 3 162 9 301 13 308 15
23 -5 54 -46 73 -51 23 -66 24 -73 4z"/>
<path d="M8862 761 c-10 -6 -10 -17 -1 -54 10 -34 10 -60 2 -104 -35 -186
-130 -306 -325 -412 -37 -20 -68 -42 -68 -50 0 -23 67 -6 167 44 181 90 263
199 304 405 28 141 28 142 -1 156 -41 19 -64 24 -78 15z"/>
<path d="M3345 670 c-3 -5 -1 -18 5 -29 5 -11 10 -40 10 -64 l0 -44 -47 -6
c-27 -3 -136 -13 -243 -22 -107 -9 -201 -19 -207 -21 -19 -5 -4 -33 28 -49 35
-19 96 -19 174 -1 33 8 103 19 155 26 52 6 105 12 116 14 21 3 21 1 21 -188 0
-195 8 -246 38 -246 28 0 38 54 44 245 l6 190 85 8 c47 4 160 6 251 3 175 -6
198 -1 178 35 -5 11 -22 25 -37 33 -51 26 -112 28 -257 7 -77 -12 -157 -21
-179 -21 l-38 0 6 54 7 53 -34 17 c-39 18 -73 21 -82 6z"/>
<path d="M1730 490 c-7 -16 -28 -51 -46 -77 -66 -93 -55 -176 21 -147 25 10
73 86 86 137 21 87 -30 162 -61 87z"/>
<path d="M2185 490 c-9 -15 182 -210 205 -210 27 0 40 22 40 71 0 56 -27 90
-95 120 -58 26 -139 36 -150 19z"/>
<path d="M8917 423 c-3 -5 62 -78 144 -163 127 -132 152 -153 167 -144 24 15
28 94 7 134 -21 41 -82 84 -192 136 -92 44 -118 51 -126 37z"/>
</g>
</svg>
